<svg xmlns="http://www.w3.org/2000/svg" xmlns:xlink="http://www.w3.org/1999/xlink" fill="none" version="1.1" width="24" height="24" viewBox="0 0 24 24"><defs><clipPath id="master_svg0_450_84047"><rect x="0" y="0" width="24" height="24" rx="0"/></clipPath><clipPath id="master_svg1_3105_3980"><rect x="0" y="0" width="24" height="24" rx="0"/></clipPath></defs><g clip-path="url(#master_svg0_450_84047)"><g clip-path="url(#master_svg1_3105_3980)"></g><g transform="matrix(-1,0,0,-1,40,28)"><g><g><path d="M28,20.5234L21.02422,14.159531C20.911577,14.0567654,20.766101,14,20.615385,14C20.275517,14,20,14.282768,20,14.631579C20,14.811982,20.0751679,14.983774,20.206545,15.10363L27.591160000000002,21.84047C27.82432,22.053179999999998,28.17568,22.053179999999998,28.408839999999998,21.84047L35.7929,15.10416L35.7929,15.10416C35.9248,14.983774,36,14.811982,36,14.631579C36,14.282768,35.7245,14,35.3846,14C35.2339,14,35.0884,14.0567654,34.9758,14.159531L34.9758,14.159531L28,20.5234Z" fill-rule="evenodd" fill="#38363C" fill-opacity="1"/></g></g></g></g></svg>