<svg xmlns="http://www.w3.org/2000/svg" xmlns:xlink="http://www.w3.org/1999/xlink" fill="none" version="1.1" width="24" height="24" viewBox="0 0 24 24"><defs><clipPath id="master_svg0_234_6201"><rect x="0" y="0" width="24" height="24" rx="0"/></clipPath><clipPath id="master_svg1_3105_3982"><rect x="0" y="0" width="24" height="24" rx="0"/></clipPath></defs><g clip-path="url(#master_svg0_234_6201)"><g clip-path="url(#master_svg1_3105_3982)"></g><g><g><g><path d="M12,16.5234L5.02422,10.159531C4.911577,10.0567654,4.766101,10,4.615385,10C4.275517,10,4,10.282768,4,10.631579C4,10.811982,4.0751679,10.983774,4.206545,11.10363L11.59116,17.84047C11.82432,18.053179999999998,12.17568,18.053179999999998,12.40884,17.84047L19.7929,11.10416L19.7929,11.10416C19.924799999999998,10.983774,20,10.811982,20,10.631579C20,10.282768,19.7245,10,19.3846,10C19.2339,10,19.0884,10.0567654,18.9758,10.159531L18.9758,10.159531L12,16.5234Z" fill-rule="evenodd" fill="#38363C" fill-opacity="1"/></g></g></g></g></svg>