<svg xmlns="http://www.w3.org/2000/svg" xmlns:xlink="http://www.w3.org/1999/xlink" fill="none" version="1.1" width="24" height="24" viewBox="0 0 24 24"><defs><clipPath id="master_svg0_3105_4207"><rect x="0" y="0" width="24" height="24" rx="0"/></clipPath><clipPath id="master_svg1_3338_02832"><rect x="2" y="2" width="20" height="20" rx="2"/></clipPath><clipPath id="master_svg2_3338_02833"><rect x="3.25" y="3.25" width="17.5" height="17.5" rx="0"/></clipPath></defs><g><g clip-path="url(#master_svg0_3105_4207)"></g><g clip-path="url(#master_svg1_3338_02832)"><g clip-path="url(#master_svg2_3338_02833)"><g><g><path d="M20.0208259765625,9.25892L17.5902259765625,9.25892L17.5902259765625,7.0336L13.5543959765625,3.25L3.9791259765625,3.25L3.9791259765625,20.75L17.5902259765625,20.75L17.5902259765625,18.1415L20.0208259765625,18.1415L20.0208259765625,9.25892ZM18.5624259765625,16.6832L8.3541259765625,16.6832L8.3541259765625,10.71725L18.5624259765625,10.71725L18.5624259765625,16.6832Z" fill="#0078D7" fill-opacity="1"/></g></g><g><path d="M11.68496337890625,12.955001525878906Q11.68496337890625,13.240001525878906,11.56746337890625,13.417501525878906Q11.44996337890625,13.595001525878907,11.17996337890625,13.675001525878907L11.17996337890625,13.695001525878906Q11.78996337890625,13.840001525878906,11.78996337890625,14.495001525878907Q11.78996337890625,14.825001525878907,11.67496337890625,15.045001525878906Q11.55996337890625,15.265001525878906,11.279963378906249,15.380001525878907Q10.99996337890625,15.495001525878907,10.51496337890625,15.495001525878907L9.27496337890625,15.495001525878907L9.27496337890625,12.025001525878906L10.41496337890625,12.025001525878906Q10.904963378906249,12.025001525878906,11.18246337890625,12.125001425878907Q11.45996337890625,12.225001525878906,11.57246337890625,12.427501525878906Q11.68496337890625,12.630001525878907,11.68496337890625,12.955001525878906ZM10.34996337890625,14.925001525878907Q10.644963378906251,14.925001525878907,10.79746337890625,14.885001525878906Q10.94996337890625,14.845001525878907,11.01496337890625,14.747501525878906Q11.07996337890625,14.650001525878906,11.07996337890625,14.455001525878906Q11.07996337890625,14.275001525878906,11.01496337890625,14.175001525878907Q10.94996337890625,14.075001525878907,10.79246337890625,14.030001525878905Q10.63496337890625,13.985001525878907,10.34996337890625,13.985001525878907L9.97996337890625,13.985001525878907L9.97996337890625,14.925001525878907L10.34996337890625,14.925001525878907ZM10.24996337890625,13.470001525878907Q10.529963378906249,13.470001525878907,10.68496337890625,13.435001525878906Q10.83996337890625,13.400001525878906,10.91496337890625,13.305001525878906Q10.98996337890625,13.210001525878907,10.98996337890625,13.025001525878906Q10.98996337890625,12.835001525878907,10.91746337890625,12.742501525878906Q10.84496337890625,12.650001525878906,10.69246337890625,12.620001525878907Q10.53996337890625,12.590001525878906,10.24996337890625,12.590001525878906L9.97996337890625,12.590001525878906L9.97996337890625,13.470001525878907L10.24996337890625,13.470001525878907ZM13.15996337890625,14.605001525878906L12.83996337890625,15.495001525878907L12.11496337890625,15.495001525878907L13.40996337890625,12.025001525878906L14.35496337890625,12.025001525878906L15.644963378906251,15.495001525878907L14.894963378906251,15.495001525878907L14.589963378906251,14.605001525878906L13.15996337890625,14.605001525878906ZM14.37996337890625,14.015001525878906L13.90996337890625,12.650001525878906L13.84996337890625,12.650001525878906L13.36496337890625,14.015001525878906L14.37996337890625,14.015001525878906ZM16.97996337890625,12.640001525878906L16.97996337890625,15.495001525878907L16.27496337890625,15.495001525878907L16.27496337890625,12.640001525878906L15.34996337890625,12.640001525878906L15.34996337890625,12.025001525878906L17.904963378906253,12.025001525878906L17.904963378906253,12.640001525878906L16.97996337890625,12.640001525878906Z" fill="#0078D7" fill-opacity="1"/></g></g></g></g></svg>