<svg xmlns="http://www.w3.org/2000/svg" xmlns:xlink="http://www.w3.org/1999/xlink" fill="none" version="1.1" width="24" height="24" viewBox="0 0 24 24"><defs><clipPath id="master_svg0_3105_4216"><rect x="0" y="0" width="24" height="24" rx="0"/></clipPath><clipPath id="master_svg1_3105_4219"><rect x="2" y="2" width="20" height="20" rx="2"/></clipPath><clipPath id="master_svg2_3125_4762"><rect x="3.25" y="3.25" width="17.5" height="17.5" rx="0"/></clipPath></defs><g><g clip-path="url(#master_svg0_3105_4216)"></g><g clip-path="url(#master_svg1_3105_4219)"><g clip-path="url(#master_svg2_3125_4762)"><g><g><path d="M20.02088701171875,9.25892L17.59028701171875,9.25892L17.59028701171875,7.0336L13.55445701171875,3.25L3.97918701171875,3.25L3.97918701171875,20.75L17.59028701171875,20.75L17.59028701171875,18.1415L20.02088701171875,18.1415L20.02088701171875,9.25892ZM18.56248701171875,16.6832L8.35418701171875,16.6832L8.35418701171875,10.71725L18.56248701171875,10.71725L18.56248701171875,16.6832Z" fill="#FF5B5B" fill-opacity="1"/></g><g><path d="M12.1469909375,15.160833662109376L13.4397109375,11.847503662109375L12.7630409375,11.847503662109375L11.8763809375,14.353553662109375L10.9803289375,11.847503662109375L10.3037109375,11.847503662109375L11.6057109375,15.160833662109376L12.1469909375,15.160833662109376Z" fill="#FF5B5B" fill-opacity="1"/></g><g><path d="M15.8080215234375,15.104905732421875C15.9370915234375,15.067525732421874,16.0506915234375,15.013135732421874,16.1487415234375,14.941575732421875C16.2467415234375,14.870015732421875,16.3237415234375,14.781355732421876,16.3797415234375,14.675575732421875C16.435691523437498,14.569795732421875,16.4636915234375,14.446905732421875,16.4636915234375,14.306905732421875C16.4636915234375,14.089135732421875,16.4084215234375,13.907905732421876,16.298021523437498,13.763195732421876C16.1875815234375,13.618525732421874,16.0374715234375,13.518195732421875,15.8476915234375,13.462245732421875C16.0032015234375,13.393845732421875,16.1214215234375,13.288845732421875,16.2023615234375,13.147245732421876C16.2832515234375,13.005735732421876,16.3236915234375,12.854065732421875,16.3236915234375,12.692242732421875C16.3236915234375,12.589625732421876,16.3057515234375,12.487736732421874,16.2700215234375,12.386625732421875C16.2342015234375,12.285562732421875,16.1836915234375,12.195242732421875,16.1183615234375,12.115958732421875C16.0529815234375,12.036625732421875,15.9736415234375,11.972069732421875,15.8803115234375,11.922292332421875C15.7869815234375,11.872611632421876,15.6827515234375,11.847625732421875,15.5676415234375,11.847625732421875L13.7943115234375,11.847625732421875L13.7943115234375,15.160955732421876L15.3950215234375,15.160955732421876C15.5412515234375,15.160855732421876,15.6789115234375,15.142245732421875,15.8080215234375,15.104905732421875ZM14.4383585234375,12.398192732421876L15.3250215234375,12.398192732421876C15.4276915234375,12.398192732421876,15.5140215234375,12.435574732421875,15.5840215234375,12.510241732421875C15.6539715234375,12.584859732421876,15.6890215234375,12.686019732421874,15.6890215234375,12.813526732421876C15.6890215234375,12.944195732421875,15.6508615234375,13.046905732421875,15.5746415234375,13.121525732421874C15.4984215234375,13.196195732421875,15.405821523437499,13.233575732421874,15.2969715234375,13.233575732421874L14.4383585234375,13.233575732421874L14.4383585234375,12.398192732421876ZM14.4383585234375,13.742245732421875L15.4276915234375,13.742245732421875C15.4836415234375,13.742245732421875,15.5350215234375,13.753905732421876,15.5816915234375,13.777245732421875C15.6283615234375,13.800575732421875,15.6687515234375,13.832515732421875,15.7030215234375,13.872905732421875C15.7372015234375,13.913405732421875,15.7644215234375,13.960895732421875,15.7846915234375,14.015285732421875C15.8048615234375,14.069735732421876,15.8150215234375,14.126565732421875,15.8150215234375,14.185625732421876C15.8150215234375,14.244735732421875,15.8040415234375,14.300735732421876,15.7823615234375,14.353625732421875C15.7605315234375,14.406565732421875,15.7309815234375,14.452405732421875,15.6936915234375,14.491285732421876C15.6563615234375,14.530225732421876,15.6120215234375,14.560565732421875,15.5606915234375,14.582285732421875C15.5093615234375,14.604065732421875,15.4541315234375,14.614955732421874,15.3950715234375,14.614955732421874L14.4383585234375,14.614955732421874L14.4383585234375,13.742245732421875Z" fill="#FF5B5B" fill-opacity="1"/></g></g></g></g></g></svg>