<svg xmlns="http://www.w3.org/2000/svg" xmlns:xlink="http://www.w3.org/1999/xlink" fill="none" version="1.1" width="24" height="24" viewBox="0 0 24 24"><defs><clipPath id="master_svg0_3105_4171"><rect x="0" y="0" width="24" height="24" rx="0"/></clipPath><clipPath id="master_svg1_3105_4173"><rect x="1" y="1" width="22" height="22" rx="2"/></clipPath><clipPath id="master_svg2_3105_4174"><rect x="1" y="1" width="22" height="22" rx="0"/></clipPath><linearGradient x1="0.7605342864990234" y1="0.8102832436561584" x2="0.18914668262004852" y2="0.12977632880210876" id="master_svg3_973_40584"><stop offset="0%" stop-color="#A9C8FF" stop-opacity="1"/><stop offset="100%" stop-color="#C7E6FF" stop-opacity="1"/></linearGradient><linearGradient x1="0.1802329123020172" y1="0.12247499823570251" x2="0.7529283165931702" y2="0.7986113429069519" id="master_svg4_973_40598"><stop offset="0%" stop-color="#2D4664" stop-opacity="1"/><stop offset="16.88999980688095%" stop-color="#29405B" stop-opacity="1"/><stop offset="44.449999928474426%" stop-color="#1E2F43" stop-opacity="1"/><stop offset="79.01999950408936%" stop-color="#0C131B" stop-opacity="1"/><stop offset="100%" stop-color="#000000" stop-opacity="1"/></linearGradient></defs><g><g clip-path="url(#master_svg0_3105_4171)"></g><g clip-path="url(#master_svg1_3105_4173)"><g clip-path="url(#master_svg2_3105_4174)"><g><g transform="matrix(0,-1,1,0,-21.9140625,24.0859375)"></g></g><g transform="matrix(0,-1,1,0,-21.9140625,24.0859375)" style="opacity:0;"></g><g style="opacity:0.800000011920929;"><path d="M2.552480693359375,19.734425C2.271808693359375,19.734425,2.028949693359375,19.624724999999998,1.868761693359375,19.425325C1.705137093359375,19.221625,1.648933993359375,18.941724999999998,1.714762093359375,18.657025L4.806105693359375,5.266105C4.935695693359375,4.705109,5.479335693359375,4.265625,6.044295693359375,4.265625L21.448235693359376,4.265625C21.729135693359375,4.265625,21.971935693359374,4.375281,22.131935693359374,4.574656C22.295635693359376,4.778156,22.351835693359376,5.058312,22.285935693359374,5.342935L19.194635693359373,18.733925C19.065235693359377,19.294925,18.521435693359376,19.734524999999998,17.956635693359374,19.734524999999998L2.552480693359375,19.734425L2.552480693359375,19.734425Z" fill-rule="evenodd" fill="url(#master_svg3_973_40584)" fill-opacity="1"/></g><g><g><g><path d="M21.367169584655763,4.4375L6.093329584655762,4.4375C5.617409584655762,4.4375,5.142859584655762,4.825766,5.033199584655762,5.304609L1.9679854846557616,18.6954C1.8585010846557617,19.1744,2.1553295846557616,19.5625,2.631251584655762,19.5625L17.90496958465576,19.5625C18.380869584655763,19.5625,18.85536958465576,19.1744,18.96506958465576,18.6954L22.030269584655763,5.304437C22.139969584655763,4.825766,21.842969584655762,4.4375,21.367169584655763,4.4375Z" fill-rule="evenodd" fill="url(#master_svg4_973_40598)" fill-opacity="1"/></g></g></g><g><path d="M12.028399408203125,16.048965454101562L15.743138408203125,16.048965454101562C16.175058408203125,16.048965454101562,16.525168408203125,16.414199454101563,16.525168408203125,16.864684454101564C16.525168408203125,17.315165454101564,16.175058408203125,17.68057545410156,15.743138408203125,17.68057545410156L12.028399408203125,17.68057545410156C11.596477408203125,17.68057545410156,11.246368408203125,17.315345454101564,11.246368408203125,16.864684454101564C11.246368408203125,16.414199454101563,11.596477408203125,16.048965454101562,12.028399408203125,16.048965454101562Z" fill-rule="evenodd" fill="#2C5591" fill-opacity="1"/></g><g><path d="M14.4378125,12.421908251953125C14.3738725,12.550648251953124,14.2411825,12.692618251953125,14.0065725,12.857438251953125L7.1121525000000005,17.808958251953126C6.7357525,18.082458251953128,6.1953735,17.981058251953122,5.9054205,17.582258251953125C5.6154675,17.183558251953123,5.6854204,16.638658251953125,6.0618265000000005,16.365058251953123L12.2790625,11.862968251953125L12.2790625,11.770508251953125L8.3726825,7.614908251953125C8.0540325,7.275968251953125,8.0872025,6.727863251953125,8.4467625,6.390473251953125C8.8063225,6.053254051953125,9.3559825,6.054628951953125,9.674642500000001,6.393566251953125L14.3618425,11.380008251953125C14.6279025,11.663078251953124,14.6476725,12.091738251953124,14.4378125,12.421908251953125Z" fill-rule="evenodd" fill="#2C5591" fill-opacity="1"/></g><g><path d="M14.2659375,12.250033251953125C14.2019975,12.378773251953124,14.0693075,12.520743251953125,13.8346975,12.685563251953125L6.9402775000000005,17.637083251953126C6.5638775,17.910583251953128,6.0234985,17.809183251953122,5.7335455,17.410383251953125C5.4435925,17.011683251953123,5.5135454,16.466783251953125,5.8899515000000005,16.193183251953123L12.1071875,11.691093251953125L12.1071875,11.598633251953125L8.2008075,7.443033251953125C7.8821575,7.104093251953125,7.9153275,6.555988251953125,8.2748875,6.218598251953125C8.6344475,5.881379051953125,9.1841075,5.882753951953125,9.502767500000001,6.221691251953125L14.1899675,11.208133251953125C14.4560275,11.491203251953124,14.4757975,11.919863251953124,14.2659375,12.250033251953125Z" fill-rule="evenodd" fill="#FFFFFF" fill-opacity="1"/></g><g><path d="M11.922656,15.953125L15.637395,15.953125C16.069315,15.953125,16.419425,16.299453,16.419425,16.726563C16.419425,17.153675,16.069315,17.500005,15.637395,17.500005L11.922656,17.500005C11.490734,17.500005,11.140625,17.153675,11.140625,16.726563C11.140625,16.299453,11.490734,15.953125,11.922656,15.953125Z" fill-rule="evenodd" fill="#FFFFFF" fill-opacity="1"/></g></g></g></g></svg>