<svg xmlns="http://www.w3.org/2000/svg" xmlns:xlink="http://www.w3.org/1999/xlink" fill="none" version="1.1" width="24" height="24" viewBox="0 0 24 24"><defs><clipPath id="master_svg0_3105_4135"><rect x="0" y="0" width="24" height="24" rx="0"/></clipPath><clipPath id="master_svg1_3105_4137"><rect x="2" y="2" width="20" height="20" rx="2"/></clipPath></defs><g><g clip-path="url(#master_svg0_3105_4135)"></g><g clip-path="url(#master_svg1_3105_4137)"><rect x="2" y="2" width="20" height="20" rx="2" fill="#69B4FF" fill-opacity="1"/><g><path d="M11.360615234375,8.58924934814453L11.360615234375,10.170499348144531L7.276865234375,10.170499348144531L7.276865234375,13.387999348144533L5.860615234375,13.387999348144533L5.860615234375,14.364249348144531L11.003115234374999,14.364249348144531C10.453115234375,15.589929348144532,9.036865234375,16.70536934814453,5.599365234375,17.476669348144533C5.833115234375,17.71066934814453,6.108115234375,18.12376934814453,6.231865234375,18.34426934814453C9.820615234375001,17.476669348144533,11.374365234375,16.18206934814453,12.020615234375,14.722389348144532C13.120615234375,16.732869348144533,14.990615234375,17.86206934814453,17.740565234374998,18.34426934814453C17.878065234375,18.05506934814453,18.166865234375003,17.62816934814453,18.400665234374998,17.407769348144534C15.746865234375,17.03606934814453,13.890615234375,16.07206934814453,12.900615234375,14.364249348144531L18.070565234375,14.364249348144531L18.070565234375,13.387999348144533L16.709365234375,13.387999348144533L16.709365234375,10.170499348144531L12.433115234375,10.170499348144531L12.433115234375,8.58924934814453L11.360615234375,8.58924934814453ZM8.266865234375,13.387999348144533L8.266865234375,11.07799934814453L11.360615234375,11.07799934814453L11.360615234375,12.384249348144532C11.360615234375,12.71424934814453,11.346865234374999,13.05799934814453,11.291865234374999,13.387999348144533L8.266865234375,13.387999348144533ZM15.678065234375,13.387999348144533L12.378115234374999,13.387999348144533C12.419365234375,13.05799934814453,12.433115234375,12.727999348144532,12.433115234375,12.39799934814453L12.433115234375,11.07799934814453L15.678065234375,11.07799934814453L15.678065234375,13.387999348144533ZM13.876865234375,5.655769348144531L13.876865234375,6.925499348144531L9.958115234375,6.925499348144531L9.958115234375,5.655769348144531L8.940615234375,5.655769348144531L8.940615234375,6.925499348144531L6.025615234375,6.925499348144531L6.025615234375,7.860499348144531L8.940615234375,7.860499348144531L8.940615234375,9.30424934814453L9.958115234375,9.30424934814453L9.958115234375,7.860499348144531L13.876865234375,7.860499348144531L13.876865234375,9.30424934814453L14.908115234375,9.30424934814453L14.908115234375,7.860499348144531L17.836865234375,7.860499348144531L17.836865234375,6.925499348144531L14.908115234375,6.925499348144531L14.908115234375,5.655769348144531L13.876865234375,5.655769348144531Z" fill="#FFFFFF" fill-opacity="1"/></g></g></g></svg>