<svg xmlns="http://www.w3.org/2000/svg" xmlns:xlink="http://www.w3.org/1999/xlink" fill="none" version="1.1" width="24" height="24" viewBox="0 0 24 24"><defs><clipPath id="master_svg0_3105_4200"><rect x="0" y="0" width="24" height="24" rx="0"/></clipPath></defs><g><g clip-path="url(#master_svg0_3105_4200)"></g><g><g><path d="M3.10083,7.439758569488525C4.63949,4.587608569488525,7.17891,2.723696569488525,10.25623,2.1482615694885254C11.86995,1.8480345694885254,13.7714,2.0106585694885255,15.3976,2.5735835694885254C17.3616,3.2615985694885254,19.188,4.725208569488526,20.4014,6.576608569488525C22.6406,9.991688569488526,22.5155,14.582698569488526,20.1012,17.847598569488525C18.4624,20.061798569488527,16.1857,21.450298569488524,13.5212,21.863198569488524C9.293009999999999,22.513598569488526,5.05231,20.324498569488526,3.03829,16.446598569488525C2.487868,15.370698569488525,2,13.281698569488526,2,11.980688569488525C2,10.642178569488525,2.512892,8.528078569488525,3.10083,7.439758569488525ZM21.2771,10.942398569488525C20.8267,7.139528569488525,18.2998,4.137268569488525,14.597,3.0239185694885253C13.1834,2.5986025694885253,10.76913,2.5986025694885253,9.36806,3.0364285694885256C7.24146,3.6869285694885257,5.51515,4.950378569488525,4.32676,6.726718569488526C3.12585,8.528078569488525,2.750565,9.754008569488526,2.750565,11.980688569488525C2.750565,14.132298569488526,3.18839,15.608398569488525,4.28923,17.234698569488526C5.82789,19.486398569488525,8.22971,20.924898569488526,10.98178,21.250198569488525C16.886200000000002,21.925698569488524,21.9526,16.859398569488526,21.2771,10.942398569488525ZM11.50717,3.4617485694885257C11.29451,3.8620485694885254,11.36957,4.2123185694885255,11.69481,4.424978569488525C11.95751,4.600108569488525,12.0826,4.612618569488525,12.3203,4.500038569488526C12.7456,4.299888569488525,12.7456,3.849548569488525,12.3203,3.849548569488525C11.97002,3.849548569488525,11.89496,4.049698569488525,12.2327,4.137258569488525C12.3293,4.161418569488525,12.3793,4.173908569488525,12.3812,4.191628569488525C12.3833,4.210618569488526,12.3302,4.235608569488525,12.2202,4.287378569488526C11.98252,4.387448569488525,11.63226,4.162278569488525,11.63226,3.8995785694885257C11.63226,3.8120185694885254,11.71983,3.6493885694885253,11.83242,3.5368085694885254C11.99504,3.3866985694885257,12.0701,3.3741885694885254,12.2077,3.4867685694885253C12.4079,3.6493885694885253,12.583,3.5618285694885254,12.4454,3.361678569488525C12.3078,3.1239985694885255,11.65729,3.199048569488525,11.50717,3.4617485694885257ZM10.7566,4.012178569488525L10.7566,3.5993685694885253C10.7566,3.0114185694885256,10.95676,3.2741185694885253,11.05683,3.9996685694885254C11.15691,4.700198569488526,11.0193,4.775258569488525,10.56896,4.249858569488525L10.26874,3.912098569488525L10.25622,4.3499385694885255C10.24372,4.700198569488526,10.2187,4.737728569488525,10.14364,4.537578569488526C10.09361,4.399968569488525,10.00604,4.099748569488526,9.96851,3.8745785694885253C9.86843,3.399218569488525,10.04357,3.3491785694885254,10.46888,3.7494785694885255L10.7566,4.012178569488525ZM13.7214,4.412468569488525C13.4211,4.800258569488525,13.3586,4.575088569488525,13.5838,3.9371085694885255C13.7714,3.3741785694885253,13.7839,3.3741785694885253,14.1467,3.499278569488525C14.6095,3.6618985694885255,14.7471,3.9496185694885253,14.4719,4.162278569488525C14.3468,4.249838569488525,14.2968,4.412468569488525,14.3343,4.612618569488525C14.3656,4.756648569488526,14.3813,4.828568569488525,14.3655,4.836248569488525C14.3498,4.8439085694885256,14.3029,4.787618569488526,14.2092,4.675168569488525C14.1092,4.550068569488525,13.9966,4.374938569488526,13.9716,4.299878569488525C13.934,4.224828569488525,13.8339,4.262348569488525,13.7214,4.412468569488525ZM14.2217,3.987148569488525C14.2718,3.987148569488525,14.3343,3.9371085694885255,14.3593,3.874558569488525C14.4219,3.6744085694885253,13.909,3.6118585694885255,13.8339,3.7994985694885255C13.7964,3.8995785694885257,13.8464,3.9746385694885253,13.9465,3.9746385694885253C14.0466,3.9746385694885253,14.1717,3.9746385694885253,14.2217,3.987148569488525ZM9.74336,4.850298569488525C9.63078,4.850298569488525,9.51819,4.625128569488526,9.31804,3.987148569488525C9.25549,3.7744885694885255,9.26801,3.7119385694885256,9.3931,3.7494685694885255C9.59324,3.8120185694885254,9.91849,4.850298569488525,9.74336,4.850298569488525ZM8.554960000000001,4.424988569488526C8.517430000000001,4.249858569488525,8.517430000000001,4.0497085694885255,8.56747,3.9871585694885257C8.70507,3.7494785694885255,8.84268,3.8370385694885254,9.06785,4.337418569488525C9.34305,4.962898569488525,9.25548,5.288138569488526,8.955259999999999,4.712708569488525L8.7426,4.287388569488526L8.81766,4.750228569488526C8.90522,5.3006485694885255,8.73009,5.375708569488525,8.36731,4.937878569488525L8.12964,4.662668569488526L8.25473,5.025438569488525C8.32979,5.225588569488526,8.35481,5.413238569488525,8.32979,5.450758569488525C8.24222,5.538328569488526,7.75435,4.687688569488525,7.75435,4.437498569488525C7.75435,4.149778569488525,8.0921,4.162288569488526,8.25473,4.475028569488526C8.44238,4.825288569488525,8.65504,4.787758569488526,8.554960000000001,4.424988569488526ZM15.1599,5.213088569488525C14.7096,5.050468569488525,14.6721,4.912858569488526,14.9723,4.287388569488526C15.1349,3.937128569488525,15.235,3.8620685694885255,15.4351,3.9246185694885254C15.5853,3.962138569488525,15.7854,4.087238569488525,15.8855,4.174798569488525C16.048099999999998,4.337428569488525,16.0231,4.3499385694885255,15.6603,4.274878569488525C15.1975,4.174798569488525,15.1224,4.362448569488525,15.5477,4.575108569488526C15.8104,4.712708569488525,15.8104,4.725218569488526,15.4602,4.687688569488525C14.9848,4.650158569488525,14.9097,4.887838569488526,15.3351,5.087988569488525C15.7854,5.288148569488525,15.6478,5.388218569488526,15.1599,5.213088569488525ZM16.1357,4.950378569488525C15.7228,5.575848569488525,15.7103,5.600868569488526,15.9355,5.600868569488526C16.048099999999998,5.600868569488526,16.1357,5.550828569488525,16.1357,5.475768569488525C16.1357,5.413228569488526,16.348300000000002,5.3756985694885255,16.5985,5.388208569488525C16.9738,5.413228569488526,17.073900000000002,5.363188569488525,17.1114,5.175548569488525C17.1614,4.962888569488525,16.7361,4.487528569488525,16.5109,4.475018569488526C16.473399999999998,4.475018569488526,16.3108,4.687678569488526,16.1357,4.950378569488525ZM7.01628,5.250608569488525C6.94123,5.100498569488526,6.87868,4.937868569488526,6.87868,4.8628185694885255C6.87868,4.600118569488526,7.22894,4.737718569488525,7.55419,5.125518569488525C8.02954,5.713458569488525,7.97951,6.001178569488525,7.47914,5.438248569488525C7.25396,5.1880585694885255,7.24145,5.1880585694885255,7.31651,5.413228569488526C7.50415,5.951138569488526,7.52916,6.101248569488526,7.40407,6.101248569488526C7.34153,6.101248569488526,7.21643,6.013688569488526,7.12886,5.913608569488526C6.86617,5.6008785694885255,6.72856,5.700948569488526,6.95373,6.038708569488525C7.06632,6.213838569488526,7.10385,6.351438569488526,7.02879,6.351438569488526C6.87868,6.351438569488526,6.2532,5.550838569488525,6.2532,5.363198569488525C6.2532,5.163038569488526,6.5159,5.200568569488525,6.7786,5.438248569488525C7.06632,5.688438569488525,7.19141,5.588368569488525,7.01628,5.250608569488525ZM16.823700000000002,4.987908569488525C16.9488,5.175548569488525,16.8112,5.275618569488525,16.5735,5.175548569488525C16.460900000000002,5.138018569488525,16.410899999999998,5.050448569488525,16.4484,4.975398569488526C16.5485,4.812768569488526,16.723599999999998,4.812768569488526,16.823700000000002,4.987908569488525ZM10.63152,5.1630485694885255C9.24298,5.450758569488525,8.17967,6.026198569488526,7.12888,7.0894985694885255C5.49014,8.740748569488526,4.7771,10.817318569488526,5.12737,12.956398569488526C5.62774,16.096298569488525,7.86693,18.360498569488524,10.96928,18.860898569488526C15.5602,19.598898569488526,19.6258,15.533398569488526,18.8878,10.942408569488526C18.4124,7.940138569488526,16.2608,5.738478569488525,13.2835,5.150538569488525C12.1827,4.937868569488526,11.71985,4.937868569488526,10.63152,5.1630485694885255ZM13.5337,5.463268569488525C14.0591,5.6008785694885255,14.7722,5.863568569488526,15.1474,6.051218569488525C15.7854,6.388968569488525,17.3866,7.777518569488525,17.3866,7.990178569488525C17.3866,8.052728569488526,17.2115,8.102768569488525,16.9988,8.102768569488525C16.298299999999998,8.102768569488525,15.7729,8.440518569488525,15.0599,9.316178569488525C14.8847,9.541348569488527,14.6346,9.728988569488525,14.4969,9.728988569488525C14.2968,9.728988569488525,13.7464,10.329448569488525,13.1584,11.180088569488525C12.9958,11.430278569488525,12.9958,11.242638569488525,13.221,8.665688569488525L13.296,7.790028569488525L12.7706,7.252118569488525C12.3203,6.7892685694885255,12.1952,6.726728569488525,11.71985,6.726728569488525C11.30703,6.726728569488525,11.1194,6.801778569488525,10.91924,7.026948569488526C10.71909,7.252118569488525,10.48141,7.339688569488525,9.830919999999999,7.414748569488525C9.15541,7.477288569488525,8.96777,7.552348569488525,8.80514,7.790028569488525C8.63001,8.052728569488526,8.63001,8.115278569488526,8.81766,8.402988569488524C9.0053,8.678198569488526,9.13039,8.728238569488525,9.63077,8.728238569488525C10.13115,8.728238569488525,10.25624,8.778278569488524,10.43138,9.040968569488525C10.70658,9.466298569488526,10.69407,9.591388569488526,10.18119,10.679708569488525C9.75586,11.555368569488525,9.73085,11.692978569488526,9.793389999999999,12.405998569488526C9.84343,12.818798569488525,9.918479999999999,13.306698569488525,9.956019999999999,13.456798569488525C10.04359,13.744498569488526,10.03107,13.756998569488525,9.30552,13.694498569488525C8.90522,13.669498569488525,8.3423,13.556898569488526,8.06709,13.444298569488526C7.61675,13.269198569488525,7.56671,13.219098569488525,7.59172,12.831298569488526C7.60424,12.543598569488525,7.59172,12.506098569488525,7.5417,12.731298569488525C7.46663,13.106498569488526,7.19142,13.319198569488526,6.66603,13.419298569488525C6.44086,13.456798569488525,6.25321,13.544398569488525,6.25321,13.606898569488525C6.25321,13.681998569488526,6.0906,13.731998569488525,5.89044,13.731998569488525C5.55269,13.731998569488525,5.51516,13.681998569488526,5.39007,13.106498569488526C5.189909999999999,12.193398569488526,5.21494,11.517848569488525,5.49014,10.454538569488525C5.84041,9.103518569488525,6.30325,8.290408569488525,7.31652,7.289648569488525C8.30476,6.288898569488525,9.13039,5.813538569488525,10.43138,5.475778569488526C11.58224,5.175548569488525,12.3703,5.1630485694885255,13.5337,5.463268569488525ZM17.073900000000002,6.476528569488526C16.8612,6.238848569488526,16.8612,6.213828569488525,17.186500000000002,5.788508569488526C17.511699999999998,5.375688569488526,17.7619,5.225578569488525,17.7619,5.450748569488526C17.7619,5.5132985694885255,17.6493,5.663408569488525,17.511699999999998,5.788508569488526C17.2365,6.038698569488526,17.174,6.476528569488526,17.4116,6.476528569488526C17.499200000000002,6.476528569488526,17.7119,6.3264085694885255,17.912,6.1387685694885255C18.3749,5.688428569488526,18.525,5.876068569488526,18.0746,6.351428569488525C17.6493,6.789258569488525,17.3866,6.826788569488525,17.073900000000002,6.476528569488526ZM5.37757,6.201328569488525C5.37757,6.489048569488525,5.97802,7.5023185694885255,6.06559,7.352198569488525C6.11562,7.277148569488525,6.11562,7.177068569488525,6.07809,7.139538569488526C5.952999999999999,7.0144485694885255,6.26574,6.726728569488525,6.51593,6.726728569488525C6.86619,6.726728569488525,6.80364,6.526578569488525,6.41585,6.376458569488525C5.8154,6.138788569488526,5.37757,6.063728569488525,5.37757,6.201328569488525ZM6.06559,6.6016285694885255C6.10312,6.664178569488525,6.05308,6.726728569488525,5.952999999999999,6.726728569488525C5.84042,6.726728569488525,5.7528500000000005,6.664178569488525,5.7528500000000005,6.6016285694885255C5.7528500000000005,6.526578569488525,5.80288,6.476538569488525,5.86543,6.476538569488525C5.9404900000000005,6.476538569488525,6.02805,6.526578569488525,6.06559,6.6016285694885255ZM17.862000000000002,7.264628569488526C17.837,7.177058569488525,18.0246,6.976908569488526,18.2623,6.801778569488525C18.8127,6.413978569488525,18.8377,6.413978569488525,19.0879,6.7892685694885255C19.3131,7.139528569488525,19.2505,7.477288569488525,18.9503,7.477288569488525C18.8502,7.477288569488525,18.7627,7.564848569488525,18.7627,7.664928569488525C18.7627,8.077738569488526,17.9996,7.7399785694885255,17.862000000000002,7.264628569488526ZM18.5875,6.826788569488525C18.5,6.976908569488526,18.8628,7.3021485694885255,18.9753,7.177058569488525C19.0254,7.139528569488525,18.9753,7.001928569488525,18.8628,6.901848569488525C18.7502,6.776758569488526,18.6376,6.751738569488525,18.5875,6.826788569488525ZM12.4079,7.314668569488525C12.583,7.464778569488526,12.5955,7.552348569488525,12.4704,7.739988569488525C12.3453,7.940138569488526,12.3578,8.002688569488527,12.5079,8.102768569488525C12.6706,8.202838569488526,12.6581,8.240368569488526,12.4579,8.390478569488526C12.2327,8.553108569488526,12.2327,8.565618569488525,12.4954,8.640668569488525C12.9208,8.740748569488526,12.7957,9.053478569488526,12.2452,9.266138569488525C11.6573,9.491308569488526,11.64479,9.804048569488526,12.2077,9.766518569488525L12.5705,9.741498569488526L12.1952,9.929148569488525L11.81992,10.116788569488525L12.2953,10.054238569488525C12.6956,10.004198569488526,12.7581,10.029218569488526,12.7581,10.241878569488525C12.7581,10.366978569488525,12.6455,10.542108569488525,12.5079,10.629668569488526C12.3203,10.754768569488526,12.2578,10.929898569488525,12.2578,11.317688569488526C12.2578,11.617918569488525,12.1952,11.855598569488526,12.1076,11.893128569488525C12.0076,11.930658569488525,12.0451,11.968188569488525,12.1827,11.968188569488525C12.3203,11.980688569488525,12.3828,12.043198569488526,12.3453,12.155798569488525C12.2953,12.280898569488526,12.3703,12.355998569488525,12.5455,12.393498569488525C12.7831,12.430998569488525,12.7706,12.456098569488525,12.3828,12.643698569488526C11.89498,12.868898569488525,12.0951,12.918898569488526,12.7581,12.731298569488525C13.1459,12.618698569488526,13.221,12.643698569488526,13.4086,12.881398569488525C13.6838,13.256698569488526,13.9841,13.031498569488525,13.7714,12.631198569488525C13.5712,12.255898569488526,13.5963,12.193398569488526,13.9465,12.280898569488526C14.2593,12.355998569488525,14.2718,12.355998569488525,14.0716,12.055798569488525C13.8715,11.743018569488525,13.9215,11.405258569488526,14.1467,11.542858569488525C14.2092,11.592898569488526,14.2217,11.455298569488525,14.1842,11.230128569488526C14.1217,10.929898569488525,14.1592,10.779788569488526,14.3844,10.542108569488525C14.7722,10.129298569488526,14.9723,10.154318569488526,15.4352,10.667198569488525C15.9105,11.205108569488525,16.4484,11.367728569488525,16.473399999999998,10.992448569488525C16.4859,10.779788569488526,16.4234,10.729748569488525,16.1357,10.729748569488525C15.848,10.729748569488525,15.7979,10.692218569488526,15.848,10.479558569488525C15.8855,10.341958569488526,15.9605,10.266898569488525,16.0231,10.304428569488525C16.2107,10.417008569488525,16.1482,10.141808569488525,15.9605,9.991688569488526C15.6353,9.716488569488526,15.6478,9.391238569488525,16.0106,9.116028569488526C16.661099999999998,8.640668569488525,16.9238,8.653178569488524,17.4116,9.203598569488525C17.7494,9.578878569488525,17.8995,9.666448569488526,17.9996,9.566368569488525C18.1122,9.453788569488525,18.1747,9.466298569488526,18.2623,9.603898569488525C18.4374,9.866598569488525,18.4124,9.941648569488525,18.1247,10.204348569488525C17.5993,10.704728569488525,17.3866,11.305178569488525,17.3866,12.318498569488526C17.3866,13.043998569488526,17.4242,13.244098569488525,17.5242,13.106498569488526C17.624299999999998,12.968898569488525,17.6368,13.106498569488526,17.5868,13.606898569488525C17.511699999999998,14.232398569488526,17.5242,14.269898569488525,17.6994,14.057298569488525C17.7994,13.919698569488526,17.887,13.606898569488525,17.887,13.369198569488525C17.887,12.718798569488525,18.0997,13.056498569488525,18.1872,13.844598569488525C18.2873,14.732798569488525,18.0246,15.258198569488526,16.823700000000002,16.571698569488525C16.4859,16.946898569488525,16.0982,17.309698569488525,15.9605,17.384798569488524C15.7354,17.497398569488524,15.7354,17.472298569488526,15.8229,16.784298569488527C15.9355,15.871098569488526,15.9856,15.733498569488525,16.2483,15.733498569488525C16.3609,15.733498569488525,16.5485,15.620898569488526,16.6736,15.483298569488525C16.7862,15.345698569488526,16.9613,15.233198569488525,17.0614,15.233198569488525C17.149,15.233198569488525,17.3241,15.082998569488526,17.449199999999998,14.907898569488525C17.7619,14.432498569488525,17.5242,14.244898569488525,16.9488,14.520098569488525C16.6235,14.682698569488526,16.4359,14.695198569488525,16.2608,14.607698569488525C15.8855,14.407498569488526,15.7604,14.457598569488525,15.7604,14.820298569488525C15.7604,15.020498569488526,15.6979,15.745998569488526,15.6228,16.446598569488525C15.4852,17.672498569488525,15.4727,17.722498569488526,15.0849,17.922698569488524C14.8472,18.047798569488524,14.4969,18.110298569488524,14.1967,18.085298569488526L13.6963,18.047798569488524L13.6713,16.896898569488528C13.6463,15.946198569488525,13.6713,15.745998569488526,13.8464,15.683498569488526C13.959,15.633498569488525,14.0591,15.620898569488526,14.0841,15.645998569488526C14.1092,15.670998569488525,14.2092,16.158898569488525,14.3093,16.734298569488523C14.4094,17.309698569488525,14.572,17.822598569488527,14.6596,17.872598569488524C14.9348,18.047798569488524,15.26,17.071998569488525,15.2475,16.121298569488523C15.2225,15.370798569488525,15.185,15.258198569488526,14.8222,14.870398569488525C14.5095,14.557598569488526,14.4094,14.344998569488526,14.4094,14.019698569488526C14.4094,13.782098569488525,14.3468,13.519398569488525,14.2718,13.444298569488526C14.1717,13.344198569488526,14.1342,13.369198569488525,14.1342,13.531898569488526C14.1342,13.681998569488526,14.0716,13.731998569488525,13.934,13.681998569488526C13.8214,13.644498569488526,13.7839,13.656998569488525,13.8214,13.731998569488525C13.8715,13.807098569488526,13.859,14.032198569488525,13.8214,14.244898569488525C13.7464,14.570198569488525,13.6838,14.620198569488526,13.4336,14.570198569488525C13.2585,14.545098569488525,13.0959,14.570198569488525,13.0584,14.632698569488525C13.0208,14.695198569488525,12.8832,14.657698569488526,12.7706,14.557598569488526C12.583,14.394998569488525,12.5205,14.382498569488526,12.3203,14.520098569488525C12.1327,14.657698569488526,12.0201,14.657698569488526,11.64479,14.520098569488525C11.3946,14.419998569488525,11.10689,14.319998569488526,11.00681,14.282398569488526C10.90673,14.244898569488525,10.68156,14.032198569488525,10.51894,13.832098569488526C10.24373,13.494298569488526,10.2062,13.319198569488526,10.2062,12.368498569488525C10.19369,11.442788569488526,10.24373,11.180088569488525,10.55647,10.479558569488525C10.75662,10.029218569488526,10.98179,9.591388569488526,11.05685,9.491308569488526C11.1194,9.403748569488524,11.19445,9.191088569488524,11.20696,9.040968569488525C11.21947,8.765768569488525,11.15693,8.740748569488526,10.2062,8.665688569488525C9.268,8.590628569488526,9.180430000000001,8.553108569488526,9.03031,8.252878569488526C8.84267,7.865088569488526,8.94275,7.739988569488525,9.54321,7.639918569488525C10.13115,7.552348569488525,11.24449,7.7149685694885255,10.9943,7.852578569488525C10.74411,8.015198569488525,10.94426,8.140288569488526,11.31954,8.052728569488526C11.64479,7.965158569488525,11.70733,7.790028569488525,11.50719,7.477288569488525C11.3946,7.314668569488525,11.36958,7.314668569488525,11.25699,7.477288569488525C11.16943,7.614898569488525,11.10689,7.627408569488526,10.9943,7.514818569488526C10.89423,7.414748569488525,10.94426,7.327178569488526,11.20696,7.177068569488525C11.60727,6.964408569488525,12.0701,7.014438569488525,12.4079,7.314668569488525ZM4.62697,7.289638569488526C4.289210000000001,7.652418569488526,4.3517600000000005,7.890098569488526,4.9021799999999995,8.227848569488525C5.3400099999999995,8.490548569488524,5.50263,8.465528569488527,5.26495,8.177808569488526C5.05229,7.9276185694885255,5.18989,7.727468569488526,5.60271,7.714958569488525L5.61522,7.7139585694885255C5.91573,7.689938569488525,5.92407,7.689268569488525,5.64023,7.639908569488526C5.47762,7.6023785694885255,5.327500000000001,7.477278569488526,5.28997,7.352188569488526C5.18989,6.989418569488525,4.9272,6.964398569488526,4.62697,7.289638569488526ZM18.1998,7.477288569488525C18.2998,7.627398569488525,18.6376,7.639908569488526,18.6376,7.489798569488525C18.6376,7.427248569488525,18.5625,7.314658569488525,18.4625,7.239608569488525C18.2623,7.076978569488525,18.0621,7.264628569488526,18.1998,7.477288569488525ZM5.00225,7.652418569488526C4.7895900000000005,7.9276185694885255,4.60195,7.764998569488525,4.7645800000000005,7.452268569488526C4.86465,7.277128569488525,4.93971,7.239598569488526,5.03978,7.339678569488526C5.12734,7.427248569488525,5.11484,7.527318569488525,5.00225,7.652418569488526ZM18.7251,8.703228569488525C18.5625,8.302928569488525,18.5625,8.277908569488526,18.9378,8.015208569488525C19.3256,7.739998569488526,19.8385,7.627418569488525,19.7134,7.840078569488526C19.6758,7.902618569488525,19.4382,8.040228569488526,19.2005,8.165318569488527C18.7626,8.365468569488526,18.7501,8.377978569488526,18.9378,8.665698569488526C19.0629,8.840828569488526,19.0879,8.990948569488525,19.0128,9.040978569488527C18.9503,9.078508569488525,18.8127,8.928398569488525,18.7251,8.703228569488525ZM4.4768799999999995,9.728988569488525C3.91395,9.728988569488525,3.52615,9.003438569488527,3.90144,8.628158569488527C4.089090000000001,8.440518569488525,4.2517,8.428008569488526,4.2517,8.603138569488525C4.2517,8.665688569488525,4.20167,8.728228569488525,4.1266099999999994,8.728228569488525C3.9389700000000003,8.728228569488525,3.9764999999999997,9.178568569488526,4.18915,9.353708569488525C4.28923,9.441268569488525,4.46436,9.478798569488525,4.564439999999999,9.428758569488526C4.78961,9.341198569488526,4.95223,9.003438569488527,4.81463,8.878348569488526C4.7646,8.828308569488525,4.6895299999999995,8.865838569488526,4.6645199999999996,8.940888569488525C4.60197,9.116028569488526,4.376799999999999,9.166058569488525,4.376799999999999,9.003438569488527C4.376799999999999,8.953398569488526,4.42684,8.840818569488526,4.48939,8.740738569488524C4.63949,8.515568569488526,5.1273599999999995,8.678198569488526,5.1273599999999995,8.953398569488526C5.1273599999999995,9.303668569488526,4.7646,9.728988569488525,4.4768799999999995,9.728988569488525ZM19.0379,9.416258569488527C18.9503,9.328688569488525,18.9878,9.303668569488526,19.5758,9.003438569488527C20.1512,8.703218569488525,20.2638,8.678198569488526,20.2638,8.853328569488525C20.2638,9.003438569488527,19.1379,9.516328569488525,19.0379,9.416258569488527ZM19.2881,10.066738569488525C19.3131,9.916628569488525,19.4632,9.728978569488525,19.6383,9.641418569488525L19.6562,9.632448569488526C19.8502,9.535428569488525,19.9439,9.488578569488524,20.0326,9.496568569488526C20.1187,9.504318569488525,20.2001,9.563688569488527,20.3639,9.678948569488526C20.6641,9.891608569488525,20.7016,10.354458569488525,20.4264,10.442018569488525C20.3263,10.479548569488525,20.2888,10.366968569488526,20.3013,10.141798569488525C20.3263,9.854078569488525,20.2763,9.791528569488525,20.0261,9.791528569488525C19.6508,9.791528569488525,19.3631,10.179318569488526,19.6258,10.341948569488526C19.7134,10.404488569488525,19.7759,10.517078569488525,19.7384,10.604638569488525C19.6508,10.867338569488526,19.238,10.366968569488526,19.2881,10.066738569488525ZM7.42911,10.166818569488525C7.37907,10.291908569488525,7.24146,10.316928569488525,6.99128,10.266888569488525C6.76611,10.229368569488525,6.6285,10.254378569488525,6.6285,10.341948569488526C6.6285,10.417008569488525,6.69104,10.479558569488525,6.75359,10.479558569488525C6.84116,10.479558569488525,6.84116,10.554608569488526,6.75359,10.729738569488525C6.67854,10.867348569488525,6.4909,10.979928569488525,6.32828,10.979928569488525C6.11561,10.979928569488525,6.01554,11.067498569488526,5.978,11.292668569488525C5.94048,11.492818569488525,5.9655000000000005,11.567878569488526,6.05307,11.517838569488525C6.30325,11.355218569488525,6.64101,11.392748569488525,6.57846,11.567878569488526C6.54094,11.667948569488525,6.60348,11.730498569488525,6.74108,11.730498569488525C6.87869,11.730498569488525,7.01629,11.805558569488525,7.04132,11.880608569488526C7.07884,11.968178569488526,7.09135,11.880608569488526,7.09135,11.667948569488525C7.06633,11.355218569488525,7.11637,11.292668569488525,7.37907,11.280158569488526C7.5542,11.267648569488525,7.74184,11.317688569488526,7.79188,11.405248569488526C7.85442,11.480308569488525,7.87945,11.430268569488526,7.84192,11.255138569488526C7.76686,10.904878569488526,8.042069999999999,10.754758569488525,8.31728,10.979928569488525C8.417349999999999,11.067498569488526,8.50492,11.080008569488525,8.50492,11.004948569488525C8.50492,10.804798569488526,8.142140000000001,10.567118569488525,7.94199,10.654688569488526C7.82941,10.692218569488526,7.75435,10.654688569488526,7.75435,10.542098569488525C7.75435,10.366968569488526,7.90446,10.291908569488525,8.167159999999999,10.341948569488526C8.22971,10.354458569488525,8.22971,10.304418569488526,8.19218,10.229368569488525C8.142140000000001,10.154308569488526,8.02956,10.116778569488526,7.92949,10.154308569488526C7.82941,10.191838569488525,7.75435,10.166818569488525,7.75435,10.104268569488525C7.75435,9.916628569488525,7.50416,9.954158569488525,7.42911,10.166818569488525ZM3.47612,11.017448569488526C3.20092,10.767258569488526,3.1883999999999997,10.504568569488525,3.46361,10.204338569488526C3.81388,9.804038569488526,4.62699,10.004188569488525,4.62699,10.492058569488526C4.62699,11.180078569488526,3.9764999999999997,11.480298569488525,3.47612,11.017448569488526ZM3.6387400000000003,10.804788569488526C3.87642,11.105018569488525,4.31426,10.979928569488525,4.31426,10.604638569488525C4.31426,10.354448569488525,4.23919,10.279398569488526,3.9639800000000003,10.254378569488525C3.5636799999999997,10.204338569488526,3.38855,10.504568569488525,3.6387400000000003,10.804788569488526ZM7.21645,10.804798569488526C7.17892,10.842328569488526,7.06633,10.854838569488525,6.97876,10.817308569488526C6.87869,10.779778569488526,6.91621,10.742248569488526,7.05382,10.742248569488526C7.19142,10.729738569488525,7.26649,10.767268569488525,7.21645,10.804798569488526ZM19.6884,12.593598569488526C19.4507,12.393498569488525,19.4632,11.855588569488525,19.7384,11.655438569488526C20.2513,11.267638569488525,20.8017,11.580378569488525,20.7392,12.230898569488525C20.7016,12.618698569488526,20.6641,12.668698569488525,20.2888,12.706198569488526C20.0636,12.731298569488525,19.7884,12.681198569488526,19.6884,12.593598569488526ZM3.82638,11.730498569488525C3.91394,11.818068569488526,4.03904,11.793048569488525,4.20167,11.680458569488525C4.53942,11.417758569488525,4.58946,11.555368569488525,4.27672,11.893118569488525C3.9389700000000003,12.255898569488526,3.92646,12.355998569488525,4.2517,12.355998569488525C4.38931,12.355998569488525,4.5018899999999995,12.405998569488526,4.5018899999999995,12.481098569488525C4.5018899999999995,12.543598569488525,4.22668,12.606198569488525,3.87642,12.606198569488525L3.25094,12.606198569488525L3.25094,12.105798569488526C3.25094,11.705478569488525,3.30098,11.605408569488525,3.47612,11.605408569488525C3.60121,11.605408569488525,3.76384,11.667948569488525,3.82638,11.730498569488525ZM20.1262,12.481098569488525C20.5265,12.481098569488525,20.7266,12.180798569488525,20.5015,11.905628569488526C20.3514,11.717988569488526,19.9886,11.667948569488525,19.851,11.818058569488525C19.8009,11.855588569488525,19.7634,12.030698569488525,19.7634,12.193298569488526C19.7634,12.430998569488525,19.826,12.481098569488525,20.1262,12.481098569488525ZM3.40106,12.068298569488526C3.4636,12.380998569488526,3.7513199999999998,12.418498569488525,3.7513199999999998,12.118298569488525C3.7513199999999998,11.968178569488526,3.67626,11.855598569488526,3.55117,11.855598569488526C3.43859,11.855598569488526,3.3760399999999997,11.943158569488526,3.40106,12.068298569488526ZM7.21643,12.380998569488526C7.1789,12.481098569488525,7.14137,12.443598569488525,7.14137,12.305998569488525C7.12886,12.168298569488526,7.1664,12.093298569488525,7.20393,12.143298569488525C7.24145,12.180898569488525,7.25396,12.293398569488525,7.21643,12.380998569488526ZM16.6736,13.669498569488525C16.6111,13.169098569488526,16.6361,13.043998569488526,16.823700000000002,12.893898569488526C17.1615,12.656198569488526,17.249000000000002,12.831298569488526,17.149,13.569398569488525C16.9988,14.607698569488525,16.8112,14.657698569488526,16.6736,13.669498569488525ZM3.33853,13.631898569488525C3.301,13.444298569488526,3.33853,13.219098569488525,3.40107,13.131598569488526C3.60123,12.906398569488525,3.9139600000000003,12.993998569488525,4.064080000000001,13.331698569488525C4.12662,13.481798569488525,4.28925,13.606898569488525,4.40183,13.606898569488525C4.77712,13.606898569488525,4.65202,13.819598569488525,4.23921,13.907098569488525C3.5386800000000003,14.044698569488526,3.41358,14.007198569488525,3.33853,13.631898569488525ZM19.4507,13.106498569488526C19.4131,13.181598569488525,19.4882,13.231598569488526,19.6258,13.231598569488526C19.826,13.231598569488526,19.8885,13.306698569488525,19.8885,13.544398569488525C19.8885,13.719498569488525,19.951,13.857098569488526,20.0136,13.857098569488526C20.0886,13.857098569488526,20.1387,13.744498569488526,20.1387,13.594398569488526C20.1387,13.444298569488526,20.2012,13.356698569488525,20.3013,13.394298569488525C20.3889,13.419298569488525,20.4389,13.581898569488525,20.4139,13.769498569488526C20.3889,13.957198569488526,20.4264,14.107298569488526,20.5015,14.107298569488526C20.5765,14.107298569488526,20.6391,13.994698569488525,20.6391,13.869598569488526C20.6391,13.731998569488525,20.6766,13.544398569488525,20.7141,13.444298569488526C20.7642,13.306698569488525,20.6641,13.231598569488526,20.3639,13.169098569488526C20.1387,13.131598569488526,19.8635,13.056498569488525,19.7384,13.031498569488525C19.6258,12.993998569488525,19.5007,13.031498569488525,19.4507,13.106498569488526ZM3.5637,13.606898569488525C3.68879,13.819598569488525,3.87644,13.744498569488526,3.87644,13.481798569488525C3.87644,13.344198569488526,3.8264,13.231598569488526,3.7638499999999997,13.231598569488526C3.58871,13.231598569488526,3.47613,13.456798569488525,3.5637,13.606898569488525ZM10.19369,14.119798569488525C10.24373,14.257398569488526,10.48141,14.470098569488526,10.7316,14.582698569488526C10.9943,14.695198569488525,11.21947,14.820298569488525,11.25699,14.857898569488526C11.29453,14.895398569488526,11.46966,15.020498569488526,11.64479,15.133098569488526C12.1076,15.420798569488525,12.3828,16.096298569488525,12.3828,16.896898569488528C12.3828,17.284698569488526,12.4454,17.634998569488523,12.5079,17.672498569488525C12.583,17.709998569488526,12.633,17.835098569488526,12.633,17.935198569488527C12.633,18.072798569488526,12.3328,18.110298569488524,10.94426,18.110298569488524C8.98027,18.110298569488524,8.71758,18.010298569488526,7.50416,16.884398569488525C6.74108,16.183898569488527,5.84041,14.807798569488526,5.7278199999999995,14.194898569488526L5.66528,13.857098569488526L7.89196,13.857098569488526C10.03107,13.857098569488526,10.11864,13.869598569488526,10.19369,14.119798569488525ZM5.22743,17.347198569488526C5.377549999999999,17.234598569488526,5.5026399999999995,17.009498569488525,5.5026399999999995,16.846898569488523C5.5026399999999995,16.584198569488525,5.51515,16.571598569488525,5.752829999999999,16.796798569488523C5.96549,16.984498569488526,6.05306,16.996998569488525,6.31576,16.884398569488525C6.46712,16.811698569488527,6.54523,16.774198569488526,6.56567,16.794598569488528C6.58746,16.816298569488524,6.54373,16.903798569488526,6.45336,17.084498569488524C6.27823,17.422298569488525,6.29073,17.459798569488527,6.54093,17.722498569488526L6.81614,17.985198569488524L6.41583,17.910198569488525C6.1031,17.847598569488525,5.9905100000000004,17.872598569488524,5.927960000000001,18.035298569488525C5.81538,18.310498569488526,5.62773,18.285398569488525,5.62773,17.985198569488524C5.62773,17.822598569488527,5.51515,17.709998569488526,5.28998,17.659998569488526L4.964729999999999,17.572398569488527L5.22743,17.347198569488526ZM17.6993,16.984498569488526C17.862000000000002,17.122098569488525,17.936999999999998,17.122098569488525,18.1122,16.946898569488525C18.3874,16.659198569488524,18.55,16.684198569488526,18.4749,16.984498569488526C18.4374,17.159598569488523,18.5125,17.309698569488525,18.7376,17.484898569488525L19.0754,17.722498569488526L18.7376,17.734998569488525C18.4749,17.734998569488525,18.3749,17.810098569488524,18.3123,18.060298569488527L18.2247,18.397998569488525L18.0246,18.122798569488527C17.8495,17.897698569488526,17.7369,17.860098569488525,17.4366,17.935198569488527L17.073900000000002,18.022798569488526L17.3741,17.697498569488523C17.624299999999998,17.422298569488525,17.6493,17.334698569488523,17.511699999999998,17.172098569488526C17.299,16.921898569488526,17.449199999999998,16.771798569488524,17.6993,16.984498569488526ZM12.9583,18.360498569488524C13.0584,18.460598569488525,13.196,18.460598569488525,13.4336,18.360498569488524C13.6213,18.297998569488524,13.8965,18.235398569488524,14.0466,18.247898569488527C14.2468,18.247898569488527,14.1842,18.310498569488526,13.8214,18.448098569488526C13.1334,18.735798569488527,10.88172,18.735798569488527,10.19369,18.448098569488526C10.0097,18.374498569488527,9.89337,18.327898569488525,9.89754,18.298498569488526C9.90473,18.247898569488527,10.26828,18.247898569488527,11.25699,18.247898569488527C12.1952,18.235398569488524,12.8832,18.285498569488524,12.9583,18.360498569488524ZM9.81842,19.573898569488524C9.76839,19.774098569488526,9.718350000000001,20.024298569488526,9.69332,20.136898569488526C9.63078,20.449598569488526,9.843440000000001,20.537198569488524,9.91849,20.224398569488525C9.968530000000001,20.036798569488525,10.0561,19.999198569488524,10.29378,20.049298569488524C10.51895,20.111798569488524,10.64404,20.074298569488526,10.74412,19.899198569488526C10.8567,19.711498569488526,10.86921,19.774098569488526,10.88173,20.199398569488526L10.88173,20.737298569488527L11.41963,20.737298569488527C11.80742,20.737298569488527,11.89499,20.699798569488525,11.75738,20.612198569488527C11.65731,20.549698569488527,11.46967,20.487098569488527,11.34457,20.487098569488527C11.20697,20.487098569488527,11.13191,20.424598569488527,11.16944,20.324498569488526C11.19446,20.249398569488527,11.36959,20.186898569488527,11.55724,20.211898569488525C11.73237,20.224398569488525,11.88248,20.186898569488527,11.88248,20.111798569488524C11.88248,20.049298569488524,11.74487,19.986698569488524,11.56974,19.986698569488524C11.36959,19.986698569488524,11.257,19.911698569488525,11.257,19.786598569488525C11.257,19.636498569488527,11.34457,19.598898569488526,11.56974,19.636498569488527C11.74487,19.673998569488525,11.92001,19.661498569488526,11.94503,19.611498569488525C12.0326,19.461298569488527,11.1069,19.361298569488525,10.93176,19.498898569488524C10.83169,19.573898569488524,10.76914,19.561398569488524,10.70659,19.423798569488525C10.66907,19.311198569488525,10.48142,19.236198569488526,10.26877,19.236198569488526C9.95603,19.236198569488526,9.86845,19.298698569488526,9.81842,19.573898569488524ZM13.4211,20.049298569488524C13.3461,19.748998569488524,13.3211,19.461298569488527,13.3586,19.423798569488525C13.4837,19.311198569488525,13.6088,19.498898569488524,13.6838,19.936698569488524C13.7589,20.286998569488524,13.8214,20.374498569488527,14.0466,20.361998569488524C14.4844,20.324498569488526,14.597,20.374498569488527,14.3218,20.487098569488527C13.7464,20.737298569488527,13.5587,20.637198569488525,13.4211,20.049298569488524ZM10.56899,19.749098569488524C10.43139,19.961698569488526,10.13116,19.861598569488525,10.13116,19.611498569488525C10.13116,19.386298569488524,10.16869,19.373798569488525,10.38135,19.486398569488525C10.51895,19.561398569488524,10.60652,19.673998569488525,10.56899,19.749098569488524ZM12.1327,20.111798569488524C12.1327,20.449598569488526,12.1952,20.737298569488527,12.2578,20.737298569488527C12.3328,20.737298569488527,12.3828,20.624698569488526,12.3828,20.487098569488527C12.3828,20.349498569488524,12.4579,20.236898569488524,12.5455,20.236898569488524C12.633,20.236898569488524,12.7706,20.349498569488524,12.8582,20.487098569488527C13.0208,20.749798569488526,13.2585,20.824898569488525,13.2585,20.612198569488527C13.2585,20.549698569488527,13.1834,20.424598569488527,13.0834,20.336998569488525C12.9458,20.199398569488526,12.9458,20.161898569488525,13.1084,20.036798569488525C13.4462,19.786598569488525,13.196,19.486398569488525,12.633,19.486398569488525L12.1327,19.486398569488525L12.1327,20.111798569488524ZM12.8582,19.836598569488526C12.8832,19.924198569488524,12.7831,19.986698569488524,12.6456,19.986698569488524C12.3828,19.986698569488524,12.3078,19.849098569488525,12.4704,19.686498569488524C12.583,19.573898569488524,12.7957,19.661498569488526,12.8582,19.836598569488526Z" fill-rule="evenodd" fill="#000000" fill-opacity="1"/></g></g></g></svg>