<svg xmlns="http://www.w3.org/2000/svg" xmlns:xlink="http://www.w3.org/1999/xlink" fill="none" version="1.1" width="24" height="24" viewBox="0 0 24 24"><defs><clipPath id="master_svg0_3105_4160"><rect x="0" y="0" width="24" height="24" rx="0"/></clipPath><clipPath id="master_svg1_3105_4162"><rect x="1" y="1" width="22" height="22" rx="2"/></clipPath><clipPath id="master_svg2_3125_4906"><rect x="-4.5" y="-4.5" width="33" height="33" rx="0"/></clipPath></defs><g><g clip-path="url(#master_svg0_3105_4160)"></g><g clip-path="url(#master_svg1_3105_4162)"><g clip-path="url(#master_svg2_3125_4906)"><g><path d="M11.9407,3.75Q7.75177,3.75,8.01319,5.56655L8.01834,7.44858L12.01547,7.44858L12.01547,8.01319L6.4297,8.01319Q3.75,7.70897,3.75,11.93606Q3.75,16.162100000000002,6.08939,16.0126L7.4857,16.0126L7.4857,14.0512Q7.41042,11.71177,9.78797,11.71177L13.7521,11.71177Q15.9796,11.74786,15.9796,9.55903L15.9796,5.9398599999999995Q16.3178,3.75,11.9407,3.75ZM9.73641,5.01534C10.133949999999999,5.01534,10.4557,5.33709,10.4557,5.73464C10.4557,6.13219,10.133949999999999,6.453939999999999,9.73641,6.453939999999999C9.33891,6.45451,9.016539999999999,6.13213,9.017109999999999,5.73464C9.017109999999999,5.33709,9.33886,5.01534,9.73641,5.01534Z" fill="#387EB8" fill-opacity="1"/></g><g><path d="M12.05931478515625,20.16385222167969Q16.248244785156253,20.16385222167969,15.98682478515625,18.347352221679685L15.981674785156251,16.46529222167969L11.984544785156249,16.46529222167969L11.984544785156249,15.900682221679688L17.569794785156247,15.900682221679688Q20.25005478515625,16.20490222167969,20.25005478515625,11.978322221679687Q20.25005478515625,7.751748221679687,17.91062478515625,7.901795881679687L16.51431478515625,7.901795881679687L16.51431478515625,9.862722221679688Q16.58959478515625,12.202112221679688,14.21204478515625,12.202112221679688L10.24791478515625,12.202112221679688Q8.02041908515625,12.166012221679686,8.02041908515625,14.354842221679688L8.02041908515625,17.97405222167969Q7.68216878515625,20.16385222167969,12.05931478515625,20.16385222167969ZM14.26360478515625,18.898552221679687C13.866114785156249,18.89905222167969,13.54373478515625,18.576752221679687,13.54431478515625,18.17925222167969C13.54431478515625,17.78220222167969,13.86606478515625,17.460452221679688,14.26360478515625,17.460452221679688C14.66115478515625,17.460452221679688,14.98290478515625,17.781682221679688,14.98290478515625,18.17925222167969C14.98290478515625,18.577252221679686,14.66115478515625,18.898552221679687,14.26360478515625,18.898552221679687Z" fill="#FAC814" fill-opacity="1"/></g></g></g></g></svg>