<svg xmlns="http://www.w3.org/2000/svg" xmlns:xlink="http://www.w3.org/1999/xlink" fill="none" version="1.1" width="24" height="24" viewBox="0 0 24 24"><defs><clipPath id="master_svg0_3105_4114"><rect x="0" y="0" width="24" height="24" rx="0"/></clipPath><clipPath id="master_svg1_3105_4111"><rect x="2" y="2" width="20" height="20" rx="2"/></clipPath></defs><g><g clip-path="url(#master_svg0_3105_4114)"></g><g clip-path="url(#master_svg1_3105_4111)"><rect x="2" y="2" width="20" height="20" rx="2" fill="#2882FF" fill-opacity="1"/><g><path d="M11.436270751953124,5.67596435546875L11.436270751953124,8.14280435546875L6.458770751953125,8.14280435546875L6.458770751953125,14.67534435546875L7.490020751953125,14.67534435546875L7.490020751953125,13.82155435546875L11.436270751953124,13.82155435546875L11.436270751953124,18.32406435546875L12.522520751953124,18.32406435546875L12.522520751953124,13.82155435546875L16.482570751953126,13.82155435546875L16.482570751953126,14.60637435546875L17.541270751953125,14.60637435546875L17.541270751953125,8.14280435546875L12.522520751953124,8.14280435546875L12.522520751953124,5.67596435546875L11.436270751953124,5.67596435546875ZM7.490020751953125,12.80405435546875L7.490020751953125,9.14655435546875L11.436270751953124,9.14655435546875L11.436270751953124,12.80405435546875L7.490020751953125,12.80405435546875ZM16.482570751953126,12.80405435546875L12.522520751953124,12.80405435546875L12.522520751953124,9.14655435546875L16.482570751953126,9.14655435546875L16.482570751953126,12.80405435546875Z" fill="#FFFFFF" fill-opacity="1"/></g></g></g></svg>