<svg xmlns="http://www.w3.org/2000/svg" xmlns:xlink="http://www.w3.org/1999/xlink" fill="none" version="1.1" width="24" height="24" viewBox="0 0 24 24"><defs><clipPath id="master_svg0_799_44313"><rect x="0" y="0" width="24" height="24" rx="0"/></clipPath><clipPath id="master_svg1_3105_4082"><rect x="0" y="0" width="24" height="24" rx="0"/></clipPath></defs><g clip-path="url(#master_svg0_799_44313)"><g clip-path="url(#master_svg1_3105_4082)"></g><g><g><g><path d="M10.132796062316896,14.333333015441895L6.3983560623168945,14.333333015441895C6.031694062316895,14.333333015441895,5.7344560623168945,14.594500015441895,5.7344560623168945,14.916666015441894C5.7344560623168945,15.238832015441895,6.031694062316895,15.500003015441894,6.3983560623168945,15.500003015441894L10.132796062316896,15.500003015441894C10.499456062316895,15.500003015441894,10.796686062316894,15.238832015441895,10.796686062316894,14.916666015441894C10.796686062316894,14.594500015441895,10.499456062316895,14.333333015441895,10.132796062316896,14.333333015441895Z" fill-rule="evenodd" fill="#38363C" fill-opacity="1"/></g><g><path d="M17.60166024871826,14.333333015441895L16.356850248718263,14.333333015441895C15.990188248718262,14.333333015441895,15.692950248718262,14.594500015441895,15.692950248718262,14.916666015441894C15.692950248718262,15.238832015441895,15.990188248718262,15.500003015441894,16.356850248718263,15.500003015441894L17.60166024871826,15.500003015441894C17.96832024871826,15.500003015441894,18.265560248718263,15.238832015441895,18.265560248718263,14.916666015441894C18.265560248718263,14.594500015441895,17.96832024871826,14.333333015441895,17.60166024871826,14.333333015441895Z" fill-rule="evenodd" fill="#38363C" fill-opacity="1"/></g><g transform="matrix(-1,1.2246468525851679e-16,-1.2246468525851679e-16,-1,43.99995422363281,21.666666984558102)"><path d="M41.33607711181641,10.833333492279053L22.663877111816408,10.833333492279053C22.297215111816406,10.833333492279053,21.999977111816406,11.094500492279053,21.999977111816406,11.416666492279052C21.999977111816406,11.738832492279053,22.297215111816406,12.000003492279053,22.663877111816408,12.000003492279053L41.33607711181641,12.000003492279053C41.702677111816406,12.000003492279053,41.999977111816406,11.738832492279053,41.999977111816406,11.416666492279052C41.999977111816406,11.094500492279053,41.702677111816406,10.833333492279053,41.33607711181641,10.833333492279053Z" fill-rule="evenodd" fill="#38363C" fill-opacity="1"/></g><g><path d="M22.000024795532227,17.25Q22.000024795532227,17.9637,21.455724795532227,18.4738Q20.894224795532228,19,20.091324795532227,19L3.9087347955322267,19Q3.1057647955322265,19,2.5443147955322267,18.4738Q2.0000248746752267,17.9637,2.0000247955322266,17.25L2.0000249538182264,6.75Q2.0000249538182264,6.03632,2.5443147955322267,5.526201Q3.1057647955322265,5.0000000347694,3.9087347955322267,5L20.091324795532227,5Q20.894224795532228,5,21.455724795532227,5.526201Q22.000024795532227,6.03632,22.000024795532227,6.75L22.000024795532227,17.25ZM20.672224795532227,17.25L20.672224795532227,6.75Q20.672224795532227,6.49768,20.487024795532225,6.32413Q20.319024795532226,6.16667,20.091324795532227,6.16667L3.9087347955322267,6.16667Q3.6810047955322265,6.16667,3.5129947955322267,6.32413Q3.3278247955322264,6.49768,3.3278247955322264,6.75L3.3278247955322264,17.25Q3.3278247955322264,17.502299999999998,3.5129947955322267,17.6759Q3.6810047955322265,17.8333,3.9087347955322267,17.8333L20.091324795532227,17.8333Q20.319024795532226,17.8333,20.487024795532225,17.6759Q20.672224795532227,17.502299999999998,20.672224795532227,17.25Z" fill-rule="evenodd" fill="#38363C" fill-opacity="1"/></g></g></g></g></svg>