<svg xmlns="http://www.w3.org/2000/svg" xmlns:xlink="http://www.w3.org/1999/xlink" fill="none" version="1.1" width="24" height="24" viewBox="0 0 24 24"><g><g><path d="M10.5,6C6.3578600000000005,6.000000476837,3,9.35787,3,13.5C3,17.6421,6.35787,21,10.5,21C14.6421,21,18,17.6421,18,13.5L10.5,13.5L10.5,6Z" fill="#2882FF" fill-opacity="1"/><path d="M11.25,12.75L18,12.75Q18.073900000000002,12.75,18.1463,12.76441Q18.2188,12.77882,18.287,12.807089999999999Q18.3553,12.83536,18.4167,12.8764Q18.478099999999998,12.91744,18.5303,12.96967Q18.5826,13.021899999999999,18.6236,13.08332Q18.6646,13.144739999999999,18.6929,13.21299Q18.7212,13.28124,18.735599999999998,13.35368Q18.75,13.42613,18.75,13.5Q18.75,16.917299999999997,16.3336,19.3336Q13.9173,21.75,10.5,21.75Q7.08274,21.75,4.66637,19.3336Q2.25,16.917299999999997,2.25,13.5Q2.25,10.082740000000001,4.66637,7.66637Q7.08274,5.25,10.5,5.25Q10.57387,5.25,10.64632,5.264411Q10.71877,5.278822,10.78701,5.30709Q10.855260000000001,5.335359,10.91668,5.376398Q10.978100000000001,5.417437,11.03033,5.46967Q11.08256,5.521903,11.1236,5.583322Q11.16464,5.644742,11.19291,5.712987Q11.22118,5.781233,11.23559,5.853682Q11.25,5.9261315,11.25,6L11.25,12.75ZM9.75,6.787035L9.75,13.5Q9.75,13.57387,9.76441,13.64632Q9.77882,13.71877,9.807089999999999,13.78701Q9.83536,13.855260000000001,9.8764,13.91668Q9.91744,13.978100000000001,9.96967,14.03033Q10.021899999999999,14.08256,10.08332,14.1236Q10.144739999999999,14.16464,10.21299,14.19291Q10.28123,14.22118,10.35368,14.23559Q10.42613,14.25,10.5,14.25L17.213,14.25Q16.9794,16.566499999999998,15.273,18.273Q13.2959,20.25,10.5,20.25Q7.70406,20.25,5.72703,18.273Q3.75,16.2959,3.75,13.5Q3.749999,10.70406,5.72703,8.72703Q7.43347,7.02059,9.75,6.787035Z" fill-rule="evenodd" fill="#2882FF" fill-opacity="1"/></g><g><path d="M13.5,10.5L21,10.5C21,6.3578600000000005,17.64214,3.000000476837,13.5,3L13.5,10.5Z" fill="#F97316" fill-opacity="1"/><path d="M12.96967,2.46967Q12.864181,2.575159,12.80709,2.712987Q12.75,2.850816,12.75,3L12.75,10.5Q12.75,10.57387,12.764410999999999,10.64632Q12.778822,10.71877,12.80709,10.78701Q12.835359,10.855260000000001,12.876398,10.91668Q12.917437,10.978100000000001,12.96967,11.03033Q13.021903,11.08256,13.083322,11.1236Q13.144742,11.16464,13.212987,11.19291Q13.281233,11.22118,13.353682,11.23559Q13.4261315,11.25,13.5,11.25L21,11.25Q21.07387,11.25,21.14632,11.23559Q21.21877,11.22118,21.287010000000002,11.19291Q21.35526,11.16464,21.41668,11.1236Q21.4781,11.08256,21.53033,11.03033Q21.58256,10.978100000000001,21.6236,10.91668Q21.66464,10.855260000000001,21.692909999999998,10.78701Q21.72118,10.71877,21.735590000000002,10.64632Q21.75,10.57387,21.75,10.5Q21.75,7.08274,19.33363,4.66637Q16.91726,2.250001,13.5,2.25Q13.350816,2.25,13.212987,2.307091Q13.075159,2.364181,12.96967,2.46967ZM14.25,3.787035L14.25,9.75L20.21297,9.75Q19.97941,7.43347,18.27297,5.72703Q16.56653,4.02059,14.25,3.787035Z" fill-rule="evenodd" fill="#F97316" fill-opacity="1"/></g></g></svg>