<svg xmlns="http://www.w3.org/2000/svg" xmlns:xlink="http://www.w3.org/1999/xlink" fill="none" version="1.1" width="24" height="24" viewBox="0 0 24 24"><defs><clipPath id="master_svg0_5212_05534"><rect x="0" y="0" width="24" height="24" rx="0"/></clipPath></defs><g clip-path="url(#master_svg0_5212_05534)"><g><path d="M11.250000715255737,12.75L18.000000715255737,12.75Q18.07390071525574,12.75,18.146300715255737,12.76441Q18.21880071525574,12.77882,18.287000715255736,12.807089999999999Q18.355300715255737,12.83536,18.416700715255736,12.8764Q18.478100715255735,12.91744,18.530300715255738,12.96967Q18.582600715255737,13.021899999999999,18.623600715255737,13.08332Q18.664600715255737,13.144739999999999,18.69290071525574,13.21299Q18.721200715255737,13.28123,18.735600715255735,13.35368Q18.750000715255737,13.42613,18.750000715255737,13.5Q18.750000715255737,16.917299999999997,16.333600715255738,19.3336Q13.917300715255736,21.75,10.500000715255737,21.75Q7.082740715255738,21.75,4.666370715255737,19.3336Q2.2500007152557373,16.917299999999997,2.2500007152557373,13.5Q2.2500007152557373,10.082740000000001,4.666370715255737,7.66637Q7.082740715255738,5.25,10.500000715255737,5.25Q10.573870715255737,5.25,10.646320715255737,5.264411Q10.718770715255737,5.278822,10.787010715255738,5.30709Q10.855260715255739,5.335359,10.916680715255737,5.376398Q10.978100715255739,5.417437,11.030330715255737,5.46967Q11.082560715255738,5.521903,11.123600715255737,5.583322Q11.164640715255738,5.644742,11.192910715255737,5.712987Q11.221180715255738,5.781233,11.235590715255737,5.853682Q11.250000715255737,5.9261315,11.250000715255737,6L11.250000715255737,12.75ZM9.750000715255737,6.787035L9.750000715255737,13.5Q9.750000715255737,13.57387,9.764410715255737,13.64632Q9.778820715255737,13.71877,9.807090715255736,13.78701Q9.835360715255737,13.855260000000001,9.876400715255738,13.91668Q9.917440715255736,13.978100000000001,9.969670715255738,14.03033Q10.021900715255736,14.08256,10.083320715255738,14.1236Q10.144740715255736,14.16464,10.212990715255737,14.19291Q10.281230715255738,14.22118,10.353680715255738,14.23559Q10.426130715255738,14.25,10.500000715255737,14.25L17.21300071525574,14.25Q16.979400715255736,16.566499999999998,15.273000715255737,18.273Q13.295900715255737,20.25,10.500000715255737,20.25Q7.704060715255737,20.25,5.727030715255737,18.273Q3.7500007152557373,16.2959,3.7500007152557373,13.5Q3.7500007152557373,10.70406,5.727030715255737,8.72703Q7.433470715255737,7.02059,9.750000715255737,6.787035Z" fill-rule="evenodd" fill="#000000" fill-opacity="1"/></g><g><path d="M12.96967,2.46967Q12.864181,2.575159,12.80709,2.712987Q12.75,2.850816,12.75,3L12.75,10.5Q12.75,10.57387,12.764410999999999,10.64632Q12.778822,10.71877,12.80709,10.78701Q12.835359,10.855260000000001,12.876398,10.91668Q12.917437,10.978100000000001,12.96967,11.03033Q13.021903,11.08256,13.083322,11.1236Q13.144742,11.16464,13.212987,11.19291Q13.281233,11.22118,13.353682,11.23559Q13.4261315,11.25,13.5,11.25L21,11.25Q21.07387,11.25,21.14632,11.23559Q21.21877,11.22118,21.287010000000002,11.19291Q21.35526,11.16464,21.41668,11.1236Q21.4781,11.08256,21.53033,11.03033Q21.58256,10.978100000000001,21.6236,10.91668Q21.66464,10.855260000000001,21.692909999999998,10.78701Q21.72118,10.71877,21.735590000000002,10.64632Q21.75,10.57387,21.75,10.5Q21.75,7.08274,19.33363,4.66637Q16.91726,2.250001,13.5,2.25Q13.350816,2.25,13.212987,2.307091Q13.075159,2.364181,12.96967,2.46967ZM14.25,3.787035L14.25,9.75L20.21297,9.75Q19.97941,7.43347,18.27297,5.72703Q16.56653,4.02059,14.25,3.787035Z" fill-rule="evenodd" fill="#000000" fill-opacity="1"/></g></g></svg>