<svg xmlns="http://www.w3.org/2000/svg" xmlns:xlink="http://www.w3.org/1999/xlink" fill="none" version="1.1" width="24" height="24" viewBox="0 0 24 24"><defs><clipPath id="master_svg0_4476_05849"><rect x="0" y="0" width="24" height="24" rx="0"/></clipPath></defs><g><g clip-path="url(#master_svg0_4476_05849)"></g><g><rect x="3" y="3" width="18" height="18" rx="2" fill="#2882FF" fill-opacity="1"/></g><g><path d="M9.420375537109376,11.211659838867188C9.316595537109375,11.104209838867188,9.192455537109375,11.018509838867187,9.055205537109375,10.959549838867188C8.917945537109375,10.900589838867187,8.770325537109375,10.869549838867187,8.620955537109374,10.868249838867188C8.471573537109375,10.866949838867187,8.323434537109375,10.895419838867188,8.185176537109374,10.951989838867188C8.046917537109374,11.008549838867188,7.921310537109375,11.092089838867187,7.815680537109375,11.197719838867187C7.710051537109375,11.303349838867188,7.626516537109375,11.428949838867187,7.569950737109375,11.567209838867187C7.513384737109375,11.705469838867188,7.484919967109375,11.853609838867188,7.486218013009375,12.002989838867187C7.487516057109375,12.152359838867188,7.518550137109375,12.299989838867187,7.577510237109375,12.437239838867187C7.636470537109375,12.574489838867187,7.722176537109375,12.698629838867188,7.829625537109375,12.802409838867188C7.829625537109375,12.802409838867188,10.079625537109376,15.052409838867188,10.079625537109376,15.052409838867188C10.290595537109375,15.263309838867187,10.576685537109375,15.381799838867188,10.874995537109374,15.381799838867188C11.173305537109375,15.381799838867188,11.459405537109376,15.263309838867187,11.670375537109376,15.052409838867188C11.670375537109376,15.052409838867188,16.170375537109376,10.552409838867188,16.170375537109376,10.552409838867188C16.277825537109376,10.448629838867188,16.363525537109375,10.324489838867187,16.422485537109374,10.187239838867187C16.481455537109376,10.049989838867187,16.512485537109377,9.902359838867188,16.513785537109374,9.752989838867187C16.515085537109375,9.603608838867187,16.486615537109373,9.455469838867188,16.430045537109375,9.317210838867187C16.373485537109374,9.178952838867188,16.289945537109375,9.053344838867188,16.184315537109377,8.947715838867188C16.078685537109376,8.842085838867188,15.953085537109375,8.758551838867188,15.814825537109375,8.701985538867188C15.676565537109376,8.645419538867188,15.528425537109374,8.616954268867188,15.379055537109375,8.618252314067188C15.229675537109376,8.619550358867187,15.082045537109375,8.650584938867187,14.944795537109375,8.709545038867187C14.807535537109375,8.768504838867187,14.683405537109376,8.854210838867187,14.579625537109376,8.961659838867188C14.579625537109376,8.961659838867188,10.874995537109374,12.666289838867186,10.874995537109374,12.666289838867186C10.874995537109374,12.666289838867186,9.420375537109376,11.211659838867188,9.420375537109376,11.211659838867188C9.420375537109376,11.211659838867188,9.420375537109376,11.211659838867188,9.420375537109376,11.211659838867188Z" fill-rule="evenodd" fill="#FFFFFF" fill-opacity="1"/></g></g></svg>