<svg xmlns="http://www.w3.org/2000/svg" xmlns:xlink="http://www.w3.org/1999/xlink" fill="none" version="1.1" width="24" height="24" viewBox="0 0 24 24"><defs><clipPath id="master_svg0_4476_05862"><rect x="0" y="0" width="24" height="24" rx="0"/></clipPath></defs><g><g clip-path="url(#master_svg0_4476_05862)"></g><g><rect x="3" y="3" width="18" height="18" rx="2" fill="#FFFFFF" fill-opacity="1"/></g><g><path d="M3,19L3,5C3,3.89543,3.89543,3,5,3L19,3C20.1046,3,21,3.89543,21,5L21,19C21,20.1046,20.1046,21,19,21L5,21C3.89543,21,3,20.1046,3,19ZM4,19Q4,19.4142,4.29289,19.7071Q4.58579,20,5,20L19,20Q19.4142,20,19.7071,19.7071Q20,19.4142,20,19L20,5Q20,4.58579,19.7071,4.29289Q19.4142,4,19,4L5,4Q4.58579,4,4.29289,4.29289Q4,4.58579,4,5L4,19Z" fill-rule="evenodd" fill="#CDCACF" fill-opacity="1"/></g></g></svg>