<svg xmlns="http://www.w3.org/2000/svg" xmlns:xlink="http://www.w3.org/1999/xlink" fill="none" version="1.1" width="24" height="24" viewBox="0 0 24 24"><defs><clipPath id="master_svg0_4226_9401"><rect x="0" y="0" width="24" height="24" rx="0"/></clipPath><clipPath id="master_svg1_4226_9849"><rect x="2" y="2" width="20" height="20" rx="0"/></clipPath></defs><g><g clip-path="url(#master_svg0_4226_9401)"></g><g clip-path="url(#master_svg1_4226_9849)"><g><g transform="matrix(-0.6279940605163574,0.778218150138855,-0.778218150138855,-0.6279940605163574,35.592733678712705,-9.332472762769157)"><path d="M30.956133670043947,3.8408312797546387L20.776933670043945,3.8408312797546387C20.362719670043944,3.8408312797546387,20.026933670043945,4.176617279754638,20.026933670043945,4.590831279754639C20.026933670043945,5.005041279754638,20.362719670043944,5.340831279754639,20.776933670043945,5.340831279754639L30.956133670043947,5.340831279754639C31.370433670043944,5.340831279754639,31.706133670043947,5.005041279754638,31.706133670043947,4.590831279754639C31.706133670043947,4.176617279754638,31.370433670043944,3.8408312797546387,30.956133670043947,3.8408312797546387Z" fill-rule="evenodd" fill="#38363C" fill-opacity="1"/></g><g><path d="M2.2916259765625,21.374998807907104Q2.2916259765625,16.771418807907104,4.5430359765625,13.846578807907104Q7.0228759765625,10.624998807907104,11.3749559765625,10.624998807907104Q12.3760259765625,10.624999761581105,13.0838259765625,11.332824807907105Q13.7916259765625,12.040648807907104,13.7916259765625,13.041668807907104C13.7916259765625,13.065598807907104,13.7905259765625,13.089508807907105,13.7882259765625,13.113328807907104Q13.7425259765625,13.588948807907105,13.5805259765625,14.038458807907105C13.5738259765625,14.057168807907104,13.5663259765625,14.075598807907104,13.5581259765625,14.093708807907104Q12.8028259765625,15.760538807907103,12.8947259765625,17.588188807907105Q12.9866259765625,19.415828807907104,13.9052259765625,20.998498807907104C14.0051259765625,21.170498807907105,14.0325259765625,21.375198807907104,13.9815259765625,21.567398807907104C13.9305259765625,21.759698807907107,13.8051259765625,21.923798807907104,13.6331259765625,22.023598807907106C13.5187259765625,22.089998807907104,13.3888259765625,22.124998807907104,13.2566259765625,22.124998807907104L3.0416259765625,22.124998807907104C2.6274119765625,22.124998807907104,2.2916259765625,21.789198807907106,2.2916259765625,21.374998807907104ZM12.0520259765625,20.624998807907104L3.8085059765625,20.624998807907104Q3.9726059765625,17.046748807907104,5.731675976562499,14.761538807907105Q7.7611659765625,12.124998807907104,11.3749559765625,12.124998807907104Q11.7546559765625,12.124998807907104,12.0231359765625,12.393488807907104Q12.2796559765625,12.649998807907105,12.2910959765625,13.008028807907104Q12.2624559765625,13.262368807907105,12.1784459765625,13.504278807907104Q11.2872659765625,15.488928807907104,11.3966059765625,17.663508807907103Q11.4747759765625,19.218198807907104,12.0520259765625,20.624998807907104Z" fill-rule="evenodd" fill="#38363C" fill-opacity="1"/></g><g><path d="M21.3750440234375,13.833335161209106L17.2083740234375,13.833335161209106C16.7941600234375,13.833335161209106,16.4583740234375,14.169121161209107,16.4583740234375,14.583335161209106C16.4583740234375,14.997545161209107,16.7941600234375,15.333335161209106,17.2083740234375,15.333335161209106L21.3750440234375,15.333335161209106C21.7892540234375,15.333335161209106,22.1250440234375,14.997545161209107,22.1250440234375,14.583335161209106C22.1250440234375,14.169121161209107,21.7892540234375,13.833335161209106,21.3750440234375,13.833335161209106Z" fill-rule="evenodd" fill="#38363C" fill-opacity="1"/></g><g><path d="M21.375,17.166668176651L16.375,17.166668176651C15.960786,17.166668176651,15.625,17.502454176651,15.625,17.916668176651C15.625,18.330878176651,15.960786,18.666668176651,16.375,18.666668176651L21.375,18.666668176651C21.78921,18.666668176651,22.125,18.330878176651,22.125,17.916668176651C22.125,17.502454176651,21.78921,17.166668176651,21.375,17.166668176651Z" fill-rule="evenodd" fill="#38363C" fill-opacity="1"/></g><g><path d="M21.3749559765625,20.50000023841858L18.0416259765625,20.50000023841858C17.6274119765625,20.50000023841858,17.2916259765625,20.835786238418578,17.2916259765625,21.25000023841858C17.2916259765625,21.66421023841858,17.6274119765625,22.00000023841858,18.0416259765625,22.00000023841858L21.3749559765625,22.00000023841858C21.7891759765625,22.00000023841858,22.1249559765625,21.66421023841858,22.1249559765625,21.25000023841858C22.1249559765625,20.835786238418578,21.7891759765625,20.50000023841858,21.3749559765625,20.50000023841858Z" fill-rule="evenodd" fill="#38363C" fill-opacity="1"/></g><g><path d="M12.30664419998169,14.781674016799926C12.30664419998169,14.781674016799926,12.29000419998169,14.781894016799926,12.29000419998169,14.781894016799926Q12.23454419998169,14.783244016799927,12.167154199981688,14.792414016799928Q10.994554199981689,14.814754016799927,10.22751419998169,13.922374016799926Q9.45344419998169,13.021814016799926,9.66242419998169,11.852822016799927C9.67021419998169,11.809257016799927,9.67413419998169,11.765089016799926,9.67413419998169,11.720834016799927L9.67401419998169,11.707684016799927C9.671404199981689,11.558882016799927,9.62458419998169,11.414221016799926,9.539514199981689,11.292109016799927C9.42580419998169,11.128900016799927,9.251924199981689,11.017544016799926,9.05611819998169,10.982539016799926C9.01255419998169,10.974750936799927,8.968386199981689,10.970834016799927,8.92413219998169,10.970834016799927L8.91957319998169,10.970847845099927C8.557999199981689,10.973045886799927,8.24946819998169,11.232911016799926,8.18583649998169,11.588848016799927Q7.85146419998169,13.459234016799927,9.08998319998169,14.900134016799926Q10.326904199981689,16.339174016799927,12.222984199981688,16.29153401679993Q12.286784199981689,16.290424016799925,12.36247419998169,16.279704016799926C12.54847419998169,16.266234016799928,12.722794199981688,16.183954016799927,12.85140419998169,16.048904016799927C12.98422419998169,15.909444016799927,13.058294199981688,15.724244016799926,13.058294199981688,15.531664016799926L13.058294199981688,15.531664016799926C13.058294199981688,15.531344016799927,13.05807419998169,15.513374016799926,13.05807419998169,15.513374016799926C13.048144199981689,15.106404016799928,12.715384199981688,14.781664016799926,12.308294199981688,14.781664016799926L12.30664419998169,14.781674016799926Z" fill-rule="evenodd" fill="#38363C" fill-opacity="1"/></g><g><path d="M7.284821848220825,18.683103176651002Q7.033231848220825,19.993308176651002,7.123231848220826,21.324408176651C7.124371848220825,21.341168176651003,7.124941848220825,21.357958176651,7.124941848220825,21.374758176651L7.124941848220825,21.374758176651C7.124941848220825,21.769578176651002,6.819211848220825,22.096678176651,6.425540848220825,22.123288176651002C6.409030848220826,22.124408176651002,6.392488848220825,22.124978176651002,6.375941848220825,22.124998176651L6.375941848220825,22.124998176651C6.193519848220825,22.124998176651,6.018246848220826,22.059238176651,5.8815988482208255,21.939898176651C5.731777848220825,21.809058176651,5.640070748220825,21.624058176651,5.626651348220825,21.425598176651L5.626651348220825,21.425598176651Q5.523594248220825,19.900758176651003,5.811732848220825,18.400233176651C5.874856848220825,18.071505176651,6.148177848220826,17.824403976651002,6.481585848220825,17.794639166651002C6.503760848220825,17.792659461651002,6.526012848220825,17.791668176651,6.548275848220825,17.791668176651C6.595740848220825,17.791668176651,6.643101848220825,17.796173926651,6.689711848220825,17.805124776651002C7.018441848220825,17.868248776651,7.265541848220825,18.141569176651,7.295301848220825,18.474977176651002C7.297281848220825,18.497152176651,7.298271848220825,18.519405176651002,7.298271848220825,18.541668176651C7.298271848220825,18.589133176651,7.293771848220825,18.636490176651,7.284821848220825,18.683103176651002Z" fill-rule="evenodd" fill="#38363C" fill-opacity="1"/></g><g><path d="M10.222803179473877,18.661494176651Q9.955843179473877,20.310938176651,10.376323179473877,20.972838176651003C10.447513179473876,21.084898176651002,10.487683179473876,21.213838176651002,10.492723179473877,21.346508176651C10.492723179473877,21.346508176651,10.493263179473876,21.374998176651,10.493263179473876,21.374998176651C10.493263179473876,21.631638176651002,10.362053179473877,21.870448176651003,10.145433179473876,22.008058176651C10.030443179473878,22.081108176651,9.897723179473877,22.121458176651,9.761523179473876,22.124778176651C9.761523179473876,22.124778176651,9.743263179473876,22.124998176651,9.743263179473876,22.124998176651C9.688353179473877,22.124998176651,9.633603179473877,22.118968176651002,9.580001179473877,22.107018176651C9.385859179473877,22.063718176651,9.216870179473878,21.945068176651002,9.110209179473877,21.777168176651003Q8.384027179473877,20.634058176651003,8.742069179473877,18.421842176651C8.799838179473877,18.064907176651,9.104053179473876,17.800002936651,9.465541179473878,17.791858434651C9.465541179473878,17.791858434651,9.482435179473876,17.791668176651,9.482435179473876,17.791668176651C9.522570179473878,17.791668176651,9.562641179473877,17.794889866651,9.602261179473876,17.801302256651002C9.959193179473877,17.859071276651,10.224103179473877,18.163286176651003,10.232243179473876,18.524774176651C10.232243179473876,18.524774176651,10.232433179473876,18.541668176651,10.232433179473876,18.541668176651C10.232433179473876,18.581804176651,10.229213179473877,18.621874176651,10.222803179473877,18.661494176651Z" fill-rule="evenodd" fill="#38363C" fill-opacity="1"/></g></g></g></g></svg>