<svg xmlns="http://www.w3.org/2000/svg" xmlns:xlink="http://www.w3.org/1999/xlink" fill="none" version="1.1" width="24" height="24" viewBox="0 0 24 24"><defs><clipPath id="master_svg0_5233_12478"><rect x="0" y="0" width="24" height="24" rx="0"/></clipPath><clipPath id="master_svg1_5233_12480"><rect x="3" y="3" width="18" height="18" rx="0"/></clipPath></defs><g><g clip-path="url(#master_svg0_5233_12478)"></g><g clip-path="url(#master_svg1_5233_12480)"><g><g transform="matrix(-0.6279940605163574,0.778218150138855,-0.778218150138855,-0.6279940605163574,34.823836422588876,-7.263468822599904)"><path d="M28.909279603538515,4.691558063030243L19.747969603538515,4.691558063030243C19.416598603538514,4.691558063030243,19.147969603538513,4.960187063030243,19.147969603538513,5.291558063030243C19.147969603538513,5.622929063030243,19.416598603538514,5.891558063030243,19.747969603538515,5.891558063030243L28.909279603538515,5.891558063030243C29.240669603538514,5.891558063030243,29.509269603538513,5.622929063030243,29.509269603538513,5.291558063030243C29.509269603538513,4.960187063030243,29.240669603538514,4.691558063030243,28.909279603538515,4.691558063030243Z" fill-rule="evenodd" fill="#38363C" fill-opacity="1"/></g><g><path d="M3.337499976158142,20.437505102157594Q3.337499856949142,16.319805102157595,5.348199976158142,13.707675102157593Q7.557539976158142,10.837504744529593,11.437499976158142,10.837505102157593Q12.307349976158141,10.837504148483593,12.922419976158142,11.452580102157594Q13.537499976158141,12.067655102157593,13.537499976158141,12.937505102157592C13.537499976158141,12.956645102157593,13.536599976158142,12.975775102157593,13.534799976158142,12.994835102157593Q13.494599976158142,13.413505102157593,13.351999976158142,13.809185102157592C13.346599976158142,13.824155102157594,13.340599976158142,13.838905102157593,13.334009976158143,13.853395102157593Q12.646759976158142,15.370095102157592,12.730379976158142,17.033135102157594Q12.813999976158142,18.696185102157592,13.649899976158142,20.136295102157593C13.729799976158143,20.27392510215759,13.751699976158141,20.437645102157592,13.710899976158142,20.591445102157593C13.670099976158141,20.745255102157593,13.569799976158142,20.876505102157594,13.432199976158142,20.956405102157593C13.340699976158142,21.009505102157593,13.236789976158143,21.037505102157592,13.130999976158142,21.037505102157592L3.937499976158142,21.037505102157592C3.606128976158142,21.037505102157592,3.337499976158142,20.768875102157594,3.337499976158142,20.437505102157594ZM12.159569976158142,19.837505102157593L4.5493899761581424,19.837505102157593Q4.6822499761581415,16.540125102157592,6.299109976158142,14.439645102157593Q8.148179976158142,12.037505102157592,11.437499976158142,12.037505102157592Q11.810289976158142,12.037505102157592,12.073899976158142,12.301105102157592Q12.327819976158143,12.555035102157593,12.337139976158142,12.910275102157593Q12.310539976158141,13.151945102157592,12.230389976158142,13.381595102157593Q11.434309976158142,15.152675102157593,11.531889976158142,17.093395102157594Q11.604469976158143,18.536945102157592,12.159569976158142,19.837505102157593Z" fill-rule="evenodd" fill="#38363C" fill-opacity="1"/></g><g><path d="M20.437499976158144,13.687501668930054L16.687499976158144,13.687501668930054C16.356128976158143,13.687501668930054,16.087499976158142,13.956130668930054,16.087499976158142,14.287501668930053C16.087499976158142,14.618872668930054,16.356128976158143,14.887501668930053,16.687499976158144,14.887501668930053L20.437499976158144,14.887501668930053C20.768869976158143,14.887501668930053,21.03749997615814,14.618872668930054,21.03749997615814,14.287501668930053C21.03749997615814,13.956130668930054,20.768869976158143,13.687501668930054,20.437499976158144,13.687501668930054Z" fill-rule="evenodd" fill="#38363C" fill-opacity="1"/></g><g><path d="M20.437499976158144,16.687501668930054L15.937499976158142,16.687501668930054C15.606128976158143,16.687501668930054,15.337499976158142,16.956130668930054,15.337499976158142,17.287501668930055C15.337499976158142,17.618872668930052,15.606128976158143,17.887501668930053,15.937499976158142,17.887501668930053L20.437499976158144,17.887501668930053C20.768869976158143,17.887501668930053,21.03749997615814,17.618872668930052,21.03749997615814,17.287501668930055C21.03749997615814,16.956130668930054,20.768869976158143,16.687501668930054,20.437499976158144,16.687501668930054Z" fill-rule="evenodd" fill="#38363C" fill-opacity="1"/></g><g><path d="M20.437499976158144,19.68748641014099L17.437499976158144,19.68748641014099C17.106128976158143,19.68748641014099,16.837499976158142,19.956115410140992,16.837499976158142,20.287486410140993C16.837499976158142,20.61885741014099,17.106128976158143,20.88748641014099,17.437499976158144,20.88748641014099L20.437499976158144,20.88748641014099C20.768869976158143,20.88748641014099,21.03749997615814,20.61885741014099,21.03749997615814,20.287486410140993C21.03749997615814,19.956115410140992,20.768869976158143,19.68748641014099,20.437499976158144,19.68748641014099Z" fill-rule="evenodd" fill="#38363C" fill-opacity="1"/></g><g><path d="M9.83173962047577,11.748752927780151C9.83173962047577,11.784399927780152,9.828559620475769,11.819974927780152,9.82224962047577,11.855057927780152Q9.628259620475768,12.941772927780152,10.347909620475768,13.77902292778015Q11.062739620475769,14.61067292778015,12.15633962047577,14.588072927780152Q12.214439620475769,14.579972927780151,12.26134962047577,14.578722927780152L12.26284962047577,14.578682927780152C12.26284962047577,14.578682927780152,12.27748962047577,14.578502927780152,12.27748962047577,14.578502927780152C12.60885962047577,14.578502927780152,12.87748962047577,14.847132927780152,12.87748962047577,15.178502927780151C12.87748962047577,15.49403292778015,12.633099620475768,15.755642927780151,12.31829962047577,15.777112927780152Q12.25303962047577,15.786482927780153,12.199059620475769,15.787402927780152Q10.527989620475768,15.829472927780152,9.43787962047577,14.561232927780152Q8.34643562047577,13.291442927780151,8.64110102047577,11.64316392778015C8.69224862047577,11.357059927780151,8.94109762047577,11.148752987384752,9.231736620475768,11.148752987384752C9.563107620475769,11.148752987384752,9.83173962047577,11.417381927780152,9.83173962047577,11.748752927780151ZM12.17181962047577,14.587702927780152L12.166209620475769,14.587852927780151L12.17313962047577,14.587642927780152L12.17181962047577,14.587702927780152Z" fill-rule="evenodd" fill="#38363C" fill-opacity="1"/></g><g><path d="M7.693514653587341,17.887501096725465C7.693514653587341,17.925473096725465,7.6899146535873415,17.963359096725465,7.682754653587342,18.000649096725464Q7.4544846535873415,19.189351096725463,7.536144653587341,20.397021096725464C7.537054653587341,20.410491096725465,7.537514653587341,20.424001096725462,7.537514653587341,20.437501096725462C7.537514653587341,20.768871096725462,7.268886653587341,21.037501096725464,6.937515653587341,21.037501096725464C6.621855653587342,21.037501096725464,6.3601778535873414,20.792921096725465,6.3388823535873415,20.477981096725465Q6.2467710535873415,19.115371096725465,6.504280653587341,17.774353096725463C6.558542653587342,17.491774096725464,6.805773653587341,17.287501096725464,7.093515653587342,17.287501096725464C7.424884653587341,17.287501096725464,7.693514653587341,17.556130096725465,7.693514653587341,17.887501096725465Z" fill-rule="evenodd" fill="#38363C" fill-opacity="1"/></g><g><path d="M10.334255498466492,17.887501096725465C10.334255498466492,17.919609096725463,10.331685498466491,17.951666096725464,10.326555498466492,17.983362096725465L10.326555498466492,17.983362096725465Q10.081775498466492,19.496061096725462,10.475455498466491,20.115771096725464C10.536555498466491,20.211951096725464,10.569005498466492,20.323551096725463,10.569005498466492,20.437501096725462C10.569005498466492,20.768871096725462,10.300375498466492,21.037501096725464,9.969008498466492,21.037501096725464C9.763702498466492,21.037501096725464,9.572650498466492,20.932531096725462,9.462560498466491,20.759231096725465L9.462560498466491,20.759231096725465Q8.824477498466491,19.753901096725464,9.141887498466492,17.792121096725463L9.141887498466492,17.792121096725463C9.188996498466492,17.501053096725464,9.439889498466492,17.287501096725464,9.734258498466492,17.287501096725464C10.065625498466492,17.287501096725464,10.334255498466492,17.556130096725465,10.334255498466492,17.887501096725465Z" fill-rule="evenodd" fill="#38363C" fill-opacity="1"/></g></g></g></g></svg>