<svg xmlns="http://www.w3.org/2000/svg" xmlns:xlink="http://www.w3.org/1999/xlink" fill="none" version="1.1" width="24" height="24" viewBox="0 0 24 24"><defs><clipPath id="master_svg0_234_18621"><rect x="0" y="0" width="24" height="24" rx="0"/></clipPath><clipPath id="master_svg1_3125_3549"><rect x="0" y="0" width="24" height="24" rx="0"/></clipPath></defs><g clip-path="url(#master_svg0_234_18621)"><g clip-path="url(#master_svg1_3125_3549)"></g><g><g><g><path d="M2,12C2,6.5,6.5,2,12,2C17.5,2,22,6.5,22,12C22,17.5,17.5,22,12,22C6.5,22,2,17.5,2,12ZM16.5354,8.464459999999999Q16.5354,8.66337,16.4593,8.84714Q16.383200000000002,9.03091,16.2426,9.17156L13.4142,11.99995L16.2426,14.8284Q16.3122,14.898,16.367,14.9799Q16.4217,15.0618,16.459400000000002,15.1528Q16.4971,15.2438,16.5163,15.3404Q16.5355,15.437,16.5355,15.5355Q16.5355,15.634,16.5163,15.7306Q16.4971,15.8272,16.459400000000002,15.9182Q16.4217,16.0092,16.367,16.0911Q16.3122,16.1729,16.2426,16.2426Q16.173000000000002,16.3122,16.0911,16.3669Q16.0092,16.4217,15.9182,16.459400000000002Q15.8272,16.497,15.7306,16.5163Q15.634,16.5355,15.5355,16.5355Q15.437,16.5355,15.3404,16.5163Q15.2438,16.497,15.1528,16.459400000000002Q15.0618,16.4217,14.9799,16.3669Q14.898,16.3122,14.8284,16.2426L11.99996,13.4142L9.17149,16.2426Q9.03083,16.3833,8.847059999999999,16.459400000000002Q8.66329,16.5355,8.46438,16.5355Q8.26547,16.5355,8.0817,16.459400000000002Q7.89793,16.3833,7.75727,16.2426Q7.68763,16.173000000000002,7.63291,16.0911Q7.57819,16.0092,7.5405,15.9182Q7.50281,15.8272,7.48359,15.7306Q7.46438,15.634,7.46438,15.5355Q7.46438,15.437,7.48359,15.3404Q7.50281,15.2438,7.5405,15.1528Q7.57819,15.0618,7.63291,14.98Q7.68763,14.8981,7.75727,14.8284L10.58574,11.99995L7.75732,9.171520000000001Q7.68767,9.101880000000001,7.63295,9.01998Q7.57823,8.938089999999999,7.54054,8.847100000000001Q7.50285,8.7561,7.48364,8.659500000000001Q7.46442,8.562899999999999,7.46442,8.46441Q7.46442,8.36592,7.48364,8.26932Q7.50285,8.17272,7.54054,8.08173Q7.57823,7.99074,7.63295,7.90884Q7.68767,7.82695,7.75732,7.75731Q7.82696,7.68766,7.90885,7.63294Q7.99075,7.57822,8.08174,7.54053Q8.17273,7.50284,8.26933,7.48363Q8.365929999999999,7.46441,8.46442,7.46441Q8.562909999999999,7.46441,8.659510000000001,7.48363Q8.75611,7.50284,8.84711,7.54053Q8.9381,7.57822,9.01999,7.63294Q9.101890000000001,7.68766,9.17153,7.75731L11.99996,10.58573L14.8283,7.75735Q14.969,7.6167,15.1528,7.54058Q15.3365,7.46446,15.5354,7.46446Q15.7344,7.46446,15.9181,7.54058Q16.1019,7.6167,16.2426,7.75735Q16.383200000000002,7.898,16.4593,8.081769999999999Q16.5354,8.26554,16.5354,8.464459999999999Z" fill-rule="evenodd" fill="#AFABB3" fill-opacity="1"/></g></g></g></g></svg>