<svg xmlns="http://www.w3.org/2000/svg" xmlns:xlink="http://www.w3.org/1999/xlink" fill="none" version="1.1" width="24" height="24" viewBox="0 0 24 24"><defs><clipPath id="master_svg0_3125_4256"><rect x="0" y="0" width="24" height="24" rx="0"/></clipPath></defs><g><g clip-path="url(#master_svg0_3125_4256)"></g><g><g><g><g><path d="M4.4137199165534975,9.722147930374145L9.283589916553497,9.014497930374144L11.461979916553497,4.601333930374145C11.532409916553497,4.458640930374146,11.656649916553498,4.349772130374146,11.807349916553498,4.298678030374146C11.958049916553497,4.247583930374145,12.122879916553497,4.258449430374146,12.265569916553497,4.328884330374145C12.383869916553497,4.387277930374146,12.479629916553497,4.4830339303741455,12.538019916553496,4.601333930374145L14.716399916553497,9.014497930374144L19.586299916553497,9.722147930374145C19.914199916553496,9.769797930374146,20.141399916553496,10.074257930374145,20.093799916553497,10.402187930374145C20.0747999165535,10.532777930374145,20.013299916553496,10.653467930374145,19.918799916553496,10.745577930374147L16.3946999165535,14.180417930374146L17.226399916553497,19.031507930374147C17.282399916553498,19.358107930374146,17.062999916553498,19.668307930374148,16.736399916553495,19.724307930374145C16.606299916553496,19.746607930374147,16.4725999165535,19.725407930374146,16.355799916553497,19.664007930374147L11.999999916553497,17.373807930374145L7.644229916553497,19.664007930374147C7.503379916553497,19.738007930374145,7.3388799165534975,19.753107930374146,7.186919916553498,19.705907930374146C7.034959916553497,19.658607930374146,6.907989916553497,19.553007930374143,6.8339299165534975,19.412107930374148C6.772529916553497,19.295307930374143,6.751329916553497,19.161607930374146,6.773629916553498,19.031507930374147L7.605329916553497,14.180417930374146L4.081212916553497,10.745577930374147C3.967257116553497,10.634507930374145,3.9020905465534974,10.482717930374147,3.9000493288534974,10.323607930374145C3.8980080465534974,10.164487930374145,3.9592593165534975,10.011077930374146,4.070327916553497,9.897117930374145C4.162435916553497,9.802617930374145,4.283128916553498,9.741117930374145,4.4137199165534975,9.722147930374145ZM10.220019916553497,9.828487930374145C10.132619916553498,10.005547930374146,9.963689916553498,10.128277930374146,9.768279916553498,10.156667930374145L5.789449916553497,10.734837930374145L8.668789916553497,13.541237930374146C8.810199916553497,13.679067930374146,8.874739916553498,13.877657930374145,8.841369916553496,14.072297930374145L8.161799916553498,18.036107930374143L11.720769916553497,16.164807930374145C11.895579916553498,16.072907930374143,12.104419916553498,16.072907930374143,12.279229916553497,16.164807930374145L15.838199916553497,18.036107930374143L15.158599916553497,14.072297930374145C15.125299916553498,13.877657930374145,15.189799916553497,13.679067930374146,15.331199916553498,13.541237930374146L18.210599916553498,10.734837930374145L14.231699916553497,10.156667930374145C14.036299916553498,10.128277930374146,13.867379916553498,10.005547930374146,13.779979916553497,9.828487930374145L11.999999916553497,6.222457930374145L10.220019916553497,9.828487930374145Z" fill-rule="evenodd" fill="#AFABB3" fill-opacity="1"/></g></g></g></g></g></svg>