<svg xmlns="http://www.w3.org/2000/svg" xmlns:xlink="http://www.w3.org/1999/xlink" fill="none" version="1.1" width="24" height="24" viewBox="0 0 24 24"><defs><clipPath id="master_svg0_4300_11399"><rect x="0" y="0" width="24" height="24" rx="0"/></clipPath><clipPath id="master_svg1_4300_11514"><rect x="3" y="3" width="18" height="18" rx="0"/></clipPath></defs><g><g clip-path="url(#master_svg0_4300_11399)"></g><g clip-path="url(#master_svg1_4300_11514)"><g><g><path d="M19.33030024986267,10.07526548828125L19.33030024986267,10.07526548828125Q21.07120024986267,12.01959048828125,20.99930024986267,14.628080488281249Q20.92740024986267,17.23675048828125,19.08206024986267,19.08206048828125Q17.23675024986267,20.92740048828125,14.62808024986267,20.99930048828125Q12.01962024986267,21.07120048828125,10.075568249862672,19.33057048828125L10.075568249862672,19.33057048828125C9.964125049862671,19.230780488281248,9.897071119862671,19.09119048828125,9.888853907862671,18.94223048828125C9.88829524786267,18.93210048828125,9.888010576362671,18.92196048828125,9.888000249862671,18.91182048828125L9.888000249862671,18.91182048828125C9.887999936938671,18.77278048828125,9.93907574986267,18.639170488281252,10.03144824986267,18.53601048828125C10.13096624986267,18.42488048828125,10.270559249862671,18.35782048828125,10.419517249862672,18.34960048828125C10.42983424986267,18.34903048828125,10.440167249862672,18.34875048828125,10.450502249862671,18.34875048828125C10.588972249862671,18.34875048828125,10.72257724986267,18.39983048828125,10.82573524986267,18.49220048828125L10.82713624986267,18.493450488281248Q12.437120249862671,19.93420048828125,14.59709024986267,19.87470048828125Q16.758000249862672,19.81514048828125,18.28657024986267,18.28657048828125Q19.815140249862672,16.75799048828125,19.87470024986267,14.59709048828125Q19.93420024986267,12.43712048828125,18.49345024986267,10.82713748828125L18.49224024986267,10.82578148828125C18.406070249862672,10.72954648828125,18.35565024986267,10.60665348828125,18.34941024986267,10.47768748828125C18.34897024986267,10.46863048828125,18.348750249862672,10.45956548828125,18.348750249862672,10.45050048828125C18.348750249862672,10.29054448828125,18.41685024986267,10.13815248828125,18.53601024986267,10.03144848828125C18.63320024986267,9.94442188828125,18.75762024986267,9.89388288828125,18.88797024986267,9.88848261528125C18.88797024986267,9.88848261528125,18.911250249862672,9.88800048828125,18.911250249862672,9.88800048828125C18.92158024986267,9.88800053298475,18.93191024986267,9.88828524928125,18.94223024986267,9.88885441428125C19.09119024986267,9.89707153828125,19.23078024986267,9.96412538828125,19.33030024986267,10.07526548828125Z" fill-rule="evenodd" fill="#38363C" fill-opacity="1"/></g><g><path d="M16.039199761581422,12.35312Q16.49999976158142,11.189250000000001,16.49999976158142,9.9375Q16.49999976158142,8.68574,16.039199761581422,7.52188Q15.53889976158142,6.25817,14.57789976158142,5.29711Q13.61679976158142,4.336057,12.353119761581421,3.835764Q11.189249761581422,3.375,9.937499761581421,3.375Q8.68574976158142,3.375,7.521879761581421,3.835764Q6.258169761581421,4.336056,5.297109761581421,5.29711Q4.336055761581421,6.25817,3.835763761581421,7.52188Q3.374999761581421,8.68574,3.374999761581421,9.9375Q3.374999761581421,11.189250000000001,3.835763761581421,12.35312Q4.336055761581421,13.6168,5.297109761581421,14.5779Q6.258169761581421,15.5389,7.521879761581421,16.0392Q8.68573976158142,16.5,9.937499761581421,16.5Q11.189259761581422,16.5,12.353119761581421,16.0392Q13.61679976158142,15.5389,14.57789976158142,14.5779Q15.53889976158142,13.6168,16.039199761581422,12.35312ZM13.782399761581422,6.0926100000000005Q15.374999761581421,7.68521,15.374999761581421,9.9375Q15.374999761581421,12.18979,13.782399761581422,13.7824Q12.189789761581421,15.375,9.937499761581421,15.375Q7.6852097615814206,15.375,6.092609761581421,13.7824Q4.499999761581421,12.18979,4.499999761581421,9.9375Q4.499999761581421,7.68521,6.092609761581421,6.0926100000000005Q7.6852097615814206,4.5,9.937499761581421,4.5Q12.189789761581421,4.5,13.782399761581422,6.0926100000000005Z" fill-rule="evenodd" fill="#38363C" fill-opacity="1"/></g></g></g></g></svg>