<svg xmlns="http://www.w3.org/2000/svg" xmlns:xlink="http://www.w3.org/1999/xlink" fill="none" version="1.1" width="24" height="24" viewBox="0 0 24 24"><defs><clipPath id="master_svg0_799_33805"><rect x="0" y="0" width="24" height="24" rx="0"/></clipPath><clipPath id="master_svg1_3105_4081"><rect x="0" y="0" width="24" height="24" rx="0"/></clipPath></defs><g clip-path="url(#master_svg0_799_33805)"><g clip-path="url(#master_svg1_3105_4081)"></g><g><g><g transform="matrix(0,1,-1,0,20.90000057220459,1.9000005722045898)"><path d="M16.1,11.40000057220459L10.1,11.40000057220459C9.768629,11.40000057220459,9.5,11.67982257220459,9.5,12.02500057220459C9.5,12.37017857220459,9.768629,12.65000057220459,10.1,12.65000057220459L16.1,12.65000057220459C16.43137,12.65000057220459,16.7,12.37017857220459,16.7,12.02500057220459C16.7,11.67982257220459,16.43137,11.40000057220459,16.1,11.40000057220459Z" fill-rule="evenodd" fill="#38363C" fill-opacity="1"/></g><g transform="matrix(0,1,-1,0,27.15000057220459,-4.34999942779541)"><path d="M22.35,11.40000057220459L16.35,11.40000057220459C16.018629,11.40000057220459,15.75,11.67982257220459,15.75,12.02500057220459C15.75,12.37017857220459,16.018629,12.65000057220459,16.35,12.65000057220459L22.35,12.65000057220459C22.68137,12.65000057220459,22.95,12.37017857220459,22.95,12.02500057220459C22.95,11.67982257220459,22.68137,11.40000057220459,22.35,11.40000057220459Z" fill-rule="evenodd" fill="#38363C" fill-opacity="1"/></g><g><path d="M17.625,14.40000057220459L6.375,14.40000057220459C6.029822,14.40000057220459,5.75,14.66862957220459,5.75,15.00000057220459C5.75,15.33137157220459,6.029822,15.60000057220459,6.375,15.60000057220459L17.625,15.60000057220459C17.9702,15.60000057220459,18.25,15.33137157220459,18.25,15.00000057220459C18.25,14.66862957220459,17.9702,14.40000057220459,17.625,14.40000057220459Z" fill-rule="evenodd" fill="#38363C" fill-opacity="1"/></g><g><path d="M5.125,9L18.875,9C19.2202,9,19.5,9.268629,19.5,9.6C19.5,9.931371,19.2202,10.2,18.875,10.2L5.125,10.2C4.779822,10.2,4.5,9.931371,4.5,9.6C4.5,9.268629,4.779822,9,5.125,9Z" fill-rule="evenodd" fill="#38363C" fill-opacity="1"/></g><g><path d="M22,19.200000095367432Q22,19.945600095367432,21.4508,20.472800095367433Q20.9016,21.000000095367433,20.125,21.000000095367433L3.875,21.000000095367433Q3.09835,21.000000095367433,2.549175,20.472800095367433Q2,19.945600095367432,2,19.200000095367432L2.0000000745058,7.2000000953674315Q2.000000111759,6.454420095367432,2.549175,5.9272080953674315Q3.09835,5.400000095367432,3.875,5.400000095367432L20.125,5.400000095367432Q20.9016,5.400000095367432,21.4508,5.9272080953674315Q22,6.454420095367432,22,7.2000000953674315L22,19.200000095367432ZM20.75,19.200000095367432L20.75,7.2000000953674315Q20.75,6.951470095367432,20.5669,6.775740095367432Q20.3839,6.600000095367432,20.125,6.600000095367432L3.875,6.600000095367432Q3.61612,6.600000095367432,3.4330600000000002,6.775740095367432Q3.25,6.951470095367432,3.25,7.2000000953674315L3.25,19.200000095367432Q3.25,19.448500095367432,3.4330600000000002,19.62430009536743Q3.61612,19.80000009536743,3.875,19.80000009536743L20.125,19.80000009536743Q20.3839,19.80000009536743,20.5669,19.62430009536743Q20.75,19.448500095367432,20.75,19.200000095367432Z" fill-rule="evenodd" fill="#38363C" fill-opacity="1"/></g><g transform="matrix(0,1,-1,0,11.25,-5.25)"><path d="M8.85,3L11.25,3C11.58137,3,11.85,3.2798220000000002,11.85,3.625C11.85,3.9701779999999998,11.58137,4.25,11.25,4.25L8.85,4.25C8.518629,4.25,8.25,3.9701779999999998,8.25,3.625C8.25,3.2798220000000002,8.518629,3,8.85,3Z" fill-rule="evenodd" fill="#38363C" fill-opacity="1"/></g><g transform="matrix(0,1,-1,0,20,-14)"><path d="M17.6,3L20,3C20.33137,3,20.6,3.2798220000000002,20.6,3.625C20.6,3.9701779999999998,20.33137,4.25,20,4.25L17.6,4.25C17.268629,4.25,17,3.9701779999999998,17,3.625C17,3.2798220000000002,17.268629,3,17.6,3Z" fill-rule="evenodd" fill="#38363C" fill-opacity="1"/></g></g></g></g></svg>