<svg xmlns="http://www.w3.org/2000/svg" xmlns:xlink="http://www.w3.org/1999/xlink" fill="none" version="1.1" width="24" height="24" viewBox="0 0 24 24"><defs><clipPath id="master_svg0_234_6225"><rect x="0" y="0" width="24" height="24" rx="0"/></clipPath><clipPath id="master_svg1_3105_3543"><rect x="0" y="0" width="24" height="24" rx="0"/></clipPath></defs><g clip-path="url(#master_svg0_234_6225)"><g clip-path="url(#master_svg1_3105_3543)"></g><g><g><g><path d="M13.5,5.5L13.5,4L10.5,4L10.5,5.5C10.5,6.05228,10.05228,6.5,9.5,6.5C8.947715,6.5,8.5,6.05228,8.5,5.5L8.5,3C8.5,2.447715,8.947715,2,9.5,2L14.5,2C15.05228,2,15.5,2.447715,15.5,3L15.5,5.5C15.5,6.05228,15.05228,6.5,14.5,6.5C13.94771,6.5,13.5,6.05228,13.5,5.5Z" fill-rule="evenodd" fill="#38363C" fill-opacity="1"/></g><g><path d="M4.25,9.545454502105713C4.25,9.569814502105713,4.250890374,9.594174502105712,4.25266939,9.618474502105713L4.924294,18.79195450210571Q5.024615,20.155554502105712,6.05076,21.08305450210571Q7.065300000000001,21.999954502105712,8.44613,21.999954502105712L15.5488,21.999954502105712Q16.9295,21.999954502105712,17.9438,21.08415450210571Q18.9703,20.15735450210571,19.0706,18.793954502105713L19.7473,9.619004502105714C19.7491,9.594534502105713,19.75,9.569994502105713,19.75,9.545454502105713C19.75,8.993169502105713,19.302300000000002,8.545454502105713,18.75,8.545454502105713C18.2262,8.545454502105713,17.7912,8.949571502105712,17.7527,9.471901502105712L17.076,18.647154502105714Q17.034599999999998,19.210554502105715,16.6035,19.59975450210571Q16.1602,19.999954502105712,15.5488,19.999954502105712L8.44613,19.999954502105712Q7.83519,19.999954502105712,7.39182,19.599254502105715Q6.9604099999999995,19.20935450210571,6.91896,18.645854502105713L6.24733,9.472435502105713C6.2090700000000005,8.949879502105713,5.77396,8.545454502105713,5.25,8.545454502105713C4.697715,8.545454502105713,4.25,8.993169502105713,4.25,9.545454502105713Z" fill-rule="evenodd" fill="#38363C" fill-opacity="1"/></g><g><path d="M3,5L21,5C21.5523,5,22,5.447715,22,6C22,6.55228,21.5523,7,21,7L3,7C2.447715,7,2,6.55228,2,6C2,5.447715,2.447715,5,3,5Z" fill-rule="evenodd" fill="#38363C" fill-opacity="1"/></g></g></g></g></svg>