<svg xmlns="http://www.w3.org/2000/svg" xmlns:xlink="http://www.w3.org/1999/xlink" fill="none" version="1.1" width="24" height="24" viewBox="0 0 24 24"><defs><clipPath id="master_svg0_3253_05686"><rect x="0" y="0" width="24" height="24" rx="0"/></clipPath><clipPath id="master_svg1_3253_05692"><rect x="0" y="0" width="24" height="24" rx="0"/></clipPath><clipPath id="master_svg2_3253_05697"><rect x="2" y="2" width="20" height="20" rx="0"/></clipPath></defs><g clip-path="url(#master_svg0_3253_05686)"><g clip-path="url(#master_svg1_3253_05692)"></g><g clip-path="url(#master_svg2_3253_05697)"><g><g><g><path d="M3.6667070234375,14.5C3.2064700234375,14.5,2.8333740234375,14.873096,2.8333740234375,15.333333L2.8333740234375,18.66667Q2.833374073108,19.7022,3.5656070234375,20.43443Q4.2978440234375,21.16667,5.3333740234375,21.16667L18.6666740234375,21.16667Q19.7022740234375,21.16667,20.4344740234375,20.43443Q21.1666740234375,19.7022,21.1666740234375,18.66667L21.1666740234375,15.333333C21.1666740234375,14.873096,20.7935740234375,14.5,20.3333740234375,14.5C19.8731740234375,14.5,19.5000740234375,14.873096,19.5000740234375,15.333333L19.5000740234375,18.66667Q19.5000740234375,19.01184,19.2559740234375,19.25592Q19.0118740234375,19.5,18.6666740234375,19.5L5.3333740234375,19.5Q4.9881940234375,19.5,4.7441140234375005,19.25592Q4.5000440234375,19.01185,4.5000440234375,18.66667L4.5000440234375,15.333333C4.5000440234375,14.873096,4.1269440234375,14.5,3.6667070234375,14.5Z" fill-rule="evenodd" fill="#38363C" fill-opacity="1"/></g><g transform="matrix(0,1,-1,0,14.8333740234375,-10.8333740234375)"><path d="M13.6667070234375,2L26.1666740234375,2C26.626974023437498,2,27.0000740234375,2.373096,27.0000740234375,2.833333C27.0000740234375,3.29357,26.626974023437498,3.66667,26.1666740234375,3.66667L13.6667070234375,3.66667C13.2064700234375,3.66667,12.8333740234375,3.29357,12.8333740234375,2.833333C12.8333740234375,2.373096,13.2064700234375,2,13.6667070234375,2Z" fill-rule="evenodd" fill="#38363C" fill-opacity="1"/></g><g><path d="M12,14.154825876464844L8.42269,10.577512876464844C8.26631,10.421133276464843,8.05435,10.333335876464844,7.833333,10.333335876464844C7.373096,10.333335876464844,7,10.706431876464844,7,11.166668876464843C7,11.387685876464843,7.0877973,11.599645876464844,7.244078,11.755925876464843L11.41074,15.922595876464843C11.56702,16.078875876464842,11.77899,16.166665876464844,12,16.166665876464844C12.22101,16.166665876464844,12.432970000000001,16.078875876464842,12.58926,15.922595876464843L16.75561,11.756235876464844L16.75561,11.756235876464844C16.9122,11.599645876464844,17,11.387685876464843,17,11.166668876464843C17,10.706431876464844,16.6269,10.333335876464844,16.16667,10.333335876464844C15.94565,10.333335876464844,15.73369,10.421133276464843,15.57741,10.577413876464844L15.57741,10.577413876464844L12,14.154825876464844Z" fill-rule="evenodd" fill="#38363C" fill-opacity="1"/></g></g></g></g></g></svg>