<svg xmlns="http://www.w3.org/2000/svg" xmlns:xlink="http://www.w3.org/1999/xlink" fill="none" version="1.1" width="24" height="24" viewBox="0 0 24 24"><defs><clipPath id="master_svg0_3125_4275"><rect x="0" y="0" width="24" height="24" rx="0"/></clipPath></defs><g><g clip-path="url(#master_svg0_3125_4275)"></g><g><path d="M6,5Q6,4.90175,6.00963055,4.80397Q6.0192611,4.70619,6.0384294,4.60982Q6.0575978,4.51345,6.0861193,4.41943Q6.114641,4.32541,6.152241,4.23463Q6.189841,4.14386,6.236157,4.0572099999999995Q6.282474,3.970554,6.337061,3.888859Q6.391648,3.807164,6.453979,3.731213Q6.516311,3.655262,6.585786,3.585786Q6.6552620000000005,3.516311,6.731213,3.453979Q6.807164,3.391648,6.888859,3.337061Q6.970554,3.282474,7.0572099999999995,3.236157Q7.14386,3.189841,7.23463,3.152241Q7.32541,3.114641,7.41943,3.0861193Q7.51345,3.0575978,7.60982,3.0384294Q7.70619,3.0192611,7.80397,3.00963055Q7.90175,3,8,3Q8.09825,3,8.19603,3.00963055Q8.29381,3.0192611,8.39018,3.0384294Q8.48655,3.0575978,8.58057,3.0861193Q8.67459,3.114641,8.76537,3.152241Q8.85614,3.189841,8.94279,3.236157Q9.02945,3.282474,9.111139999999999,3.337061Q9.19284,3.391648,9.26879,3.453979Q9.34474,3.516311,9.41421,3.585786Q9.48369,3.655262,9.54602,3.731213Q9.60835,3.807164,9.662939999999999,3.888859Q9.71753,3.970554,9.76384,4.0572099999999995Q9.81016,4.14386,9.847760000000001,4.23463Q9.88536,4.32541,9.913879999999999,4.41943Q9.9424,4.51345,9.96157,4.60982Q9.98074,4.70619,9.99037,4.80397Q10,4.90175,10,5Q10,5.09825,9.99037,5.19603Q9.98074,5.293810000000001,9.96157,5.39018Q9.9424,5.486549999999999,9.913879999999999,5.58057Q9.88536,5.67459,9.847760000000001,5.76537Q9.81016,5.85614,9.76384,5.9427900000000005Q9.71753,6.029450000000001,9.662939999999999,6.11114Q9.60835,6.19284,9.54602,6.26879Q9.48369,6.34474,9.41421,6.414210000000001Q9.34474,6.48369,9.26879,6.54602Q9.19284,6.60835,9.111139999999999,6.66294Q9.02945,6.71753,8.94279,6.76384Q8.85614,6.81016,8.76537,6.84776Q8.67459,6.88536,8.58057,6.91388Q8.48655,6.9424,8.39018,6.96157Q8.29381,6.98074,8.19603,6.99037Q8.09825,7,8,7Q7.90175,7,7.80397,6.99037Q7.70619,6.98074,7.60982,6.96157Q7.51345,6.9424,7.41943,6.91388Q7.32541,6.88536,7.23463,6.84776Q7.14386,6.81016,7.0572099999999995,6.76384Q6.970554,6.71753,6.888859,6.66294Q6.807164,6.60835,6.731213,6.54602Q6.6552620000000005,6.48369,6.585786,6.414210000000001Q6.516311,6.34474,6.453979,6.26879Q6.391648,6.19284,6.337061,6.11114Q6.282474,6.029450000000001,6.236157,5.9427900000000005Q6.189841,5.85614,6.152241,5.76537Q6.114641,5.67459,6.0861193,5.58057Q6.0575978,5.486549999999999,6.0384294,5.39018Q6.0192611,5.293810000000001,6.00963055,5.19603Q6,5.09825,6,5ZM6,12Q6,11.90175,6.00963055,11.80397Q6.0192611,11.70619,6.0384294,11.60982Q6.0575978,11.51345,6.0861193,11.41943Q6.114641,11.32541,6.152241,11.23463Q6.189841,11.14386,6.236157,11.05721Q6.282474,10.97055,6.337061,10.888860000000001Q6.391648,10.80716,6.453979,10.73121Q6.516311,10.65526,6.585786,10.58579Q6.6552620000000005,10.51631,6.731213,10.45398Q6.807164,10.39165,6.888859,10.337060000000001Q6.970554,10.28247,7.0572099999999995,10.23616Q7.14386,10.18984,7.23463,10.152239999999999Q7.32541,10.11464,7.41943,10.086120000000001Q7.51345,10.0576,7.60982,10.03843Q7.70619,10.01926,7.80397,10.00963Q7.90175,10,8,10Q8.09825,10,8.19603,10.00963Q8.29381,10.01926,8.39018,10.03843Q8.48655,10.0576,8.58057,10.086120000000001Q8.67459,10.11464,8.76537,10.152239999999999Q8.85614,10.18984,8.94279,10.23616Q9.02945,10.28247,9.111139999999999,10.337060000000001Q9.19284,10.39165,9.26879,10.45398Q9.34474,10.51631,9.41421,10.58579Q9.48369,10.65526,9.54602,10.73121Q9.60835,10.80716,9.662939999999999,10.888860000000001Q9.71753,10.97055,9.76384,11.05721Q9.81016,11.14386,9.847760000000001,11.23463Q9.88536,11.32541,9.913879999999999,11.41943Q9.9424,11.51345,9.96157,11.60982Q9.98074,11.70619,9.99037,11.80397Q10,11.90175,10,12Q10,12.09825,9.99037,12.19603Q9.98074,12.29382,9.96157,12.39018Q9.9424,12.48655,9.913879999999999,12.58057Q9.88536,12.67459,9.847760000000001,12.76537Q9.81016,12.85614,9.76384,12.94279Q9.71753,13.0294,9.662939999999999,13.1111Q9.60835,13.1928,9.54602,13.2688Q9.48369,13.3447,9.41421,13.4142Q9.34474,13.4837,9.26879,13.546Q9.19284,13.6084,9.111139999999999,13.6629Q9.02945,13.7175,8.94279,13.7638Q8.85614,13.8102,8.76537,13.8478Q8.67459,13.8854,8.58057,13.9139Q8.48655,13.9424,8.39018,13.9616Q8.29381,13.9807,8.19603,13.9904Q8.09825,14,8,14Q7.90175,14,7.80397,13.9904Q7.70619,13.9807,7.60982,13.9616Q7.51345,13.9424,7.41943,13.9139Q7.32541,13.8854,7.23463,13.8478Q7.14386,13.8102,7.0572099999999995,13.7638Q6.970554,13.7175,6.888859,13.6629Q6.807164,13.6084,6.731213,13.546Q6.6552620000000005,13.4837,6.585786,13.4142Q6.516311,13.3447,6.453979,13.2688Q6.391648,13.1928,6.337061,13.1111Q6.282474,13.0294,6.236157,12.94279Q6.189841,12.85614,6.152241,12.76537Q6.114641,12.67459,6.0861193,12.58057Q6.0575978,12.48655,6.0384294,12.39018Q6.0192611,12.29382,6.00963055,12.19603Q6,12.09825,6,12ZM6,19Q6,18.901699999999998,6.00963055,18.804000000000002Q6.0192611,18.706200000000003,6.0384294,18.6098Q6.0575978,18.5135,6.0861193,18.4194Q6.114641,18.325400000000002,6.152241,18.2346Q6.189841,18.143900000000002,6.236157,18.0572Q6.282474,17.970599999999997,6.337061,17.8889Q6.391648,17.8072,6.453979,17.7312Q6.516311,17.6553,6.585786,17.5858Q6.6552620000000005,17.5163,6.731213,17.454Q6.807164,17.3916,6.888859,17.3371Q6.970554,17.2825,7.0572099999999995,17.2362Q7.14386,17.189799999999998,7.23463,17.1522Q7.32541,17.1146,7.41943,17.086100000000002Q7.51345,17.0576,7.60982,17.0384Q7.70619,17.0193,7.80397,17.0096Q7.90175,17,8,17Q8.09825,17,8.19603,17.0096Q8.29381,17.0193,8.39018,17.0384Q8.48655,17.0576,8.58057,17.086100000000002Q8.67459,17.1146,8.76537,17.1522Q8.85614,17.189799999999998,8.94279,17.2362Q9.02945,17.2825,9.111139999999999,17.3371Q9.19284,17.3916,9.26879,17.454Q9.34474,17.5163,9.41421,17.5858Q9.48369,17.6553,9.54602,17.7312Q9.60835,17.8072,9.662939999999999,17.8889Q9.71753,17.970599999999997,9.76384,18.0572Q9.81016,18.143900000000002,9.847760000000001,18.2346Q9.88536,18.325400000000002,9.913879999999999,18.4194Q9.9424,18.5135,9.96157,18.6098Q9.98074,18.706200000000003,9.99037,18.804000000000002Q10,18.901699999999998,10,19Q10,19.0983,9.99037,19.196Q9.98074,19.2938,9.96157,19.3902Q9.9424,19.4865,9.913879999999999,19.5806Q9.88536,19.6746,9.847760000000001,19.7654Q9.81016,19.8561,9.76384,19.9428Q9.71753,20.0294,9.662939999999999,20.1111Q9.60835,20.1928,9.54602,20.2688Q9.48369,20.3447,9.41421,20.4142Q9.34474,20.4837,9.26879,20.546Q9.19284,20.6084,9.111139999999999,20.6629Q9.02945,20.7175,8.94279,20.7638Q8.85614,20.8102,8.76537,20.8478Q8.67459,20.8854,8.58057,20.9139Q8.48655,20.9424,8.39018,20.9616Q8.29381,20.9807,8.19603,20.9904Q8.09825,21,8,21Q7.90175,21,7.80397,20.9904Q7.70619,20.9807,7.60982,20.9616Q7.51345,20.9424,7.41943,20.9139Q7.32541,20.8854,7.23463,20.8478Q7.14386,20.8102,7.0572099999999995,20.7638Q6.970554,20.7175,6.888859,20.6629Q6.807164,20.6084,6.731213,20.546Q6.6552620000000005,20.4837,6.585786,20.4142Q6.516311,20.3447,6.453979,20.2688Q6.391648,20.1928,6.337061,20.1111Q6.282474,20.0294,6.236157,19.9428Q6.189841,19.8561,6.152241,19.7654Q6.114641,19.6746,6.0861193,19.5806Q6.0575978,19.4865,6.0384294,19.3902Q6.0192611,19.2938,6.00963055,19.196Q6,19.0983,6,19ZM13,5Q13,4.90175,13.00963,4.80397Q13.01926,4.70619,13.03843,4.60982Q13.0576,4.51345,13.086120000000001,4.41943Q13.11464,4.32541,13.152239999999999,4.23463Q13.18984,4.14386,13.23616,4.0572099999999995Q13.28247,3.970554,13.337060000000001,3.888859Q13.39165,3.807164,13.45398,3.731213Q13.51631,3.655262,13.58579,3.585786Q13.65526,3.516311,13.73121,3.453979Q13.80716,3.391648,13.888860000000001,3.337061Q13.97055,3.282474,14.05721,3.236157Q14.14386,3.189841,14.23463,3.152241Q14.32541,3.114641,14.41943,3.0861193Q14.51345,3.0575978,14.60982,3.0384294Q14.70619,3.0192611,14.80397,3.00963055Q14.90175,3,15,3Q15.09825,3,15.19603,3.00963055Q15.29382,3.0192611,15.39018,3.0384294Q15.48655,3.0575978,15.58057,3.0861193Q15.67459,3.114641,15.76537,3.152241Q15.85614,3.189841,15.94279,3.236157Q16.029400000000003,3.282474,16.1111,3.337061Q16.1928,3.391648,16.2688,3.453979Q16.3447,3.516311,16.4142,3.585786Q16.4837,3.655262,16.546,3.731213Q16.6084,3.807164,16.6629,3.888859Q16.7175,3.970554,16.7638,4.0572099999999995Q16.810200000000002,4.14386,16.8478,4.23463Q16.8854,4.32541,16.913899999999998,4.41943Q16.9424,4.51345,16.9616,4.60982Q16.9807,4.70619,16.9904,4.80397Q17,4.90175,17,5Q17,5.09825,16.9904,5.19603Q16.9807,5.293810000000001,16.9616,5.39018Q16.9424,5.486549999999999,16.913899999999998,5.58057Q16.8854,5.67459,16.8478,5.76537Q16.810200000000002,5.85614,16.7638,5.9427900000000005Q16.7175,6.029450000000001,16.6629,6.11114Q16.6084,6.19284,16.546,6.26879Q16.4837,6.34474,16.4142,6.414210000000001Q16.3447,6.48369,16.2688,6.54602Q16.1928,6.60835,16.1111,6.66294Q16.029400000000003,6.71753,15.94279,6.76384Q15.85614,6.81016,15.76537,6.84776Q15.67459,6.88536,15.58057,6.91388Q15.48655,6.9424,15.39018,6.96157Q15.29382,6.98074,15.19603,6.99037Q15.09825,7,15,7Q14.90175,7,14.80397,6.99037Q14.70619,6.98074,14.60982,6.96157Q14.51345,6.9424,14.41943,6.91388Q14.32541,6.88536,14.23463,6.84776Q14.14386,6.81016,14.05721,6.76384Q13.97055,6.71753,13.888860000000001,6.66294Q13.80716,6.60835,13.73121,6.54602Q13.65526,6.48369,13.58579,6.414210000000001Q13.51631,6.34474,13.45398,6.26879Q13.39165,6.19284,13.337060000000001,6.11114Q13.28247,6.029450000000001,13.23616,5.9427900000000005Q13.18984,5.85614,13.152239999999999,5.76537Q13.11464,5.67459,13.086120000000001,5.58057Q13.0576,5.486549999999999,13.03843,5.39018Q13.01926,5.293810000000001,13.00963,5.19603Q13,5.09825,13,5ZM13,12Q13,11.90175,13.00963,11.80397Q13.01926,11.70619,13.03843,11.60982Q13.0576,11.51345,13.086120000000001,11.41943Q13.11464,11.32541,13.152239999999999,11.23463Q13.18984,11.14386,13.23616,11.05721Q13.28247,10.97055,13.337060000000001,10.888860000000001Q13.39165,10.80716,13.45398,10.73121Q13.51631,10.65526,13.58579,10.58579Q13.65526,10.51631,13.73121,10.45398Q13.80716,10.39165,13.888860000000001,10.337060000000001Q13.97055,10.28247,14.05721,10.23616Q14.14386,10.18984,14.23463,10.152239999999999Q14.32541,10.11464,14.41943,10.086120000000001Q14.51345,10.0576,14.60982,10.03843Q14.70619,10.01926,14.80397,10.00963Q14.90175,10,15,10Q15.09825,10,15.19603,10.00963Q15.29382,10.01926,15.39018,10.03843Q15.48655,10.0576,15.58057,10.086120000000001Q15.67459,10.11464,15.76537,10.152239999999999Q15.85614,10.18984,15.94279,10.23616Q16.029400000000003,10.28247,16.1111,10.337060000000001Q16.1928,10.39165,16.2688,10.45398Q16.3447,10.51631,16.4142,10.58579Q16.4837,10.65526,16.546,10.73121Q16.6084,10.80716,16.6629,10.888860000000001Q16.7175,10.97055,16.7638,11.05721Q16.810200000000002,11.14386,16.8478,11.23463Q16.8854,11.32541,16.913899999999998,11.41943Q16.9424,11.51345,16.9616,11.60982Q16.9807,11.70619,16.9904,11.80397Q17,11.90175,17,12Q17,12.09825,16.9904,12.19603Q16.9807,12.29382,16.9616,12.39018Q16.9424,12.48655,16.913899999999998,12.58057Q16.8854,12.67459,16.8478,12.76537Q16.810200000000002,12.85614,16.7638,12.94279Q16.7175,13.0294,16.6629,13.1111Q16.6084,13.1928,16.546,13.2688Q16.4837,13.3447,16.4142,13.4142Q16.3447,13.4837,16.2688,13.546Q16.1928,13.6084,16.1111,13.6629Q16.029400000000003,13.7175,15.94279,13.7638Q15.85614,13.8102,15.76537,13.8478Q15.67459,13.8854,15.58057,13.9139Q15.48655,13.9424,15.39018,13.9616Q15.29382,13.9807,15.19603,13.9904Q15.09825,14,15,14Q14.90175,14,14.80397,13.9904Q14.70619,13.9807,14.60982,13.9616Q14.51345,13.9424,14.41943,13.9139Q14.32541,13.8854,14.23463,13.8478Q14.14386,13.8102,14.05721,13.7638Q13.97055,13.7175,13.888860000000001,13.6629Q13.80716,13.6084,13.73121,13.546Q13.65526,13.4837,13.58579,13.4142Q13.51631,13.3447,13.45398,13.2688Q13.39165,13.1928,13.337060000000001,13.1111Q13.28247,13.0294,13.23616,12.94279Q13.18984,12.85614,13.152239999999999,12.76537Q13.11464,12.67459,13.086120000000001,12.58057Q13.0576,12.48655,13.03843,12.39018Q13.01926,12.29382,13.00963,12.19603Q13,12.09825,13,12ZM13,19Q13,18.901699999999998,13.00963,18.804000000000002Q13.01926,18.706200000000003,13.03843,18.6098Q13.0576,18.5135,13.086120000000001,18.4194Q13.11464,18.325400000000002,13.152239999999999,18.2346Q13.18984,18.143900000000002,13.23616,18.0572Q13.28247,17.970599999999997,13.337060000000001,17.8889Q13.39165,17.8072,13.45398,17.7312Q13.51631,17.6553,13.58579,17.5858Q13.65526,17.5163,13.73121,17.454Q13.80716,17.3916,13.888860000000001,17.3371Q13.97055,17.2825,14.05721,17.2362Q14.14386,17.189799999999998,14.23463,17.1522Q14.32541,17.1146,14.41943,17.086100000000002Q14.51345,17.0576,14.60982,17.0384Q14.70619,17.0193,14.80397,17.0096Q14.90175,17,15,17Q15.09825,17,15.19603,17.0096Q15.29382,17.0193,15.39018,17.0384Q15.48655,17.0576,15.58057,17.086100000000002Q15.67459,17.1146,15.76537,17.1522Q15.85614,17.189799999999998,15.94279,17.2362Q16.029400000000003,17.2825,16.1111,17.3371Q16.1928,17.3916,16.2688,17.454Q16.3447,17.5163,16.4142,17.5858Q16.4837,17.6553,16.546,17.7312Q16.6084,17.8072,16.6629,17.8889Q16.7175,17.970599999999997,16.7638,18.0572Q16.810200000000002,18.143900000000002,16.8478,18.2346Q16.8854,18.325400000000002,16.913899999999998,18.4194Q16.9424,18.5135,16.9616,18.6098Q16.9807,18.706200000000003,16.9904,18.804000000000002Q17,18.901699999999998,17,19Q17,19.0983,16.9904,19.196Q16.9807,19.2938,16.9616,19.3902Q16.9424,19.4865,16.913899999999998,19.5806Q16.8854,19.6746,16.8478,19.7654Q16.810200000000002,19.8561,16.7638,19.9428Q16.7175,20.0294,16.6629,20.1111Q16.6084,20.1928,16.546,20.2688Q16.4837,20.3447,16.4142,20.4142Q16.3447,20.4837,16.2688,20.546Q16.1928,20.6084,16.1111,20.6629Q16.029400000000003,20.7175,15.94279,20.7638Q15.85614,20.8102,15.76537,20.8478Q15.67459,20.8854,15.58057,20.9139Q15.48655,20.9424,15.39018,20.9616Q15.29382,20.9807,15.19603,20.9904Q15.09825,21,15,21Q14.90175,21,14.80397,20.9904Q14.70619,20.9807,14.60982,20.9616Q14.51345,20.9424,14.41943,20.9139Q14.32541,20.8854,14.23463,20.8478Q14.14386,20.8102,14.05721,20.7638Q13.97055,20.7175,13.888860000000001,20.6629Q13.80716,20.6084,13.73121,20.546Q13.65526,20.4837,13.58579,20.4142Q13.51631,20.3447,13.45398,20.2688Q13.39165,20.1928,13.337060000000001,20.1111Q13.28247,20.0294,13.23616,19.9428Q13.18984,19.8561,13.152239999999999,19.7654Q13.11464,19.6746,13.086120000000001,19.5806Q13.0576,19.4865,13.03843,19.3902Q13.01926,19.2938,13.00963,19.196Q13,19.0983,13,19Z" fill="#CDCACF" fill-opacity="1"/></g></g></svg>