<svg xmlns="http://www.w3.org/2000/svg" xmlns:xlink="http://www.w3.org/1999/xlink" fill="none" version="1.1" width="24" height="24" viewBox="0 0 24 24"><defs><clipPath id="master_svg0_234_14777"><rect x="0" y="0" width="24" height="24" rx="0"/></clipPath><clipPath id="master_svg1_3125_4258"><rect x="0" y="0" width="24" height="24" rx="0"/></clipPath></defs><g clip-path="url(#master_svg0_234_14777)"><g clip-path="url(#master_svg1_3125_4258)"></g><g><g><g><path d="M20.25,19.500110626220703L3.75,19.500110626220703C3.335786,19.500110626220703,3,19.835872626220702,3,20.250055626220703C3,20.664240626220703,3.335786,21.000000626220704,3.75,21.000000626220704L20.25,21.000000626220704C20.6642,21.000000626220704,21,20.664240626220703,21,20.250055626220703C21,19.835872626220702,20.6642,19.500110626220703,20.25,19.500110626220703Z" fill="#38363C" fill-opacity="1"/></g><g><path d="M5.486999406585693,17.961199999999998C5.410740406585694,17.9874,5.330626406585694,18.0006,5.249999406585693,18.0002C4.744394406585694,17.994500000000002,4.389229406585693,17.5003,4.544999206585693,17.0193L6.044999406585694,12.51964C6.080509406585693,12.40685,6.142189406585693,12.30407,6.2249994065856935,12.21966L15.224989406585694,3.220325C15.518089406585693,2.9265585,15.993989406585694,2.9265585,16.286989406585693,3.220325L19.286989406585693,6.2201C19.580789406585694,6.51313,19.580789406585694,6.989,19.286989406585693,7.28202L10.286999406585693,16.281399999999998C10.202589406585695,16.3642,10.099789406585693,16.425800000000002,9.986999406585692,16.4613L5.486999406585693,17.961199999999998ZM6.445669406585694,16.0606L9.356909406585693,15.0902L17.696589406585694,6.75107L15.755989406585693,4.8106100000000005L7.415709406585693,13.1503L6.445669406585694,16.0606ZM7.468019406585693,12.99332Q7.472079406585694,12.9818,7.4757494065856935,12.97013L7.468019406585693,12.99332ZM9.492519406585693,15.045L9.512689406585693,15.0383Q9.502549406585693,15.0415,9.492519406585693,15.045ZM5.013546406585693,16.538Q5.006743406585693,16.5402,4.999973406585694,16.5425L5.013546406585693,16.538Z" fill-rule="evenodd" fill="#000000" fill-opacity="1"/></g></g></g></g></svg>