<svg xmlns="http://www.w3.org/2000/svg" xmlns:xlink="http://www.w3.org/1999/xlink" fill="none" version="1.1" width="24" height="24" viewBox="0 0 24 24"><defs><clipPath id="master_svg0_5126_08117"><rect x="0" y="0" width="24" height="24" rx="0"/></clipPath><clipPath id="master_svg1_5126_08118"><rect x="22" y="21.999984741210938" width="20" height="20" rx="0"/></clipPath></defs><g><g clip-path="url(#master_svg0_5126_08117)"></g><g transform="matrix(-1,1.0987933052319931e-7,-1.0987933052319931e-7,-1,44.000002417343595,43.9999670650766)" clip-path="url(#master_svg1_5126_08118)"><g><g><path d="M40.144983809661866,32.305814369735714L32.645003809661866,23.13914536973572C32.30186380966187,22.752624069735717,31.698143809661865,22.752624069735717,31.355003809661866,23.13914536973572L23.854999809661866,32.305814369735714C23.651222809661864,32.55502436973572,23.609216309661864,32.89935436973572,23.747095909661866,33.19025436973572C23.885051809661864,33.48115436973572,24.178154809661866,33.66665436973572,24.499999809661865,33.66665436973572L28.666663809661866,33.66665436973572L28.666663809661866,37.333354369735716C28.666663809661866,37.793554369735716,29.039763809661864,38.16665436973572,29.500003809661866,38.16665436973572L34.49998380966186,38.16665436973572C34.96028380966187,38.16665436973572,35.333283809661864,37.793554369735716,35.333283809661864,37.333354369735716L35.333283809661864,33.66665436973572L39.49998380966186,33.66665436973572C39.82188380966187,33.66655436973572,40.114983809661865,33.48115436973572,40.25288380966187,33.19025436973572C40.39078380966187,32.89935436973572,40.34878380966187,32.55502436973572,40.144983809661866,32.305814369735714Z" fill="#38363C" fill-opacity="1"/></g><g><path d="M35.32999698455811,39.66663268028259L35.32999698455811,39.48261668028259C35.32999698455811,39.02237868028259,34.96023698455811,38.64927268028259,34.49999698455811,38.64927268028259L29.499999984558105,38.64928793908259C29.039761984558105,38.64928793908259,28.670000074558107,39.02237868028259,28.670000074558107,39.48261668028259L28.670000074558107,40.14927268028259L28.666666984558105,40.14927268028259L28.666666984558105,40.33330268028259C28.666666984558105,40.79354268028259,29.039762984558106,41.16663268028259,29.499999984558105,41.16663268028259L34.49999698455811,41.16663268028259C34.96023698455811,41.16663268028259,35.3333369845581,40.79354268028259,35.3333369845581,40.33330268028259L35.3333369845581,39.66663268028259L35.32999698455811,39.66663268028259Z" fill-rule="evenodd" fill="#38363C" fill-opacity="1"/></g></g></g></g></svg>