<svg xmlns="http://www.w3.org/2000/svg" xmlns:xlink="http://www.w3.org/1999/xlink" fill="none" version="1.1" width="24" height="24" viewBox="0 0 24 24"><defs><clipPath id="master_svg0_2871_2576"><rect x="0" y="0" width="24" height="24" rx="0"/></clipPath><clipPath id="master_svg1_3118_3648"><rect x="0" y="0" width="24" height="24" rx="0"/></clipPath></defs><g clip-path="url(#master_svg0_2871_2576)"><g clip-path="url(#master_svg1_3118_3648)"></g><g><g><path d="M16.37500023841858,15.750000953674316L7.625000238418579,15.750000953674316C7.279822238418579,15.750000953674316,7.000000238418579,16.029822953674316,7.000000238418579,16.375000953674316C7.000000238418579,16.720178953674317,7.279822238418579,17.000000953674316,7.625000238418579,17.000000953674316L16.37500023841858,17.000000953674316C16.72018023841858,17.000000953674316,17.00000023841858,16.720178953674317,17.00000023841858,16.375000953674316C17.00000023841858,16.029822953674316,16.72018023841858,15.750000953674316,16.37500023841858,15.750000953674316Z" fill-rule="evenodd" fill="#38363C" fill-opacity="1"/></g><g><path d="M16.37500023841858,12L7.625000238418579,12C7.279822238418579,12,7.000000238418579,12.279822,7.000000238418579,12.625C7.000000238418579,12.970178,7.279822238418579,13.25,7.625000238418579,13.25L16.37500023841858,13.25C16.72018023841858,13.25,17.00000023841858,12.970178,17.00000023841858,12.625C17.00000023841858,12.279822,16.72018023841858,12,16.37500023841858,12Z" fill-rule="evenodd" fill="#38363C" fill-opacity="1"/></g><g><path d="M10.125000238418579,8.250000476837158L7.625000238418579,8.250000476837158C7.279822238418579,8.250000476837158,7.000000238418579,8.529822476837158,7.000000238418579,8.875000476837158C7.000000238418579,9.220178476837159,7.279822238418579,9.500000476837158,7.625000238418579,9.500000476837158L10.125000238418579,9.500000476837158C10.470180238418578,9.500000476837158,10.750000238418579,9.220178476837159,10.750000238418579,8.875000476837158C10.750000238418579,8.529822476837158,10.470180238418578,8.250000476837158,10.125000238418579,8.250000476837158Z" fill-rule="evenodd" fill="#38363C" fill-opacity="1"/></g><g><path d="M20.5669,8.433060000000001C20.6842,8.550270000000001,20.75,8.709240000000001,20.75,8.875L20.75,21.375C20.75,21.7202,20.4702,22,20.125,22L3.875,22C3.5298220000000002,22,3.25,21.7202,3.25,21.375L3.25,2.625C3.25,2.2798220000000002,3.5298220000000002,2,3.875,2L13.875,2.0000000372529C14.0408,2,14.1997,2.065848,14.3169,2.183058L20.5669,8.433060000000001ZM13.6161,3.25L19.5,9.133880000000001L19.5,20.75L4.5,20.75L4.5,3.25L13.6161,3.25Z" fill-rule="evenodd" fill="#38363C" fill-opacity="1"/></g><g><path d="M20.125,9.5L13.875,9.5C13.529822,9.5,13.25,9.22018,13.25,8.875L13.25,2.625C13.25,2.2798220000000002,13.529822,2,13.875,2C14.220178,2,14.5,2.2798220000000002,14.5,2.625L14.5,8.25L20.125,8.25C20.47018,8.25,20.75,8.52982,20.75,8.875C20.75,9.22018,20.47018,9.5,20.125,9.5Z" fill-rule="evenodd" fill="#38363C" fill-opacity="1"/></g></g></g></svg>