<svg xmlns="http://www.w3.org/2000/svg" xmlns:xlink="http://www.w3.org/1999/xlink" fill="none" version="1.1" width="24" height="24" viewBox="0 0 24 24"><defs><clipPath id="master_svg0_886_52137"><rect x="0" y="0" width="24" height="24" rx="0"/></clipPath><clipPath id="master_svg1_3105_4088"><rect x="0" y="0" width="24" height="24" rx="0"/></clipPath></defs><g clip-path="url(#master_svg0_886_52137)"><g clip-path="url(#master_svg1_3105_4088)"></g><g><path d="M18.25,3.25L18.25,8.875C18.25,9.22018,18.5298,9.5,18.875,9.5C19.2202,9.5,19.5,9.22018,19.5,8.875L19.5,2.625C19.5,2.2798220000000002,19.2202,2,18.875,2L2.625,2C2.2798220000000002,2,2,2.2798220000000002,2,2.625L2,21.375C2,21.7202,2.2798220000000002,22,2.625,22L10.125,22C10.47018,22,10.75,21.7202,10.75,21.375C10.75,21.0298,10.47018,20.75,10.125,20.75L3.25,20.75L3.25,3.25L18.25,3.25ZM15.125,5.75L6.375,5.75C6.02982,5.75,5.75,6.02982,5.75,6.375C5.75,6.72018,6.02982,7,6.375,7L15.125,7C15.4702,7,15.75,6.72018,15.75,6.375C15.75,6.02982,15.4702,5.75,15.125,5.75ZM11.375,9.5L6.375,9.5C6.02982,9.5,5.75,9.77982,5.75,10.125C5.75,10.47018,6.02982,10.75,6.375,10.75L11.375,10.75C11.72018,10.75,12,10.47018,12,10.125C12,9.77982,11.72018,9.5,11.375,9.5ZM20.3525,20.3525Q22,18.705,22,16.375Q22,14.045,20.3525,12.3975Q18.705,10.75,16.375,10.75Q14.045,10.75,12.3975,12.3975Q10.75,14.045,10.75,16.375Q10.75,18.705,12.3975,20.3525Q14.045,22,16.375,22Q18.705,22,20.3525,20.3525ZM19.4686,13.2814Q20.75,14.5628,20.75,16.375Q20.75,18.1872,19.4686,19.4686Q18.1872,20.75,16.375,20.75Q14.5628,20.75,13.2814,19.4686Q12,18.1872,12,16.375Q12,14.5628,13.2814,13.2814Q14.5628,12,16.375,12Q18.1872,12,19.4686,13.2814ZM6.375,13.25L8.875,13.25C9.22018,13.25,9.5,13.5298,9.5,13.875C9.5,14.2202,9.22018,14.5,8.875,14.5L6.375,14.5C6.02982,14.5,5.75,14.2202,5.75,13.875C5.75,13.5298,6.02982,13.25,6.375,13.25ZM17,17L17,18.875C17,19.2202,16.7202,19.5,16.375,19.5C16.0298,19.5,15.75,19.2202,15.75,18.875L15.75,17L13.875,17C13.5298,17,13.25,16.7202,13.25,16.375C13.25,16.0298,13.5298,15.75,13.875,15.75L15.75,15.75L15.75,13.875C15.75,13.5298,16.0298,13.25,16.375,13.25C16.7202,13.25,17,13.5298,17,13.875L17,15.75L18.875,15.75C19.2202,15.75,19.5,16.0298,19.5,16.375C19.5,16.7202,19.2202,17,18.875,17L17,17ZM6.375,17L8.875,17C9.22018,17,9.5,17.2798,9.5,17.625C9.5,17.9702,9.22018,18.25,8.875,18.25L6.375,18.25C6.02982,18.25,5.75,17.9702,5.75,17.625C5.75,17.2798,6.02982,17,6.375,17Z" fill-rule="evenodd" fill="#38363C" fill-opacity="1"/></g></g></svg>