<svg xmlns="http://www.w3.org/2000/svg" xmlns:xlink="http://www.w3.org/1999/xlink" fill="none" version="1.1" width="24" height="24" viewBox="0 0 24 24"><defs><clipPath id="master_svg0_234_99801"><rect x="0" y="0" width="24" height="24" rx="0"/></clipPath><clipPath id="master_svg1_3105_3545"><rect x="0" y="0" width="24" height="24" rx="0"/></clipPath></defs><g clip-path="url(#master_svg0_234_99801)"><g clip-path="url(#master_svg1_3105_3545)"></g><g><g><g><path d="M4,4L20,4L14.1818,13.27273L14.1818,17.909100000000002L9.81818,21L9.81818,13.27273L4,4Z" fill="#2882FF" fill-opacity="1"/><path d="M8.81818,13.56048L8.81818,21Q8.81818,21.1553,8.86528,21.3033Q8.91239,21.4513,9.00216,21.578Q9.059090000000001,21.6584,9.130600000000001,21.7261Q9.20212,21.7938,9.28547,21.8463Q9.36882,21.8988,9.46081,21.934Q9.552800000000001,21.9692,9.64988,21.9857Q9.746970000000001,22.0023,9.84543,21.9996Q9.94388,21.9969,10.03992,21.9751Q10.13596,21.9533,10.22589,21.9131Q10.31583,21.873,10.3962,21.816L14.7598,18.725099999999998Q14.8577,18.6558,14.9363,18.5654Q15.015,18.474899999999998,15.0701,18.3684Q15.1251,18.2619,15.1535,18.1455Q15.1818,18.029,15.1818,17.909100000000002L15.1818,13.56048L20.8471,4.531491Q21,4.287749,21,4Q21,3.9015086,20.9808,3.80491Q20.9616,3.708311,20.9239,3.617317Q20.8862,3.526322,20.8315,3.44443Q20.7767,3.362537,20.7071,3.292893Q20.6375,3.223249,20.5556,3.16853Q20.4737,3.1138120000000002,20.3827,3.076121Q20.2917,3.03843,20.1951,3.019215Q20.0985,3,20,3L4,3Q3.712251,3,3.468509,3.152936Q3.385081,3.205283,3.313468,3.272901Q3.241855,3.340519,3.184809,3.420808Q3.127764,3.501097,3.087478,3.590973Q3.047192,3.680848,3.025215,3.776856Q3.003237,3.872864,3.000412,3.9713152Q2.9975899999999998,4.0697659999999996,3.0140219999999998,4.166876Q3.030458,4.263987,3.0655229999999998,4.356025Q3.1005890000000003,4.448063,3.152936,4.531491L8.81818,13.56048ZM10.81818,13.27273Q10.81818,12.98498,10.66525,12.74124L5.808,5L18.192,5L13.33475,12.74124Q13.18182,12.98498,13.18182,13.27273L13.18182,17.392L10.81818,19.066200000000002L10.81818,13.27273Z" fill-rule="evenodd" fill="#2882FF" fill-opacity="1"/></g></g></g></g></svg>