<svg xmlns="http://www.w3.org/2000/svg" xmlns:xlink="http://www.w3.org/1999/xlink" fill="none" version="1.1" width="24" height="24" viewBox="0 0 24 24"><defs><clipPath id="master_svg0_234_6219"><rect x="0" y="0" width="24" height="24" rx="0"/></clipPath><clipPath id="master_svg1_3105_3544"><rect x="0" y="0" width="24" height="24" rx="0"/></clipPath></defs><g clip-path="url(#master_svg0_234_6219)"><g clip-path="url(#master_svg1_3105_3544)"></g><g><g><g><path d="M9.06817737739563,21L9.06817737739563,13.4885L3.3647023773956297,4.39862C3.25898194739563,4.2301269999999995,3.22452477739563,4.026539,3.26891077739563,3.832642C3.3132968773956297,3.638745,3.43289037739563,3.470422,3.60138137739563,3.364702C3.72082937739563,3.2897546,3.85898637739563,3.2500000596046,4.000000377395629,3.2500000596046L19.99999737739563,3.25C20.41419737739563,3.25,20.74999737739563,3.585786,20.74999737739563,4C20.74999737739563,4.141014,20.71019737739563,4.27917,20.63529737739563,4.39862L14.93179737739563,13.4885L14.93179737739563,17.909100000000002C14.93179737739563,18.1524,14.81379737739563,18.380499999999998,14.61529737739563,18.5211L10.25169737739563,21.612C10.08937737739563,21.727,9.88803737739563,21.7728,9.69195737739563,21.7393C9.49588737739563,21.7058,9.32113737739563,21.5958,9.20616737739563,21.4335C9.116397377395629,21.3068,9.06817737739563,21.1553,9.06817737739563,21ZM10.453477377395629,12.87411C10.52842737739563,12.99356,10.56817737739563,13.13171,10.56817737739563,13.2727L10.56817737739563,19.5497L13.43179737739563,17.5213L13.43179737739563,13.2727C13.43179737739563,13.13171,13.47159737739563,12.99356,13.54649737739563,12.87411L18.64399737739563,4.75L5.35599737739563,4.75L10.453477377395629,12.87411Z" fill-rule="evenodd" fill="#38363C" fill-opacity="1"/></g></g></g></g></svg>