<svg xmlns="http://www.w3.org/2000/svg" xmlns:xlink="http://www.w3.org/1999/xlink" fill="none" version="1.1" width="24" height="24" viewBox="0 0 24 24"><defs><clipPath id="master_svg0_973_40529"><rect x="0" y="0" width="24" height="24" rx="0"/></clipPath><clipPath id="master_svg1_3105_4096"><rect x="0" y="0" width="24" height="24" rx="0"/></clipPath></defs><g clip-path="url(#master_svg0_973_40529)"><g clip-path="url(#master_svg1_3105_4096)"></g><g><g><path d="M4.08333295583725,5.333332940395355C4.08333295583725,4.8730959403953555,4.45642895583725,4.499999940395355,4.916665955837249,4.499999940395355L9.91666295583725,4.499999940395355L12.00000295583725,6.999999940395355L19.08333295583725,6.999999940395355C19.54353295583725,6.999999940395355,19.91663295583725,7.373079940395355,19.91663295583725,7.833329940395355L19.91663295583725,18.666699940395354C19.91663295583725,19.126899940395354,19.54353295583725,19.499999940395355,19.08333295583725,19.499999940395355L4.916665955837249,19.499999940395355C4.45642895583725,19.499999940395355,4.08333295583725,19.126899940395354,4.08333295583725,18.666699940395354L4.08333295583725,5.333332940395355Z" fill="#FAC814" fill-opacity="1"/></g><g><path d="M3.416666269302368,18.666633253860475L3.416666269302368,5.333333253860474Q3.416666269302368,4.712013253860474,3.8560062693023682,4.272673253860473Q4.295346269302368,3.8333333134650736,4.916666269302368,3.8333333134650736L9.916666269302368,3.8333332538604736C10.114516269302367,3.8333332538604736,10.302156269302369,3.9212152538604736,10.428816269302368,4.0732102538604735L12.312246269302369,6.333333253860474L19.083366269302367,6.333333253860474Q19.70466626930237,6.333333253860474,20.143966269302368,6.772673253860473Q20.583366269302367,7.212003253860473,20.583366269302367,7.833333253860474L20.583366269302367,18.666633253860475Q20.583366269302367,19.288033253860476,20.143966269302368,19.727333253860472Q19.70466626930237,20.166633253860475,19.083366269302367,20.166633253860475L4.916666269302368,20.166633253860475Q4.295345269302368,20.166633253860475,3.856008269302368,19.727333253860472Q3.416666328906968,19.288033253860476,3.416666269302368,18.666633253860475ZM4.749996269302368,18.666633253860475Q4.749996269302368,18.735733253860474,4.798816269302368,18.784533253860474Q4.847626269302368,18.833333253860474,4.916666269302368,18.833333253860474L19.083366269302367,18.833333253860474Q19.15236626930237,18.833333253860474,19.20116626930237,18.784533253860474Q19.24996626930237,18.735733253860474,19.24996626930237,18.666633253860475L19.24996626930237,7.833333253860474Q19.24996626930237,7.666663253860474,19.083366269302367,7.666663253860474L11.999996269302368,7.666663253860474C11.802146269302368,7.666663253860474,11.614516269302369,7.578783253860474,11.487856269302368,7.426793253860474L9.60441626930237,5.166663253860474L4.916666269302368,5.166663253860474Q4.847626269302368,5.166663253860474,4.798816269302368,5.215483253860474Q4.749996269302368,5.264293253860473,4.749996269302368,5.333333253860474L4.749996269302368,18.666633253860475Z" fill-rule="evenodd" fill="#FAC814" fill-opacity="1"/></g></g></g></svg>