<svg xmlns="http://www.w3.org/2000/svg" xmlns:xlink="http://www.w3.org/1999/xlink" fill="none" version="1.1" width="24" height="23.999753952026367" viewBox="0 0 24 23.999753952026367"><defs><clipPath id="master_svg0_973_36717"><rect x="0" y="0" width="24" height="23.999753952026367" rx="0"/></clipPath><clipPath id="master_svg1_3105_4099"><rect x="0" y="0" width="24" height="24" rx="0"/></clipPath></defs><g clip-path="url(#master_svg0_973_36717)"><g clip-path="url(#master_svg1_3105_4099)"></g><g><g><path d="M11.250101566314697,19.94152034301758L11.250101566314697,16.650030343017576Q11.250101625919298,15.066820343017579,12.103377566314697,13.733230343017578Q12.956651566314697,12.399640343017579,14.394141566314698,11.736190343017578Q15.433211566314696,11.256610343017577,16.0499915663147,10.292640343017577Q16.666771566314697,9.328670343017578,16.666771566314697,8.184273343017578L16.666771566314697,7.833820343017578L18.166771566314697,7.833820343017578L18.166771566314697,8.184273343017578Q18.166771566314697,9.767480343017578,17.313491566314696,11.101070343017579Q16.460211566314698,12.43467034301758,15.022731566314697,13.098120343017579Q13.983661566314698,13.577700343017579,13.366881566314698,14.541660343017579Q12.750101566314697,15.505630343017579,12.750101566314697,16.650030343017576L12.750101566314697,19.94152034301758C12.750101566314697,20.355820343017577,12.414311566314698,20.69152034301758,12.000101566314697,20.69152034301758C11.585887566314698,20.69152034301758,11.250101566314697,20.355820343017577,11.250101566314697,19.94152034301758Z" fill-rule="evenodd" fill="#2882FF" fill-opacity="1"/></g><g><path d="M12.000301683502197,19.27275010864258L10.447301683502197,17.71975010864258C10.306651683502198,17.57909770864258,10.115883683502197,17.500080108642578,9.916971683502197,17.500080108642578C9.502757683502198,17.500080108642578,9.166971683502197,17.835866108642577,9.166971683502197,18.250080108642578C9.166971683502197,18.448992108642578,9.245989283502198,18.639760108642577,9.386641683502198,18.780410108642577L11.469971683502198,20.863740108642578C11.762871683502198,21.156640108642577,12.237741683502197,21.156640108642577,12.530631683502197,20.863740108642578L14.613971683502196,18.780410108642577C14.754621683502197,18.639760108642577,14.833641683502197,18.448992108642578,14.833641683502197,18.250080108642578C14.833641683502197,17.835866108642577,14.497851683502198,17.500080108642578,14.083641683502197,17.500080108642578C13.884721683502196,17.500080108642578,13.693961683502197,17.57909770864258,13.553311683502198,17.71975010864258L12.000301683502197,19.27275010864258Z" fill-rule="evenodd" fill="#2882FF" fill-opacity="1"/></g><g><path d="M3.7501015663146973,5.750279987411499Q3.7501015663146973,4.576679987411499,4.579965566314697,3.746813987411499Q5.409831566314697,2.916950166225499,6.583431566314697,2.916949987411499Q7.757041566314697,2.916950225830499,8.586901566314697,3.746813987411499Q9.416771566314697,4.576679987411499,9.416771566314697,5.750279987411499Q9.416771566314697,6.923889987411499,8.586901566314697,7.753749987411499Q8.040251566314698,8.300399987411499,7.344451566314698,8.486959987411499Q7.415861566314698,9.457399987411499,7.950211566314697,10.292569987411499Q8.567031566314697,11.256619987411499,9.605961566314697,11.735929987411499Q10.008421566314698,11.921799987411498,10.375931566314698,12.1707899874115C10.581901566314698,12.3103299874115,10.705271566314696,12.5429199874115,10.705271566314696,12.7917099874115C10.705271566314696,13.205949987411499,10.369481566314697,13.5417499874115,9.955271566314696,13.5417499874115C9.805301566314697,13.5417499874115,9.658771566314698,13.4967499874115,9.534611566314698,13.412649987411498Q9.268411566314697,13.2322499874115,8.977581566314697,13.097949987411498Q7.540091566314697,12.434779987411499,6.686701566314698,11.100989987411499Q5.917001566314697,9.8979899874115,5.841621566314697,8.492029987411499Q5.134141566314697,8.307929987411498,4.579965566314697,7.753749987411499Q3.7501015067100973,6.923889987411499,3.7501015663146973,5.750279987411499ZM5.250101566314697,5.750279987411499Q5.250101566314697,6.302569987411498,5.640621566314698,6.693089987411499Q6.031151566314698,7.083619987411499,6.583431566314697,7.083619987411499Q7.135721566314697,7.083619987411499,7.526241566314697,6.693089987411499Q7.916771566314697,6.302569987411498,7.916771566314697,5.750279987411499Q7.916771566314697,5.1979999874114995,7.526241566314697,4.8074699874114994Q7.135721566314697,4.416949987411499,6.583431566314697,4.416949987411499Q6.031151566314698,4.416949987411499,5.640621566314698,4.8074699874114994Q5.250101566314697,5.1979999874114995,5.250101566314697,5.750279987411499Z" fill-rule="evenodd" fill="#AFABB3" fill-opacity="1"/></g><g><path d="M19.420031449127197,7.753139874267578Q20.249901449127197,6.923279874267578,20.249901449127197,5.749669874267578Q20.249901449127197,4.576069874267578,19.420031449127197,3.7462038742675783Q18.590171449127197,2.916339874267578,17.416561449127197,2.916339874267578Q16.242961449127197,2.916339814662978,15.413095449127198,3.7462038742675783Q14.583231449127197,4.576069874267578,14.583231449127197,5.749669874267578Q14.583231389522597,6.923279874267578,15.413095449127198,7.753139874267578Q16.242961449127197,8.583009874267578,17.416561449127197,8.583009874267578Q18.590171449127197,8.583009874267578,19.420031449127197,7.753139874267578ZM18.359371449127195,4.8068598742675785Q18.749901449127197,5.197389874267579,18.749901449127197,5.749669874267578Q18.749901449127197,6.3019598742675775,18.359371449127195,6.692479874267578Q17.968851449127197,7.083009874267578,17.416561449127197,7.083009874267578Q16.864281449127198,7.083009874267578,16.473751449127196,6.692479874267578Q16.083231449127197,6.3019598742675775,16.083231449127197,5.749669874267578Q16.083231449127197,5.197389874267579,16.473751449127196,4.8068598742675785Q16.864281449127198,4.416339874267578,17.416561449127197,4.416339874267578Q17.968851449127197,4.416339874267578,18.359371449127195,4.8068598742675785Z" fill-rule="evenodd" fill="#2882FF" fill-opacity="1"/></g></g></g></svg>