<svg xmlns="http://www.w3.org/2000/svg" xmlns:xlink="http://www.w3.org/1999/xlink" fill="none" version="1.1" width="24" height="24" viewBox="0 0 24 24"><defs><clipPath id="master_svg0_973_36722"><rect x="0" y="0" width="24" height="24" rx="0"/></clipPath><clipPath id="master_svg1_3105_4098"><rect x="0" y="0" width="24" height="24" rx="0"/></clipPath></defs><g clip-path="url(#master_svg0_973_36722)"><g clip-path="url(#master_svg1_3105_4098)"></g><g><g><path d="M15.333337938232422,6.999986494140625Q15.333337938232422,7.163746494140625,15.317287938232422,7.326716494140625Q15.301227938232422,7.489676494140625,15.269287938232422,7.650286494140625Q15.237337938232422,7.810896494140625,15.189797938232422,7.967606494140625Q15.142267938232422,8.124306494140626,15.079597938232421,8.275596494140625Q15.01692793823242,8.426896494140625,14.939737938232422,8.571316494140625Q14.86254793823242,8.715736494140625,14.771567938232423,8.851886494140626Q14.68058793823242,8.988046494140626,14.57669793823242,9.114636494140626Q14.47281793823242,9.241216494140625,14.357027938232422,9.357016494140625Q14.241227938232422,9.472806494140624,14.114647938232423,9.576696494140625Q13.988057938232423,9.680576494140624,13.851897938232423,9.771556494140626Q13.715747938232422,9.862536494140624,13.571327938232422,9.939726494140626Q13.426907938232421,10.016926494140625,13.275607938232422,10.079586494140624Q13.124317938232423,10.142256494140625,12.967617938232422,10.189786494140625Q12.810907938232422,10.237326494140625,12.650297938232422,10.269276494140625Q12.489687938232422,10.301216494140625,12.326727938232422,10.317276494140625Q12.163757938232422,10.333326494140625,11.999997938232422,10.333326494140625Q11.836247938232422,10.333326494140625,11.673277938232422,10.317276494140625Q11.510307938232422,10.301216494140625,11.349697938232422,10.269276494140625Q11.189087938232422,10.237326494140625,11.032387938232421,10.189786494140625Q10.875677938232421,10.142256494140625,10.724387938232422,10.079586494140624Q10.573097938232422,10.016916494140624,10.428677938232422,9.939726494140626Q10.284257938232422,9.862536494140624,10.148097938232421,9.771556494140626Q10.011937938232421,9.680576494140624,9.885357938232422,9.576686494140624Q9.758767938232422,9.472806494140624,9.642978938232423,9.357016494140625Q9.527185938232423,9.241216494140625,9.423299938232422,9.114636494140626Q9.319413938232422,8.988046494140626,9.228435938232423,8.851886494140626Q9.137457938232421,8.715736494140625,9.060263938232422,8.571316494140625Q8.983069938232422,8.426896494140625,8.920402938232423,8.275596494140625Q8.857735938232421,8.124306494140626,8.810199938232422,7.967606494140625Q8.762664238232421,7.810896494140625,8.730717038232422,7.650286494140625Q8.698769738232421,7.489676494140625,8.682718838232422,7.326716494140625Q8.666667938232422,7.163746494140625,8.666667938232422,6.999986494140625Q8.666667938232422,6.836236494140625,8.682718838232422,6.673266494140625Q8.698769738232421,6.510296494140626,8.730717038232422,6.3496864941406255Q8.762664238232421,6.189076494140625,8.810199938232422,6.032376494140625Q8.857735938232421,5.875666494140625,8.920402938232423,5.724376494140625Q8.983069938232422,5.573086494140625,9.060263938232422,5.428666494140625Q9.137457938232421,5.284246494140625,9.228435938232423,5.148086494140625Q9.319413938232422,5.011926494140625,9.423299938232422,4.8853464941406255Q9.527185938232423,4.758756494140625,9.642978938232423,4.642967494140625Q9.758767938232422,4.527174494140625,9.885357938232422,4.423288494140625Q10.011937938232421,4.3194024941406255,10.148097938232421,4.228424494140625Q10.284257938232422,4.137446494140625,10.428677938232422,4.060252494140625Q10.573097938232422,3.983058494140625,10.724387938232422,3.920391494140625Q10.875677938232421,3.857724494140625,11.032387938232421,3.810188494140625Q11.189087938232422,3.762652794140625,11.349697938232422,3.730705594140625Q11.510307938232422,3.698758294140625,11.673277938232422,3.682707394140625Q11.836247938232422,3.666656494140625,11.999997938232422,3.666656494140625Q12.163757938232422,3.666656494140625,12.326727938232422,3.682707394140625Q12.489687938232422,3.698758294140625,12.650297938232422,3.730705594140625Q12.810907938232422,3.762652794140625,12.967617938232422,3.810188494140625Q13.124317938232423,3.857724494140625,13.275607938232422,3.920391494140625Q13.426907938232421,3.983058494140625,13.571327938232422,4.060252494140625Q13.715747938232422,4.137446494140625,13.851897938232423,4.228424494140625Q13.988057938232423,4.3194024941406255,14.114647938232423,4.423288494140625Q14.241227938232422,4.527174494140625,14.357027938232422,4.642967494140625Q14.47281793823242,4.758756494140625,14.576707938232422,4.8853464941406255Q14.68058793823242,5.011926494140625,14.771567938232423,5.148086494140625Q14.86254793823242,5.284246494140625,14.939737938232422,5.428666494140625Q15.016937938232422,5.573086494140625,15.079597938232421,5.724376494140625Q15.142267938232422,5.875666494140625,15.189797938232422,6.032376494140625Q15.237337938232422,6.189076494140625,15.269287938232422,6.3496864941406255Q15.301227938232422,6.510296494140626,15.317287938232422,6.673266494140625Q15.333337938232422,6.836236494140625,15.333337938232422,6.999986494140625Z" fill="#A52FFF" fill-opacity="1"/></g><g><path d="M14.887357938232423,9.887346494140626Q16.08333793823242,8.691356494140624,16.08333793823242,6.999986494140625Q16.08333793823242,5.308616494140625,14.887357938232423,4.1126364941406255Q13.691367938232421,2.916656553745225,11.999997938232422,2.916656494140625Q10.308627938232423,2.916656494140625,9.112647938232422,4.1126364941406255Q7.9166678786278215,5.308616494140625,7.916667938232422,6.999986494140625Q7.916667938232422,8.691356494140624,9.112647938232422,9.887346494140626Q10.308627938232423,11.083326494140625,11.999997938232422,11.083326494140625Q13.69137793823242,11.083326494140625,14.887357938232423,9.887346494140626ZM13.82669793823242,5.173296494140625Q14.583337938232422,5.929936494140625,14.583337938232422,6.999986494140625Q14.583337938232422,8.070036494140625,13.82669793823242,8.826686494140624Q13.070047938232422,9.583326494140625,11.999997938232422,9.583326494140625Q10.929947938232422,9.583326494140625,10.173307938232423,8.826686494140624Q9.416667938232422,8.070036494140625,9.416667938232422,6.999986494140625Q9.416667938232422,5.929936494140625,10.173307938232423,5.173296494140625Q10.929947938232422,4.416656494140625,11.999997938232422,4.416656494140625Q13.070047938232422,4.416656494140625,13.82669793823242,5.173296494140625Z" fill-rule="evenodd" fill="#A52FFF" fill-opacity="1"/></g><g><path d="M3.75,20.33334445953369Q3.75,16.916094459533692,6.166370000000001,14.499714459533692Q8.58275,12.083343982696691,12,12.083344459533691Q15.4173,12.083343505859691,17.8336,14.499714459533692Q20.25,16.916094459533692,20.25,20.33334445953369C20.25,20.747554459533692,19.9142,21.08334445953369,19.5,21.08334445953369C19.0858,21.08334445953369,18.75,20.747554459533692,18.75,20.33334445953369Q18.75,17.537414459533693,16.773,15.56037445953369Q14.7959,13.583344459533691,12,13.583344459533691Q9.20407,13.583344459533691,7.22703,15.56037445953369Q5.25,17.537414459533693,5.25,20.33334445953369C5.25,20.747554459533692,4.91421,21.08334445953369,4.5,21.08334445953369C4.085786,21.08334445953369,3.75,20.747554459533692,3.75,20.33334445953369Z" fill-rule="evenodd" fill="#A52FFF" fill-opacity="1"/></g><g><path d="M15.25,17C15.25,17.198912,15.17098,17.38968,15.03033,17.53033L11.697,20.86366C11.4041,21.15656,10.92923,21.15656,10.63634,20.86366L8.969905,19.19723C8.8290176,19.05634,8.75,18.86558,8.75,18.66667C8.75,18.25245,9.085786,17.91667,9.5,17.91667C9.698912,17.91667,9.88968,17.99568,10.03033,18.13634L11.16667,19.27267L13.96967,16.46967C14.11032,16.3290176,14.30109,16.25,14.5,16.25C14.91421,16.25,15.25,16.585786,15.25,17Z" fill-rule="evenodd" fill="#A52FFF" fill-opacity="1"/></g></g></g></svg>