<svg xmlns="http://www.w3.org/2000/svg" xmlns:xlink="http://www.w3.org/1999/xlink" fill="none" version="1.1" width="24" height="24" viewBox="0 0 24 24"><defs><clipPath id="master_svg0_886_52126"><rect x="0" y="0" width="24" height="24" rx="0"/></clipPath><clipPath id="master_svg1_3105_4090"><rect x="0" y="0" width="24" height="24" rx="0"/></clipPath></defs><g clip-path="url(#master_svg0_886_52126)"><g clip-path="url(#master_svg1_3105_4090)"></g><g><path d="M10.224999904632568,5.5L10.224999904632568,4Q10.224999904632568,3.901509,10.24420990463257,3.80491Q10.263429904632568,3.708311,10.301119904632568,3.6173159999999998Q10.33880990463257,3.526322,10.393529904632569,3.44443Q10.448249904632569,3.362537,10.517889904632568,3.292893Q10.587539904632568,3.223249,10.669429904632569,3.16853Q10.751319904632568,3.113811,10.842319904632568,3.0761205Q10.93330990463257,3.0384294,11.029909904632568,3.0192147Q11.126509904632568,3,11.224999904632568,3L12.787499904632568,3Q12.885989904632568,3,12.982589904632569,3.0192147Q13.079189904632567,3.0384294,13.170199904632568,3.0761205Q13.261199904632567,3.113811,13.343099904632568,3.16853Q13.424999904632568,3.223249,13.494599904632569,3.292893Q13.564199904632568,3.362537,13.618999904632568,3.44443Q13.673699904632569,3.526322,13.711399904632568,3.6173159999999998Q13.749099904632569,3.708311,13.768299904632569,3.80491Q13.787499904632568,3.901509,13.787499904632568,4L13.787499904632568,5.5Q13.787499904632568,5.59849,13.768299904632569,5.69509Q13.749099904632569,5.79169,13.711399904632568,5.882680000000001Q13.673699904632569,5.97368,13.618999904632568,6.0555699999999995Q13.564199904632568,6.13746,13.494599904632569,6.20711Q13.424999904632568,6.27675,13.343099904632568,6.3314699999999995Q13.261199904632567,6.38619,13.170199904632568,6.4238800000000005Q13.079189904632567,6.46157,12.982589904632569,6.48078Q12.885989904632568,6.5,12.787499904632568,6.5L11.224999904632568,6.5Q11.126509904632568,6.5,11.029909904632568,6.48078Q10.93330990463257,6.46157,10.842319904632568,6.4238800000000005Q10.751319904632568,6.38619,10.669429904632569,6.3314699999999995Q10.587539904632568,6.27675,10.517889904632568,6.20711Q10.448249904632569,6.13746,10.393529904632569,6.0555699999999995Q10.33880990463257,5.97368,10.301119904632568,5.882680000000001Q10.263429904632568,5.79169,10.24420990463257,5.69509Q10.224999904632568,5.59849,10.224999904632568,5.5ZM11.412499904632568,8.25L11.412499904632568,10L4.881249904632568,10C4.553329904632569,10,4.287499904632568,10.26116,4.287499904632568,10.58333L4.287499904632568,14.0833C4.287499904632568,14.4055,4.553329904632569,14.6667,4.881249904632568,14.6667C5.209169904632569,14.6667,5.474999904632568,14.4055,5.474999904632568,14.0833L5.474999904632568,11.16666L11.412499904632568,11.16666L11.412499904632568,14.0833C11.412499904632568,14.4055,11.678329904632568,14.6667,12.006249904632568,14.6667C12.334169904632569,14.6667,12.599999904632568,14.4055,12.599999904632568,14.0833L12.599999904632568,11.16666L18.53749990463257,11.16666L18.53749990463257,11.75C18.53749990463257,12.07216,18.803299904632567,12.33333,19.131199904632567,12.33333C19.45919990463257,12.33333,19.72499990463257,12.07216,19.72499990463257,11.75L19.72499990463257,10.58333C19.72499990463257,10.26116,19.45919990463257,10,19.131199904632567,10L12.599999904632568,10L12.599999904632568,8.25C12.599999904632568,7.92783,12.334169904632569,7.66666,12.006249904632568,7.66666C11.678329904632568,7.66666,11.412499904632568,7.92783,11.412499904632568,8.25ZM19.72499990463257,19.9167L19.72499990463257,18.1667L21.506199904632567,18.1667C21.83419990463257,18.1667,22.09999990463257,17.9055,22.09999990463257,17.5833C22.09999990463257,17.261200000000002,21.83419990463257,17,21.506199904632567,17L19.72499990463257,17L19.72499990463257,15.25C19.72499990463257,14.9278,19.45919990463257,14.6667,19.131199904632567,14.6667C18.803299904632567,14.6667,18.53749990463257,14.9278,18.53749990463257,15.25L18.53749990463257,17L16.756199904632567,17C16.428299904632567,17,16.16249990463257,17.261200000000002,16.16249990463257,17.5833C16.16249990463257,17.9055,16.428299904632567,18.1667,16.756199904632567,18.1667L18.53749990463257,18.1667L18.53749990463257,19.9167C18.53749990463257,20.2388,18.803299904632567,20.5,19.131199904632567,20.5C19.45919990463257,20.5,19.72499990463257,20.2388,19.72499990463257,19.9167ZM3.0999999046325684,18.3333L3.0999999046325684,16.8333Q3.0999999046325684,16.7348,3.1192146046325684,16.638199999999998Q3.1384293046325684,16.541600000000003,3.1761204046325684,16.450699999999998Q3.2138109046325685,16.3597,3.2685299046325684,16.2778Q3.3232489046325684,16.1959,3.392892904632568,16.1262Q3.4625369046325685,16.0566,3.5444299046325685,16.0019Q3.6263219046325683,15.9471,3.717315904632568,15.9095Q3.8083109046325685,15.8718,3.9049099046325684,15.8526Q4.001508904632568,15.8333,4.099999904632568,15.8333L5.662499904632568,15.8333Q5.760989904632568,15.8333,5.857589904632569,15.8525Q5.954189904632568,15.8718,6.045179904632569,15.9095Q6.136179904632568,15.9471,6.218069904632568,16.0019Q6.299959904632568,16.0566,6.3696099046325685,16.1262Q6.439249904632568,16.1959,6.493969904632568,16.2778Q6.548689904632568,16.3597,6.586379904632569,16.450699999999998Q6.624069904632568,16.541600000000003,6.643289904632568,16.638199999999998Q6.662499904632568,16.7348,6.662499904632568,16.8333L6.662499904632568,18.3333Q6.662499904632568,18.431800000000003,6.643289904632568,18.528399999999998Q6.624069904632568,18.625,6.586379904632569,18.716Q6.548689904632568,18.807000000000002,6.493969904632568,18.8889Q6.439249904632568,18.9708,6.3696099046325685,19.0404Q6.299959904632568,19.1101,6.218069904632568,19.1648Q6.136179904632568,19.2195,6.045179904632569,19.2572Q5.954189904632568,19.2949,5.857589904632569,19.3141Q5.760989904632568,19.3333,5.662499904632568,19.3333L4.099999904632568,19.3333Q4.001508904632568,19.3333,3.9049099046325684,19.3141Q3.8083109046325685,19.2949,3.717315904632568,19.2572Q3.6263219046325683,19.2195,3.5444299046325685,19.1648Q3.4625369046325685,19.1101,3.392892904632568,19.0404Q3.3232489046325684,18.9708,3.2685299046325684,18.8889Q3.2138109046325685,18.807000000000002,3.1761204046325684,18.716Q3.1384293046325684,18.625,3.1192146046325684,18.528399999999998Q3.0999999046325684,18.431800000000003,3.0999999046325684,18.3333ZM10.224999904632568,18.3333L10.224999904632568,16.8333Q10.224999904632568,16.7348,10.24420990463257,16.638199999999998Q10.263429904632568,16.541600000000003,10.301119904632568,16.450699999999998Q10.33880990463257,16.3597,10.393529904632569,16.2778Q10.448249904632569,16.1959,10.517889904632568,16.1262Q10.587539904632568,16.0566,10.669429904632569,16.0019Q10.751319904632568,15.9471,10.842319904632568,15.9095Q10.93330990463257,15.8718,11.029909904632568,15.8526Q11.126509904632568,15.8333,11.224999904632568,15.8333L12.787499904632568,15.8333Q12.885989904632568,15.8333,12.982589904632569,15.8525Q13.079189904632567,15.8718,13.170199904632568,15.9095Q13.261199904632567,15.9471,13.343099904632568,16.0019Q13.424999904632568,16.0566,13.494599904632569,16.1262Q13.564199904632568,16.1959,13.618999904632568,16.2778Q13.673699904632569,16.3597,13.711399904632568,16.450699999999998Q13.749099904632569,16.541600000000003,13.768299904632569,16.638199999999998Q13.787499904632568,16.7348,13.787499904632568,16.8333L13.787499904632568,18.3333Q13.787499904632568,18.431800000000003,13.768299904632569,18.528399999999998Q13.749099904632569,18.625,13.711399904632568,18.716Q13.673699904632569,18.807000000000002,13.618999904632568,18.8889Q13.564199904632568,18.9708,13.494599904632569,19.0404Q13.424999904632568,19.1101,13.343099904632568,19.1648Q13.261199904632567,19.2195,13.170199904632568,19.2572Q13.079189904632567,19.2949,12.982589904632569,19.3141Q12.885989904632568,19.3333,12.787499904632568,19.3333L11.224999904632568,19.3333Q11.126509904632568,19.3333,11.029909904632568,19.3141Q10.93330990463257,19.2949,10.842319904632568,19.2572Q10.751319904632568,19.2195,10.669429904632569,19.1648Q10.587539904632568,19.1101,10.517889904632568,19.0404Q10.448249904632569,18.9708,10.393529904632569,18.8889Q10.33880990463257,18.807000000000002,10.301119904632568,18.716Q10.263429904632568,18.625,10.24420990463257,18.528399999999998Q10.224999904632568,18.431800000000003,10.224999904632568,18.3333Z" fill-rule="evenodd" fill="#38363C" fill-opacity="1"/></g></g></svg>