<svg xmlns="http://www.w3.org/2000/svg" xmlns:xlink="http://www.w3.org/1999/xlink" fill="none" version="1.1" width="24" height="24" viewBox="0 0 24 24"><defs><clipPath id="master_svg0_1037_40765"><rect x="0" y="0" width="24" height="24" rx="0"/></clipPath><clipPath id="master_svg1_3118_3536"><rect x="0" y="0" width="24" height="24" rx="0"/></clipPath></defs><g clip-path="url(#master_svg0_1037_40765)"><g clip-path="url(#master_svg1_3118_3536)"></g><g><g><g><path d="M6.75,9L14.25,9C14.66421,9,15,9.335786,15,9.75C15,10.16421,14.66421,10.5,14.25,10.5L6.75,10.5C6.335786,10.5,6,10.16421,6,9.75C6,9.335786,6.335786,9,6.75,9Z" fill-rule="evenodd" fill="#38363C" fill-opacity="1"/></g><g><path d="M4.5,18.75Q4.5,19.0607,4.71967,19.2803Q4.93934,19.5,5.25,19.5Q6.8002400000000005,19.5,7.77134,17.2708Q8.43712,15.7424,9.254290000000001,11.58648Q10.05807,7.49863,10.71762,5.9363399999999995Q11.95725,3,14.25,3Q15.182,3,15.841,3.65901Q16.5,4.31802,16.5,5.25C16.5,5.664210000000001,16.1642,6,15.75,6C15.3358,6,15,5.664210000000001,15,5.25Q15,4.93934,14.7803,4.71967Q14.5607,4.5,14.25,4.5Q12.95219,4.5,12.09952,6.51973Q11.50006,7.93967,10.72611,11.87587Q9.87746,16.1919,9.146519999999999,17.8699Q7.78295,21,5.25,21Q4.31802,21,3.65901,20.341Q3,19.682,3,18.75C3,18.3358,3.335786,18,3.75,18C4.16421,18,4.5,18.3358,4.5,18.75Z" fill-rule="evenodd" fill="#38363C" fill-opacity="1"/></g><g><rect x="13.5" y="15" width="7.5" height="1.5" rx="0.75" fill="#38363C" fill-opacity="1"/></g><g><rect x="16.5" y="12" width="1.5" height="7.5" rx="0.75" fill="#38363C" fill-opacity="1"/></g></g></g></g></svg>