<svg xmlns="http://www.w3.org/2000/svg" xmlns:xlink="http://www.w3.org/1999/xlink" fill="none" version="1.1" width="24" height="24" viewBox="0 0 24 24"><defs><clipPath id="master_svg0_1037_37759"><rect x="0" y="0" width="24" height="24" rx="0"/></clipPath><clipPath id="master_svg1_3118_3535"><rect x="0" y="0" width="24" height="24" rx="0"/></clipPath></defs><g clip-path="url(#master_svg0_1037_37759)"><g clip-path="url(#master_svg1_3118_3535)"></g><g><g><g><path d="M18.749999046325684,20.999999046325684Q17.319219046325685,20.999999046325684,16.555289046325683,19.690399046325684Q16.173309046325684,19.035589046325683,15.772389046325683,17.431899046325682Q15.423309046325684,16.035589046325683,15.149039046325683,15.565399046325684Q14.819219046325683,14.999999046325684,14.249999046325684,14.999999046325684C13.835785046325684,14.999999046325684,13.499999046325684,14.664209046325684,13.499999046325684,14.249999046325684C13.499999046325684,13.835785046325684,13.835785046325684,13.499999046325684,14.249999046325684,13.499999046325684Q15.680779046325684,13.499998956918684,16.444709046325684,14.809599046325683Q16.826689046325683,15.464409046325684,17.227609046325682,17.068099046325685Q17.576689046325683,18.464409046325684,17.850959046325684,18.934599046325683Q18.180779046325682,19.499999046325684,18.749999046325684,19.499999046325684C19.164209046325684,19.499999046325684,19.499999046325684,19.835789046325683,19.499999046325684,20.249999046325684C19.499999046325684,20.664209046325684,19.164209046325684,20.999999046325684,18.749999046325684,20.999999046325684Z" fill-rule="evenodd" fill="#38363C" fill-opacity="1"/></g><g><path d="M12.75,19.499999046325684Q13.45676,19.499999046325684,14.25691,18.761399046325685Q14.81603,18.245289046325684,15.9,16.799999046325684Q17.066029999999998,15.245289046325684,17.72566,14.636399046325684Q18.95676,13.499999046325684,20.25,13.499999046325684C20.66421,13.499999046325684,21,13.835785046325684,21,14.249999046325684C21,14.664209046325684,20.66421,14.999999046325684,20.25,14.999999046325684Q19.54324,14.999999046325684,18.74308,15.738599046325684Q18.18396,16.254709046325683,17.1,17.699999046325683Q15.933959999999999,19.254709046325683,15.274329999999999,19.86359904632568Q14.04324,20.999999046325684,12.75,20.999999046325684C12.335786,20.999999046325684,12,20.664209046325684,12,20.249999046325684C12,19.835789046325683,12.335786,19.499999046325684,12.75,19.499999046325684Z" fill-rule="evenodd" fill="#38363C" fill-opacity="1"/></g><g><path d="M6.749999761581421,8.999999523162842L14.249999761581421,8.999999523162842C14.664209761581422,8.999999523162842,14.999999761581421,9.335785523162842,14.999999761581421,9.749999523162842C14.999999761581421,10.164209523162842,14.664209761581422,10.499999523162842,14.249999761581421,10.499999523162842L6.749999761581421,10.499999523162842C6.335785761581421,10.499999523162842,5.999999761581421,10.164209523162842,5.999999761581421,9.749999523162842C5.999999761581421,9.335785523162842,6.335785761581421,8.999999523162842,6.749999761581421,8.999999523162842Z" fill-rule="evenodd" fill="#38363C" fill-opacity="1"/></g><g><path d="M4.5,18.75Q4.5,19.0607,4.71967,19.2803Q4.93934,19.5,5.25,19.5Q6.8002400000000005,19.5,7.77133,17.2708Q8.43712,15.7424,9.254290000000001,11.58648Q10.05807,7.49863,10.71762,5.9363399999999995Q11.95725,3,14.25,3Q15.182,3,15.841,3.65901Q16.5,4.31802,16.5,5.25C16.5,5.664210000000001,16.1642,6,15.75,6C15.3358,6,15,5.664210000000001,15,5.25Q15,4.93934,14.7803,4.71967Q14.5607,4.5,14.25,4.5Q12.95219,4.5,12.09952,6.51973Q11.50006,7.93967,10.72611,11.87587Q9.87746,16.1919,9.146519999999999,17.8699Q7.78295,21,5.25,21Q4.31802,21,3.65901,20.341Q3,19.682,3,18.75C3,18.3358,3.335786,18,3.75,18C4.16421,18,4.5,18.3358,4.5,18.75Z" fill-rule="evenodd" fill="#38363C" fill-opacity="1"/></g></g></g></g></svg>