<svg xmlns="http://www.w3.org/2000/svg" xmlns:xlink="http://www.w3.org/1999/xlink" fill="none" version="1.1" width="24" height="24" viewBox="0 0 24 24"><defs><clipPath id="master_svg0_234_53435"><rect x="0" y="0" width="24" height="24" rx="0"/></clipPath><clipPath id="master_svg1_3105_3547"><rect x="0" y="0" width="24" height="24" rx="0"/></clipPath></defs><g clip-path="url(#master_svg0_234_53435)"><g clip-path="url(#master_svg1_3105_3547)"></g><g><path d="M20.25,6.93124C20.25,6.93124,12.58593,6.93125,12.58593,6.93125C12.58593,6.93125,9.83673,4.3015624,9.83673,4.3015624C9.80173,4.2688151,9.75573,4.250410851,9.707799999999999,4.25C9.707799999999999,4.25,3.75,4.25,3.75,4.25C3.335156,4.25,3,4.585156,3,5C3,5,3,18.875,3,18.875C3,19.2899,3.335156,19.625,3.75,19.625C3.75,19.625,20.25,19.625,20.25,19.625C20.6649,19.625,21,19.2899,21,18.875C21,18.875,21,7.68124,21,7.68124C21,7.2664,20.6649,6.93124,20.25,6.93124C20.25,6.93124,20.25,6.93124,20.25,6.93124Z" fill="#FAC814" fill-opacity="1"/></g></g></svg>