<svg xmlns="http://www.w3.org/2000/svg" xmlns:xlink="http://www.w3.org/1999/xlink" fill="none" version="1.1" width="24" height="24" viewBox="0 0 24 24"><defs><clipPath id="master_svg0_3105_3546"><rect x="0" y="0" width="24" height="24" rx="0"/></clipPath></defs><g><g clip-path="url(#master_svg0_3105_3546)"></g><g><path d="M3.1178,11.71953L4.49681,9.363949999999999C4.63003,9.13805,4.86998,8.99982,5.128909999999999,8.99982L19,8.99982L19,7.5C19,6.6715800000000005,18.3285,6,17.5,6L12.05,6L7.85001,3L3.5,3C2.671573,3,2,3.671573,2,4.5L2,11.4164C2,12.02833,2.8086320000000002,12.24763,3.1178,11.71953ZM18.3555,19.1358C18.2223,19.3619,17.9824,19.5,17.723399999999998,19.5L2.738287,19.5C2.165306,19.5,1.811391,18.864,2.106188,18.3642L5.64451,12.36413C5.77772,12.13823,6.01768,12,6.27661,12L21.2617,12C21.8347,12,22.1886,12.63598,21.8938,13.1359L18.3555,19.1358Z" fill-rule="evenodd" fill="#FAC814" fill-opacity="1"/></g></g></svg>