<svg xmlns="http://www.w3.org/2000/svg" xmlns:xlink="http://www.w3.org/1999/xlink" fill="none" version="1.1" width="24" height="24" viewBox="0 0 24 24"><defs><clipPath id="master_svg0_886_52119"><rect x="0" y="0" width="24" height="24" rx="0"/></clipPath><clipPath id="master_svg1_3105_4087"><rect x="0" y="0" width="24" height="24" rx="0"/></clipPath></defs><g clip-path="url(#master_svg0_886_52119)"><g clip-path="url(#master_svg1_3105_4087)"></g><g><path d="M5.125,19.5L8.875,19.5C9.22018,19.5,9.5,19.2202,9.5,18.875C9.5,18.5298,9.22018,18.25,8.875,18.25L5.125,18.25Q4.34795,18.25,3.7989699999999997,17.701Q3.25,17.1521,3.25,16.375L3.25,3.25L8.540510000000001,3.25L10.85497,6.72169C10.97088,6.89556,11.16603,7,11.375,7L20.75,7L20.75,10.125C20.75,10.47018,21.0298,10.75,21.375,10.75C21.7202,10.75,22,10.47018,22,10.125L22,6.375C22,6.02982,21.7202,5.75,21.375,5.75L11.70949,5.75L9.39503,2.278312C9.279119999999999,2.104438,9.08397,2,8.875,2L2.625,2C2.2798220000000002,2,2,2.2798220000000002,2,2.625L2,16.375Q2,17.669800000000002,2.915089,18.5849Q3.83018,19.5,5.125,19.5ZM20.3525,20.3525Q22,18.705,22,16.375Q22,14.045,20.3525,12.3975Q18.705,10.75,16.375,10.75Q14.045,10.75,12.3975,12.3975Q10.75,14.045,10.75,16.375Q10.75,18.705,12.3975,20.3525Q14.045,22,16.375,22Q18.705,22,20.3525,20.3525ZM19.4686,13.2814Q20.75,14.5628,20.75,16.375Q20.75,18.1872,19.4686,19.4686Q18.1872,20.75,16.375,20.75Q14.5628,20.75,13.2814,19.4686Q12,18.1872,12,16.375Q12,14.5628,13.2814,13.2814Q14.5628,12,16.375,12Q18.1872,12,19.4686,13.2814ZM17,17L17,18.875C17,19.2202,16.7202,19.5,16.375,19.5C16.0298,19.5,15.75,19.2202,15.75,18.875L15.75,17L13.875,17C13.5298,17,13.25,16.7202,13.25,16.375C13.25,16.0298,13.5298,15.75,13.875,15.75L15.75,15.75L15.75,13.875C15.75,13.5298,16.0298,13.25,16.375,13.25C16.7202,13.25,17,13.5298,17,13.875L17,15.75L18.875,15.75C19.2202,15.75,19.5,16.0298,19.5,16.375C19.5,16.7202,19.2202,17,18.875,17L17,17Z" fill-rule="evenodd" fill="#38363C" fill-opacity="1"/></g></g></svg>