<svg xmlns="http://www.w3.org/2000/svg" xmlns:xlink="http://www.w3.org/1999/xlink" fill="none" version="1.1" width="24" height="24" viewBox="0 0 24 24"><defs><clipPath id="master_svg0_5042_12499"><rect x="0" y="0" width="24" height="24" rx="0"/></clipPath></defs><g><g clip-path="url(#master_svg0_5042_12499)"></g><g><g><g><g><path d="M19.499999976158144,3.899999976158142L13.999997976158141,3.899999976158142C13.668627976158142,3.899999976158142,13.399999976158142,4.168634976158142,13.399999976158142,4.500005976158143C13.399999976158142,4.831376976158142,13.668627976158142,5.099999976158142,13.999997976158141,5.099999976158142L18.899999976158142,5.099999976158142L18.899999976158142,10.000009976158143C18.899999976158142,10.331379976158143,19.168629976158144,10.599999976158141,19.499999976158144,10.599999976158141C19.831369976158143,10.599999976158141,20.09999997615814,10.331379976158143,20.09999997615814,10.000009976158143L20.09999997615814,4.499999976158142C20.09999997615814,4.168628976158142,19.831369976158143,3.899999976158142,19.499999976158144,3.899999976158142Z" fill-rule="evenodd" fill="#38363C" fill-opacity="1"/></g><g><path d="M4.499997976158142,13.399999976158142C4.168627976158142,13.399999976158142,3.899999976158142,13.668634976158142,3.899999976158142,14.000005976158143L3.899999976158142,19.499999976158144C3.899999976158142,19.831369976158143,4.168628976158142,20.09999997615814,4.499999976158142,20.09999997615814L9.999999976158142,20.09999997615814C10.331369976158143,20.09999997615814,10.599999976158141,19.831379976158143,10.599999976158141,19.500009976158143C10.599999976158141,19.168639976158143,10.331369976158143,18.899999976158142,9.999999976158142,18.899999976158142L5.099999976158142,18.899999976158142L5.099999976158142,14.000005976158143C5.099999976158142,13.668634976158142,4.831368976158142,13.399999976158142,4.499997976158142,13.399999976158142Z" fill-rule="evenodd" fill="#38363C" fill-opacity="1"/></g></g></g></g></g></svg>