<svg xmlns="http://www.w3.org/2000/svg" xmlns:xlink="http://www.w3.org/1999/xlink" fill="none" version="1.1" width="24" height="24" viewBox="0 0 24 24"><defs><clipPath id="master_svg0_234_14792"><rect x="0" y="0" width="24" height="24" rx="0"/></clipPath><clipPath id="master_svg1_3125_4255"><rect x="0" y="0" width="24" height="24" rx="0"/></clipPath></defs><g clip-path="url(#master_svg0_234_14792)"><g clip-path="url(#master_svg1_3125_4255)"></g><g><g><g><path d="M3,5.25L3,18.75Q2.9999999329448,19.682,3.65901,20.341Q4.31802,21,5.25,21L18.75,21Q19.682,21,20.341,20.341Q21,19.682,21,18.75L21,5.25Q21,4.31802,20.341,3.65901Q19.682,3,18.75,3L5.25,3Q4.31802,2.9999999329448,3.65901,3.65901Q3,4.31802,3,5.25ZM4.4544999999999995,19.5455Q4.125,19.216,4.125,18.75L4.125,5.25Q4.125,4.78401,4.4544999999999995,4.4544999999999995Q4.78401,4.125,5.25,4.125L18.75,4.125Q19.216,4.125,19.5455,4.4544999999999995Q19.875,4.78401,19.875,5.25L19.875,18.75Q19.875,19.216,19.5455,19.5455Q19.216,19.875,18.75,19.875L5.25,19.875Q4.78401,19.875,4.4544999999999995,19.5455Z" fill-rule="evenodd" fill="#38363C" fill-opacity="1"/></g><g transform="matrix(0,1,-1,0,20.0625,-5.0625)"><path d="M21,7.5L13.125,7.5C12.81434,7.5,12.5625,7.75184,12.5625,8.0625C12.5625,8.37316,12.81434,8.625,13.125,8.625L21,8.625C21.31066,8.625,21.5625,8.37316,21.5625,8.0625C21.5625,7.75184,21.31066,7.5,21,7.5Z" fill-rule="evenodd" fill="#38363C" fill-opacity="1"/></g><g><path d="M15.9375,11.4375L8.0625,11.4375C7.75184,11.4375,7.5,11.68934,7.5,12C7.5,12.31066,7.75184,12.5625,8.0625,12.5625L15.9375,12.5625C16.24816,12.5625,16.5,12.31066,16.5,12C16.5,11.68934,16.24816,11.4375,15.9375,11.4375Z" fill-rule="evenodd" fill="#38363C" fill-opacity="1"/></g></g></g></g></svg>