<svg xmlns="http://www.w3.org/2000/svg" xmlns:xlink="http://www.w3.org/1999/xlink" fill="none" version="1.1" width="24" height="24" viewBox="0 0 24 24"><defs><clipPath id="master_svg0_4030_13659"><rect x="0" y="0" width="24" height="24" rx="0"/></clipPath></defs><g><g clip-path="url(#master_svg0_4030_13659)"></g><g><g><g><path d="M12.016389964237213,19.508018618392946Q8.927269964237214,19.508018618392946,5.997249964237213,17.203018618392946Q4.105159964237213,15.714518618392944,2.5479599642372133,13.509908618392945Q2.099999964237213,12.869478618392945,2.099999964237213,12.091388618392944Q2.099999964237213,11.313288618392944,2.545972964237213,10.675678618392944Q4.105159964237213,8.468228618392944,5.997249964237213,6.979738618392944Q8.927279964237213,4.674718141555944,12.016389964237213,4.674718618392944Q15.105499964237213,4.674718141555944,18.03549996423721,6.979738618392944Q19.927599964237213,8.468228618392944,21.48479996423721,10.672858618392944Q21.932799964237212,11.313288618392944,21.932799964237212,12.091388618392944Q21.932799964237212,12.869478618392945,21.486799964237214,13.507088618392944Q19.927599964237213,15.714518618392944,18.03549996423721,17.203018618392946Q15.105499964237213,19.508018618392946,12.016389964237213,19.508018618392946ZM12.016389964237213,18.008018618392946Q14.586199964237213,18.008018618392946,17.108099964237212,16.024118618392944Q18.828499964237214,14.670698618392944,20.25759996423721,12.647348618392943Q20.646499964237215,12.091388618392944,20.259599964237214,11.538248618392945Q18.828499964237214,9.512068618392945,17.108099964237212,8.158658618392945Q14.586199964237213,6.174718618392944,12.016389964237213,6.174718618392944Q9.446579964237213,6.174718618392944,6.9246899642372135,8.158658618392945Q5.204309964237213,9.512068618392945,3.775139964237213,11.535418618392944Q3.386269964237213,12.091388618392944,3.773149964237213,12.644518618392944Q5.204309964237213,14.670708618392945,6.9246899642372135,16.024118618392944Q9.446579964237213,18.008018618392946,12.016389964237213,18.008018618392946Z" fill-rule="evenodd" fill="#38363C" fill-opacity="1"/></g><g><path d="M14.903697776737214,14.978744018020631Q16.099677776737213,13.78275401802063,16.099677776737213,12.09138401802063Q16.099677776737213,10.40001401802063,14.903697776737214,9.20403401802063Q13.707707776737212,8.00805395841603,12.016337776737213,8.00805401802063Q10.324967776737214,8.00805413722963,9.128987776737214,9.20403401802063Q7.933007776737213,10.40001401802063,7.933007776737213,12.09138401802063Q7.933007776737213,13.78275401802063,9.128987776737214,14.978744018020631Q10.324967776737214,16.17472401802063,12.016337776737213,16.17472401802063Q13.707707776737212,16.17472401802063,14.903697776737214,14.978744018020631ZM13.843037776737212,10.26469401802063Q14.599677776737213,11.02133401802063,14.599677776737213,12.09138401802063Q14.599677776737213,13.16143401802063,13.843037776737212,13.918084018020629Q13.086387776737213,14.67472401802063,12.016337776737213,14.67472401802063Q10.946287776737213,14.67472401802063,10.189647776737214,13.918084018020629Q9.433007776737213,13.16143401802063,9.433007776737213,12.09138401802063Q9.433007776737213,11.02133401802063,10.189647776737214,10.26469401802063Q10.946287776737213,9.50805401802063,12.016337776737213,9.50805401802063Q13.086387776737213,9.50805401802063,13.843037776737212,10.26469401802063Z" fill-rule="evenodd" fill="#38363C" fill-opacity="1"/></g><g transform="matrix(0.7071067690849304,-0.7071067690849304,0.7071067690849304,0.7071067690849304,-13.637794708495576,7.748121442370504)"><path d="M26.854112181854248,20.33633542060852L3.283912181854248,20.33633542060852C2.869698181854248,20.33633542060852,2.533912181854248,20.67212142060852,2.533912181854248,21.08633542060852C2.533912181854248,21.50054542060852,2.869698181854248,21.83633542060852,3.283912181854248,21.83633542060852L26.854112181854248,21.83633542060852C27.26831218185425,21.83633542060852,27.604112181854248,21.50054542060852,27.604112181854248,21.08633542060852C27.604112181854248,20.67212142060852,27.26831218185425,20.33633542060852,26.854112181854248,20.33633542060852Z" fill-rule="evenodd" fill="#38363C" fill-opacity="1"/></g></g></g></g></svg>