<svg xmlns="http://www.w3.org/2000/svg" xmlns:xlink="http://www.w3.org/1999/xlink" fill="none" version="1.1" width="24" height="24" viewBox="0 0 24 24"><defs><clipPath id="master_svg0_5233_11995"><rect x="0" y="0" width="24" height="24" rx="0"/></clipPath></defs><g><g clip-path="url(#master_svg0_5233_11995)"></g><g><path d="M1,1L23,1L23,23L1,23L1,1ZM2,2L2,22L22,22L22,2L2,2Z" fill-rule="evenodd" fill="#EAE8EB" fill-opacity="1"/></g><g><path d="M4.708000183105469,9.447998046875L5.4280001831054685,9.447998046875L5.4280001831054685,14.999998046875L4.708000183105469,14.999998046875L4.708000183105469,9.447998046875ZM8.63600018310547,15.079998046875Q8.15600018310547,15.079998046875,7.784000183105469,14.971998046875001Q7.412000183105469,14.863998046875,7.156000183105469,14.603998046874999Q6.900000183105469,14.343998046875,6.768000183105469,13.915998046875Q6.636000183105469,13.487998046875,6.636000183105469,12.839998046875Q6.636000183105469,12.191998046875,6.768000183105469,11.763998046874999Q6.900000183105469,11.335998046875,7.156000183105469,11.075998046875Q7.412000183105469,10.815998046875,7.784000183105469,10.707998046875Q8.15600018310547,10.599998046875,8.63600018310547,10.599998046875Q8.996000183105469,10.599998046875,9.288000183105469,10.647998046875Q9.580000183105469,10.695998046875,9.76400018310547,10.759998046875L9.76400018310547,11.391998046874999Q9.524000183105468,11.303998046875,9.25200018310547,11.251998046875Q8.980000183105469,11.199998046875,8.644000183105469,11.199998046875Q8.28400018310547,11.199998046875,8.044000183105469,11.279998046875Q7.804000183105469,11.359998046874999,7.652000183105469,11.547998046875Q7.500000183105469,11.735998046875,7.4360001831054685,12.051998046875Q7.3720001831054685,12.367998046875,7.3720001831054685,12.847998046875Q7.3720001831054685,13.319998046875,7.4360001831054685,13.631998046875001Q7.500000183105469,13.943998046875,7.652000183105469,14.131998046875001Q7.804000183105469,14.319998046875,8.048000183105469,14.395998046875Q8.292000183105468,14.471998046875001,8.652000183105468,14.471998046875001Q8.95600018310547,14.471998046875001,9.25200018310547,14.427998046875Q9.548000183105469,14.383998046875,9.780000183105468,14.287998046875L9.780000183105468,14.919998046875001Q9.692000183105469,14.951998046875,9.560000183105469,14.979998046875Q9.428000183105468,15.007998046874999,9.272000183105469,15.031998046875Q9.11600018310547,15.055998046875,8.952000183105469,15.067998046875001Q8.788000183105469,15.079998046875,8.63600018310547,15.079998046875ZM12.612000183105469,15.079998046875Q12.132000183105468,15.079998046875,11.760000183105468,14.971998046875001Q11.388000183105468,14.863998046875,11.132000183105468,14.603998046874999Q10.876000183105468,14.343998046875,10.744000183105468,13.915998046875Q10.612000183105469,13.487998046875,10.612000183105469,12.839998046875Q10.612000183105469,12.191998046875,10.744000183105468,11.763998046874999Q10.876000183105468,11.335998046875,11.132000183105468,11.075998046875Q11.388000183105468,10.815998046875,11.760000183105468,10.707998046875Q12.132000183105468,10.599998046875,12.612000183105469,10.599998046875Q13.092000183105469,10.599998046875,13.464000183105469,10.707998046875Q13.836000183105469,10.815998046875,14.08800018310547,11.075998046875Q14.340000183105468,11.335998046875,14.472000183105468,11.763998046874999Q14.60400018310547,12.191998046875,14.60400018310547,12.839998046875Q14.60400018310547,13.487998046875,14.472000183105468,13.915998046875Q14.340000183105468,14.343998046875,14.08800018310547,14.603998046874999Q13.836000183105469,14.863998046875,13.464000183105469,14.971998046875001Q13.092000183105469,15.079998046875,12.612000183105469,15.079998046875ZM12.612000183105469,14.495998046875Q12.980000183105469,14.495998046875,13.224000183105469,14.415998046875Q13.468000183105469,14.335998046875,13.612000183105469,14.143998046875Q13.756000183105469,13.951998046875,13.81600018310547,13.631998046875001Q13.876000183105468,13.311998046875,13.876000183105468,12.839998046875Q13.876000183105468,12.367998046875,13.812000183105468,12.047998046875Q13.748000183105468,11.727998046875,13.600000183105468,11.535998046875001Q13.452000183105469,11.343998046875,13.208000183105469,11.259998046875Q12.964000183105469,11.175998046875,12.612000183105469,11.175998046875Q12.25200018310547,11.175998046875,12.00800018310547,11.259998046875Q11.76400018310547,11.343998046875,11.61600018310547,11.535998046875001Q11.468000183105469,11.727998046875,11.408000183105468,12.047998046875Q11.34800018310547,12.367998046875,11.34800018310547,12.839998046875Q11.34800018310547,13.311998046875,11.41200018310547,13.631998046875001Q11.47600018310547,13.951998046875,11.628000183105469,14.143998046875Q11.780000183105468,14.335998046875,12.02000018310547,14.415998046875Q12.260000183105468,14.495998046875,12.612000183105469,14.495998046875ZM17.88400018310547,10.599998046875Q18.30800018310547,10.599998046875,18.58800018310547,10.703998046875Q18.86800018310547,10.807998046875,19.032000183105467,10.995998046875Q19.19600018310547,11.183998046875,19.264000183105466,11.439998046875Q19.33200018310547,11.695998046875001,19.33200018310547,12.007998046875L19.33200018310547,14.999998046875L18.63600018310547,14.999998046875L18.63600018310547,12.263998046874999Q18.63600018310547,12.015998046875,18.60400018310547,11.819998046875Q18.57200018310547,11.623998046875,18.480000183105467,11.491998046875Q18.38800018310547,11.359998046874999,18.22800018310547,11.287998046875Q18.068000183105468,11.215998046875,17.812000183105468,11.215998046875Q17.60400018310547,11.215998046875,17.408000183105468,11.243998046875Q17.212000183105467,11.271998046875,17.04000018310547,11.363998046875Q16.86800018310547,11.455998046875,16.72800018310547,11.623998046875Q16.58800018310547,11.791998046875,16.50000018310547,12.079998046875L16.50000018310547,14.999998046875L15.812000183105468,14.999998046875L15.812000183105468,10.679998046875L16.50000018310547,10.679998046875L16.50000018310547,11.295998046875Q16.596000183105467,11.087998046875,16.75200018310547,10.951998046875Q16.908000183105468,10.815998046875,17.09200018310547,10.739998046875Q17.276000183105467,10.663998046875,17.480000183105467,10.631998046875Q17.684000183105468,10.599998046875,17.88400018310547,10.599998046875Z" fill="#9E9E9E" fill-opacity="1"/></g></g></svg>