<svg xmlns="http://www.w3.org/2000/svg" xmlns:xlink="http://www.w3.org/1999/xlink" fill="none" version="1.1" width="24" height="24" viewBox="0 0 24 24"><defs><clipPath id="master_svg0_5042_12418"><rect x="0" y="0" width="24" height="24" rx="0"/></clipPath><clipPath id="master_svg1_5042_12431"><rect x="0" y="0" width="24" height="24" rx="0"/></clipPath></defs><g><g clip-path="url(#master_svg0_5042_12418)"></g><g clip-path="url(#master_svg1_5042_12431)"><g><g><g><ellipse cx="12" cy="12" rx="9" ry="9" fill="#22C55E" fill-opacity="1"/></g><g><path d="M15.827426016845703,12.832052510528564L10.918336016845704,16.104772510528562C10.697666016845703,16.251892510528563,10.427586016845703,16.305322510528562,10.167520016845703,16.253312510528566C9.907454016845703,16.201292510528564,9.678702016845703,16.048102510528565,9.531586016845703,15.827422510528564C9.422074116845703,15.663162510528565,9.363636136054703,15.470152510528564,9.363636016845703,15.272722510528563L9.363636136054703,8.727272510528564C9.363636136054703,8.174987510528565,9.811351016845704,7.7272725105285645,10.363636016845703,7.7272725105285645C10.561066016845704,7.7272725105285645,10.754066016845703,7.785710510528564,10.918336016845704,7.895222510528565L15.827426016845703,11.167952510528565C16.286956016845703,11.474302510528565,16.411126016845703,12.095172510528563,16.104776016845705,12.554702510528564C16.031546016845702,12.664552510528566,15.937276016845704,12.758812510528564,15.827426016845703,12.832052510528564Z" fill-rule="evenodd" fill="#FFFFFF" fill-opacity="1"/></g></g></g></g></g></svg>