<svg xmlns="http://www.w3.org/2000/svg" xmlns:xlink="http://www.w3.org/1999/xlink" fill="none" version="1.1" width="24" height="24" viewBox="0 0 24 24"><defs><clipPath id="master_svg0_3105_4224"><rect x="0" y="0" width="24" height="24" rx="0"/></clipPath><clipPath id="master_svg1_3105_4235"><rect x="0" y="0" width="24" height="24" rx="2"/></clipPath></defs><g><g clip-path="url(#master_svg0_3105_4224)"></g><g clip-path="url(#master_svg1_3105_4235)"><g><path d="M5.69989013671875,18.000006408691405L8.29039013671875,6.780006408691406L10.56739013671875,6.780006408691406L7.97689013671875,18.000006408691405L5.69989013671875,18.000006408691405ZM14.54389013671875,14.766006408691407L13.14139013671875,14.766006408691407L12.39889013671875,18.000006408691405L10.12189013671875,18.000006408691405L12.71239013671875,6.780006408691406L15.94639013671875,6.780006408691406Q17.77789013671875,6.780006408691406,18.59469013671875,7.530756408691406Q19.41139013671875,8.281506408691406,19.41139013671875,9.948006408691406Q19.41139013671875,12.307506408691406,18.11619013671875,13.536756408691407Q16.820890136718752,14.766006408691407,14.54389013671875,14.766006408691407ZM14.84089013671875,12.786006408691406Q15.88039013671875,12.786006408691406,16.47439013671875,12.051756408691407Q17.068390136718747,11.317506408691406,17.068390136718747,9.981006408691407Q17.068390136718747,9.354006408691406,16.77139013671875,9.057006408691407Q16.47439013671875,8.760006408691407,15.78139013671875,8.760006408691407L14.52739013671875,8.760006408691407L13.603390136718751,12.786006408691406L14.84089013671875,12.786006408691406Z" fill="#2882FF" fill-opacity="1"/></g></g></g></svg>