<svg xmlns="http://www.w3.org/2000/svg" xmlns:xlink="http://www.w3.org/1999/xlink" fill="none" version="1.1" width="24" height="24" viewBox="0 0 24 24"><defs><clipPath id="master_svg0_5042_13895"><rect x="0" y="0" width="24" height="24" rx="0"/></clipPath></defs><g><g clip-path="url(#master_svg0_5042_13895)"></g><g><g><path d="M20.4375,11.25L3.9375,11.25C3.523286,11.25,3.1875,11.585786,3.1875,12C3.1875,12.41421,3.523286,12.75,3.9375,12.75L20.4375,12.75C20.8517,12.75,21.1875,12.41421,21.1875,12C21.1875,11.585786,20.8517,11.25,20.4375,11.25Z" fill-rule="evenodd" fill="#38363C" fill-opacity="1"/></g><g><path d="M20.4375,6L3.9375,6C3.523286,6,3.1875,6.335786,3.1875,6.75C3.1875,7.16421,3.523286,7.5,3.9375,7.5L20.4375,7.5C20.8517,7.5,21.1875,7.16421,21.1875,6.75C21.1875,6.335786,20.8517,6,20.4375,6Z" fill-rule="evenodd" fill="#38363C" fill-opacity="1"/></g><g><path d="M12.1875,16.5L3.9375,16.5C3.523286,16.5,3.1875,16.835786,3.1875,17.25C3.1875,17.66421,3.523286,18,3.9375,18L12.1875,18C12.60171,18,12.9375,17.66421,12.9375,17.25C12.9375,16.835786,12.60171,16.5,12.1875,16.5Z" fill-rule="evenodd" fill="#38363C" fill-opacity="1"/></g></g></g></svg>