<svg xmlns="http://www.w3.org/2000/svg" xmlns:xlink="http://www.w3.org/1999/xlink" fill="none" version="1.1" width="24" height="24" viewBox="0 0 24 24"><defs><clipPath id="master_svg0_886_48593"><rect x="0" y="0" width="24" height="24" rx="0"/></clipPath><clipPath id="master_svg1_3105_4084"><rect x="0" y="0" width="24" height="24" rx="0"/></clipPath></defs><g clip-path="url(#master_svg0_886_48593)"><g clip-path="url(#master_svg1_3105_4084)"></g><g><g><path d="M21.375,3L2.625,3C2.2798220000000002,3,2,3.287817,2,3.6428570000000002C2,3.997897,2.2798220000000002,4.28571,2.625,4.28571L21.375,4.28571C21.7202,4.28571,22,3.997897,22,3.6428570000000002C22,3.287817,21.7202,3,21.375,3ZM21.375,8.142859999999999L2.625,8.142859999999999C2.2798220000000002,8.142859999999999,2,8.430679999999999,2,8.785720000000001C2,9.14076,2.2798220000000002,9.42857,2.625,9.42857L21.375,9.42857C21.7202,9.42857,22,9.14076,22,8.785720000000001C22,8.430679999999999,21.7202,8.142859999999999,21.375,8.142859999999999ZM18.25,14.1948L20.9331,16.9546C21.0503,17.0751,21.2092,17.142899999999997,21.375,17.142899999999997C21.5408,17.142899999999997,21.6997,17.0751,21.8169,16.9546C21.9342,16.834,22,16.6705,22,16.5C22,16.3295,21.9342,16.166,21.8169,16.0454L18.0674,12.18871L18.0669,12.18829C17.9516,12.06965,17.7958,12.00217,17.6329,12.00005L17.625,12L17.6191,12.00003C17.4555,12.00162,17.2989,12.06916,17.1831,12.18829L17.1824,12.18893L13.4331,16.0454C13.3158,16.166,13.25,16.3295,13.25,16.5L13.2507,16.530900000000003C13.2582,16.6905,13.3232,16.8416,13.4331,16.9546C13.5503,17.0751,13.7092,17.142899999999997,13.875,17.142899999999997C14.0408,17.142899999999997,14.1997,17.0751,14.3172,16.9543L17,14.1949L17,20.3571C17,20.7122,17.2798,21,17.625,21C17.9702,21,18.25,20.7122,18.25,20.3571L18.25,14.1948ZM10.125,13.2857L2.625,13.2857C2.2798220000000002,13.2857,2,13.5735,2,13.9286C2,14.2836,2.2798220000000002,14.5714,2.625,14.5714L10.125,14.5714C10.47018,14.5714,10.75,14.2836,10.75,13.9286C10.75,13.5735,10.47018,13.2857,10.125,13.2857ZM10.125,18.4286L2.625,18.4286C2.2798220000000002,18.4286,2,18.7164,2,19.0714C2,19.4265,2.2798220000000002,19.7143,2.625,19.7143L10.125,19.7143C10.47018,19.7143,10.75,19.4265,10.75,19.0714C10.75,18.7164,10.47018,18.4286,10.125,18.4286Z" fill-rule="evenodd" fill="#38363C" fill-opacity="1"/></g></g></g></svg>