<svg xmlns="http://www.w3.org/2000/svg" xmlns:xlink="http://www.w3.org/1999/xlink" fill="none" version="1.1" width="24" height="24" viewBox="0 0 24 24"><defs><clipPath id="master_svg0_234_18626"><rect x="0" y="0" width="24" height="24" rx="0"/></clipPath><clipPath id="master_svg1_3125_3550"><rect x="0" y="0" width="24" height="24" rx="0"/></clipPath></defs><g clip-path="url(#master_svg0_234_18626)"><g clip-path="url(#master_svg1_3125_3550)"></g><g><g><g style="opacity:0.4000000059604645;"><path d="M21.2979,15.6809Q22,13.9074,22,12Q22,10.09256,21.2979,8.31905Q20.5355,6.39339,19.0711,4.928929999999999Q17.6066,3.46446,15.6809,2.702117Q13.9074,2,12,2Q10.09256,2,8.31905,2.702117Q6.3934,3.46447,4.928929999999999,4.928929999999999Q3.46447,6.3934,2.702117,8.31905Q2,10.09256,2,12Q2,13.9074,2.702117,15.6809Q3.46447,17.6066,4.928929999999999,19.0711Q6.3934,20.5355,8.31905,21.2979Q10.09256,22,12,22Q13.9074,22,15.6809,21.2979Q17.6066,20.5355,19.0711,19.0711Q20.5355,17.6066,21.2979,15.6809ZM19.4383,9.055240000000001Q20,10.47405,20,12Q20,13.5259,19.4383,14.9448Q18.8284,16.485300000000002,17.6569,17.6569Q16.485300000000002,18.8284,14.9448,19.4383Q13.5259,20,12,20Q10.47405,20,9.055240000000001,19.4383Q7.51472,18.8284,6.34315,17.6569Q5.17157,16.485300000000002,4.5616900000000005,14.9448Q4,13.5259,4,12Q4,10.47405,4.5616900000000005,9.055240000000001Q5.17157,7.51472,6.34315,6.34315Q7.51472,5.17157,9.055240000000001,4.5616900000000005Q10.47405,4,12,4Q13.5259,4,14.9448,4.5616900000000005Q16.485300000000002,5.17157,17.6569,6.34315Q18.8284,7.51472,19.4383,9.055240000000001Z" fill-rule="evenodd" fill="#CDCACF" fill-opacity="1"/></g><g><path d="M11.999995231628418,3.9999953508377075L10.999995231628418,4.000005350837707L10.999995470047418,1.9999953508377075L11.999995231628418,1.9999990463277075Q14.033835231628418,1.9999995231677075,15.892755231628417,2.7862593508377076Q17.687515231628417,3.5453753508377073,19.071065231628417,4.928935350837707Q20.45462523162842,6.312485350837708,21.213695231628417,8.107245350837708Q21.999995231628418,9.966165350837707,21.999995231628418,11.999995350837708L21.999995231628418,12.999995350837708L19.999995231628418,12.999995350837708L19.999995231628418,11.999995350837708Q19.999995231628418,8.686295350837707,17.65685523162842,6.343145350837707Q15.313705231628418,3.9999953508377075,11.999995231628418,3.9999953508377075Z" fill-rule="evenodd" fill="#2882FF" fill-opacity="1"/></g></g></g></g></svg>