<svg xmlns="http://www.w3.org/2000/svg" xmlns:xlink="http://www.w3.org/1999/xlink" fill="none" version="1.1" width="24" height="24" viewBox="0 0 24 24"><defs><clipPath id="master_svg0_5042_12470"><rect x="0" y="0" width="24" height="24" rx="0"/></clipPath></defs><g><g clip-path="url(#master_svg0_5042_12470)"></g><g><g><g><g><path d="M19.987503027915956,18.750003027915955Q19.987503027915956,19.728223027915952,19.295403027915953,20.420363027915954Q18.603203027915953,21.112503027915956,17.625003027915955,21.112503027915956L6.375003027915954,21.112503027915956Q5.396783027915955,21.112503027915956,4.704643027915955,20.420363027915954Q4.012503094971154,19.728223027915952,4.012503027915955,18.750003027915955L4.012503027915955,13.125003027915955Q4.012503027915955,12.146783027915955,4.704643027915955,11.454643027915955Q5.396783027915955,10.762503094971155,6.375003027915954,10.762503027915955L17.625003027915955,10.762503027915955Q18.603203027915953,10.762503027915955,19.295403027915953,11.454643027915955Q19.987503027915956,12.146783027915955,19.987503027915956,13.125003027915955L19.987503027915956,18.750003027915955ZM18.637503027915955,18.750003027915955L18.637503027915955,13.125003027915955Q18.637503027915955,12.705973027915954,18.340803027915953,12.409233027915954Q18.044003027915956,12.112503027915954,17.625003027915955,12.112503027915954L6.375003027915954,12.112503027915954Q5.955973027915954,12.112503027915954,5.659233027915954,12.409233027915954Q5.362503027915954,12.705973027915954,5.362503027915954,13.125003027915955L5.362503027915954,18.750003027915955Q5.362503027915954,19.169033027915955,5.659233027915954,19.465773027915954Q5.955973027915954,19.762503027915955,6.375003027915954,19.762503027915955L17.625003027915955,19.762503027915955Q18.044003027915956,19.762503027915955,18.340803027915953,19.465773027915954Q18.637503027915955,19.169033027915955,18.637503027915955,18.750003027915955Z" fill-rule="evenodd" fill="#38363C" fill-opacity="1"/></g><g><path d="M14.678603027915955,5.636313027915955Q13.702363027915954,4.237503027915954,12.000003027915955,4.237503027915954Q10.648633027915954,4.237503027915954,9.693063027915954,5.193063027915954Q8.737503027915954,6.148633027915954,8.737503027915954,7.500003027915954L8.737503027915954,9.187503027915955C8.737503027915954,9.560293027915954,8.435293027915954,9.862503027915954,8.062503027915955,9.862503027915954C7.689711027915955,9.862503027915954,7.387503027915955,9.560293027915954,7.387503027915955,9.187503027915955L7.387503027915955,7.500003027915954Q7.387503094971154,5.589443027915955,8.738473027915955,4.238473027915955Q10.089443027915955,2.8875030279159546,12.000003027915955,2.8875030279159546Q13.154893027915953,2.8875030279159546,14.168303027915954,3.4280370279159547Q15.148633027915954,3.950933027915955,15.785653027915954,4.8636930279159545C15.864733027915955,4.976993027915954,15.907123027915954,5.111833027915955,15.907123027915954,5.250003027915954C15.907123027915954,5.622793027915955,15.604923027915955,5.925003027915954,15.232123027915954,5.925003027915954C15.011533027915956,5.925003027915954,14.804853027915954,5.817213027915955,14.678603027915955,5.636313027915955Z" fill-rule="evenodd" fill="#38363C" fill-opacity="1"/></g><g><path d="M13.670543027915954,17.608043027915954Q14.362503027915954,16.916083027915953,14.362503027915954,15.937503027915955Q14.362503027915954,14.958923027915954,13.670543027915954,14.266963027915954Q12.978583027915954,13.575003027915955,12.000003027915955,13.575003027915955Q11.021423027915954,13.575003027915955,10.329463027915954,14.266963027915954Q9.637503027915955,14.958923027915954,9.637503027915955,15.937503027915955Q9.637503027915955,16.916083027915953,10.329463027915954,17.608043027915954Q11.021423027915954,18.300003027915956,12.000003027915955,18.300003027915956Q12.978583027915954,18.300003027915956,13.670543027915954,17.608043027915954ZM12.715953027915955,15.221553027915954Q13.012503027915955,15.518113027915955,13.012503027915955,15.937503027915955Q13.012503027915955,16.356893027915955,12.715953027915955,16.653453027915955Q12.419393027915955,16.950003027915955,12.000003027915955,16.950003027915955Q11.580613027915955,16.950003027915955,11.284053027915954,16.653453027915955Q10.987503027915954,16.356893027915955,10.987503027915954,15.937503027915955Q10.987503027915954,15.518113027915955,11.284053027915954,15.221553027915954Q11.580613027915955,14.925003027915954,12.000003027915955,14.925003027915954Q12.419393027915955,14.925003027915954,12.715953027915955,15.221553027915954Z" fill-rule="evenodd" fill="#38363C" fill-opacity="1"/></g></g></g></g></g></svg>