<svg xmlns="http://www.w3.org/2000/svg" xmlns:xlink="http://www.w3.org/1999/xlink" fill="none" version="1.1" width="24" height="24" viewBox="0 0 24 24"><defs><clipPath id="master_svg0_5042_12447"><rect x="0" y="0" width="24" height="24" rx="0"/></clipPath></defs><g><g clip-path="url(#master_svg0_5042_12447)"></g><g><g><g><g><path d="M19.98749921321869,18.750003027915955Q19.98749921321869,19.728223027915952,19.295399213218687,20.420363027915954Q18.603199213218687,21.112503027915956,17.62499921321869,21.112503027915956L6.374999213218689,21.112503027915956Q5.396779213218689,21.112503027915956,4.704639213218689,20.420363027915954Q4.012499280273889,19.728223027915952,4.012499213218689,18.750003027915955L4.012499213218689,13.125003027915955Q4.012499213218689,12.146783027915955,4.704639213218689,11.454643027915955Q5.396779213218689,10.762503094971155,6.374999213218689,10.762503027915955L17.62499921321869,10.762503027915955Q18.603199213218687,10.762503027915955,19.295399213218687,11.454643027915955Q19.98749921321869,12.146783027915955,19.98749921321869,13.125003027915955L19.98749921321869,18.750003027915955ZM18.63749921321869,18.750003027915955L18.63749921321869,13.125003027915955Q18.63749921321869,12.705973027915954,18.340799213218688,12.409233027915954Q18.04399921321869,12.112503027915954,17.62499921321869,12.112503027915954L6.374999213218689,12.112503027915954Q5.9559692132186886,12.112503027915954,5.659229213218689,12.409233027915954Q5.362499213218689,12.705973027915954,5.362499213218689,13.125003027915955L5.362499213218689,18.750003027915955Q5.362499213218689,19.169033027915955,5.659229213218689,19.465773027915954Q5.9559692132186886,19.762503027915955,6.374999213218689,19.762503027915955L17.62499921321869,19.762503027915955Q18.04399921321869,19.762503027915955,18.340799213218688,19.465773027915954Q18.63749921321869,19.169033027915955,18.63749921321869,18.750003027915955Z" fill-rule="evenodd" fill="#38363C" fill-opacity="1"/></g><g><path d="M15.262499213218689,9.187503027915955L15.262499213218689,7.500003027915954Q15.262499213218689,6.148633027915954,14.306939213218689,5.193063027915954Q13.351379213218689,4.237503027915954,11.99999921321869,4.237503027915954Q10.648629213218689,4.237503027915954,9.693059213218689,5.193063027915954Q8.737499213218689,6.148633027915954,8.737499213218689,7.500003027915954L8.737499213218689,9.187503027915955C8.737499213218689,9.560293027915954,8.435289213218688,9.862503027915954,8.06249921321869,9.862503027915954C7.689707213218689,9.862503027915954,7.387499213218689,9.560293027915954,7.387499213218689,9.187503027915955L7.387499213218689,7.500003027915954Q7.387499280273889,5.589443027915955,8.73846921321869,4.238473027915955Q10.08943921321869,2.8875030279159546,11.99999921321869,2.8875030279159546Q13.91055921321869,2.8875030949711546,15.26152921321869,4.238473027915955Q16.61249921321869,5.589443027915955,16.61249921321869,7.500003027915954L16.61249921321869,9.187503027915955C16.61249921321869,9.560293027915954,16.310289213218688,9.862503027915954,15.93749921321869,9.862503027915954C15.56470921321869,9.862503027915954,15.262499213218689,9.560293027915954,15.262499213218689,9.187503027915955Z" fill-rule="evenodd" fill="#38363C" fill-opacity="1"/></g><g><path d="M13.670539213218689,17.608043027915954Q14.362499213218689,16.916083027915953,14.362499213218689,15.937503027915955Q14.362499213218689,14.958923027915954,13.670539213218689,14.266963027915954Q12.978579213218689,13.575003027915955,11.99999921321869,13.575003027915955Q11.021419213218689,13.575003027915955,10.329459213218689,14.266963027915954Q9.637499213218689,14.958923027915954,9.637499213218689,15.937503027915955Q9.637499213218689,16.916083027915953,10.329459213218689,17.608043027915954Q11.021419213218689,18.300003027915956,11.99999921321869,18.300003027915956Q12.978579213218689,18.300003027915956,13.670539213218689,17.608043027915954ZM12.715949213218689,15.221553027915954Q13.012499213218689,15.518113027915955,13.012499213218689,15.937503027915955Q13.012499213218689,16.356893027915955,12.715949213218689,16.653453027915955Q12.41938921321869,16.950003027915955,11.99999921321869,16.950003027915955Q11.58060921321869,16.950003027915955,11.284049213218688,16.653453027915955Q10.987499213218689,16.356893027915955,10.987499213218689,15.937503027915955Q10.987499213218689,15.518113027915955,11.284049213218688,15.221553027915954Q11.58060921321869,14.925003027915954,11.99999921321869,14.925003027915954Q12.41938921321869,14.925003027915954,12.715949213218689,15.221553027915954Z" fill-rule="evenodd" fill="#38363C" fill-opacity="1"/></g></g></g></g></g></svg>