<svg xmlns="http://www.w3.org/2000/svg" xmlns:xlink="http://www.w3.org/1999/xlink" fill="none" version="1.1" width="24" height="24" viewBox="0 0 24 24"><defs><clipPath id="master_svg0_5042_10103"><rect x="0" y="0" width="24" height="24" rx="0"/></clipPath><clipPath id="master_svg1_5042_10100"><rect x="3" y="3" width="18" height="18" rx="0"/></clipPath></defs><g><g clip-path="url(#master_svg0_5042_10103)"></g><g clip-path="url(#master_svg1_5042_10100)"><g><g><path d="M20.51846719069481,9.549187802886962L14.981167190694809,8.744247802886964L12.506177190694808,3.726746802886963C12.27970719069481,3.342201402886963,11.723517190694809,3.342201402886963,11.49704719069481,3.726746802886963L9.02204719069481,8.744247802886964L3.481424190694809,9.549187802886962C3.269533190694809,9.579767802886963,3.093373490694809,9.727987802886963,3.026999890694809,9.931517802886962C2.960626290694809,10.135057802886962,3.015546790694809,10.358627802886962,3.168674190694809,10.508247802886963L7.175927190694809,14.414237802886962L6.230927190694809,19.93123780288696C6.195797190694809,20.141937802886964,6.28298719069481,20.354237802886963,6.455997190694809,20.479437802886963C6.6290171906948085,20.604637802886963,6.8579971906948085,20.621137802886963,7.047107190694809,20.521837802886964L11.999927190694809,17.918037802886964L16.952767190694807,20.521837802886964C17.14186719069481,20.621137802886963,17.37086719069481,20.604637802886963,17.54386719069481,20.479437802886963C17.716867190694806,20.354237802886963,17.80406719069481,20.141937802886964,17.76896719069481,19.93123780288696L16.822767190694808,14.418737802886962L20.83116719069481,10.508247802886963C20.98426719069481,10.358707802886963,21.039267190694808,10.135237802886962,20.97296719069481,9.931737802886964C20.906767190694808,9.728227802886963,20.73076719069481,9.579947802886963,20.51896719069481,9.549187802886962L20.51846719069481,9.549187802886962Z" fill="#38363C" fill-opacity="1"/></g></g></g></g></svg>