<svg xmlns="http://www.w3.org/2000/svg" xmlns:xlink="http://www.w3.org/1999/xlink" fill="none" version="1.1" width="24" height="24" viewBox="0 0 24 24"><defs><clipPath id="master_svg0_3125_4253"><rect x="0" y="0" width="24" height="24" rx="0"/></clipPath></defs><g><g clip-path="url(#master_svg0_3125_4253)"></g><g><g><path d="M10.399996984558106,18.875Q10.399996984558106,19.65205,10.941656984558106,20.20103Q11.483306984558105,20.75,12.249996984558106,20.75Q13.016696984558106,20.75,13.558346984558106,20.20103Q14.099996984558105,19.65205,14.099996984558105,18.875C14.099996984558105,18.529822,14.376086984558105,18.25,14.716666984558106,18.25C15.057246984558105,18.25,15.333336984558105,18.529822,15.333336984558105,18.875Q15.333336984558105,20.16982,14.430446984558106,21.08491Q13.527556984558107,22,12.249996984558106,22Q10.972446984558106,22,10.069554984558106,21.08491Q9.166666984558105,20.16982,9.166666984558105,18.875C9.166666984558105,18.529822,9.442757984558105,18.25,9.783333984558105,18.25C10.123908984558106,18.25,10.399996984558106,18.529822,10.399996984558106,18.875Z" fill-rule="evenodd" fill="#38363C" fill-opacity="1"/></g><g><path d="M3,15.75L21.5,15.75L21.5,17L3,17L3,15.75Z" fill-rule="evenodd" fill="#38363C" fill-opacity="1"/></g><g><path d="M4.233333349227905,15.75Q5.0000273492279055,15.75,5.541683349227905,15.201Q6.083333349227905,14.6521,6.083333349227905,13.875L6.083333349227905,8.25Q6.083333349227905,5.66143,7.889633349227905,3.83071Q9.695943349227905,2.000000298023,12.250003349227905,2Q14.804033349227906,2.000000596046,16.610333349227908,3.83072Q18.416633349227904,5.66143,18.416633349227904,8.25L18.416633349227904,13.875Q18.416633349227904,14.5524,19.198433349227905,15.1414Q20.006433349227905,15.75,20.883333349227904,15.75L20.883333349227904,17L20.266633349227906,17L20.266633349227906,16.9493Q19.321933349227905,16.791800000000002,18.462733349227904,16.1446Q17.183333349227905,15.1808,17.183333349227905,13.875L17.183333349227905,8.25Q17.183333349227905,6.1792,15.738233349227905,4.7146Q14.293233349227906,3.25,12.250003349227905,3.25Q10.206803349227904,3.25,8.761733349227907,4.7146Q7.316663349227905,6.1792,7.316663349227905,8.25L7.316663349227905,13.875Q7.316663349227905,15.1698,6.413773349227905,16.084899999999998Q5.5108933492279055,17,4.233333349227905,17L4.233333349227905,15.75Z" fill-rule="evenodd" fill="#38363C" fill-opacity="1"/></g></g></g></svg>