<svg xmlns="http://www.w3.org/2000/svg" xmlns:xlink="http://www.w3.org/1999/xlink" fill="none" version="1.1" width="24" height="24" viewBox="0 0 24 24"><defs><clipPath id="master_svg0_450_29623"><rect x="0" y="0" width="24" height="24" rx="0"/></clipPath><clipPath id="master_svg1_3105_3978"><rect x="0" y="0" width="24" height="24" rx="0"/></clipPath></defs><g clip-path="url(#master_svg0_450_29623)"><g clip-path="url(#master_svg1_3105_3978)"></g><g><path d="M9.5,6L9.5,10Q9.5,10.72487,10.012563,11.23744Q10.525127,11.75,11.25,11.75L20,11.75Q20.724899999999998,11.75,21.2374,11.23744Q21.75,10.72487,21.75,10L21.75,6Q21.75,5.275127,21.2374,4.762563Q20.724899999999998,4.25,20,4.25L11.25,4.25Q10.525126,4.25,10.012563,4.762563Q9.5,5.275126,9.5,6ZM11.25,10.25Q11,10.25,11,10L11,6Q11,5.75,11.25,5.75L20,5.75Q20.25,5.75,20.25,6L20.25,10Q20.25,10.25,20,10.25L11.25,10.25Z" fill-rule="evenodd" fill="#38363C" fill-opacity="1"/></g><g><path d="M9.5,15L9.5,19Q9.5,19.72487,10.012563,20.23744Q10.525127,20.75,11.25,20.75L20,20.75Q20.724899999999998,20.75,21.2374,20.23744Q21.75,19.72487,21.75,19L21.75,15Q21.75,14.275127,21.2374,13.762563Q20.724899999999998,13.25,20,13.25L11.25,13.25Q10.525126,13.25,10.012563,13.762563Q9.5,14.275126,9.5,15ZM11.25,19.25Q11,19.25,11,19L11,15Q11,14.75,11.25,14.75L20,14.75Q20.25,14.75,20.25,15L20.25,19Q20.25,19.25,20,19.25L11.25,19.25Z" fill-rule="evenodd" fill="#38363C" fill-opacity="1"/></g><g><path d="M3,17.75L6.5,17.75Q6.573869999999999,17.75,6.646319999999999,17.735599999999998Q6.71877,17.7212,6.78701,17.6929Q6.8552599999999995,17.6646,6.9166799999999995,17.6236Q6.9780999999999995,17.5826,7.03033,17.5303Q7.08256,17.478099999999998,7.1236,17.4167Q7.16464,17.3553,7.19291,17.287Q7.22118,17.2188,7.23559,17.1463Q7.25,17.073900000000002,7.25,17Q7.25,16.926099999999998,7.23559,16.8537Q7.22118,16.7812,7.19291,16.713Q7.16464,16.6447,7.1236,16.5833Q7.08256,16.521900000000002,7.03033,16.4697Q6.9780999999999995,16.4174,6.9166799999999995,16.3764Q6.8552599999999995,16.3354,6.78701,16.3071Q6.71877,16.2788,6.646319999999999,16.264400000000002Q6.573869999999999,16.25,6.5,16.25L3.75,16.25L3.75,4Q3.75,3.9261315,3.735589,3.853682Q3.721178,3.781233,3.69291,3.712987Q3.664641,3.644742,3.623602,3.583322Q3.582563,3.521903,3.53033,3.46967Q3.478097,3.417437,3.416678,3.376398Q3.355258,3.335359,3.287013,3.30709Q3.218767,3.278822,3.146318,3.264411Q3.0738685,3.25,3,3.25Q2.9261315,3.25,2.853682,3.264411Q2.781233,3.278822,2.712987,3.30709Q2.644742,3.335359,2.583322,3.376398Q2.521903,3.417437,2.46967,3.46967Q2.417437,3.521903,2.376398,3.583322Q2.335359,3.644742,2.30709,3.712987Q2.278822,3.781233,2.264411,3.853682Q2.25,3.9261315,2.25,4L2.25,17Q2.25,17.073900000000002,2.264411,17.1463Q2.278822,17.2188,2.30709,17.287Q2.335359,17.3553,2.376398,17.4167Q2.417437,17.478099999999998,2.46967,17.5303Q2.521903,17.5826,2.583322,17.6236Q2.644742,17.6646,2.712987,17.6929Q2.781233,17.7212,2.853682,17.735599999999998Q2.9261315,17.75,3,17.75Z" fill-rule="evenodd" fill="#38363C" fill-opacity="1"/></g><g><path d="M3.75,8.75L6.5,8.75Q6.573869999999999,8.75,6.646319999999999,8.735589000000001Q6.71877,8.721178,6.78701,8.69291Q6.8552599999999995,8.664641,6.9166799999999995,8.623602Q6.9780999999999995,8.582563,7.03033,8.53033Q7.08256,8.478097,7.1236,8.416678Q7.16464,8.355258,7.1929099999999995,8.287013Q7.22118,8.218767,7.23559,8.146318Q7.25,8.0738685,7.25,8Q7.25,7.9261315,7.23559,7.853682Q7.22118,7.781233,7.1929099999999995,7.712987Q7.16464,7.644742,7.1236,7.583322Q7.08256,7.521903,7.03033,7.46967Q6.9780999999999995,7.417437,6.9166799999999995,7.376398Q6.8552599999999995,7.335359,6.78701,7.30709Q6.71877,7.278822,6.646319999999999,7.264411Q6.573869999999999,7.25,6.5,7.25L3.75,7.25Q3.6761315,7.25,3.603682,7.264411Q3.531233,7.278822,3.462987,7.30709Q3.394742,7.335359,3.333322,7.376398Q3.271903,7.417437,3.21967,7.46967Q3.167437,7.521903,3.126398,7.583322Q3.085359,7.644742,3.05709,7.712987Q3.028822,7.781233,3.014411,7.853682Q3,7.9261315,3,8Q3,8.0738685,3.014411,8.146318Q3.028822,8.218767,3.05709,8.287013Q3.085359,8.355258,3.126398,8.416678Q3.167437,8.478097,3.21967,8.53033Q3.271903,8.582563,3.333322,8.623602Q3.394742,8.664641,3.462987,8.69291Q3.531233,8.721178,3.603682,8.735589000000001Q3.6761315,8.75,3.75,8.75Z" fill-rule="evenodd" fill="#38363C" fill-opacity="1"/></g></g></svg>