<svg xmlns="http://www.w3.org/2000/svg" xmlns:xlink="http://www.w3.org/1999/xlink" fill="none" version="1.1" width="24" height="24" viewBox="0 0 24 24"><defs><clipPath id="master_svg0_700_030831"><rect x="0" y="0" width="24" height="24" rx="0"/></clipPath><clipPath id="master_svg1_3105_3987"><rect x="0" y="0" width="24" height="24" rx="0"/></clipPath></defs><g clip-path="url(#master_svg0_700_030831)"><g clip-path="url(#master_svg1_3105_3987)"></g><g><g><g><path d="M19.2671,21.712893943023683L19.2671,21.712893943023683L16.5471,20.824393943023683Q15.2929,20.414293943023683,14.5204,19.358193943023682Q13.74503,18.29809394302368,13.75,16.99139394302368L13.75,16.288993943023684C13.75,16.04309394302368,13.8706,15.812793943023681,14.0726,15.672693943023681Q15.5759,14.630293943023682,16.378700000000002,13.006293943023682Q17.1802,11.384773943023681,17.084400000000002,9.585503943023681C17.0837,9.572213943023682,17.0833,9.558923943023682,17.0833,9.545623943023681L17.0833,8.727453943023683Q17.0833,6.5910639430236815,15.5016,5.119373943023682Q13.9182,3.6461339430236817,11.73892,3.7567439430236815Q9.658719999999999,3.9417139430236814,8.2654,5.467873943023681Q6.87282,6.993213943023681,6.9165,9.038713943023682L6.91667,9.545623943023681C6.91667,9.558813943023683,6.91632,9.57201394302368,6.9156200000000005,9.585193943023683Q6.820600000000001,11.383703943023681,7.62211,13.00439394302368Q8.42483,14.627493943023682,9.92737,15.669393943023682C10.12945,15.809493943023682,10.25,16.039793943023682,10.25,16.28569394302368L10.25,17.00079394302368Q10.25165,18.30369394302368,9.47658,19.36059394302368Q8.70447,20.41349394302368,7.4531,20.822693943023683L4.733277,21.71279394302368C4.657971,21.737493943023683,4.579236,21.749993943023682,4.5,21.749993943023682C4.085786,21.749993943023682,3.75,21.414193943023683,3.75,20.999993943023682C3.75,20.67569394302368,3.958478,20.38809394302368,4.266723,20.28719394302368L6.98689,19.39699394302368Q7.77999,19.13759394302368,8.26698,18.473593943023683Q8.75103,17.81349394302368,8.75,17.00079394302368L8.75,16.667693943023682Q7.16373,15.461193943023682,6.27755,13.669293943023682Q5.30644,11.705713943023682,5.41667,9.526113943023681L5.4168400000000005,9.070723943023681Q5.36035,6.425143943023682,7.15762,4.456523943023681Q8.9499,2.493366943023682,11.62176,2.261257443023682C11.62176,2.261257443023682,11.6471,2.2594872430236816,11.6471,2.2594872430236816Q14.4697,2.1103779430236815,16.523400000000002,4.021193943023682Q18.5833,5.937843943023681,18.5833,8.727453943023683L18.5833,9.526113943023681Q18.6944,11.706483943023681,17.723300000000002,13.670993943023682Q16.8371,15.46399394302368,15.25,16.67099394302368L15.25,16.997093943023682Q15.2469,17.810593943023683,15.7311,18.472593943023682Q16.2183,19.138693943023682,17.012900000000002,19.39849394302368L19.732100000000003,20.28679394302368L19.732100000000003,20.28679394302368C20.0413,20.38779394302368,20.25,20.67549394302368,20.25,20.999993943023682C20.25,21.414193943023683,19.9142,21.749993943023682,19.5,21.749993943023682C19.4209,21.749993943023682,19.3423,21.737493943023683,19.2671,21.712893943023683Z" fill-rule="evenodd" fill="#38363C" fill-opacity="1"/></g></g></g></g></svg>