<svg xmlns="http://www.w3.org/2000/svg" xmlns:xlink="http://www.w3.org/1999/xlink" fill="none" version="1.1" width="24" height="24" viewBox="0 0 24 24"><defs><clipPath id="master_svg0_4122_02003"><rect x="0" y="0" width="24" height="24" rx="0"/></clipPath><clipPath id="master_svg1_4122_02004"><rect x="2" y="2" width="20" height="20" rx="0"/></clipPath></defs><g><g clip-path="url(#master_svg0_4122_02003)"></g><g clip-path="url(#master_svg1_4122_02004)"><g style="opacity:0.10000000149011612;"><path d="M4.69932359375,6.072265625C4.02727559375,6.072265625,3.48193359375,6.505723625,3.48193359375,7.040691625L3.48193359375,18.200165625C3.48193359375,18.735165625,3.54046899375,18.665465625,4.21251359375,18.665465625L19.30643359375,18.665465625C19.97853359375,18.665465625,20.52383359375,18.232065625,20.52383359375,17.697065625L20.52383359375,7.040691625C20.52383359375,6.505723625,19.97853359375,6.072265625,19.30643359375,6.072265625L4.69932359375,6.072265625Z" fill="#EB3349" fill-opacity="1"/></g><g><path d="M3.75087,18.424173437500002L9.00201,18.424173437500002C9.27648,18.4220734375,9.50052,18.6431734375,9.50216,18.9176734375C9.50093,19.192373437500002,9.27676,19.4138734375,9.00201,19.4118734375L3.5004299999999997,19.4118734375C2.672045,19.4118734375,2,18.748673437500003,2,17.9299734375L2,15.5833734375C2.0016308,15.3088734375,2.225677,15.0878734375,2.500144,15.0898734375C2.77461,15.0878734375,2.998657,15.3088734375,3.0002899999999997,15.5833734375L3.0002899999999997,17.683173437500002C3.0002899999999997,18.0921734375,3.33594,18.424173437500002,3.75087,18.424173437500002ZM2,6.0746934375L2,8.421293437500001C2.0016308,8.6957634375,2.225677,8.9168234375,2.500144,8.9147734375C2.77461,8.9168234375,2.998657,8.6957634375,3.0002899999999997,8.421293437500001L3.0002899999999997,6.1858434375C3.0002899999999997,5.9857834375,3.08179,5.7946134375,3.22628,5.6553134375C3.37175,5.5156104375,3.56703,5.4398474375,3.7686599999999997,5.4448854375L9.00201,5.5686244375000005C9.133420000000001,5.5720594375,9.26072,5.5226864375,9.355450000000001,5.4315474375C9.44922,5.3411614375,9.502189999999999,5.2165084375,9.50216,5.0862634374999995C9.50052,4.8117944375,9.27648,4.5907352975,9.00201,4.5927882566L3.5004299999999997,4.5927882566C2.672045,4.5927882566,2,5.2559414375,2,6.0746934375ZM20.2549,18.424173437500002L15.0037,18.424173437500002C14.7293,18.4220734375,14.5052,18.6431734375,14.5036,18.9176734375C14.5048,19.192373437500002,14.729,19.4138734375,15.0037,19.4118734375L20.5053,19.4118734375C20.9032,19.4118734375,21.2848,19.2562734375,21.5664,18.977673437500002C21.8479,18.6997734375,22.0057,18.3226734375,22.0057,17.9299734375L22.0057,15.5833734375C22.0041,15.3088734375,21.7801,15.0878734375,21.5056,15.0898734375C21.2311,15.0878734375,21.0071,15.3088734375,21.0055,15.5833734375L21.0055,17.683173437500002C21.0055,17.8795734375,20.9262,18.0684734375,20.7854,18.2070734375C20.6446,18.3456734375,20.4542,18.424173437500002,20.2549,18.424173437500002ZM14.5036,5.0870044375C14.5036,5.2174114375,14.5562,5.3433744375,14.6503,5.4359934375C14.7446,5.5286594375,14.8715,5.5805514375000005,15.0037,5.5804794375L20.2549,5.5804794375C20.6698,5.5804794375,21.0055,5.9124234375,21.0055,6.3214334375L21.0055,8.421293437500001C21.0071,8.6957634375,21.2311,8.9168234375,21.5056,8.9147734375C21.7801,8.9168234375,22.0041,8.6957634375,22.0057,8.421293437500001L22.0057,6.0746934375C22.0057,5.2559414375,21.3337,4.5927883148,20.5053,4.5927883148L15.0037,4.5927883148C14.8715,4.5927161742,14.7446,4.6446085375,14.6503,4.7372744375C14.5566,4.8295134375,14.5037,4.9554894375,14.5036,5.0870044375ZM7.09406,14.8890734375C5.571400000000001,14.8890734375,4.5066500000000005,13.7198534375,4.5066500000000005,12.0467834375C4.5066500000000005,10.3203634375,5.60029,9.1155734375,7.16741,9.1155734375C8.69155,9.1155734375,9.75408,10.281093437500001,9.75408,11.9504534375C9.75408,13.9806734375,8.418140000000001,14.8890734375,7.09406,14.8890734375ZM5.82925,12.0312234375C5.82925,12.8492334375,6.23603,13.7443034375,7.13036,13.7443034375C8.02544,13.7443034375,8.439630000000001,12.8566434375,8.439630000000001,11.9793534375C8.439630000000001,11.1509734375,8.0321,10.2581234375,7.13777,10.2581234375C6.17305,10.2581234375,5.82925,11.2132134375,5.82925,12.0312234375ZM14.5214,13.3842034375L14.1798,13.5479534375C13.9545,13.6561334375,13.5915,13.7235634375,13.2492,13.7235634375C12.214,13.7235634375,11.61758,13.1041234375,11.61758,12.0238134375C11.61758,10.9427634375,12.24,10.2714534375,13.2781,10.2714534375C13.7286,10.2714534375,14.0249,10.3818534375,14.1635,10.4492834375L14.4954,10.6071134375L14.6014,10.2581234375L14.76,9.7313034375L14.8318,9.4882734375L14.6021,9.372683437500001C14.4502,9.2956234375,14.019,9.1155734375,13.2551,9.1155734375C11.51607,9.1155734375,10.30164,10.3218434375,10.30164,12.0467834375C10.30164,13.7717234375,11.40566,14.8831734375,13.1121,14.8831734375C13.6922,14.8831734375,14.2457,14.7830734375,14.5873,14.6126734375L14.814,14.5015634375L14.7518,14.2600134375L14.617,13.7487534375L14.5214,13.3842034375ZM18.3284,14.8097734375L18.2387,14.6556734375C18.1454,14.4956334375,18.0439,14.1481234375,17.866,13.3723434375C17.7327,12.7647634375,17.5452,12.6602934375,17.1592,12.6447334375L16.8554,12.6447334375L16.8554,14.8082734375L15.578,14.8082734375L15.578,9.3200734375L15.8277,9.2704334375C16.17,9.2007834375,16.6605,9.1600234375,17.1436,9.1600234375C17.9224,9.1600234375,18.4388,9.3104434375,18.8137,9.6438734375C19.1383,9.928393437499999,19.3176,10.3462934375,19.3176,10.8249534375C19.3236,11.3480234375,19.0724,11.8407134375,18.6455,12.143103437499999C18.8567,12.3616834375,19.0071,12.6684434375,19.099,13.0596634375C19.2101,13.5309134375,19.3628,14.1770234375,19.4598,14.3541134375L19.7081,14.8097734375L18.3284,14.8097734375ZM16.8583,10.288503437500001L16.8583,11.5407134375L17.214,11.5407134375C17.7312,11.5407134375,18.0416,11.3021234375,18.0416,10.9005234375C18.0394,10.730843437499999,18.0394,10.2833134375,17.1896,10.2736834375C17.078400000000002,10.274423437500001,16.968,10.2796034375,16.857599999999998,10.2884934375L16.8583,10.288503437500001Z" fill="#EB3349" fill-opacity="1"/></g></g></g></svg>