<svg xmlns="http://www.w3.org/2000/svg" xmlns:xlink="http://www.w3.org/1999/xlink" fill="none" version="1.1" width="24" height="24" viewBox="0 0 24 24"><defs><clipPath id="master_svg0_4122_01915"><rect x="0" y="0" width="24" height="24" rx="0"/></clipPath><clipPath id="master_svg1_4122_01916"><rect x="2" y="2" width="20" height="20" rx="0"/></clipPath><linearGradient x1="0.89753657579422" y1="0.1549219787120819" x2="0.06648275256156921" y2="0.9311628341674805" id="master_svg2_4122_01167"><stop offset="4.800000041723251%" stop-color="#FFF44F" stop-opacity="1"/><stop offset="11.100000143051147%" stop-color="#FFE847" stop-opacity="1"/><stop offset="22.499999403953552%" stop-color="#FFC830" stop-opacity="1"/><stop offset="36.800000071525574%" stop-color="#FF980E" stop-opacity="1"/><stop offset="40.09999930858612%" stop-color="#FF8B16" stop-opacity="1"/><stop offset="46.20000123977661%" stop-color="#FF672A" stop-opacity="1"/><stop offset="53.39999794960022%" stop-color="#FF3647" stop-opacity="1"/><stop offset="70.49999833106995%" stop-color="#E31587" stop-opacity="1"/></linearGradient><radialGradient cx="0" cy="0" r="1" gradientUnits="userSpaceOnUse" id="master_svg3_4122_01158" gradientTransform="translate(18.95320057860181 4.219872598388122) rotate(0) scale(20.199249827400763 20.199264617357283)"><stop offset="12.89999932050705%" stop-color="#FFBD4F" stop-opacity="1"/><stop offset="18.60000044107437%" stop-color="#FFAC31" stop-opacity="1"/><stop offset="24.699999392032623%" stop-color="#FF9D17" stop-opacity="1"/><stop offset="28.299999237060547%" stop-color="#FF980E" stop-opacity="1"/><stop offset="40.299999713897705%" stop-color="#FF563B" stop-opacity="1"/><stop offset="46.70000076293945%" stop-color="#FF3750" stop-opacity="1"/><stop offset="70.99999785423279%" stop-color="#F5156C" stop-opacity="1"/><stop offset="78.20000052452087%" stop-color="#EB0878" stop-opacity="1"/><stop offset="86.00000143051147%" stop-color="#E50080" stop-opacity="1"/></radialGradient><radialGradient cx="0" cy="0" r="1" gradientUnits="userSpaceOnUse" id="master_svg4_4122_01161" gradientTransform="translate(11.572200604605314 12.47786639731072) rotate(0) scale(20.199249827400763 20.199264617357283)"><stop offset="30.000001192092896%" stop-color="#960E18" stop-opacity="1"/><stop offset="35.100001096725464%" stop-color="#B11927" stop-opacity="0.7400000095367432"/><stop offset="43.50000023841858%" stop-color="#DB293D" stop-opacity="0.34299999475479126"/><stop offset="49.70000088214874%" stop-color="#F5334B" stop-opacity="0.09399999678134918"/><stop offset="52.99999713897705%" stop-color="#FF3750" stop-opacity="0"/></radialGradient><radialGradient cx="0" cy="0" r="1" gradientUnits="userSpaceOnUse" id="master_svg5_4122_01179" gradientTransform="translate(14.00757063733326 -0.36436381162582165) rotate(0) scale(14.63350227654874 14.633504721006442)"><stop offset="13.199999928474426%" stop-color="#FFF44F" stop-opacity="1"/><stop offset="25.200000405311584%" stop-color="#FFDC3E" stop-opacity="1"/><stop offset="50.599998235702515%" stop-color="#FF9D12" stop-opacity="1"/><stop offset="52.60000228881836%" stop-color="#FF980E" stop-opacity="1"/></radialGradient><radialGradient cx="0" cy="0" r="1" gradientUnits="userSpaceOnUse" id="master_svg6_4122_01170" gradientTransform="translate(9.338074282304405 17.75393151779008) rotate(0) scale(9.617750298303264 9.617751691321105)"><stop offset="35.29999852180481%" stop-color="#3A8EE6" stop-opacity="1"/><stop offset="47.200000286102295%" stop-color="#5C79F0" stop-opacity="1"/><stop offset="66.90000295639038%" stop-color="#9059FF" stop-opacity="1"/><stop offset="100%" stop-color="#C139E6" stop-opacity="1"/></radialGradient><radialGradient cx="0" cy="0" r="1" gradientUnits="userSpaceOnUse" id="master_svg7_4122_01152" gradientTransform="translate(12.67612675065152 10.822269382056561) rotate(166.40844247084246) scale(5.099273443473225 5.969977649270848)"><stop offset="20.600000023841858%" stop-color="#9059FF" stop-opacity="0"/><stop offset="27.799999713897705%" stop-color="#8C4FF3" stop-opacity="0.06400000303983688"/><stop offset="74.6999979019165%" stop-color="#7716A8" stop-opacity="0.44999998807907104"/><stop offset="97.50000238418579%" stop-color="#6E008B" stop-opacity="0.6000000238418579"/></radialGradient><radialGradient cx="0" cy="0" r="1" gradientUnits="userSpaceOnUse" id="master_svg8_4122_01164" gradientTransform="translate(11.31723813274516 3.3931754021382403) rotate(0) scale(6.918999820940144 6.918999585456925)"><stop offset="0%" stop-color="#FFE226" stop-opacity="1"/><stop offset="12.09999993443489%" stop-color="#FFDB27" stop-opacity="1"/><stop offset="29.499998688697815%" stop-color="#FFC82A" stop-opacity="1"/><stop offset="50.199997425079346%" stop-color="#FFA930" stop-opacity="1"/><stop offset="73.19999933242798%" stop-color="#FF7E37" stop-opacity="1"/><stop offset="79.19999957084656%" stop-color="#FF7139" stop-opacity="1"/></radialGradient><radialGradient cx="0" cy="0" r="1" gradientUnits="userSpaceOnUse" id="master_svg9_4122_01173" gradientTransform="translate(16.755708524052466 -0.9952734042341262) rotate(0) scale(29.520248012874504 29.520244902443338)"><stop offset="11.299999803304672%" stop-color="#FFF44F" stop-opacity="1"/><stop offset="45.60000002384186%" stop-color="#FF980E" stop-opacity="1"/><stop offset="62.199997901916504%" stop-color="#FF5634" stop-opacity="1"/><stop offset="71.60000205039978%" stop-color="#FF3647" stop-opacity="1"/><stop offset="90.39999842643738%" stop-color="#E31587" stop-opacity="1"/></radialGradient><radialGradient cx="0" cy="0" r="1" gradientUnits="userSpaceOnUse" id="master_svga_4122_01149" gradientTransform="translate(14.267635267943433 0.6460324965015758) rotate(83.97600893587295) scale(21.636103462472626 14.199572898216402)"><stop offset="0%" stop-color="#FFF44F" stop-opacity="1"/><stop offset="5.999999865889549%" stop-color="#FFE847" stop-opacity="1"/><stop offset="16.79999977350235%" stop-color="#FFC830" stop-opacity="1"/><stop offset="30.399999022483826%" stop-color="#FF980E" stop-opacity="1"/><stop offset="35.600000619888306%" stop-color="#FF8B16" stop-opacity="1"/><stop offset="45.500001311302185%" stop-color="#FF672A" stop-opacity="1"/><stop offset="56.99999928474426%" stop-color="#FF3647" stop-opacity="1"/><stop offset="73.69999885559082%" stop-color="#E31587" stop-opacity="1"/></radialGradient><radialGradient cx="0" cy="0" r="1" gradientUnits="userSpaceOnUse" id="master_svgb_4122_01146" gradientTransform="translate(11.154324202935356 5.956057624695575) rotate(0) scale(18.429999971851714 18.43000292853849)"><stop offset="13.699999451637268%" stop-color="#FFF44F" stop-opacity="1"/><stop offset="47.999998927116394%" stop-color="#FF980E" stop-opacity="1"/><stop offset="59.20000076293945%" stop-color="#FF5634" stop-opacity="1"/><stop offset="65.49999713897705%" stop-color="#FF3647" stop-opacity="1"/><stop offset="90.39999842643738%" stop-color="#E31587" stop-opacity="1"/></radialGradient><radialGradient cx="0" cy="0" r="1" gradientUnits="userSpaceOnUse" id="master_svgc_4122_01155" gradientTransform="translate(16.019060401914032 7.034647157241864) rotate(0) scale(20.17150052398705 20.171501113905066)"><stop offset="9.399999678134918%" stop-color="#FFF44F" stop-opacity="1"/><stop offset="23.100000619888306%" stop-color="#FFE141" stop-opacity="1"/><stop offset="50.90000033378601%" stop-color="#FFAF1E" stop-opacity="1"/><stop offset="62.59999871253967%" stop-color="#FF980E" stop-opacity="1"/></radialGradient><linearGradient x1="0.8875518441200256" y1="0.15077035129070282" x2="0.18040890991687775" y2="0.8353503942489624" id="master_svgd_4122_01176"><stop offset="16.699999570846558%" stop-color="#FFF44F" stop-opacity="0.800000011920929"/><stop offset="26.600000262260437%" stop-color="#FFF44F" stop-opacity="0.6340000033378601"/><stop offset="48.899999260902405%" stop-color="#FFF44F" stop-opacity="0.21699999272823334"/><stop offset="60.00000238418579%" stop-color="#FFF44F" stop-opacity="0"/></linearGradient></defs><g><g clip-path="url(#master_svg0_4122_01915)"></g><g clip-path="url(#master_svg1_4122_01916)"><g><path d="M20.978951171875,8.70764552734375C20.557951171875,7.69464552734375,19.703951171875,6.60089552734375,19.035151171875,6.25514552734375C19.512151171875,7.17892552734375,19.843251171875,8.171025527343751,20.016451171875,9.196145527343749L20.018251171875,9.21239552734375C18.922651171875,6.48114552734375,17.064951171875002,5.37989552734375,15.547751171875,2.98189452734375C15.469351171875,2.85964552734375,15.393251171875,2.73595752734375,15.319451171875,2.61089452734375C15.281451171875,2.5455685273437503,15.245851171875,2.47885652734375,15.212751171875,2.41089452734375C15.149751171875,2.28903252734375,15.101251171875,2.16024552734375,15.068251171875,2.02714422734375C15.068251171875,2.01442862734375,15.058851171875,2.00367006734375,15.046251171875,2.00214418734375C15.040251171875,2.00050597534375,15.033951171875,2.00050597534375,15.027951171875,2.00214418734375C15.026751171875,2.00214418734375,15.024751171875,2.00439418734375,15.023251171875,2.00489418734375C15.021751171875,2.00539418734375,15.018451171875,2.00764418734375,15.016251171875,2.00864418734375L15.019951171875,2.00214418734375C12.586251171875,3.4271455273437503,11.760451171875,6.06514552734375,11.684451171875,7.38464552734375C10.712531171875,7.45145552734375,9.783291171875,7.80960552734375,9.017951171875,8.412395527343751C8.938101171875001,8.34475552734375,8.854651171875,8.28149552734375,8.767951171875,8.22289552734375C8.547171171875,7.45012552734375,8.537761171875001,6.63228552734375,8.740701171875,5.8546455273437505C7.846941171875,6.28762552734375,7.052771171875,6.90140552734375,6.408451171875,7.65714552734375L6.403951171875,7.65714552734375C6.019951171875,7.17039552734375,6.0469511718749995,5.56539552734375,6.068951171875,5.230145527343749C5.955351171875,5.27579552734375,5.846911171875,5.33337552734375,5.7454511718750005,5.401895527343751C5.406461171875,5.64383552734375,5.089561171874999,5.9153155273437505,4.798451171875,6.21314552734375C4.466731171875,6.54947552734375,4.163751171875,6.91299552734375,3.892701171875,7.29989552734375L3.892701171875,7.30139552734375L3.892701171875,7.29989552734375C3.269762171875,8.18278552734375,2.827926171875,9.180565527343749,2.592701171875,10.23539552734375L2.579701171875,10.29939552734375C2.543963171875,10.50041552734375,2.512207171875,10.70211552734375,2.484451171875,10.90439552734375C2.484451171875,10.91164552734375,2.482951171875,10.91839552734375,2.482201171875,10.92564552734375C2.397385171875,11.36648552734375,2.344829171875,11.81291552734375,2.324951171875,12.26141552734375L2.324951171875,12.31141552734375C2.329358191875,17.34091552734375,6.181071171875001,21.53091552734375,11.192421171875,21.95771552734375C16.203751171875,22.38451552734375,20.708551171875,18.90621552734375,21.563451171875,13.94991552734375C21.579651171875,13.82491552734375,21.592951171875,13.70111552734375,21.607451171875,13.57491552734375C21.807051171875,11.92545552734375,21.590951171875,10.25228552734375,20.978951171875,8.70764552734375ZM9.811451171875,16.29211552734375C9.856701171874999,16.313915527343752,9.899201171875,16.33741552734375,9.945701171875001,16.35811552734375L9.952451171875001,16.36241552734375Q9.881951171875,16.32861552734375,9.811451171875,16.29211552734375ZM20.018951171875,9.21464552734375L20.018951171875,9.20539552734375L20.020751171875,9.21564552734375L20.018951171875,9.21464552734375Z" fill="url(#master_svg2_4122_01167)" fill-opacity="1"/></g><g><path d="M20.978951171875,8.70787109375C20.557951171875,7.69487109375,19.703951171875,6.60112109375,19.035151171875,6.25537109375C19.512151171875,7.17915109375,19.843251171875,8.17125109375,20.016451171875,9.196371093749999L20.016451171875,9.20562109375L20.018251171875,9.21587109375C20.765051171875,11.35299109375,20.656951171875,13.69604109375,19.716751171875,15.75537109375C18.606151171875,18.13817109375,15.918151171875,20.58037109375,11.710701171875,20.46167109375C7.164451171875,20.33287109375,3.160701171875,16.95937109375,2.412201171875,12.540871093749999C2.275951171875,11.844121093750001,2.412201171875,11.49087109375,2.480701171875,10.92462109375C2.387257771875,11.36447109375,2.335114471875,11.812081093749999,2.324951171875,12.26162109375L2.324951171875,12.31162109375C2.329362631875,17.34107109375,6.181071171875001,21.53107109375,11.192421171875,21.95797109375C16.203751171875,22.38477109375,20.708551171875,18.90647109375,21.563451171875,13.950121093749999C21.579651171875,13.825121093749999,21.592951171875,13.70137109375,21.607451171875,13.575121093749999C21.807051171875,11.92568109375,21.590951171875,10.25251109375,20.978951171875,8.70787109375Z" fill="url(#master_svg3_4122_01158)" fill-opacity="1"/></g><g><path d="M20.978951171875,8.70787109375C20.557951171875,7.69487109375,19.703951171875,6.60112109375,19.035151171875,6.25537109375C19.512151171875,7.17915109375,19.843251171875,8.17125109375,20.016451171875,9.196371093749999L20.016451171875,9.20562109375L20.018251171875,9.21587109375C20.765051171875,11.35299109375,20.656951171875,13.69604109375,19.716751171875,15.75537109375C18.606151171875,18.13817109375,15.918151171875,20.58037109375,11.710701171875,20.46167109375C7.164451171875,20.33287109375,3.160701171875,16.95937109375,2.412201171875,12.540871093749999C2.275951171875,11.844121093750001,2.412201171875,11.49087109375,2.480701171875,10.92462109375C2.387257771875,11.36447109375,2.335114471875,11.812081093749999,2.324951171875,12.26162109375L2.324951171875,12.31162109375C2.329362631875,17.34107109375,6.181071171875001,21.53107109375,11.192421171875,21.95797109375C16.203751171875,22.38477109375,20.708551171875,18.90647109375,21.563451171875,13.950121093749999C21.579651171875,13.825121093749999,21.592951171875,13.70137109375,21.607451171875,13.575121093749999C21.807051171875,11.92568109375,21.590951171875,10.25251109375,20.978951171875,8.70787109375Z" fill="url(#master_svg4_4122_01161)" fill-opacity="1"/></g><g><path d="M16.2705703125,9.84663623046875C16.2915703125,9.86138623046875,16.3110703125,9.876136230468749,16.330820312500002,9.89088623046875C16.0874303125,9.45930623046875,15.7844603125,9.06417623046875,15.4308203125,8.71713623046875C12.4193203125,5.705136230468749,14.6415703125,2.18638623046875,15.0163203125,2.00763623046875L15.0200703125,2.00213623046875C12.5863203125,3.42713623046875,11.7605705125,6.06513623046875,11.6845703125,7.38463623046875C11.7975703125,7.37688623046875,11.9095703125,7.36738623046875,12.0250703125,7.36738623046875C13.7830003125,7.37060623046875,15.4039203125,8.31717623046875,16.2705703125,9.84663623046875Z" fill="url(#master_svg5_4122_01179)" fill-opacity="1"/></g><g><path d="M12.031324218750001,10.448181640625C12.01532421875,10.689181640625,11.16382421875,11.520431640624999,10.86607421875,11.520431640624999Q8.11082421875,11.520431640624999,7.66357421875,13.187181640624999C7.78557421875,14.590681640625,8.76357421875,15.746681640625,9.94582421875,16.358181640625C9.99982421875,16.386181640625,10.05457421875,16.411431640625,10.10932421875,16.436181640625Q10.251574218750001,16.499181640625,10.39382421875,16.552681640625C10.79956421875,16.696281640625,11.22453421875,16.778271640625,11.65457421875,16.795931640625C16.48382421875,17.022431640625,17.41932421875,11.020931640625001,13.93432421875,9.279431640624999C14.75646421875,9.172461640625,15.589034218750001,9.374611640625,16.27057421875,9.846681640625C15.40392421875,8.317222640625,13.783004218750001,7.370652680625,12.02507421875,7.367431640625C11.910074218750001,7.367431640625,11.79757421875,7.376931670625,11.68457421875,7.384681740625C10.71265421875,7.451490440625,9.78341421875,7.809645640625,9.01807421875,8.412431640625C9.16582421875,8.537431640625,9.33257421875,8.704431640625,9.68382421875,9.050681640625C10.34132421875,9.698431640625,12.02757421875,10.369431640624999,12.031324218750001,10.448181640625Z" fill="url(#master_svg6_4122_01170)" fill-opacity="1"/></g><g><path d="M12.031324218750001,10.448181640625C12.01532421875,10.689181640625,11.16382421875,11.520431640624999,10.86607421875,11.520431640624999Q8.11082421875,11.520431640624999,7.66357421875,13.187181640624999C7.78557421875,14.590681640625,8.76357421875,15.746681640625,9.94582421875,16.358181640625C9.99982421875,16.386181640625,10.05457421875,16.411431640625,10.10932421875,16.436181640625Q10.251574218750001,16.499181640625,10.39382421875,16.552681640625C10.79956421875,16.696281640625,11.22453421875,16.778271640625,11.65457421875,16.795931640625C16.48382421875,17.022431640625,17.41932421875,11.020931640625001,13.93432421875,9.279431640624999C14.75646421875,9.172461640625,15.589034218750001,9.374611640625,16.27057421875,9.846681640625C15.40392421875,8.317222640625,13.783004218750001,7.370652680625,12.02507421875,7.367431640625C11.910074218750001,7.367431640625,11.79757421875,7.376931670625,11.68457421875,7.384681740625C10.71265421875,7.451490440625,9.78341421875,7.809645640625,9.01807421875,8.412431640625C9.16582421875,8.537431640625,9.33257421875,8.704431640625,9.68382421875,9.050681640625C10.34132421875,9.698431640625,12.02757421875,10.369431640624999,12.031324218750001,10.448181640625Z" fill="url(#master_svg7_4122_01152)" fill-opacity="1"/></g><g><path d="M8.56623828125,8.09017529296875C8.64473828125,8.140175292968749,8.70948828125,8.18367529296875,8.76623828125,8.22292529296875C8.54545828125,7.45016529296875,8.53604828125,6.63231529296875,8.73898828125,5.85467529296875C7.84521828125,6.28765629296875,7.05105528125,6.90143529296875,6.40673828125,7.65717529296875C6.45398808125,7.65592529296875,7.85948828125,7.63067529296875,8.56623828125,8.09017529296875Z" fill="url(#master_svg8_4122_01164)" fill-opacity="1"/></g><g><path d="M2.413459378125,12.54072705078125C3.161209078125,16.95922705078125,7.165705078125,20.33272705078125,11.711955078125,20.46152705078125C15.919455078125,20.58052705078125,18.607455078125,18.13802705078125,19.717955078125,15.75522705078125C20.658255078125,13.69589705078125,20.766255078125,11.35284705078125,20.019455078125,9.21572705078125L20.019455078125,9.206477050781249C20.019455078125,9.19922705078125,20.017955078125,9.194977050781251,20.019455078125,9.197227050781251L20.021255078125,9.21347705078125C20.364955078125,11.45772705078125,19.223455078125,13.63197705078125,17.438955078124998,15.10222705078125L17.433455078125,15.11472705078125C13.956455078125,17.94652705078125,10.628955078125,16.82322705078125,9.955455078125,16.364727050781248Q9.884955078125,16.331027050781252,9.814455078125,16.294527050781248C7.787205078125,15.32552705078125,6.949705078125,13.47847705078125,7.129205078125,11.89447705078125C6.1460750781249995,11.90898705078125,5.246595078125,11.34319705078125,4.833955078124999,10.45072705078125C5.916015078125,9.78782705078125,7.264495078125,9.733697050781249,8.396205078125,10.30772705078125C9.543675078125,10.82864705078125,10.849395078125,10.87996705078125,12.034205078125,10.45072705078125C12.030455078125,10.37197705078125,10.344205078125,9.70072705078125,9.686715078125001,9.05322705078125C9.335455078125001,8.70697705078125,9.168705078125,8.540227050781251,9.020965078125,8.41497705078125C8.941115078125,8.347337050781249,8.857655078125,8.28407705078125,8.770955078124999,8.225477050781251C8.713455078125001,8.18622705078125,8.648715078125,8.14372705078125,8.570955078125,8.09272705078125C7.864215078125,7.63322705078125,6.458715078125,7.65847705078125,6.412205078125,7.65972705078125L6.407705078125,7.65972705078125C6.023715078125,7.17297705078125,6.050715078125,5.56797705078125,6.072705078125,5.23272705078125C5.959105078125,5.27838205078125,5.850665078125,5.33595405078125,5.749215078125,5.40447705078125C5.410225078125,5.64641705078125,5.093315078125,5.91789405078125,4.802215078125,6.21572705078125C4.4692950781250005,6.55111705078125,4.165065078125,6.91379705078125,3.892705078125,7.29997705078125L3.892705078125,7.30147705078125L3.892705078125,7.29997705078125C3.269770078125,8.182867050781251,2.8279340781249998,9.18065705078125,2.592709078125,10.235477050781249C2.587959078125,10.25522705078125,2.243709078125,11.76022705078125,2.413459378125,12.54072705078125Z" fill="url(#master_svg9_4122_01173)" fill-opacity="1"/></g><g><path d="M15.43123828125,8.71714552734375C15.78496828125,9.064565527343749,16.08794828125,9.460125527343749,16.331238281250002,9.89214552734375C16.38448828125,9.93239552734375,16.43423828125,9.97239552734375,16.47648828125,10.01114552734375C18.67323828125,12.03611552734375,17.52223828125,14.89861552734375,17.43648828125,15.10241552734375C19.22098828125,13.63211552734375,20.36148828125,11.45789552734375,20.018738281250002,9.21364552734375C18.92273828125,6.48114552734375,17.06498828125,5.37989552734375,15.54773828125,2.98189452734375C15.46936828125,2.85964552734375,15.39327828125,2.73595752734375,15.319488281249999,2.61089452734375C15.28144828125,2.5455685273437503,15.24583828125,2.47885652734375,15.212738281250001,2.41089452734375C15.14980828125,2.28903252734375,15.10131828125,2.16024552734375,15.06823828125,2.02714422734375C15.06832828125,2.01442862734375,15.05885828125,2.00367006734375,15.04623828125,2.00214418734375C15.04025828125,2.00050597534375,15.03395828125,2.00050597534375,15.02798828125,2.00214418734375C15.026738281250001,2.00214418734375,15.02473828125,2.00439418734375,15.02323828125,2.00489418734375C15.02173828125,2.00539418734375,15.01848828125,2.00764418734375,15.01623828125,2.00864418734375C14.64148528125,2.18639452734375,12.41923828125,5.70514552734375,15.43123828125,8.71714552734375Z" fill="url(#master_svga_4122_01149)" fill-opacity="1"/></g><g><path d="M16.47507421875,10.0100579140625C16.42852421875,9.9681609140625,16.38005421875,9.9284519140625,16.329824218749998,9.8910579140625C16.31007421875,9.8763079140625,16.29057421875,9.8615579140625,16.26957421875,9.8468079140625C15.58803421875,9.3747349140625,14.75546421875,9.1725840140625,13.93332421875,9.2795572140625C17.41832421875,11.0220569140625,16.48332421875,17.0225569140625,11.65357421875,16.7960569140625C11.22353421875,16.7783969140625,10.79856721875,16.6964069140625,10.39282421875,16.5528069140625Q10.25057421875,16.4995569140625,10.10832421875,16.4363069140625C10.05357321875,16.4113069140625,9.99882411875,16.3863069140625,9.94482421875,16.3583069140625L9.95157432875,16.362556914062502C10.625074218750001,16.8223069140625,13.95157421875,17.9455569140625,17.42957421875,15.1125569140625L17.43507421875,15.100056914062499C17.521824218749998,14.8975569140625,18.67282421875,12.0343069140625,16.47507421875,10.0100579140625Z" fill="url(#master_svgb_4122_01146)" fill-opacity="1"/></g><g><path d="M7.663310546875,13.18715107421875Q8.110560546875,11.52040107421875,10.865810546875,11.52040107421875C11.163560546875,11.52040107421875,12.015810546874999,10.68914707421875,12.031060546875,10.44814707421875C10.846250546875,10.87738607421875,9.540520546875001,10.82606107421875,8.393060546875,10.30514707421875C7.261350546875001,9.73111107421875,5.912870546875,9.78524407421875,4.830810546875,10.44814707421875C5.243442546875,11.34062107421875,6.1429205468750006,11.90641107421875,7.126060546874999,11.891901074218751C6.946560546875,13.47615107421875,7.784060546875001,15.32315107421875,9.811310546875,16.29190107421875C9.856560546875,16.31365107421875,9.899060546874999,16.33715107421875,9.945560546875,16.357901074218752C8.762310546875,15.74665107421875,7.7853105468749995,14.59065107421875,7.663310546875,13.18715107421875Z" fill="url(#master_svgc_4122_01155)" fill-opacity="1"/></g><g><path d="M20.978951171875,8.70764552734375C20.557951171875,7.69464552734375,19.703951171875,6.60089552734375,19.035151171875,6.25514552734375C19.512151171875,7.17892552734375,19.843251171875,8.171025527343751,20.016451171875,9.196145527343749L20.018251171875,9.21239552734375C18.922651171875,6.48114552734375,17.064951171875002,5.37989552734375,15.547751171875,2.98189452734375C15.469351171875,2.85964552734375,15.393251171875,2.73595752734375,15.319451171875,2.61089452734375C15.281451171875,2.5455685273437503,15.245851171875,2.47885652734375,15.212751171875,2.41089452734375C15.149751171875,2.28903252734375,15.101251171875,2.16024552734375,15.068251171875,2.02714422734375C15.068251171875,2.01442862734375,15.058851171875,2.00367006734375,15.046251171875,2.00214418734375C15.040251171875,2.00050597534375,15.033951171875,2.00050597534375,15.027951171875,2.00214418734375C15.026751171875,2.00214418734375,15.024751171875,2.00439418734375,15.023251171875,2.00489418734375C15.021751171875,2.00539418734375,15.018451171875,2.00764418734375,15.016251171875,2.00864418734375L15.019951171875,2.00214418734375C12.586251171875,3.4271455273437503,11.760451171875,6.06514552734375,11.684451171875,7.38464552734375C11.797451171875,7.37689552734375,11.909451171875,7.36739552734375,12.024951171875,7.36739552734375C13.782851171875,7.37061552734375,15.403851171875,8.31718552734375,16.270451171875,9.84664552734375C15.588951171875,9.374575527343751,14.756351171875,9.17241552734375,13.934251171875,9.27939552734375C17.419251171875,11.02189552734375,16.484251171875,17.02241552734375,11.654451171875,16.79591552734375C11.224411171875,16.77821552734375,10.799441171875,16.69621552734375,10.393701171875,16.55261552734375Q10.251451171875,16.49941552734375,10.109201171875,16.436115527343752C10.054451171875,16.41111552734375,9.999701171875,16.386115527343748,9.945701171875001,16.35811552734375L9.952451171875001,16.36241552734375Q9.881951171875,16.32861552734375,9.811451171875,16.29211552734375C9.856701171874999,16.313915527343752,9.899201171875,16.33741552734375,9.945701171875001,16.35811552734375C8.762451171875,15.74661552734375,7.785451171875,14.59061552734375,7.663451171875,13.18711552734375Q8.110701171875,11.52039552734375,10.865951171875,11.52039552734375C11.163701171875,11.52039552734375,12.015951171875,10.68914552734375,12.031201171875,10.44814552734375C12.027451171875,10.36939552734375,10.341201171875,9.698145527343751,9.683701171875,9.05064552734375C9.332451171875,8.704395527343749,9.165701171875,8.53764552734375,9.017951171875,8.412395527343751C8.938101171875001,8.34475552734375,8.854651171875,8.28149552734375,8.767951171875,8.22289552734375C8.547171171875,7.45012552734375,8.537761171875001,6.63228552734375,8.740701171875,5.8546455273437505C7.846941171875,6.28762552734375,7.052771171875,6.90140552734375,6.408451171875,7.65714552734375L6.403951171875,7.65714552734375C6.019951171875,7.17039552734375,6.0469511718749995,5.56539552734375,6.068951171875,5.230145527343749C5.955351171875,5.27579552734375,5.846911171875,5.33337552734375,5.7454511718750005,5.401895527343751C5.406461171875,5.64383552734375,5.089561171874999,5.9153155273437505,4.798451171875,6.21314552734375C4.466731171875,6.54947552734375,4.163751171875,6.91299552734375,3.892701171875,7.29989552734375L3.892701171875,7.30139552734375L3.892701171875,7.29989552734375C3.269762171875,8.18278552734375,2.827926171875,9.180565527343749,2.592701171875,10.23539552734375L2.579701171875,10.29939552734375C2.561451171875,10.38464552734375,2.479701171875,10.81764552734375,2.467951171875,10.91064552734375C2.467951171875,10.91764552734375,2.467951171875,10.90339552734375,2.467951171875,10.91064552734375C2.393178771875,11.35761552734375,2.345425471875,11.80867552734375,2.324951171875,12.26141552734375L2.324951171875,12.31141552734375C2.329358191875,17.34091552734375,6.181071171875001,21.53091552734375,11.192421171875,21.95771552734375C16.203751171875,22.38451552734375,20.708551171875,18.90621552734375,21.563451171875,13.94991552734375C21.579651171875,13.82491552734375,21.592951171875,13.70111552734375,21.607451171875,13.57491552734375C21.807051171875,11.92545552734375,21.590951171875,10.25228552734375,20.978951171875,8.70764552734375ZM20.017651171875,9.20539552734375L20.019451171875,9.21564552734375L20.017651171875,9.20539552734375Z" fill="url(#master_svgd_4122_01176)" fill-opacity="1"/></g></g></g></svg>