<svg xmlns="http://www.w3.org/2000/svg" xmlns:xlink="http://www.w3.org/1999/xlink" fill="none" version="1.1" width="24" height="24" viewBox="0 0 24 24"><defs><clipPath id="master_svg0_4122_01904"><rect x="0" y="0" width="24" height="24" rx="0"/></clipPath><clipPath id="master_svg1_4122_01905"><rect x="2" y="2" width="20" height="20" rx="0"/></clipPath></defs><g><g clip-path="url(#master_svg0_4122_01904)"></g><g clip-path="url(#master_svg1_4122_01905)"><g><path d="M21.0399734375,14.639931640625C20.4799734375,14.039931640625,19.3599734375,13.699931640625,17.7599734375,13.699931640625C16.8999734375,13.699931640625,15.9199734375,13.779931640625,14.8399734375,13.979931640625C14.2399734375,13.379931640625,13.6199734375,12.679931640625,13.0399734375,11.859931640625C12.6199634375,11.279931640625,12.2599634375,10.679931640625,11.9399634375,10.079931640625C12.5799634375,8.099931640625,12.8799734375,6.499931640625,12.8799734375,5.339931640625C12.8799734375,4.039931640625,12.4199634375,2.679931640625,11.0599634375,2.679931640625C10.6399634375,2.679931640625,10.2399634375,2.939931640625,10.0199634375,3.299931640625C9.4199634375,4.399931640625,9.6799634375,6.799931640625,10.7399634375,9.159931640625C10.3399634375,10.339931640625,9.939963437500001,11.479931640625,9.4199634375,12.739931640625C8.9799634375,13.799931640625,8.4599634375,14.919931640625,7.9199634375,15.919931640625C4.8799634375,17.159931640625,2.9199664375,18.599931640625,2.7399664375,19.719931640625C2.6599663375,20.139931640625,2.7999663375,20.539931640625,3.0999664375,20.839931640625C3.1999664375,20.919931640625,3.5999664375,21.259931640625,4.2599634375,21.259931640625C6.2799634375,21.259931640625,8.3999634375,17.939931640624998,9.4799634375,15.919931640625C10.2999634375,15.639931640625,11.1399634375,15.379931640625,11.9599634375,15.139931640625C12.8599734375,14.879931640625,13.7799734375,14.679931640625,14.5999734375,14.539931640625C16.719973437500002,16.479931640625,18.599973437499997,16.799931640624997,19.5399734375,16.799931640624997C20.6999734375,16.799931640624997,21.1199734375,16.319931640625,21.2599734375,15.919931640625C21.4799734375,15.419931640625,21.3199734375,14.859931640625,21.0599734375,14.559931640625L21.0399734375,14.639931640625ZM19.9599734375,15.459931640625C19.8799734375,15.879931640625,19.4599734375,16.159931640625,18.8799734375,16.159931640625C18.7199734375,16.159931640625,18.5799734375,16.139931640625,18.419973437499998,16.099931640625C17.359973437500003,15.839931640625,16.3799734375,15.299931640625,15.3799734375,14.459931640625C16.359973437500003,14.299931640625,17.1799734375,14.259931640625,17.6999734375,14.259931640625C18.2799734375,14.259931640625,18.7799734375,14.279931640625,19.0999734375,14.379931640625C19.4799734375,14.459931640625,20.0799734375,14.719931640625,19.9599734375,15.459931640625ZM14.0999734375,14.139931640625C13.3799734375,14.279931640625,12.6199634375,14.459931640625,11.8199634375,14.679931640625C11.1799634375,14.859931640625,10.5199634375,15.039931640625,9.8599634375,15.279931640625C10.219963437499999,14.579931640625,10.5199634375,13.899931640625,10.7999634375,13.259931640625C11.1399634375,12.459931640625,11.3999634375,11.659931640625,11.6799634375,10.899931640625C11.9599634375,11.379931640625,12.2599634375,11.859931640625,12.5599634375,12.279931640625C13.0599734375,12.939931640625,13.5799734375,13.579931640625,14.0999734375,14.139931640625ZM10.4799634375,3.639931640625C10.5999634375,3.419931640625,10.8199634375,3.299931640625,10.9999634375,3.299931640625C11.5799634375,3.299931640625,11.6799634375,3.979931640625,11.6799634375,4.519931640625C11.6799634375,5.419931640625,11.3999634375,6.799931640625,10.9399634375,8.379931640625C10.1399634375,6.179931640625,10.0799634375,4.359931640625,10.4799634375,3.639931640625ZM7.4599634375,16.779931640625C6.0599634375,19.139931640625,4.6999634375,20.619931640625,3.8799634375,20.619931640625C3.7199634374999997,20.619931640625,3.5799674375,20.559931640625,3.4599674375,20.479931640625C3.2999674375,20.319931640625,3.2199674375000003,20.119931640625,3.2599674375,19.879931640625C3.4199674375,19.039931640625,4.9999634375,17.859931640625,7.4599634375,16.779931640625Z" fill="#EB1D25" fill-opacity="1"/></g></g></g></svg>