<svg xmlns="http://www.w3.org/2000/svg" xmlns:xlink="http://www.w3.org/1999/xlink" fill="none" version="1.1" width="24" height="24" viewBox="0 0 24 24"><defs><clipPath id="master_svg0_4122_01993"><rect x="0" y="0" width="24" height="24" rx="0"/></clipPath><clipPath id="master_svg1_4122_01994"><rect x="2" y="2" width="20" height="20" rx="0"/></clipPath></defs><g><g clip-path="url(#master_svg0_4122_01993)"></g><g clip-path="url(#master_svg1_4122_01994)"><g><path d="M12.000170781249999,21.0967232421875L11.811630781249999,21.0181232421875C5.62154078125,18.6143232421875,4.91455078125,15.4722232421875,4.91455078125,13.3198232421875L4.91455078125,5.1029832421875L5.46443178125,5.118693242187501C9.769220781249999,5.2600932421875,11.59168078125,3.3119392421875,11.60739078125,3.2962282421875L12.000170781249999,2.8563232421875L12.392940781250001,3.2962282421875C12.40865078125,3.3119392421875,14.13685078125,5.118693242187501,18.08025078125,5.118693242187501C18.23735078125,5.118693242187501,18.378750781249998,5.118693242187501,18.53595078125,5.1029832421875L19.08575078125,5.0872732421875L19.08575078125,13.3040232421875C19.08575078125,15.4564232421875,18.36305078125,18.5986232421875,12.188700781249999,21.0024232421875L12.000170781249999,21.0967232421875ZM5.98289078125,6.2027432421875L5.98289078125,13.3355232421875C5.98289078125,14.4981232421875,5.98289078125,17.546023242187502,12.000170781249999,19.9498232421875C18.017450781249998,17.546023242187502,18.017450781249998,14.4824232421875,18.017450781249998,13.3355232421875L18.017450781249998,6.2027432421875C14.68673078125,6.1870332421875,12.770000781250001,4.9930032421875,12.000170781249999,4.3802832421875C11.23033078125,4.9930032421875,9.313600781249999,6.1870332421875,5.98289078125,6.2027432421875Z" fill="#04AE7F" fill-opacity="1"/></g><g><path d="M16.980088281249998,13.6654471484375L14.57628828125,13.6654471484375L14.57628828125,9.5806071484375L15.44038828125,9.5806071484375L15.44038828125,12.9584571484375L16.964388281250002,12.9584571484375L16.964388281250002,13.6654471484375L16.980088281249998,13.6654471484375ZM13.47656828125,13.4297771484375C13.19376828125,13.6340271484375,12.80099828125,13.7439971484375,12.29824828125,13.7439971484375C11.82691828125,13.7439971484375,11.44985828125,13.6654471484375,11.151358281250001,13.5240471484375L11.151358281250001,12.644237148437501C11.46556828125,12.911317148437501,11.85834828125,13.0527171484375,12.26682828125,13.0527171484375C12.50248828125,13.0527171484375,12.67530828125,13.005587148437499,12.80099828125,12.927037148437499C12.92668828125,12.8484771484375,12.97381828125,12.7384971484375,12.97381828125,12.6128171484375C12.97381828125,12.5028371484375,12.92668828125,12.3928671484375,12.83241828125,12.2985971484375C12.73815828125,12.2043271484375,12.48677828125,12.0629371484375,12.07829828125,11.8901171484375C11.43414828125,11.623027148437501,11.11992828125,11.2302571484375,11.11992828125,10.7117971484375C11.11992828125,10.334737148437501,11.26132828125,10.0362271484375,11.55983828125,9.8319871484375C11.84263828125,9.6277471484375,12.23540828125,9.5177671484375,12.70673828125,9.5177671484375C13.09950828125,9.5177671484375,13.44514828125,9.5648971484375,13.71218828125,9.6748771484375L13.71218828125,10.4918471484375C13.44514828125,10.3033171484375,13.11521828125,10.2090471484375,12.75386828125,10.2090471484375C12.53391828125,10.2090471484375,12.36109828125,10.2404671484375,12.23540828125,10.319027148437499C12.10971828125,10.3975771484375,12.04687828125,10.507557148437499,12.04687828125,10.6332371484375C12.04687828125,10.7432171484375,12.09400828125,10.8374871484375,12.17256828125,10.9317471484375C12.26682828125,11.0260171484375,12.47106828125,11.1359871484375,12.81670828125,11.2930971484375C13.22519828125,11.4659171484375,13.50798828125,11.6544471484375,13.64938828125,11.8429771484375C13.80648828125,12.0315071484375,13.88508828125,12.2671771484375,13.88508828125,12.5342571484375C13.90078828125,12.927037148437499,13.75938828125,13.2255371484375,13.47656828125,13.4297771484375ZM10.24011828125,13.4297771484375C9.95732828125,13.6340271484375,9.56454828125,13.7439971484375,9.06180828125,13.7439971484375C8.59047828125,13.7439971484375,8.21341828125,13.6654471484375,7.91490828125,13.5240471484375L7.91490828125,12.644237148437501C8.24483828125,12.911317148437501,8.621898281250001,13.0527171484375,9.03037828125,13.0527171484375C9.26604828125,13.0527171484375,9.43886828125,13.005587148437499,9.56454828125,12.927037148437499C9.69023828125,12.8484771484375,9.73736828125,12.7384971484375,9.73736828125,12.6128171484375C9.73736828125,12.5028371484375,9.69023828125,12.3928671484375,9.59597828125,12.2985971484375C9.50170828125,12.2043271484375,9.25033828125,12.0629371484375,8.84184828125,11.8901171484375C8.19770828125,11.623027148437501,7.88348828125,11.2302571484375,7.88348828125,10.7117971484375C7.88348828125,10.334737148437501,8.02488828125,10.0362271484375,8.32338828125,9.8319871484375C8.606188281249999,9.6277471484375,8.998958281250001,9.5177671484375,9.47028828125,9.5177671484375C9.86305828125,9.5177671484375,10.208698281250001,9.5648971484375,10.47578828125,9.6748771484375L10.47578828125,10.4918471484375C10.208698281250001,10.3033171484375,9.87876828125,10.2090471484375,9.51741828125,10.2090471484375C9.29746828125,10.2090471484375,9.12464828125,10.2404671484375,8.998958281250001,10.319027148437499C8.87327828125,10.3975771484375,8.810428281250001,10.507557148437499,8.810428281250001,10.6332371484375C8.810428281250001,10.7432171484375,8.85756828125,10.8374871484375,8.93611828125,10.9317471484375C9.03038828125,11.0260171484375,9.23462828125,11.1359871484375,9.58026828125,11.2930971484375C9.98874828125,11.4659171484375,10.27154828125,11.6544471484375,10.41293828125,11.8429771484375C10.57004828125,12.0472271484375,10.648608281249999,12.2828871484375,10.648608281249999,12.5342571484375C10.648608281249999,12.927037148437499,10.50720828125,13.2255371484375,10.24011828125,13.4297771484375ZM20.43648828125,7.5853271484375C17.65568828125,8.1509191484375,14.82768828125,8.4337161484375,11.99973828125,8.4337161484375C9.171778281249999,8.4337161484375,6.34381828125,8.1509201484375,3.56298828125,7.5853271484375C4.25426828125,9.4706371484375,4.59990828125,10.9317471484375,4.59990828125,11.9686671484375C4.59990828125,13.005587148437499,4.25426828125,14.482407148437499,3.56298828125,16.3520071484375C7.28646828125,15.7078571484375,10.114438281249999,15.3779371484375,11.99973828125,15.3779371484375C13.88508828125,15.3779371484375,16.71298828125,15.7078571484375,20.43648828125,16.3520071484375C19.52528828125,14.4509871484375,19.069688281250002,12.9898771484375,19.069688281250002,11.9686671484375C19.069688281250002,10.9474571484375,19.54098828125,9.486347148437499,20.43648828125,7.5853271484375Z" fill="#04AE7F" fill-opacity="1"/></g></g></g></svg>