<svg xmlns="http://www.w3.org/2000/svg" xmlns:xlink="http://www.w3.org/1999/xlink" fill="none" version="1.1" width="24" height="24" viewBox="0 0 24 24"><defs><clipPath id="master_svg0_4122_01945"><rect x="0" y="0" width="24" height="24" rx="0"/></clipPath><clipPath id="master_svg1_4122_01946"><rect x="2" y="2" width="20" height="20" rx="0"/></clipPath><linearGradient x1="0.7733618021011353" y1="0.9583572745323181" x2="0.16908343136310577" y2="-0.0416828952729702" id="master_svg2_4122_01203"><stop offset="0%" stop-color="#1E8E3E" stop-opacity="1"/><stop offset="100%" stop-color="#34A853" stop-opacity="1"/></linearGradient><linearGradient x1="-0.1457122415304184" y1="1.0017672777175903" x2="0.7201396822929382" y2="0.0018096654675900936" id="master_svg3_4122_01209"><stop offset="0%" stop-color="#FCC934" stop-opacity="1"/><stop offset="100%" stop-color="#FBBC04" stop-opacity="1"/></linearGradient><linearGradient x1="1.8330777606934134e-7" y1="0.49999871850013733" x2="1" y2="0.49999871850013733" id="master_svg4_4122_01200"><stop offset="0%" stop-color="#D93025" stop-opacity="1"/><stop offset="100%" stop-color="#EA4335" stop-opacity="1"/></linearGradient></defs><g><g clip-path="url(#master_svg0_4122_01945)"></g><g clip-path="url(#master_svg1_4122_01946)"><g><path d="M16.999755859375,11.998779296875Q16.999755859375,12.121519296875,16.993735859375,12.244119296874999Q16.987705859374998,12.366709296875001,16.975675859375002,12.488869296875Q16.963645859375,12.611019296875,16.945635859375002,12.732429296875Q16.927625859375,12.853849296875001,16.903675859375,12.974229296875Q16.879735859375,13.094619296874999,16.849905859375,13.213679296875Q16.820085859375,13.332739296875001,16.784455859375,13.450199296874999Q16.748825859375,13.567659296875,16.707475859375002,13.683229296875Q16.666125859375,13.798799296875,16.619155859375,13.912199296875Q16.572175859375,14.025599296875,16.519705859375,14.136549296875Q16.467225859375,14.247509296875,16.409365859375,14.355759296875Q16.351495859375,14.464009296875,16.288395859375,14.569289296874999Q16.225295859375002,14.674569296875,16.157105859375,14.776629296875Q16.088905859375,14.878689296874999,16.015795859375,14.977279296875Q15.942675859375,15.075859296875,15.864805859375,15.170749296875Q15.786935859375,15.265629296875,15.704505859375,15.356569296875Q15.622075859375,15.447519296875,15.535285859375,15.534309296875Q15.448495859375,15.621099296875,15.357545859375,15.703529296875Q15.266605859375,15.785959296875,15.171725859375,15.863829296875Q15.076835859375,15.941699296875,14.978255859375,16.014819296875Q14.879665859374999,16.087929296875,14.777605859375,16.156129296875Q14.675545859375,16.224319296875002,14.570265859374999,16.287419296875Q14.464985859375,16.350519296875,14.356735859375,16.408389296875Q14.248485859375,16.466249296875,14.137525859375,16.518729296875Q14.026575859375,16.571199296875,13.913175859375,16.618179296875Q13.799775859375,16.665149296875,13.684205859375,16.706499296875002Q13.568635859375,16.747849296875,13.451175859374999,16.783479296875Q13.333715859375001,16.819109296875,13.214655859375,16.848929296875Q13.095595859374999,16.878759296875,12.975205859375,16.902699296875Q12.854825859375001,16.926649296875,12.733405859375,16.944659296875002Q12.611995859375,16.962669296875,12.489845859375,16.974699296875002Q12.367685859375001,16.986729296874998,12.245095859374999,16.992759296875Q12.122495859375,16.998779296875,11.999755859375,16.998779296875Q11.877015859375,16.998779296875,11.754415859375001,16.992759296875Q11.631825859374999,16.986729296874998,11.509665859375,16.974699296875002Q11.387515859375,16.962669296875,11.266105859375,16.944659296875002Q11.144685859374999,16.926649296875,11.024305859375,16.902699296875Q10.903915859375001,16.878759296875,10.784855859375,16.848929296875Q10.665785859375,16.819109296875,10.548335859375,16.783479296875Q10.430875859375,16.747849296875,10.315305859375,16.706499296875002Q10.199735859375,16.665149296875,10.086335859375,16.618179296875Q9.972935859375,16.571199296875,9.861975859375,16.518729296875Q9.751025859375,16.466249296875,9.642775859375,16.408389296875Q9.534525859375,16.350519296875,9.429245859375,16.287419296875Q9.323965859375,16.224319296875002,9.221905859375,16.156129296875Q9.119845859375,16.087929296875,9.021255859375,16.014819296875Q8.922665859375,15.941699296875,8.827785859375,15.863829296875Q8.732905859375,15.785959296875,8.641955859375,15.703529296875Q8.551015859375,15.621099296875,8.464225859375,15.534309296875Q8.377425859375,15.447519296875,8.294995859375,15.356569296875Q8.212575859375,15.265629296875,8.134705859375,15.170749296875Q8.056835859375,15.075859296875,7.983717859375,14.977279296875Q7.910599859375,14.878689296874999,7.842407859375,14.776629296875Q7.774214859375,14.674569296875,7.711112859375,14.569289296874999Q7.648009859375,14.464009296875,7.590149859375,14.355759296875Q7.532288859375,14.247509296875,7.479808859375,14.136549296875Q7.427329859375,14.025599296875,7.380357859375,13.912199296875Q7.3333868593750005,13.798799296875,7.292035859375,13.683229296875Q7.250684859375,13.567659296875,7.215053859375,13.450199296874999Q7.179423859375,13.332739296875001,7.149599859375,13.213679296875Q7.119775859375,13.094619296874999,7.095829459375,12.974229296875Q7.071883459375,12.853849296875001,7.053873259375,12.732429296875Q7.035863159375,12.611019296875,7.023832259375,12.488869296875Q7.011801259375,12.366709296875001,7.005778579375,12.244119296874999Q6.999755859375,12.121519296875,6.999755859375,11.998779296875Q6.999755859375,11.876039296875,7.005778579375,11.753439296875001Q7.011801259375,11.630849296874999,7.023832259375,11.508689296875Q7.035863159375,11.386539296875,7.053873259375,11.265129296875Q7.071883459375,11.143709296874999,7.095829459375,11.023329296875Q7.119775859375,10.902939296875001,7.149599859375,10.783879296875Q7.179423859375,10.664809296875,7.215053859375,10.547359296875Q7.250684859375,10.429899296875,7.292035859375,10.314329296875Q7.3333868593750005,10.198759296875,7.380357859375,10.085359296875Q7.427329859375,9.971959296875,7.479808859375,9.860999296875Q7.532288859375,9.750049296875,7.590149859375,9.641799296875Q7.648009859375,9.533549296875,7.711112859375,9.428269296875Q7.774214859375,9.322989296875,7.842407859375,9.220929296875Q7.910599859375,9.118869296875,7.983717859375,9.020279296875Q8.056835859375,8.921689296875,8.134705859375,8.826809296875Q8.212575859375,8.731929296875,8.294995859375,8.640979296875Q8.377425859375,8.550039296875,8.464225859375,8.463249296875Q8.551015859375,8.376449296875,8.641955859375,8.294019296875Q8.732905859375,8.211599296875,8.827785859375,8.133729296875Q8.922665859375,8.055859296875,9.021255859375,7.982741296875Q9.119845859375,7.909623296875,9.221905859375,7.841431296875Q9.323965859375,7.773238296875,9.429245859375,7.710136296875Q9.534525859375,7.647033296875,9.642775859375,7.589173296875Q9.751025859375,7.531312296875,9.861975859375,7.478832296875Q9.972935859375,7.426353296875,10.086335859375,7.379381296875Q10.199735859375,7.3324102968750005,10.315305859375,7.291059296875Q10.430875859375,7.249708296875,10.548335859375,7.214077296875Q10.665785859375,7.178447296875,10.784855859375,7.148623296875Q10.903915859375001,7.118799296875,11.024305859375,7.094852896875Q11.144685859374999,7.070906896875,11.266105859375,7.052896696875Q11.387515859375,7.034886596875,11.509665859375,7.022855696875Q11.631825859374999,7.010824696875,11.754415859375001,7.004802016875Q11.877015859375,6.998779296875,11.999755859375,6.998779296875Q12.122495859375,6.998779296875,12.245095859374999,7.004802016875Q12.367685859375001,7.010824696875,12.489845859375,7.022855696875Q12.611995859375,7.034886596875,12.733405859375,7.052896696875Q12.854825859375001,7.070906896875,12.975205859375,7.094852896875Q13.095595859374999,7.118799296875,13.214655859375,7.148623296875Q13.333715859375001,7.178447296875,13.451175859374999,7.214077296875Q13.568635859375,7.249708296875,13.684205859375,7.291059296875Q13.799775859375,7.3324102968750005,13.913175859375,7.379381296875Q14.026575859375,7.426353296875,14.137525859375,7.478832296875Q14.248485859375,7.531312296875,14.356735859375,7.589173296875Q14.464985859375,7.647033296875,14.570265859374999,7.710136296875Q14.675545859375,7.773238296875,14.777605859375,7.841431296875Q14.879665859374999,7.909623296875,14.978255859375,7.982741296875Q15.076835859375,8.055859296875,15.171725859375,8.133729296875Q15.266605859375,8.211599296875,15.357545859375,8.294019296875Q15.448495859375,8.376449296875,15.535285859375,8.463249296875Q15.622075859375,8.550039296875,15.704505859375,8.640979296875Q15.786935859375,8.731929296875,15.864805859375,8.826809296875Q15.942675859375,8.921689296875,16.015795859375,9.020279296875Q16.088905859375,9.118869296875,16.157105859375,9.220929296875Q16.225295859375002,9.322989296875,16.288395859375,9.428269296875Q16.351495859375,9.533549296875,16.409365859375,9.641799296875Q16.467225859375,9.750049296875,16.519705859375,9.860999296875Q16.572175859375,9.971959296875,16.619155859375,10.085359296875Q16.666125859375,10.198759296875,16.707475859375002,10.314329296875Q16.748825859375,10.429899296875,16.784455859375,10.547359296875Q16.820085859375,10.664809296875,16.849905859375,10.783879296875Q16.879735859375,10.902939296875001,16.903675859375,11.023329296875Q16.927625859375,11.143709296874999,16.945635859375002,11.265129296875Q16.963645859375,11.386539296875,16.975675859375002,11.508689296875Q16.987705859374998,11.630849296874999,16.993735859375,11.753439296875001Q16.999755859375,11.876039296875,16.999755859375,11.998779296875Z" fill="#FFFFFF" fill-opacity="1"/></g><g><path d="M7.66956,14.500010703125L3.3401199999999998,7.001220703125C2.462257,8.521220703125,2.0000605567,10.245570703125,2.00000000595014,12.000870703124999C1.9999394552,13.756170703125001,2.462019,15.480550703125,3.3397699999999997,17.000620703125C4.21753,18.520720703125,5.48003,19.782920703125,7.00032,20.660220703125C8.5206,21.537620703125,10.24508,21.999320703125,12.0004,21.998820703125L16.3298,14.500010703125L16.3298,14.498710703124999C15.8913,15.259160703125,15.2603,15.890710703125,14.5002,16.329860703125C13.7402,16.769000703125002,12.8779,17.000270703125,12.0001,17.000400703125003C11.12226,17.000520703124998,10.25987,16.769540703125,9.49968,16.330590703125C8.739519999999999,15.891670703125,8.10829,15.260300703125,7.66956,14.500010703125Z" fill="url(#master_svg2_4122_01203)" fill-opacity="1"/></g><g><path d="M16.329256875,14.499724824218749L11.999857345,21.99849482421875C13.755156875,21.99879482421875,15.479576875,21.53689482421875,16.999726875,20.659294824218748C18.519886875,19.78169482421875,19.782206875,18.51929482421875,20.659756875,16.99912482421875C21.537286875,15.47890482421875,21.999146875,13.754454824218751,21.998846874999998,11.99915482421875C21.998546875000002,10.24385482421875,21.536076875,8.51959482421875,20.657986875,6.99969482421875L11.999126495,6.99969482421875L11.998046875,7.00036148821875C12.875855875,6.99991704521875,13.738296875,7.23064682421875,14.498646875,7.66928182421875C15.258996875,8.10794482421875,15.890426875,8.739064824218751,16.329446875000002,9.49921482421875C16.768456875,10.25934482421875,16.999566875,11.12169482421875,16.999566875,11.999474824218751C16.999536875,12.87728482421875,16.768366874999998,13.739594824218749,16.329256875,14.499724824218749Z" fill="url(#master_svg3_4122_01209)" fill-opacity="1"/></g><g><path d="M15.957929765625,11.99991494140625Q15.957929765625,12.194374941406249,15.938869765625,12.38790494140625Q15.919809765625,12.581424941406251,15.881869765625,12.77214494140625Q15.843929765624999,12.96287494140625,15.787479765625001,13.14896494140625Q15.731029765625,13.335044941406249,15.656619765624999,13.51470494140625Q15.582199765624999,13.69436494140625,15.490529765625,13.865864941406251Q15.398859765625,14.03736494140625,15.290829765625,14.19905494140625Q15.182789765625,14.36074494140625,15.059429765625,14.51106494140625Q14.936059765625,14.66138494140625,14.798559765625,14.79888494140625Q14.661049765625,14.936394941406249,14.510729765625001,15.05975494140625Q14.360409765625,15.18312494140625,14.198729765625,15.291164941406251Q14.037039765625,15.39919494140625,13.865539765625,15.490864941406251Q13.694039765625,15.58253494140625,13.514379765625,15.65695494140625Q13.334719765625,15.73136494140625,13.148639765625,15.78781494140625Q12.962549765624999,15.84426494140625,12.771829765625,15.88220494140625Q12.581099765625,15.92014494140625,12.387579765625,15.939204941406249Q12.194049765625,15.958264941406249,11.999589765625,15.958264941406249Q11.805129765625,15.958264941406249,11.611609765625,15.939204941406249Q11.418079765625,15.92014494140625,11.227359765625,15.88220494140625Q11.036639765625,15.84426494140625,10.850549765625,15.78781494140625Q10.664459765625,15.73136494140625,10.484799765625,15.65695494140625Q10.305149765625,15.58253494140625,10.133649765625,15.490864941406251Q9.962149765625,15.39919494140625,9.800459765625,15.291164941406251Q9.638769765625,15.18312494140625,9.488449765624999,15.05975494140625Q9.338129765625,14.936394941406249,9.200629765625,14.79888494140625Q9.063119765625,14.66138494140625,8.939759765625,14.51106494140625Q8.816395765625,14.36074494140625,8.708358765625,14.19905494140625Q8.600322765625,14.03736494140625,8.508654765625,13.865864941406251Q8.416986765625,13.69436494140625,8.342569765625,13.51470494140625Q8.268152765625,13.335044941406249,8.211703765625,13.14896494140625Q8.155255765625,12.96287494140625,8.117318065625,12.77214494140625Q8.079380665625,12.581424941406251,8.060320265625,12.38790494140625Q8.041259765625,12.194374941406249,8.041259765625,11.99991494140625Q8.041259765625,11.80545494140625,8.060320265625,11.61192494140625Q8.079380665625,11.41840494140625,8.117318065625,11.22767494140625Q8.155255765625,11.03695494140625,8.211703765625,10.85086494140625Q8.268152765625,10.66477494140625,8.342569765625,10.48511494140625Q8.416986765625,10.30546494140625,8.508654765625,10.13396494140625Q8.600322765625,9.96246494140625,8.708358765625,9.80077494140625Q8.816395765625,9.63908494140625,8.939759765625,9.48876494140625Q9.063119765625,9.33844494140625,9.200629765625,9.20093494140625Q9.338129765625,9.06343494140625,9.488449765624999,8.940068941406249Q9.638769765625,8.81670394140625,9.800459765625,8.70866694140625Q9.962149765625,8.60062994140625,10.133649765625,8.50896194140625Q10.305149765625,8.41729294140625,10.484799765625,8.34287594140625Q10.664459765625,8.26845894140625,10.850549765625,8.21200994140625Q11.036639765625,8.15556094140625,11.227359765625,8.11762354140625Q11.418079765625,8.07968604140625,11.611609765625,8.06062544140625Q11.805129765625,8.04156494140625,11.999589765625,8.04156494140625Q12.194049765625,8.04156494140625,12.387579765625,8.06062544140625Q12.581099765625,8.07968604140625,12.771829765625,8.11762354140625Q12.962549765624999,8.15556094140625,13.148639765625,8.21200994140625Q13.334719765625,8.26845894140625,13.514379765625,8.34287594140625Q13.694039765625,8.41729294140625,13.865539765625,8.50896194140625Q14.037039765625,8.60062994140625,14.198729765625,8.70866694140625Q14.360409765625,8.81670394140625,14.510729765625001,8.940068941406249Q14.661049765625,9.06343494140625,14.798559765625,9.20093494140625Q14.936059765625,9.33844494140625,15.059429765625,9.48876494140625Q15.182789765625,9.63908494140625,15.290829765625,9.80077494140625Q15.398859765625,9.96246494140625,15.490529765625,10.13396494140625Q15.582199765624999,10.30546494140625,15.656619765624999,10.48511494140625Q15.731029765625,10.66477494140625,15.787479765625001,10.85086494140625Q15.843929765624999,11.03695494140625,15.881869765625,11.22767494140625Q15.919809765625,11.41840494140625,15.938869765625,11.61192494140625Q15.957929765625,11.80545494140625,15.957929765625,11.99991494140625Z" fill="#1A73E8" fill-opacity="1"/></g><g><path d="M11.99991203125,7L20.65873203125,7C19.78133203125,5.47975,18.519132031250003,4.21729,16.99903203125,3.3395900000000003C15.47893203125,2.461892,13.75443203125,1.999875568,11.99917203125,2.000000151377C10.24387203125,2.000124735,8.51956203125,2.462384,6.99959203125,3.3403C5.47959203125,4.2182200000000005,4.21755403125,5.48086,3.34033203125,7.00121L7.66975203125,14.5L7.67086203125,14.5006C7.23159203125,13.7406,7.0001620312499995,12.8784,6.99987203125,12.0006C6.99959203125,11.12276,7.23048203125,10.26035,7.66927203125,9.5001C8.10803203125,8.739840000000001,8.73930203125,8.108509999999999,9.49949203125,7.66965C10.25971203125,7.23076,11.12210203125,6.99981,11.99991203125,7Z" fill="url(#master_svg4_4122_01200)" fill-opacity="1"/></g></g></g></svg>