<svg xmlns="http://www.w3.org/2000/svg" xmlns:xlink="http://www.w3.org/1999/xlink" fill="none" version="1.1" width="24" height="24" viewBox="0 0 24 24"><defs><clipPath id="master_svg0_4122_01979"><rect x="0" y="0" width="24" height="24" rx="0"/></clipPath><clipPath id="master_svg1_4122_01982"><rect x="2" y="2" width="20" height="20" rx="0"/></clipPath></defs><g><g clip-path="url(#master_svg0_4122_01979)"></g><g clip-path="url(#master_svg1_4122_01982)"><g><path d="M2.9580078125,12.0000435546875C2.9580078125,15.4251435546875,4.7419178125000006,18.493443554687502,7.6675278125,20.2060435546875C10.5931378125,21.9185435546875,14.2323078125,21.9185435546875,17.1579078125,20.2060435546875C20.0835078125,18.493443554687502,21.8674078125,15.3538435546875,21.8674078125,12.0000435546875C21.8674078125,8.6462935546875,20.0835078125,5.5066135546875,17.1579078125,3.7940635546875C14.2323078125,2.0815055546875,10.5931378125,2.0815055546875,7.6675278125,3.7940635546875C4.7419178125000006,5.5066135546875,2.9580078125,8.6462935546875,2.9580078125,12.0000435546875Z" fill="#FFFFFF" fill-opacity="1"/></g><g><path d="M12.4484078125,21.5618546875C7.1680378125,21.5618546875,2.958008098602,17.2804546875,2.958008098602,12.0714546875C2.958008098602,6.8624346875,7.2393878125,2.581053757668,12.4484078125,2.5810546875C17.6574078125,2.581053757668,21.9388078125,6.8624346875,21.9388078125,12.0714546875C21.9388078125,17.2804546875,17.6574078125,21.5618546875,12.4484078125,21.5618546875ZM12.4484078125,2.5810546875C7.2393878125,2.581053757668,2.9580078125,6.7910846875,2.9580078125,12.0000946875C2.9580078125,17.2091546875,7.1680378125,21.4191546875,12.3770478125,21.4191546875C17.5861078125,21.4191546875,21.7961078125,17.1377546875,21.7961078125,12.0000946875C21.7961078125,6.8624346875,17.6574078125,2.581053757668,12.4484078125,2.5810546875Z" fill="#7FCE46" fill-opacity="1"/></g><g><path d="M3.88561,19.56387490234375C3.02933,18.70757490234375,3.3147599999999997,16.99497490234375,4.3850999999999996,14.85427490234375C5.02731,16.70957490234375,6.38308,18.27937490234375,8.024280000000001,19.27837490234375C6.16901,20.13467490234375,4.59917,20.27737490234375,3.88561,19.56387490234375ZM19.5127,3.9367749023437497C20.1549,4.57898490234375,20.1549,5.792044902343751,19.584,7.36188490234375C18.6564,5.8633949023437495,17.229300000000002,4.79305490234375,15.5881,4.07948490234375C17.372,3.29456690234375,18.7991,3.22321090234375,19.5127,3.9367749023437497ZM8.8092,10.71563490234375C8.95191,8.86036490234375,10.52175,7.29052490234375,12.4484,7.29052490234375C14.375,7.29052490234375,15.9448,8.78901490234375,16.087600000000002,10.71563490234375L8.8092,10.71563490234375ZM16.372999999999998,12.99907490234375L20.9398,12.99907490234375L20.9398,12.00004490234375C20.9398,10.43020490234375,20.5116,9.00307490234375,19.7981,7.71866490234375C20.583,5.72068490234375,20.5116,4.00813490234375,19.5127,3.00914190234375C18.585,2.01015190234375,15.9448,2.22422190234375,13.0906,3.5086349023437498L12.4484,3.5086349023437498C8.45242,3.43728490234375,5.02731,6.22017490234375,4.09968,9.93071490234375C5.3840900000000005,8.28951490234375,6.73986,7.14781490234375,8.45242,6.29153490234375C8.3097,6.43424490234375,7.38207,7.43323490234375,7.168,7.57595490234375C2.529836,12.21411490234375,1.031352,18.27937490234375,2.601192,19.84927490234375C3.81425,21.06227490234375,5.954940000000001,20.84827490234375,8.45242,19.63517490234375C9.59412,20.20607490234375,10.94989,20.56277490234375,12.3057,20.56277490234375C16.087600000000002,20.56277490234375,19.2272,18.13667490234375,20.4403,14.78297490234375L15.8021,14.78297490234375C15.1599,15.99597490234375,13.9469,16.78097490234375,12.4484,16.78097490234375C10.94989,16.78097490234375,9.87954,15.92467490234375,9.23734,14.78297490234375C8.95191,14.28347490234375,8.8092,13.64127490234375,8.8092,12.99907490234375L16.372999999999998,12.99907490234375Z" fill="#7FCE46" fill-opacity="1"/></g></g></g></svg>