<svg xmlns="http://www.w3.org/2000/svg" xmlns:xlink="http://www.w3.org/1999/xlink" fill="none" version="1.1" width="24" height="24" viewBox="0 0 24 24"><defs><clipPath id="master_svg0_4122_02013"><rect x="0" y="0" width="24" height="24" rx="0"/></clipPath><clipPath id="master_svg1_4122_02014"><rect x="2" y="2" width="20" height="20" rx="0"/></clipPath></defs><g><g clip-path="url(#master_svg0_4122_02013)"></g><g clip-path="url(#master_svg1_4122_02014)"><g><path d="M20.9441109375,6.79705810546875L19.6673109375,19.617758105468752L4.3323409375,19.617758105468752L3.3037109375,7.04518310546875L11.9998409375,11.91400810546875L20.9441109375,6.79705810546875Z" fill="#F2F2F2" fill-opacity="1"/></g><g><path d="M20.51106953125,4.3822021484375L11.99993953125,12.3773621484375L3.48876953125,4.3822021484375L11.99993953125,4.3822021484375L20.51106953125,4.3822021484375Z" fill="#F2F2F2" fill-opacity="1"/></g><g><path d="M4.3325,8.074009296875L4.3325,19.617879296875L2.94293,19.617879296875C2.422344,19.617879296875,2,19.195579296875,2,18.674979296875L2,6.373779296875L3.52344,6.415302696875L4.3325,8.074009296875Z" fill="#2882FF" fill-opacity="1"/></g><g><path d="M21.99998046875,6.373740796875L21.99998046875,18.674991796875C21.99998046875,19.195591796875,21.57764046875,19.617891796875,21.05654046875,19.617891796875L19.66748046875,19.617891796875L19.66748046875,8.073971796875L20.43669846875,6.256591796875L21.99998046875,6.373740796875Z" fill="#0037DB" fill-opacity="1"/></g><g><path d="M22,5.3251321484375005L22,6.3737621484375L19.6675,8.0740021484375L12,13.6625921484375L4.3325,8.0740021484375L2,6.3737621484375L2,5.3251321484375005C2,4.8045461484375,2.422344,4.3822023391725,2.94293,4.3822023391725L3.48883,4.3822023391725L12,10.585682148437499L20.5112,4.3822021484375L21.0566,4.3822021484375C21.5777,4.3822021484375,22,4.8045071484375,22,5.3251321484375005Z" fill="#2882FF" fill-opacity="1"/></g><g><path d="M4.3325,8.074009296875L2,7.712369296875L2,6.373779296875L4.3325,8.074009296875Z" fill="#0037DB" fill-opacity="1"/></g></g></g></svg>