<svg xmlns="http://www.w3.org/2000/svg" xmlns:xlink="http://www.w3.org/1999/xlink" fill="none" version="1.1" width="24" height="24" viewBox="0 0 24 24"><defs><clipPath id="master_svg0_4122_01888"><rect x="0" y="0" width="24" height="24" rx="0"/></clipPath><clipPath id="master_svg1_4122_01889"><rect x="2" y="2" width="20" height="20" rx="0"/></clipPath></defs><g><g clip-path="url(#master_svg0_4122_01888)"></g><g clip-path="url(#master_svg1_4122_01889)"><g><path d="M12.899838125,11.219949951171875Q13.839838125,12.259949951171876,12.639838125,13.239949951171875Q14.979838125,12.039949951171874,13.919838125,10.519949951171874C12.919839125,9.119949951171876,12.139839125,8.419949951171875,16.319838125,5.979949951171875C16.319838125,5.999950051171875,9.759838125,7.659949951171875,12.899838125,11.219949951171875Z" fill="#FF0000" fill-opacity="1"/></g><g><path d="M13.92000640625,2.099945068359375Q15.90000640625,4.079945068359375,12.04000640625,7.139945068359375C8.96000640625,9.599945068359375,11.34000640625,10.999945068359375,12.04000640625,12.619945068359375C10.22000640625,10.979945068359376,8.92000640625,9.539945068359376,9.80000640625,8.199945068359375C11.06000640625,6.219945068359375,14.72000640625,5.259945068359375,13.92000640625,2.099945068359375Z" fill="#FF0000" fill-opacity="1"/></g><g><path d="M16.080033828125,16.800069560546874C19.660073828125,14.940069560546874,18.000033828124998,13.120073660546876,16.860033828124998,13.380074560546875Q16.560033828125,13.440074560546876,16.440033828125,13.480074560546875Q16.540033828125,13.320074560546875,16.760033828125,13.260074560546874C19.060073828125,12.460074560546875,20.820073828125,15.620079560546875,16.020033828125,16.900069560546875C16.000033828124998,16.900069560546875,16.060033828125,16.840069560546876,16.080033828125,16.800069560546874ZM9.480033828125,17.560069560546875Q8.740034828125,17.980069560546873,10.000033828125,18.140079560546873C11.500033828125,18.300079560546877,12.300033828124999,18.300079560546877,13.960033828124999,17.980069560546873Q14.420033828125,18.280069560546874,15.000033828125,18.500069560546876C11.260033828125,20.080069560546875,6.540033828125,18.400069560546875,9.480033828125,17.560069560546875ZM9.020033828125,15.480069560546875Q8.180035828125,16.100069560546874,9.480033828125,16.220069560546875C11.100033828125,16.380069560546875,12.400033828125,16.420069560546874,14.580033828125,15.960069560546875Q14.900033828125,16.280069560546874,15.380033828125,16.440069560546874C10.860033828125001,17.780069560546874,5.800033828125001,16.540069560546875,9.020033828125,15.480069560546875Z" fill="#6699FF" fill-opacity="1"/></g><g><path d="M17.840140625,19.119964736328125Q18.380140625,19.579964736328126,17.220140625,19.919964736328126C15.040140625,20.599964736328126,8.220150625,20.799964736328125,6.320150625,19.959964736328125C5.640155625,19.659964736328124,6.940150624999999,19.259964736328126,7.320150625,19.159964736328124Q7.740150625,19.059964736328126,8.000150625,19.099964736328126C7.240150625,18.539964736328123,3.080150625,20.119964736328125,5.900155625,20.579964736328126C13.520150625,21.799964736328125,19.820140625,20.019964736328124,17.840140625,19.119964736328125ZM9.820150625,13.299968736328125Q6.340150625,14.139968736328125,8.580150625,14.399964736328124C9.540150624999999,14.519964736328125,11.440150625000001,14.499964736328124,13.180150625,14.339964736328126Q14.620150625,14.219968736328125,16.060140625000003,13.959968736328126Q15.540140625,14.179968736328124,15.180140625,14.439964736328125C11.640150625,15.379964736328125,4.820154625,14.959964736328125,6.780150625,13.979968736328125Q8.500150625,13.199968736328126,9.820150625,13.299968736328125Z" fill="#6699FF" fill-opacity="1"/></g><g><path d="M10.180205078125,21.839986572265627C13.620205078125,22.059986572265625,18.900205078124998,21.719986572265626,19.040205078125,20.079986572265625Q18.780205078125,20.699986572265626,16.180205078125,21.179986572265626C13.240205078125001,21.719986572265626,9.600205078125,21.659986572265623,7.460205078125,21.299986572265624C7.500205278125,21.319986572265623,7.940205078125,21.699986572265626,10.180205078125,21.839986572265627Z" fill="#6699FF" fill-opacity="1"/></g></g></g></svg>