<svg xmlns="http://www.w3.org/2000/svg" xmlns:xlink="http://www.w3.org/1999/xlink" fill="none" version="1.1" width="24" height="24" viewBox="0 0 24 24"><defs><clipPath id="master_svg0_4122_01846"><rect x="0" y="0" width="24" height="24" rx="0"/></clipPath><clipPath id="master_svg1_4122_01856"><rect x="2" y="2" width="20" height="19" rx="0"/></clipPath></defs><g><g clip-path="url(#master_svg0_4122_01846)"></g><g clip-path="url(#master_svg1_4122_01856)"><g><path d="M10.250284687499999,15.062355693359375L8.400284687500001,12.402359693359376C8.1002846875,11.974859393359376,7.500284687500001,11.832359693359376,7.000284687500001,12.117359693359376L6.7002846875,12.402359693359376L4.1502886875,16.202355693359376C3.9002886875,16.677355693359374,4.0002885875,17.247355693359374,4.5002886875,17.532355693359374C4.6502886875,17.627355693359377,4.8502886875,17.674855693359376,5.0002886875,17.674855693359376L10.000284687499999,17.674855693359376C10.5502846875,17.674855693359376,11.000284687499999,17.247355693359374,11.000284687499999,16.724855693359373C11.000284687499999,16.582355693359375,10.9502846875,16.439855693359377,10.900284687500001,16.297355693359375L10.250284687499999,15.062355693359375Z" fill="#A5C8F4" fill-opacity="1"/></g><g><path d="M8,8.649942016601562C7.15,8.649942016601562,6.5,8.032442016601562,6.5,7.224942016601562C6.5,6.417442016601562,7.15,5.7999420166015625,8,5.7999420166015625C8.85,5.7999420166015625,9.5,6.417442016601562,9.5,7.224942016601562C9.5,8.032442016601562,8.85,8.649942016601562,8,8.649942016601562ZM14.4,8.032442016601562C14.5,7.889942016601562,14.65,7.747442016601562,14.8,7.699942016601563C15.3,7.462442016601562,15.9,7.699942016601563,16.15,8.127442016601563L20.45,16.724942016601563C20.5,16.867442016601565,20.55,17.009942016601563,20.55,17.15244201660156C20.55,17.674942016601562,20.1,18.102442016601564,19.55,18.102442016601564L9.4,18.102442016601564C9.2,18.102442016601564,9,18.054942016601565,8.8,17.912442016601563C8.35,17.627442016601563,8.25,17.009942016601563,8.55,16.58244201660156L9.65,15.109942016601563L14.4,8.032442016601562Z" fill="#2589FF" fill-opacity="1"/></g></g></g></svg>