<svg xmlns="http://www.w3.org/2000/svg" xmlns:xlink="http://www.w3.org/1999/xlink" fill="none" version="1.1" width="24" height="24" viewBox="0 0 24 24"><defs><clipPath id="master_svg0_4122_01961"><rect x="0" y="0" width="24" height="24" rx="0"/></clipPath><clipPath id="master_svg1_4122_01962"><rect x="2" y="2" width="20" height="20" rx="0"/></clipPath><linearGradient x1="0.000025234921849914826" y1="0.4998050630092621" x2="0.9997879862785339" y2="0.4998050630092621" id="master_svg2_4122_01112"><stop offset="0%" stop-color="#0C59A4" stop-opacity="1"/><stop offset="100%" stop-color="#114A8B" stop-opacity="1"/></linearGradient><radialGradient cx="0" cy="0" r="1" gradientUnits="userSpaceOnUse" id="master_svg3_4122_01118" gradientTransform="translate(14.280869299349433 15.94016877003014) rotate(0) scale(7.450821175073543 7.077500994242319)"><stop offset="72.00000286102295%" stop-color="#000000" stop-opacity="0"/><stop offset="94.9999988079071%" stop-color="#000000" stop-opacity="0.5299999713897705"/><stop offset="100%" stop-color="#000000" stop-opacity="1"/></radialGradient><linearGradient x1="0.9060661196708679" y1="0.24796484410762787" x2="0.2451203465461731" y2="0.8315371870994568" id="master_svg4_4122_01121"><stop offset="0%" stop-color="#1B9DE2" stop-opacity="1"/><stop offset="15.999999642372131%" stop-color="#1595DF" stop-opacity="1"/><stop offset="67.00000166893005%" stop-color="#0680D7" stop-opacity="1"/><stop offset="100%" stop-color="#0078D4" stop-opacity="1"/></linearGradient><radialGradient cx="0" cy="0" r="1" gradientUnits="userSpaceOnUse" id="master_svg5_4122_01115" gradientTransform="translate(7.516297590227282 17.547518440626845) rotate(98.61740064379848) scale(11.20297008889303 9.052656255435027)"><stop offset="75.99999904632568%" stop-color="#000000" stop-opacity="0"/><stop offset="94.9999988079071%" stop-color="#000000" stop-opacity="0.5"/><stop offset="100%" stop-color="#000000" stop-opacity="1"/></radialGradient><radialGradient cx="0" cy="0" r="1" gradientUnits="userSpaceOnUse" id="master_svg6_4122_01109" gradientTransform="translate(4.019730521876824 5.702535256915098) rotate(92.29089981108623) scale(15.824336928739715 33.70765949716054)"><stop offset="0%" stop-color="#35C1F1" stop-opacity="1"/><stop offset="10.999999940395355%" stop-color="#34C1ED" stop-opacity="1"/><stop offset="23.000000417232513%" stop-color="#2FC2DF" stop-opacity="1"/><stop offset="31.00000023841858%" stop-color="#2BC3D2" stop-opacity="1"/><stop offset="67.00000166893005%" stop-color="#36C752" stop-opacity="1"/></radialGradient><radialGradient cx="0" cy="0" r="1" gradientUnits="userSpaceOnUse" id="master_svg7_4122_01124" gradientTransform="translate(20.75468803259821 8.047304900856005) rotate(73.73660365353409) scale(7.603242088133533 6.184140576730559)"><stop offset="0%" stop-color="#66EB6E" stop-opacity="1"/><stop offset="100%" stop-color="#66EB6E" stop-opacity="0"/></radialGradient></defs><g><g clip-path="url(#master_svg0_4122_01961)"></g><g clip-path="url(#master_svg1_4122_01962)"><g><path d="M20.047081640625002,16.88262939453125C19.781481640625,17.02325939453125,19.508081640625,17.14824939453125,19.226781640625,17.24981939453125C18.328381640625,17.58575939453125,17.383081640625,17.75762939453125,16.422121640625,17.75762939453125C12.726811640625,17.75762939453125,9.508051640625,15.21856939453125,9.508051640625,11.95293939453125C9.515871640625,11.06231939453125,10.008061640625,10.24200439453125,10.789301640625,9.82012939453125C7.445556640625,9.96075439453125,6.586181640625,13.44512939453125,6.586181640625,15.48418939453125C6.586181640625,21.25762939453125,11.906491640625,21.843529394531252,13.054931640625,21.843529394531252C13.672121640625,21.843529394531252,14.601801640625,21.66392939453125,15.164301640625,21.484229394531248L15.265871640625,21.45292939453125C17.422081640625002,20.71072939453125,19.250281640624998,19.25762939453125,20.468981640625,17.32793939453125C20.562781640624998,17.17950939453125,20.515881640625,16.99200939453125,20.375281640624998,16.89824939453125C20.273681640625,16.83574939453125,20.148681640625,16.82793939453125,20.047081640625002,16.88262939453125Z" fill="url(#master_svg2_4122_01112)" fill-opacity="1"/></g><g style="opacity:0.3499999940395355;"><path d="M20.047081640625002,16.88262939453125C19.781481640625,17.02325939453125,19.508081640625,17.14824939453125,19.226781640625,17.24981939453125C18.328381640625,17.58575939453125,17.383081640625,17.75762939453125,16.422121640625,17.75762939453125C12.726811640625,17.75762939453125,9.508051640625,15.21856939453125,9.508051640625,11.95293939453125C9.515871640625,11.06231939453125,10.008061640625,10.24200439453125,10.789301640625,9.82012939453125C7.445556640625,9.96075439453125,6.586181640625,13.44512939453125,6.586181640625,15.48418939453125C6.586181640625,21.25762939453125,11.906491640625,21.843529394531252,13.054931640625,21.843529394531252C13.672121640625,21.843529394531252,14.601801640625,21.66392939453125,15.164301640625,21.484229394531248L15.265871640625,21.45292939453125C17.422081640625002,20.71072939453125,19.250281640624998,19.25762939453125,20.468981640625,17.32793939453125C20.562781640624998,17.17950939453125,20.515881640625,16.99200939453125,20.375281640624998,16.89824939453125C20.273681640625,16.83574939453125,20.148681640625,16.82793939453125,20.047081640625002,16.88262939453125Z" fill="url(#master_svg3_4122_01118)" fill-opacity="1"/></g><g><path d="M10.25786421875,20.85936396484375C9.56254421875,20.429663964843748,8.96098421875,19.85936396484375,8.48442421875,19.19526396484375C6.42973421875,16.38276396484375,7.04692421875,12.43744396484375,9.85942421875,10.38275396484375C10.15629421875,10.17181396484375,10.46098421875,9.97650396484375,10.78911421875,9.82025396484375C11.03129421875,9.70306396484375,11.44536421875,9.49994396484375,12.00004421875,9.50775396484375C12.78912421875,9.51556396484375,13.53132421875,9.89056396484375,14.00782421875,10.52337396484375C14.32032421875,10.94525396484375,14.50002421875,11.45306396484375,14.50782421875,11.98431396484375C14.50782421875,11.96868396484375,16.42192421875,5.76556396484375,8.25786421875,5.76556396484375C4.8281642187500005,5.76556396484375,2.00785734875,9.02337396484375,2.00785734875,11.87494396484375C1.99223231875,13.38275396484375,2.32035721875,14.88275396484375,2.9531692187500003,16.24996396484375C5.1094142187500005,20.84366396484375,10.35942421875,23.09366396484375,15.17192421875,21.492163964843748C13.52352421875,22.00776396484375,11.72661421875,21.78116396484375,10.25786421875,20.85936396484375Z" fill="url(#master_svg4_4122_01121)" fill-opacity="1"/></g><g style="opacity:0.4099999964237213;"><path d="M10.25786421875,20.85936396484375C9.56254421875,20.429663964843748,8.96098421875,19.85936396484375,8.48442421875,19.19526396484375C6.42973421875,16.38276396484375,7.04692421875,12.43744396484375,9.85942421875,10.38275396484375C10.15629421875,10.17181396484375,10.46098421875,9.97650396484375,10.78911421875,9.82025396484375C11.03129421875,9.70306396484375,11.44536421875,9.49994396484375,12.00004421875,9.50775396484375C12.78912421875,9.51556396484375,13.53132421875,9.89056396484375,14.00782421875,10.52337396484375C14.32032421875,10.94525396484375,14.50002421875,11.45306396484375,14.50782421875,11.98431396484375C14.50782421875,11.96868396484375,16.42192421875,5.76556396484375,8.25786421875,5.76556396484375C4.8281642187500005,5.76556396484375,2.00785734875,9.02337396484375,2.00785734875,11.87494396484375C1.99223231875,13.38275396484375,2.32035721875,14.88275396484375,2.9531692187500003,16.24996396484375C5.1094142187500005,20.84366396484375,10.35942421875,23.09366396484375,15.17192421875,21.492163964843748C13.52352421875,22.00776396484375,11.72661421875,21.78116396484375,10.25786421875,20.85936396484375Z" fill="url(#master_svg5_4122_01115)" fill-opacity="1"/></g><g><path d="M13.8984,13.6328C13.8359,13.7109,13.6406,13.8281,13.6406,14.0781C13.6406,14.2812,13.7734,14.4766,14.0078,14.6406C15.1328,15.4219,17.25,15.3203,17.2578,15.3203C18.0938,15.3203,18.9062,15.0938,19.625,14.6719C21.0938,13.8125,22,12.2422,22,10.53906C22.0234,8.78906,21.375,7.625,21.1172,7.10938C19.4609,3.86719,15.8828,2,12,2C6.53125,2,2.078125,6.39063,2,11.85938C2.0390625,9.00781,4.875,6.70313,8.25,6.70313C8.52344,6.70313,10.08594,6.72656,11.53125,7.49219C12.8047,8.16406,13.4766,8.96875,13.9375,9.77344C14.4219,10.60938,14.5078,11.65625,14.5078,12.0781C14.5078,12.4922,14.2969,13.1172,13.8984,13.6328Z" fill="url(#master_svg6_4122_01109)" fill-opacity="1"/></g><g><path d="M13.8984,13.6328C13.8359,13.7109,13.6406,13.8281,13.6406,14.0781C13.6406,14.2812,13.7734,14.4766,14.0078,14.6406C15.1328,15.4219,17.25,15.3203,17.2578,15.3203C18.0938,15.3203,18.9062,15.0938,19.625,14.6719C21.0938,13.8125,22,12.2422,22,10.53906C22.0234,8.78906,21.375,7.625,21.1172,7.10938C19.4609,3.86719,15.8828,2,12,2C6.53125,2,2.078125,6.39063,2,11.85938C2.0390625,9.00781,4.875,6.70313,8.25,6.70313C8.52344,6.70313,10.08594,6.72656,11.53125,7.49219C12.8047,8.16406,13.4766,8.96875,13.9375,9.77344C14.4219,10.60938,14.5078,11.65625,14.5078,12.0781C14.5078,12.4922,14.2969,13.1172,13.8984,13.6328Z" fill="url(#master_svg7_4122_01124)" fill-opacity="1"/></g></g></g></svg>