<svg xmlns="http://www.w3.org/2000/svg" xmlns:xlink="http://www.w3.org/1999/xlink" fill="none" version="1.1" width="24" height="24" viewBox="0 0 24 24"><defs><clipPath id="master_svg0_4122_02073"><rect x="0" y="0" width="24" height="24" rx="0"/></clipPath><clipPath id="master_svg1_4122_02074"><rect x="2" y="2" width="20" height="20" rx="0"/></clipPath></defs><g><g clip-path="url(#master_svg0_4122_02073)"></g><g clip-path="url(#master_svg1_4122_02074)"><g><path d="M21.900609375,11.9999873046875Q21.900609375,12.2429873046875,21.888709375,12.4857873046875Q21.876709375,12.7284873046875,21.852909375,12.9703873046875Q21.829109375,13.2122873046875,21.793409375,13.4526873046875Q21.757809375,13.6930873046875,21.710409375,13.9314873046875Q21.662909375,14.1698873046875,21.603909375,14.4055873046875Q21.544809375,14.6413873046875,21.474309375,14.8739873046875Q21.403709375,15.1064873046875,21.321809375,15.3353873046875Q21.240009375,15.5641873046875,21.147009375,15.7887873046875Q21.054009375,16.013287304687502,20.950009375,16.232987304687498Q20.846109375,16.4526873046875,20.731609375,16.6670873046875Q20.617009375,16.8813873046875,20.492009375,17.0898873046875Q20.367109375,17.2982873046875,20.232109375,17.5003873046875Q20.097009375,17.7024873046875,19.952209375,17.8976873046875Q19.807509375,18.0928873046875,19.653309375,18.2807873046875Q19.499109375,18.4686873046875,19.335909375,18.6487873046875Q19.172709375,18.8287873046875,19.000809375,19.0006873046875Q18.828909375,19.1725873046875,18.648909375,19.3357873046875Q18.468809375,19.4989873046875,18.280909375,19.6531873046875Q18.093009375,19.8073873046875,17.897809375,19.9521873046875Q17.702609375,20.0968873046875,17.500509375,20.2319873046875Q17.298409375,20.3669873046875,17.090009375,20.4918873046875Q16.881509375,20.6168873046875,16.667209375,20.7314873046875Q16.452809375,20.8459873046875,16.233109374999998,20.9498873046875Q16.013409375000002,21.0538873046875,15.788909375,21.1468873046875Q15.564309375,21.2398873046875,15.335509375,21.3216873046875Q15.106609375,21.4035873046875,14.874109375,21.4741873046875Q14.641509375,21.5446873046875,14.405709375,21.6037873046875Q14.170009375,21.6627873046875,13.931609375,21.7102873046875Q13.693209375,21.7576873046875,13.452809375,21.7932873046875Q13.212409375,21.8289873046875,12.970509375,21.8527873046875Q12.728609375,21.8765873046875,12.485909375,21.8885873046875Q12.243109375,21.9004873046875,12.000109375,21.9004873046875Q11.757059375,21.9004873046875,11.514309375,21.8885873046875Q11.271559375,21.8765873046875,11.029689375,21.8527873046875Q10.787819375,21.8289873046875,10.547399375,21.7932873046875Q10.306989375,21.7576873046875,10.068619375,21.7102873046875Q9.830239375,21.6627873046875,9.594479374999999,21.6037873046875Q9.358719375,21.5446873046875,9.126139375000001,21.4741873046875Q8.893569375,21.4035873046875,8.664729375,21.3216873046875Q8.435889375,21.2398873046875,8.211349375000001,21.1468873046875Q7.986809375,21.0538873046875,7.767099375,20.9498873046875Q7.547389375,20.8459873046875,7.333039375,20.7314873046875Q7.118699375,20.6168873046875,6.910229375,20.4918873046875Q6.701769375,20.3669873046875,6.499679375,20.2319873046875Q6.297599375,20.0968873046875,6.102389375,19.9520873046875Q5.9071693750000005,19.8073873046875,5.719299375,19.6531873046875Q5.5314193750000005,19.4989873046875,5.351339375,19.3357873046875Q5.171259375,19.1725873046875,4.999399374999999,19.0006873046875Q4.827539375000001,18.8287873046875,4.664319375,18.6487873046875Q4.501099375,18.4686873046875,4.346919375000001,18.2807873046875Q4.192729375,18.0928873046875,4.047949375,17.8976873046875Q3.903169375,17.7024873046875,3.768139375,17.5003873046875Q3.6331193749999997,17.2982873046875,3.508169375,17.0898873046875Q3.383219375,16.8813873046875,3.268649375,16.6670873046875Q3.1540793750000002,16.4526873046875,3.050163375,16.232987304687498Q2.946248375,16.013287304687502,2.8532393750000002,15.7887873046875Q2.760231375,15.5641873046875,2.6783523750000002,15.3353873046875Q2.596473375,15.1064873046875,2.5259213750000002,14.8739873046875Q2.455369375,14.6413873046875,2.396314375,14.4055873046875Q2.337260375,14.1698873046875,2.289844375,13.9314873046875Q2.242429375,13.6930873046875,2.206767375,13.4526873046875Q2.171105375,13.2122873046875,2.147282975,12.9703873046875Q2.123460575,12.7284873046875,2.111534975,12.4857873046875Q2.099609375,12.2429873046875,2.099609375,11.9999873046875Q2.099609375,11.7569373046875,2.111534975,11.5141873046875Q2.123460575,11.2714373046875,2.147282975,11.0295673046875Q2.171105375,10.7876973046875,2.206767375,10.5472773046875Q2.242429375,10.3068673046875,2.289844375,10.0684973046875Q2.337260375,9.8301173046875,2.396314375,9.594357304687499Q2.455369375,9.3585973046875,2.5259213750000002,9.126017304687501Q2.596473375,8.8934473046875,2.6783523750000002,8.6646073046875Q2.760231375,8.4357673046875,2.8532393750000002,8.211227304687501Q2.946248375,7.9866873046875,3.050163375,7.7669773046875Q3.1540793750000002,7.5472673046875,3.268649375,7.3329173046875Q3.383219375,7.1185773046875,3.508169375,6.9101073046875Q3.6331193749999997,6.7016473046875,3.768139375,6.4995573046875Q3.903169375,6.2974773046875,4.047949375,6.1022673046875Q4.192729375,5.9070473046875005,4.346919375000001,5.7191773046875Q4.501099375,5.5312973046875005,4.664319375,5.3512173046875Q4.827539375000001,5.1711373046875,4.999399374999999,4.999277304687499Q5.171259375,4.827417304687501,5.351339375,4.6641973046875Q5.5314193750000005,4.5009773046875,5.719299375,4.346797304687501Q5.9071693750000005,4.1926073046875,6.102389375,4.0478273046875Q6.297599375,3.9030473046875,6.499679375,3.7680173046875Q6.701769375,3.6329973046874997,6.910229375,3.5080473046875Q7.118699375,3.3830973046875,7.333039375,3.2685273046875Q7.547389375,3.1539573046875002,7.767099375,3.0500413046875Q7.986809375,2.9461263046875,8.211349375000001,2.8531173046875002Q8.435889375,2.7601093046875,8.664729375,2.6782303046875002Q8.893569375,2.5963513046875,9.126139375000001,2.5257993046875002Q9.358719375,2.4552473046875,9.594479374999999,2.3961923046875Q9.830239375,2.3371383046875,10.068619375,2.2897223046875Q10.306989375,2.2423073046875,10.547399375,2.2066453046875Q10.787819375,2.1709833046875,11.029689375,2.1471609046875Q11.271559375,2.1233385046875,11.514309375,2.1114129046875Q11.757059375,2.0994873046875,12.000109375,2.0994873046875Q12.243109375,2.0994873046875,12.485909375,2.1114129046875Q12.728609375,2.1233385046875,12.970509375,2.1471609046875Q13.212409375,2.1709833046875,13.452809375,2.2066453046875Q13.693209375,2.2423073046875,13.931609375,2.2897223046875Q14.170009375,2.3371383046875,14.405709375,2.3961923046875Q14.641509375,2.4552473046875,14.874109375,2.5257993046875002Q15.106609375,2.5963513046875,15.335509375,2.6782303046875002Q15.564309375,2.7601093046875,15.788909375,2.8531173046875002Q16.013409375000002,2.9461263046875,16.233109374999998,3.0500413046875Q16.452809375,3.1539573046875002,16.667209375,3.2685273046875Q16.881509375,3.3830973046875,17.090009375,3.5080473046875Q17.298409375,3.6329973046874997,17.500509375,3.7680173046875Q17.702609375,3.9030473046875,17.897809375,4.0478273046875Q18.093009375,4.1926073046875,18.280909375,4.346797304687501Q18.468809375,4.5009773046875,18.648909375,4.6641973046875Q18.828909375,4.827417304687501,19.000809375,4.999277304687499Q19.172709375,5.1711373046875,19.335909375,5.3512173046875Q19.499109375,5.5312973046875005,19.653309375,5.7191773046875Q19.807509375,5.9070473046875005,19.952309375,6.1022673046875Q20.097009375,6.2974773046875,20.232109375,6.4995573046875Q20.367109375,6.7016473046875,20.492009375,6.9101073046875Q20.617009375,7.1185773046875,20.731609375,7.3329173046875Q20.846109375,7.5472673046875,20.950009375,7.7669773046875Q21.054009375,7.9866873046875,21.147009375,8.211227304687501Q21.240009375,8.4357673046875,21.321809375,8.6646073046875Q21.403709375,8.8934473046875,21.474309375,9.126017304687501Q21.544809375,9.3585973046875,21.603909375,9.594357304687499Q21.662909375,9.8301173046875,21.710409375,10.0684973046875Q21.757809375,10.3068673046875,21.793409375,10.5472773046875Q21.829109375,10.7876973046875,21.852909375,11.0295673046875Q21.876709375,11.2714373046875,21.888709375,11.5141873046875Q21.900609375,11.7569373046875,21.900609375,11.9999873046875Z" fill="#FFFFFF" fill-opacity="1"/></g><g><path d="M12.0000546875,21.95024365234375C6.5046846875,21.95024365234375,2.0498046875,17.49534365234375,2.0498046875,11.99999365234375C2.049804031849,6.50462365234375,6.5046846875,2.04974543154375,12.0000546875,2.04974543154375C17.4954046875,2.04974477589375,21.9503046875,6.50462365234375,21.9503046875,11.99999365234375C21.9443046875,17.49284365234375,17.4929046875,21.94424365234375,12.0000546875,21.95024365234375ZM12.0000546875,2.14924925234375C6.5596346875,2.14924915234375,2.1493082875,6.55957365234375,2.1493082875,11.99999365234375C2.1493082875,17.440443652343752,6.5596346875,21.85074365234375,12.0000546875,21.85074365234375C17.440504687500002,21.85074365234375,21.8508046875,17.440443652343752,21.8508046875,11.99999365234375C21.8442046875,6.56230365234375,17.437704687500002,2.15582865234375,12.0000546875,2.14924925234375Z" fill="#FAFAFA" fill-opacity="1"/></g><g><path d="M15.63471953125,20.0596732421875Q21.09536953125,17.4397732421875,20.908369531250003,11.263633242187499C20.469569531250002,4.4686062421875,12.25162953125,1.7402432421874998,10.39789883125,5.9651232421875005C9.52426653125,9.834773242187499,14.80684953125,9.4059232421875,16.88844953125,12.2845232421875Q19.68247953125,16.2228732421875,15.63471953125,20.0596732421875Z" fill="#3EA1FC" fill-opacity="1"/></g><g><path d="M8.284468671875,3.954345703125Q2.823769671875,6.5742457031249995,3.010834501875,12.750365703125C3.449640671875,19.545345703125,11.667548671875,22.273745703125,13.521238671875,18.048845703125C14.396938671875,14.179245703125,9.114318671875,14.609045703125,7.032728671875,11.730465703124999Q4.2386986718749995,7.786185703125,8.284468671875,3.954345703125Z" fill="#3EA1FC" fill-opacity="1"/></g></g></g></svg>