<svg xmlns="http://www.w3.org/2000/svg" xmlns:xlink="http://www.w3.org/1999/xlink" fill="none" version="1.1" width="24" height="24" viewBox="0 0 24 24"><defs><clipPath id="master_svg0_4122_01874"><rect x="0" y="0" width="24" height="24" rx="0"/></clipPath><clipPath id="master_svg1_4122_01879"><rect x="2" y="2" width="20" height="19" rx="0"/></clipPath></defs><g><g clip-path="url(#master_svg0_4122_01874)"></g><g clip-path="url(#master_svg1_4122_01879)"><g><path d="M6.5,5.3250579833984375L17.5,5.3250579833984375C18.05,5.3250579833984375,18.5,5.752557983398438,18.5,6.275057983398438L18.5,16.725057983398436C18.5,17.247557983398437,18.05,17.67505798339844,17.5,17.67505798339844L6.5,17.67505798339844C5.95,17.67505798339844,5.5,17.247557983398437,5.5,16.725057983398436L5.5,6.275057983398438C5.5,5.752557983398438,5.95,5.3250579833984375,6.5,5.3250579833984375Z" fill="#C5DDFB" fill-opacity="1"/></g><g><path d="M16.3,15.014942016601562L16.05,15.014942016601562L12.35,6.4649420166015625C12.3,6.3224420166015625,12.15,6.227442016601563,11.95,6.227442016601563C11.8,6.227442016601563,11.65,6.3224420166015625,11.55,6.4649420166015625L7.95,15.014942016601562L7.65,15.014942016601562C7.5,15.014942016601562,7.35,15.109942016601563,7.3,15.252442016601563C7.2,15.489942016601562,7.4,15.774942016601562,7.7,15.774942016601562L8.9,15.774942016601562C9.1,15.774942016601562,9.3,15.632442016601562,9.3,15.442442016601563C9.35,15.252442016601563,9.2,15.062442016601562,8.95,15.014942016601562L9.7,13.304942016601563L13,13.304942016601563L13.7,15.014942016601562C13.5,15.062442016601562,13.35,15.204942016601562,13.35,15.442442016601563C13.4,15.632442016601562,13.55,15.774942016601562,13.75,15.774942016601562L16.25,15.774942016601562C16.4,15.774942016601562,16.55,15.679942016601563,16.6,15.537442016601563C16.8,15.252442016601563,16.6,15.014942016601562,16.3,15.014942016601562ZM9.95,12.497442016601562L11.3,9.362442016601562L12.65,12.497442016601562L9.95,12.497442016601562ZM4.05,10.929942016601562C4.05,11.072442016601563,4.2,11.167442016601562,4.3,11.167442016601562C4.4,11.167442016601562,4.55,11.024942016601562,4.55,10.929942016601562L4.55,10.407442016601562C4.55,10.264942016601562,4.4,10.169942016601563,4.3,10.169942016601563C4.2,10.169942016601563,4.05,10.312442016601562,4.05,10.407442016601562L4.05,10.929942016601562ZM4.05,9.267442016601564C4.05,9.409942016601562,4.2,9.504942016601563,4.3,9.504942016601563C4.4,9.504942016601563,4.55,9.362442016601562,4.55,9.267442016601564L4.55,8.744942016601563C4.55,8.602442016601563,4.4,8.507442016601562,4.3,8.507442016601562C4.2,8.507442016601562,4.05,8.649942016601562,4.05,8.744942016601563L4.05,9.267442016601564ZM4.05,12.592442016601563C4.05,12.734942016601563,4.2,12.829942016601562,4.3,12.829942016601562C4.4,12.829942016601562,4.55,12.687442016601562,4.55,12.592442016601563L4.55,12.069942016601562C4.55,11.927442016601562,4.4,11.832442016601563,4.3,11.832442016601563C4.2,11.832442016601563,4.05,11.974942016601563,4.05,12.069942016601562L4.05,12.592442016601563ZM4.3,7.842442016601563C4.45,7.842442016601563,4.55,7.699942016601563,4.55,7.604942016601562L4.55,7.034942016601562C4.55,6.892442016601562,4.4,6.797442016601563,4.3,6.797442016601563C4.2,6.797442016601563,4.05,6.939942016601563,4.05,7.082442016601563L4.05,7.604942016601562C4.05,7.747442016601562,4.15,7.842442016601563,4.3,7.842442016601563ZM4.05,14.254942016601563C4.05,14.397442016601563,4.2,14.492442016601563,4.3,14.492442016601563C4.4,14.492442016601563,4.55,14.349942016601563,4.55,14.254942016601563L4.55,13.732442016601562C4.55,13.589942016601562,4.4,13.494942016601563,4.3,13.494942016601563C4.2,13.494942016601563,4.05,13.637442016601563,4.05,13.732442016601562L4.05,14.254942016601563ZM4.05,15.917442016601562C4.05,16.05994201660156,4.15,16.154942016601563,4.3,16.154942016601563C4.45,16.154942016601563,4.55,16.01244201660156,4.55,15.917442016601562L4.55,15.394942016601563C4.55,15.252442016601563,4.4,15.157442016601562,4.3,15.157442016601562C4.2,15.157442016601562,4.05,15.299942016601562,4.05,15.394942016601563L4.05,15.917442016601562ZM19.4,10.929942016601562C19.4,11.072442016601563,19.55,11.167442016601562,19.65,11.167442016601562C19.75,11.167442016601562,19.9,11.024942016601562,19.9,10.929942016601562L19.9,10.407442016601562C19.9,10.264942016601562,19.75,10.169942016601563,19.65,10.169942016601563C19.55,10.169942016601563,19.4,10.312442016601562,19.4,10.407442016601562L19.4,10.929942016601562ZM19.4,9.267442016601564C19.4,9.409942016601562,19.55,9.504942016601563,19.65,9.504942016601563C19.75,9.504942016601563,19.9,9.362442016601562,19.9,9.267442016601564L19.9,8.744942016601563C19.9,8.602442016601563,19.75,8.507442016601562,19.65,8.507442016601562C19.55,8.507442016601562,19.4,8.649942016601562,19.4,8.744942016601563L19.4,9.267442016601564ZM19.4,12.592442016601563C19.4,12.734942016601563,19.55,12.829942016601562,19.65,12.829942016601562C19.75,12.829942016601562,19.9,12.687442016601562,19.9,12.592442016601563L19.9,12.069942016601562C19.9,11.927442016601562,19.75,11.832442016601563,19.65,11.832442016601563C19.55,11.832442016601563,19.4,11.974942016601563,19.4,12.069942016601562L19.4,12.592442016601563ZM19.65,7.842442016601563C19.8,7.842442016601563,19.9,7.699942016601563,19.9,7.604942016601562L19.9,7.034942016601562C19.9,6.892442016601562,19.75,6.797442016601563,19.65,6.797442016601563C19.5,6.797442016601563,19.4,6.939942016601563,19.4,7.034942016601562L19.4,7.557442016601563C19.4,7.747442016601562,19.5,7.842442016601563,19.65,7.842442016601563ZM19.4,14.254942016601563C19.4,14.397442016601563,19.55,14.492442016601563,19.65,14.492442016601563C19.75,14.492442016601563,19.9,14.349942016601563,19.9,14.254942016601563L19.9,13.732442016601562C19.9,13.589942016601562,19.75,13.494942016601563,19.65,13.494942016601563C19.55,13.494942016601563,19.4,13.637442016601563,19.4,13.732442016601562L19.4,14.254942016601563ZM19.4,15.917442016601562C19.4,16.05994201660156,19.55,16.154942016601563,19.65,16.154942016601563C19.75,16.154942016601563,19.9,16.01244201660156,19.9,15.917442016601562L19.9,15.394942016601563C19.9,15.252442016601563,19.75,15.157442016601562,19.65,15.157442016601562C19.55,15.157442016601562,19.4,15.299942016601562,19.4,15.394942016601563L19.4,15.917442016601562ZM11.4,18.529942016601563L10.85,18.529942016601563C10.7,18.529942016601563,10.6,18.672442016601565,10.6,18.767442016601564C10.6,18.862442016601562,10.75,19.00494201660156,10.85,19.00494201660156L11.4,19.00494201660156C11.55,19.00494201660156,11.65,18.862442016601562,11.65,18.767442016601564C11.65,18.672442016601565,11.55,18.529942016601563,11.4,18.529942016601563ZM9.65,18.529942016601563L9.1,18.529942016601563C8.95,18.529942016601563,8.85,18.672442016601565,8.85,18.767442016601564C8.85,18.862442016601562,9,19.00494201660156,9.1,19.00494201660156L9.65,19.00494201660156C9.8,19.00494201660156,9.9,18.862442016601562,9.9,18.767442016601564C9.9,18.672442016601565,9.8,18.529942016601563,9.65,18.529942016601563ZM13.15,18.529942016601563L12.6,18.529942016601563C12.45,18.529942016601563,12.35,18.672442016601565,12.35,18.767442016601564C12.35,18.862442016601562,12.5,19.00494201660156,12.6,19.00494201660156L13.15,19.00494201660156C13.3,19.00494201660156,13.4,18.862442016601562,13.4,18.767442016601564C13.4,18.672442016601565,13.3,18.529942016601563,13.15,18.529942016601563ZM7.85,18.529942016601563L7.3,18.529942016601563C7.15,18.529942016601563,7.05,18.672442016601565,7.05,18.767442016601564C7.05,18.862442016601562,7.2,19.00494201660156,7.3,19.00494201660156L7.85,19.00494201660156C8,19.00494201660156,8.1,18.862442016601562,8.1,18.767442016601564C8.1,18.672442016601565,8.05,18.529942016601563,7.85,18.529942016601563ZM6.15,18.33994201660156L5.3,18.33994201660156L5.3,18.102442016601564C5.3,17.959942016601563,5.15,17.81744201660156,5,17.81744201660156L4.6,17.81744201660156L4.6,16.962442016601564C4.6,16.819942016601562,4.45,16.67744201660156,4.35,16.67744201660156C4.25,16.67744201660156,4.1,16.819942016601562,4.1,16.962442016601564L4.1,17.81744201660156L3.8,17.81744201660156C3.65,17.81744201660156,3.5,17.959942016601563,3.5,18.102442016601564L3.5,19.242442016601565C3.5,19.432442016601563,3.65,19.57494201660156,3.8,19.57494201660156L5,19.57494201660156C5.15,19.57494201660156,5.3,19.432442016601563,5.3,19.289942016601564L5.3,19.05244201660156L6.1,19.05244201660156C6.25,19.00494201660156,6.4,18.862442016601562,6.4,18.719942016601564Q6.4,18.577442016601562,6.15,18.33994201660156ZM14.9,18.529942016601563L14.35,18.529942016601563C14.2,18.529942016601563,14.1,18.672442016601565,14.1,18.767442016601564C14.1,18.862442016601562,14.25,19.00494201660156,14.35,19.00494201660156L14.9,19.00494201660156C15.05,19.00494201660156,15.15,18.862442016601562,15.15,18.767442016601564C15.15,18.672442016601565,15.05,18.529942016601563,14.9,18.529942016601563ZM16.65,18.529942016601563L16.1,18.529942016601563C15.95,18.529942016601563,15.85,18.672442016601565,15.85,18.767442016601564C15.85,18.862442016601562,16,19.00494201660156,16.1,19.00494201660156L16.65,19.00494201660156C16.8,19.00494201660156,16.9,18.862442016601562,16.9,18.767442016601564C16.9,18.672442016601565,16.8,18.529942016601563,16.65,18.529942016601563ZM10.85,4.469942016601562L11.4,4.469942016601562C11.55,4.469942016601562,11.65,4.327442016601562,11.65,4.232442016601563C11.65,4.137442016601563,11.5,3.9949420166015623,11.4,3.9949420166015623L10.85,3.9949420166015623C10.7,3.9949420166015623,10.6,4.137442016601563,10.6,4.232442016601563C10.6,4.327442016601562,10.7,4.469942016601562,10.85,4.469942016601562ZM9.1,4.469942016601562L9.65,4.469942016601562C9.8,4.469942016601562,9.9,4.327442016601562,9.9,4.232442016601563C9.9,4.137442016601563,9.75,3.9949420166015623,9.65,3.9949420166015623L9.1,3.9949420166015623C8.95,3.9949420166015623,8.85,4.137442016601563,8.85,4.232442016601563C8.85,4.327442016601562,8.95,4.469942016601562,9.1,4.469942016601562ZM12.6,4.469942016601562L13.15,4.469942016601562C13.3,4.469942016601562,13.4,4.327442016601562,13.4,4.232442016601563C13.4,4.137442016601563,13.25,3.9949420166015623,13.15,3.9949420166015623L12.6,3.9949420166015623C12.45,3.9949420166015623,12.35,4.137442016601563,12.35,4.232442016601563C12.35,4.327442016601562,12.45,4.469942016601562,12.6,4.469942016601562ZM7.35,4.469942016601562L7.9,4.469942016601562C8.05,4.469942016601562,8.15,4.327442016601562,8.15,4.232442016601563C8.15,4.137442016601563,8.05,3.9474420166015625,7.9,3.9474420166015625L7.35,3.9474420166015625C7.2,3.9474420166015625,7.1,4.0899420166015625,7.1,4.232442016601563C7.1,4.374942016601563,7.15,4.469942016601562,7.35,4.469942016601562ZM6.1,3.9474420166015625L5.3,3.9474420166015625L5.3,3.7099420166015626C5.3,3.5674420166015626,5.15,3.4249420166015625,5,3.4249420166015625L3.8,3.4249420166015625C3.65,3.4249420166015625,3.5,3.5674420166015626,3.5,3.7099420166015626L3.5,4.849942016601562C3.5,4.992442016601562,3.65,5.1349420166015625,3.8,5.1349420166015625L4.05,5.1349420166015625L4.05,5.894942016601563C4.1,6.037442016601562,4.25,6.179942016601562,4.4,6.179942016601562Q4.55,6.179942016601562,4.8,5.894942016601563L4.8,5.1349420166015625L5,5.1349420166015625C5.15,5.1349420166015625,5.3,4.992442016601562,5.3,4.849942016601562L5.3,4.469942016601562L6.1,4.469942016601562C6.25,4.469942016601562,6.35,4.327442016601562,6.35,4.232442016601563C6.4,4.042442016601562,6.3,3.9474420166015625,6.1,3.9474420166015625ZM14.35,4.469942016601562L14.9,4.469942016601562C15.05,4.469942016601562,15.15,4.327442016601562,15.15,4.232442016601563C15.15,4.137442016601563,15,3.9949420166015623,14.9,3.9949420166015623L14.35,3.9949420166015623C14.2,3.9949420166015623,14.1,4.137442016601563,14.1,4.232442016601563C14.1,4.327442016601562,14.2,4.469942016601562,14.35,4.469942016601562ZM16.1,4.469942016601562L16.65,4.469942016601562C16.8,4.469942016601562,16.9,4.374942016601563,16.9,4.232442016601563C16.9,4.0899420166015625,16.75,3.9949420166015623,16.65,3.9949420166015623L16.1,3.9949420166015623C15.95,3.9949420166015623,15.85,4.137442016601563,15.85,4.232442016601563C15.85,4.327442016601562,15.95,4.469942016601562,16.1,4.469942016601562ZM20.2,3.4249420166015625L19,3.4249420166015625C18.85,3.4249420166015625,18.7,3.5674420166015626,18.7,3.7099420166015626L18.7,3.9474420166015625L17.9,3.9474420166015625C17.75,3.9949420166015623,17.6,4.137442016601563,17.6,4.279942016601563Q17.6,4.422442016601563,17.9,4.659942016601563L18.7,4.659942016601563L18.7,4.849942016601562C18.7,4.992442016601562,18.85,5.1349420166015625,19,5.1349420166015625L19.45,5.1349420166015625L19.45,5.989942016601562C19.45,6.132442016601562,19.6,6.274942016601562,19.7,6.274942016601562C19.8,6.274942016601562,19.95,6.132442016601562,19.95,5.989942016601562L19.95,5.1349420166015625L20.2,5.1349420166015625C20.35,5.1349420166015625,20.5,5.039942016601563,20.5,4.849942016601562L20.5,3.7099420166015626C20.5,3.5674420166015626,20.35,3.4249420166015625,20.2,3.4249420166015625ZM20.2,17.81744201660156L19.95,17.81744201660156L19.95,17.057442016601563C19.9,16.914942016601564,19.75,16.772442016601563,19.6,16.772442016601563Q19.45,16.772442016601563,19.2,17.057442016601563L19.2,17.81744201660156L18.95,17.81744201660156C18.8,17.81744201660156,18.65,17.959942016601563,18.65,18.102442016601564L18.65,18.529942016601563L17.85,18.529942016601563C17.7,18.529942016601563,17.6,18.672442016601565,17.6,18.767442016601564C17.6,18.862442016601562,17.75,19.00494201660156,17.85,19.00494201660156L18.65,19.00494201660156L18.65,19.242442016601565C18.65,19.384942016601563,18.8,19.52744201660156,18.95,19.52744201660156L20.15,19.52744201660156C20.3,19.52744201660156,20.45,19.384942016601563,20.45,19.242442016601565L20.45,18.149942016601564C20.5,17.959942016601563,20.35,17.81744201660156,20.2,17.81744201660156Z" fill="#2589FF" fill-opacity="1"/></g></g></g></svg>