<svg xmlns="http://www.w3.org/2000/svg" xmlns:xlink="http://www.w3.org/1999/xlink" fill="none" version="1.1" width="24" height="24" viewBox="0 0 24 24"><defs><clipPath id="master_svg0_4122_02047"><rect x="0" y="0" width="24" height="24" rx="0"/></clipPath><clipPath id="master_svg1_4122_02048"><rect x="2" y="2" width="20" height="20" rx="0"/></clipPath></defs><g><g clip-path="url(#master_svg0_4122_02047)"></g><g clip-path="url(#master_svg1_4122_02048)"><g><path d="M19.9881,4.75317150390625L13.6569,4.75317150390625L13.6569,3.26129150390625L3.25,4.86754150390625L3.25,18.94689150390625L13.6569,20.73939150390625L13.6569,18.52819150390625L19.9881,18.52819150390625C20.3873,18.548391503906252,20.7278,18.24229150390625,20.75,17.843191503906247L20.75,5.43754150390625C20.7275,5.03871150390625,20.3871,4.73293150390625,19.9881,4.75317150390625ZM20.0881,17.95689150390625L13.6356,17.95689150390625L13.625,16.77629150390625L15.1794,16.77629150390625L15.1794,15.40129150390625L13.6131,15.40129150390625L13.6056,14.58879150390625L15.1794,14.58879150390625L15.1794,13.21379150390625L13.5938,13.21379150390625L13.5863,12.40129150390625L15.1794,12.40129150390625L15.1794,11.02629150390625L13.5813,11.02629150390625L13.5813,10.21379150390625L15.1794,10.21379150390625L15.1794,8.83879150390625L13.5813,8.83879150390625L13.5813,8.02629150390625L15.1794,8.02629150390625L15.1794,6.651291503906251L13.5813,6.651291503906251L13.5813,5.401291503906251L20.0881,5.401291503906251L20.0881,17.95689150390625Z" fill-rule="evenodd" fill="#20744A" fill-opacity="1"/></g><g><rect x="16.0546875" y="6.64935302734375" width="2.7018749713897705" height="1.375" rx="0" fill="#20744A" fill-opacity="1"/></g><g><rect x="16.0546875" y="8.83746337890625" width="2.7018749713897705" height="1.375" rx="0" fill="#20744A" fill-opacity="1"/></g><g><rect x="16.0546875" y="11.02557373046875" width="2.7018749713897705" height="1.375" rx="0" fill="#20744A" fill-opacity="1"/></g><g><rect x="16.0546875" y="13.21368408203125" width="2.7018749713897705" height="1.375" rx="0" fill="#20744A" fill-opacity="1"/></g><g><rect x="16.0546875" y="15.402099609375" width="2.7018749713897705" height="1.375" rx="0" fill="#20744A" fill-opacity="1"/></g><g><path d="M5.96705078125,8.67057861328125L7.30830078125,8.59370361328125L8.15143078125,10.91182361328125L9.14767078125,8.49807871328125L10.48892078125,8.42120361328125L8.86017078125,11.71245361328125L10.48892078125,15.011823613281251L9.07080078125,14.916203613281251L8.11330078125,12.40120361328125L7.1551807812499995,14.820573613281251L5.85205078125,14.705583613281249L7.36580078125,11.791203613281251L5.96705078125,8.67057861328125Z" fill="#FFFFFF" fill-opacity="1"/></g></g></g></svg>