<svg xmlns="http://www.w3.org/2000/svg" xmlns:xlink="http://www.w3.org/1999/xlink" fill="none" version="1.1" width="24" height="24" viewBox="0 0 24 24"><g><g><g><path d="M17.4375,9.9375L17.4375,15.9375L15.1875,14.4375L12.9375,15.9375L12.9375,9.9375L17.4375,9.9375Z" fill="#38363C" fill-opacity="1"/></g><g><path d="M21.1875,18.1875Q21.1875,19.119500000000002,20.5285,19.7785Q19.8695,20.4375,18.9375,20.4375L5.4375,20.4375Q4.50552,20.4375,3.84651,19.7785Q3.1875,19.119500000000002,3.187500119209,18.1875L3.1875,4.6875C3.1875,4.273286,3.523286,3.9375,3.9375,3.9375L9.9375,3.9375C10.17357,3.9375,10.395859999999999,4.048646,10.5375,4.2375L12.5625,6.9375L20.4375,6.9375C20.8517,6.9375,21.1875,7.273289999999999,21.1875,7.6875L21.1875,18.1875ZM19.6875,18.1875L19.6875,8.4375L12.1875,8.4375C11.95143,8.4375,11.72914,8.32635,11.5875,8.1375L9.5625,5.4375L4.6875,5.4375L4.6875,18.1875Q4.6875,18.4982,4.90717,18.7178Q5.12684,18.9375,5.4375,18.9375L18.9375,18.9375Q19.2482,18.9375,19.4678,18.7178Q19.6875,18.4982,19.6875,18.1875Z" fill-rule="evenodd" fill="#38363C" fill-opacity="1"/></g></g></g></svg>