<svg xmlns="http://www.w3.org/2000/svg" xmlns:xlink="http://www.w3.org/1999/xlink" fill="none" version="1.1" width="24" height="24" viewBox="0 0 24 24"><defs><clipPath id="master_svg0_799_37556"><rect x="0" y="0" width="24" height="24" rx="0"/></clipPath><clipPath id="master_svg1_3105_3988"><rect x="0" y="0" width="24" height="24" rx="0"/></clipPath></defs><g clip-path="url(#master_svg0_799_37556)"><g clip-path="url(#master_svg1_3105_3988)"></g><g><g><path d="M22,12C22,17.5228,17.5228,22,12,22C6.47715,22,2,17.5228,2,12C2,6.47715,6.47715,2,12,2C17.5228,2,22,6.47715,22,12ZM20.5,12Q20.5,10.37868,19.9032,8.8712Q19.2552,7.23439,18.0104,5.98959Q16.7656,4.7448,15.1288,4.0968Q13.6213,3.5,12,3.5Q10.37868,3.5,8.8712,4.0968Q7.23439,4.7448,5.98959,5.98959Q4.7448,7.23439,4.0968,8.8712Q3.5,10.37868,3.5,12Q3.5,13.6213,4.0968,15.1288Q4.7448,16.7656,5.98959,18.0104Q7.23439,19.2552,8.8712,19.9032Q10.37868,20.5,12,20.5Q13.6213,20.5,15.1288,19.9032Q16.7656,19.2552,18.0104,18.0104Q19.2552,16.7656,19.9032,15.1288Q20.5,13.6213,20.5,12Z" fill-rule="evenodd" fill="#38363C" fill-opacity="1"/></g><g><path d="M12.44728,15.79496544921875C12.69205,15.79496544921875,12.89047,15.99339544921875,12.89047,16.23814544921875C12.89047,16.23814544921875,12.89047,17.124535449218747,12.89047,17.124535449218747C12.89047,17.36923544921875,12.69205,17.567735449218752,12.44728,17.567735449218752C12.44728,17.567735449218752,11.560929999999999,17.567735449218752,11.560929999999999,17.567735449218752C11.31616,17.567735449218752,11.11774,17.36923544921875,11.11774,17.124535449218747C11.11774,17.124535449218747,11.11774,16.23814544921875,11.11774,16.23814544921875C11.11774,15.99339544921875,11.31616,15.79496544921875,11.560929999999999,15.79496544921875C11.560929999999999,15.79496544921875,12.44728,15.79496544921875,12.44728,15.79496544921875C12.44728,15.79496544921875,12.44728,15.79496544921875,12.44728,15.79496544921875ZM11.878219999999999,6.93133544921875C12.93186,6.93133544921875,13.80714,7.18648544921875,14.50411,7.6967854492187495C15.201080000000001,8.20709544921875,15.54956,8.96309544921875,15.54956,9.96481544921875C15.54956,10.57906544921875,15.39805,11.09645544921875,15.09502,11.516985449218751C14.91785,11.77215544921875,14.577539999999999,12.09817544921875,14.07403,12.49507544921875C14.07403,12.49507544921875,13.57753,12.88489544921875,13.57753,12.88489544921875C13.30714,13.09751544921875,13.12765,13.34557544921875,13.03908,13.629095449218749C13.01497,13.70646544921875,12.99377,13.85027544921875,12.97552,14.06056544921875C12.95565,14.28961544921875,12.7639,14.46541544921875,12.533999999999999,14.46541544921875C12.533999999999999,14.46541544921875,11.54179,14.46541544921875,11.54179,14.46541544921875C11.29703,14.46541544921875,11.09862,14.26699544921875,11.09862,14.022235449218751C11.09862,14.00860544921875,11.09925,13.994985449218749,11.10051,13.981415449218751C11.15756,13.36459544921875,11.218679999999999,12.97427544921875,11.28382,12.81046544921875C11.40503,12.50571544921875,11.71739,12.15487544921875,12.220880000000001,11.75795544921875C12.220880000000001,11.75795544921875,12.73138,11.353975449218751,12.73138,11.353975449218751C12.89921,11.22638544921875,13.76404,10.61740544921875,13.76404,10.07821544921875C13.76404,9.53902544921875,13.670110000000001,9.34069544921875,13.39939,9.04477544921875C13.12867,8.74885544921875,12.51926,8.65360544921875,11.96914,8.65360544921875C11.42835,8.65360544921875,10.96621,8.79722544921875,10.74011,9.16105544921875C10.635390000000001,9.32956544921875,10.54975,9.50932544921875,10.488,9.69274544921875C10.4637,9.76489544921875,10.44216,9.85569544921875,10.42341,9.96508544921875C10.38693,10.17784544921875,10.20246,10.33336544921875,9.98659,10.33336544921875C9.98659,10.33336544921875,8.94319,10.33336544921875,8.94319,10.33336544921875C8.698435,10.33337544921875,8.5,10.13494544921875,8.5,9.89017544921875C8.5,9.87344544921875,8.500959873,9.85674544921875,8.50285006,9.84012544921875C8.5140996,9.741045449218749,8.5256495,9.65863544921875,8.5374551,9.59287544921875C8.71024,8.63065544921875,9.147835,7.92303044921875,9.850249999999999,7.46998544921875C10.40038,7.11088544921875,11.07635,6.93133544921875,11.878219999999999,6.93133544921875C11.878219999999999,6.93133544921875,11.878219999999999,6.93133544921875,11.878219999999999,6.93133544921875Z" fill-rule="evenodd" fill="#38363C" fill-opacity="1"/></g></g></g></svg>