<svg xmlns="http://www.w3.org/2000/svg" xmlns:xlink="http://www.w3.org/1999/xlink" fill="none" version="1.1" width="24" height="24" viewBox="0 0 24 24"><defs><clipPath id="master_svg0_234_14812"><rect x="0" y="0" width="24" height="24" rx="0"/></clipPath><clipPath id="master_svg1_3125_4252"><rect x="0" y="0" width="24" height="24" rx="0"/></clipPath></defs><g clip-path="url(#master_svg0_234_14812)"><g clip-path="url(#master_svg1_3125_4252)"></g><g><g><g><path d="M11.8266,12.55154Q10.91667,13.8514,10.91667,15.5Q10.91667,15.5985,10.935880000000001,15.6951Q10.9551,15.7917,10.99279,15.8827Q11.03048,15.9737,11.0852,16.0556Q11.13992,16.1375,11.20956,16.2071Q11.2792,16.276699999999998,11.3611,16.3315Q11.44299,16.386200000000002,11.53398,16.4239Q11.62498,16.4616,11.72158,16.480800000000002Q11.81818,16.5,11.91667,16.5Q12.01516,16.5,12.11176,16.480800000000002Q12.208359999999999,16.4616,12.29935,16.4239Q12.39034,16.386200000000002,12.47224,16.3315Q12.55413,16.276699999999998,12.62377,16.2071Q12.69342,16.1375,12.74814,16.0556Q12.80285,15.9737,12.84055,15.8827Q12.87824,15.7917,12.89745,15.6951Q12.91667,15.5985,12.91667,15.5Q12.91667,14.4819,13.46507,13.6985Q13.83009,13.177,14.90079,12.25926Q16.163420000000002,11.177,16.6734,10.44846Q17.5833,9.14856,17.5833,7.5Q17.5833,5.08756,15.86778,3.718401Q14.34113,2.5,11.91667,2.5L11.89022,2.5L11.86382,2.501397Q8.79668,2.663721,6.563783,4.7726L6.563489,4.77288L6.563322,4.77304Q6.41333,4.91472,6.331665,5.1042000000000005Q6.25,5.2936700000000005,6.25,5.5Q6.25,5.59849,6.269215,5.69509Q6.28843,5.79169,6.326121,5.882680000000001Q6.363812,5.97368,6.41853,6.0555699999999995Q6.473249,6.13746,6.542893,6.20711Q6.612537,6.27675,6.69443,6.3314699999999995Q6.776322,6.38619,6.867317,6.4238800000000005Q6.958311,6.46157,7.05491,6.48078Q7.1515086,6.5,7.25,6.5Q7.4415189999999996,6.5,7.619485,6.42924Q7.797451,6.3584700000000005,7.936678,6.22696Q9.62607,4.63119,11.94315,4.50005Q13.64841,4.50601,14.62022,5.2816Q15.58333,6.05025,15.58333,7.5Q15.58333,8.51811,15.034939999999999,9.30154Q14.669920000000001,9.823,13.59921,10.740739999999999Q12.33658,11.82299,11.8266,12.55154Z" fill-rule="evenodd" fill="#38363C" fill-opacity="1"/></g><g><ellipse cx="11.916667222976685" cy="20.166666388511658" rx="1.3333334922790527" ry="1.3333333730697632" fill="#38363C" fill-opacity="1"/></g></g></g></g></svg>