<svg xmlns="http://www.w3.org/2000/svg" xmlns:xlink="http://www.w3.org/1999/xlink" fill="none" version="1.1" width="24" height="24" viewBox="0 0 24 24"><defs><clipPath id="master_svg0_5211_05370"><rect x="0" y="0" width="24" height="24" rx="0"/></clipPath></defs><g clip-path="url(#master_svg0_5211_05370)"><g><path d="M8.5,21.75Q8.57387,21.75,8.64632,21.735599999999998Q8.71877,21.7212,8.78701,21.6929Q8.855260000000001,21.6646,8.91668,21.6236Q8.978100000000001,21.5826,9.03033,21.5303Q9.08256,21.478099999999998,9.1236,21.4167Q9.16464,21.3553,9.192910000000001,21.287Q9.22118,21.2188,9.23559,21.1463Q9.25,21.073900000000002,9.25,21L9.25,10Q9.25,9.275127,8.73744,8.762563Q8.22487,8.25,7.5,8.25L3,8.25Q2.275126,8.25,1.762563,8.762563Q1.25,9.275126,1.25,10L1.25,20Q1.25,20.724899999999998,1.762563,21.2374Q2.275127,21.75,3,21.75L8.5,21.75ZM7.75,20.25L7.75,10Q7.75,9.75,7.5,9.75L3,9.75Q2.75,9.75,2.75,10L2.75,20Q2.75,20.25,3,20.25L7.75,20.25Z" fill-rule="evenodd" fill="#000000" fill-opacity="1"/></g><g><path d="M15,21.75Q15.07387,21.75,15.14632,21.7356Q15.21877,21.7212,15.28701,21.6929Q15.355260000000001,21.6646,15.41668,21.6236Q15.478100000000001,21.5826,15.53033,21.5303Q15.58256,21.4781,15.6236,21.4167Q15.66464,21.3553,15.692910000000001,21.287Q15.72118,21.2188,15.73559,21.1463Q15.75,21.0739,15.75,21L15.75,4Q15.75,3.275127,15.23744,2.762563Q14.72487,2.25,14,2.25L9.5,2.25Q8.775126,2.25,8.262563,2.762563Q7.75,3.275126,7.75,4L7.75,21Q7.75,21.0739,7.764411,21.1463Q7.778822,21.2188,7.80709,21.287Q7.835359,21.3553,7.876398,21.4167Q7.917437,21.4781,7.96967,21.5303Q8.021903,21.5826,8.083322,21.6236Q8.144742,21.6646,8.212987,21.6929Q8.281233,21.7212,8.353682,21.7356Q8.4261315,21.75,8.5,21.75L15,21.75ZM14.25,20.25L14.25,4Q14.25,3.75,14,3.75L9.5,3.75Q9.25,3.75,9.25,4L9.25,20.25L14.25,20.25Z" fill-rule="evenodd" fill="#000000" fill-opacity="1"/></g><g><path d="M21.73744,21.23744Q22.25,20.72487,22.25,20L22.25,14Q22.25,13.275126,21.73744,12.762563Q21.22487,12.25,20.5,12.25L16,12.25Q15.275126,12.25,14.762563,12.762563Q14.25,13.275126,14.25,14L14.25,21Q14.25,21.07387,14.264410999999999,21.14632Q14.278822,21.21877,14.30709,21.287010000000002Q14.335359,21.35526,14.376398,21.41668Q14.417437,21.478099999999998,14.46967,21.53033Q14.521903,21.58256,14.583322,21.6236Q14.644742,21.66464,14.712987,21.692909999999998Q14.781233,21.72118,14.853682,21.735590000000002Q14.9261315,21.75,15,21.75L20.5,21.75Q21.22487,21.75,21.73744,21.23744ZM20.75,14L20.75,20Q20.75,20.25,20.5,20.25L15.75,20.25L15.75,14Q15.75,13.75,16,13.75L20.5,13.75Q20.60355,13.75,20.67678,13.823223Q20.75,13.896447,20.75,14Z" fill-rule="evenodd" fill="#000000" fill-opacity="1"/></g></g></svg>