<svg xmlns="http://www.w3.org/2000/svg" xmlns:xlink="http://www.w3.org/1999/xlink" fill="none" version="1.1" width="24" height="24" viewBox="0 0 24 24"><defs><clipPath id="master_svg0_5212_06389"><rect x="0" y="0" width="24" height="24" rx="0"/></clipPath></defs><g clip-path="url(#master_svg0_5212_06389)"><g style="opacity:0.4000000059604645;"><path d="M21.32347662109375,12.5413818359375L16.16253662109375,12.5413818359375L16.16253662109375,19.999191835937502L21.34690662109375,19.999191835937502C21.97269662109375,19.999191835937502,22.483626621093748,19.4859118359375,22.483626621093748,18.8531018359375L22.483626621093748,13.7062218359375C22.483626621093748,13.0640378359375,21.96331662109375,12.5413818359375,21.32347662109375,12.5413818359375Z" fill="#FAC814" fill-opacity="1"/></g><g><path d="M16.1624217578125,5.151542939453125C16.1624217578125,4.516387939453125,15.6514917578125,4.000762939453125,15.0257117578125,4.000762939453125L9.4522717578125,4.000762939453125C8.8264887578125,4.000762939453125,8.3155517578125,4.516387939453125,8.3155517578125,5.151542939453125L8.3155517578125,19.999162939453125L16.1624217578125,19.999162939453125L16.1624217578125,5.151542939453125Z" fill="#FAC814" fill-opacity="1"/></g><g style="opacity:0.6000000238418579;"><path d="M1.5164794921875,10.7765844140625L1.5164794921875,18.8531544140625C1.5164794921875,19.4859644140625,2.0274164921875,19.999274414062498,2.6531994921875,19.999274414062498L8.3180394921875,19.999274414062498L8.3180394921875,9.6187744140625L2.6766394921875003,9.6187744140625C2.0367914921875,9.6187744140625,1.5164794921875,10.1390864140625,1.5164794921875,10.7765844140625Z" fill="#FAC814" fill-opacity="1"/></g><g><path d="M13.51402095703125,13.38514275390625C13.44839095703125,13.44607275390625,13.42027095703125,13.53514275390625,13.43433095703125,13.62420275390625L13.58667095703125,14.57342275390625C13.62183095703125,14.79607275390625,13.38746095703125,14.96248275390625,13.19058095703125,14.85467275390625L12.34917095703125,14.39764275390625C12.27183095703125,14.355452753906249,12.17574095703125,14.35311275390625,12.09605095703125,14.39529275390625L11.23824095703125,14.83357275390625C11.03901895703125,14.93670275390625,10.80933095703125,14.76561275390625,10.84917495703125,14.542952753906249L11.02261195703125,13.600762753906249C11.03901895703125,13.511702753906249,11.01089395703125,13.42264275390625,10.94761195703125,13.35936275390625L10.26089355703125,12.67967275390625C10.10151855703125,12.52264275390625,10.19292475703125,12.25076275390625,10.41323695703125,12.22029275390625L11.37652095703125,12.08670275390625C11.46558095703125,12.07498275390625,11.54058095703125,12.01873275390625,11.58042095703125,11.94139275390625L12.01167095703125,11.08592075390625C12.11246095703125,10.88435855390625,12.40074095703125,10.88904605390625,12.49683095703125,11.09060875390625L12.91636095703125,11.96248275390625C12.95621095703125,12.04217275390625,13.03121095703125,12.09842275390625,13.12027095703125,12.11248275390625L14.069490957031249,12.25779275390625C14.29214095703125,12.292952753906249,14.37886095703125,12.56717275390625,14.214800957031251,12.721862753906251L13.51402095703125,13.38514275390625Z" fill="#F97316" fill-opacity="1"/></g></g></svg>