<svg xmlns="http://www.w3.org/2000/svg" xmlns:xlink="http://www.w3.org/1999/xlink" fill="none" version="1.1" width="24" height="24" viewBox="0 0 24 24"><defs><clipPath id="master_svg0_5042_12519"><rect x="0" y="0" width="24" height="24" rx="0"/></clipPath></defs><g><g clip-path="url(#master_svg0_5042_12519)"></g><g><g><g><g><path d="M9.499999976158142,13.899999976158142L4.000005976158143,13.899999976158142C3.6686349761581423,13.899999976158142,3.399999976158142,14.168634976158142,3.399999976158142,14.500005976158143C3.399999976158142,14.831376976158142,3.6686349761581423,15.099999976158141,4.000005976158143,15.099999976158141L8.899999976158142,15.099999976158141L8.899999976158142,20.000009976158143C8.899999976158142,20.331379976158143,9.168639976158143,20.59999997615814,9.500009976158143,20.59999997615814C9.831379976158143,20.59999997615814,10.099999976158141,20.331379976158143,10.099999976158141,20.000009976158143L10.099999976158141,14.499999976158142C10.099999976158141,14.168628976158143,9.831369976158143,13.899999976158142,9.499999976158142,13.899999976158142Z" fill-rule="evenodd" fill="#38363C" fill-opacity="1"/></g><g><path d="M14.500005976158143,3.399999976158142C14.168634976158142,3.399999976158142,13.899999976158142,3.6686349761581423,13.899999976158142,4.000005976158143L13.899999976158142,9.499999976158142C13.899999976158142,9.831369976158143,14.168628976158143,10.099999976158141,14.499999976158142,10.099999976158141L20.000009976158143,10.099999976158141C20.331379976158143,10.099999976158141,20.59999997615814,9.831379976158143,20.59999997615814,9.500009976158143C20.59999997615814,9.168639976158143,20.331379976158143,8.899999976158142,20.000009976158143,8.899999976158142L15.099999976158141,8.899999976158142L15.099999976158141,4.000005976158143C15.099999976158141,3.6686349761581423,14.831376976158142,3.399999976158142,14.500005976158143,3.399999976158142Z" fill-rule="evenodd" fill="#38363C" fill-opacity="1"/></g></g></g></g></g></svg>