<svg xmlns="http://www.w3.org/2000/svg" xmlns:xlink="http://www.w3.org/1999/xlink" fill="none" version="1.1" width="24" height="24" viewBox="0 0 24 24"><defs><clipPath id="master_svg0_234_14841"><rect x="0" y="0" width="24" height="24" rx="0"/></clipPath><clipPath id="master_svg1_3105_3548"><rect x="0" y="0" width="24" height="24" rx="0"/></clipPath></defs><g clip-path="url(#master_svg0_234_14841)"><g clip-path="url(#master_svg1_3105_3548)"></g><g><g><g><path d="M18.591686823654175,7.486820595703125L18.591686823654175,7.486820595703125Q16.876686823654175,4.794170595703125,13.795386823654175,3.997510595703125Q10.657526823654175,3.186210595703125,7.832036823654175,4.829850595703125Q6.166946823654175,5.7984605957031246,5.1177468236541745,7.399390595703125Q4.112076823654174,8.933880595703126,3.841646823654175,10.776150595703125Q3.571096823654175,12.619260595703125,4.092476823654175,14.388360595703125Q4.636766823654175,16.235160595703125,5.952736823654175,17.660860595703127Q7.264476823654175,19.082060595703126,9.061416823654174,19.746560595703126Q10.781276823654174,20.382560595703126,12.631386823654175,20.218460595703124Q14.482286823654174,20.054260595703123,16.065886823654175,19.124360595703124Q17.721186823654175,18.152460595703126,18.767686823654174,16.518760595703124L18.768386823654176,16.517660595703127C18.906286823654174,16.302360595703124,19.144386823654173,16.172060595703122,19.399986823654174,16.172060595703122C19.814186823654175,16.172060595703122,20.149986823654174,16.507860595703125,20.149986823654174,16.922060595703122C20.149986823654174,17.065460595703126,20.108886823654174,17.205860595703125,20.031586823654173,17.326560595703125Q18.791086823654176,19.263660595703126,16.825386823654174,20.417860595703125Q14.950886823654175,21.518560595703125,12.763986823654175,21.712560595703124Q10.577616823654175,21.906460595703123,8.541166823654175,21.153460595703127Q6.406466823654175,20.364060595703126,4.850486823654174,18.678260595703126Q3.296956823654175,16.995160595703126,2.6536648236541747,14.812360595703124Q2.039162823654175,12.727260595703125,2.3575498236541748,10.558300595703125Q2.6760538236541747,8.388520595703124,3.8631668236541747,6.577170595703125Q5.106536823654174,4.679990595703125,7.077796823654174,3.533270595703125Q10.436166823654174,1.579651595703125,14.170886823654175,2.545260595703125Q15.910286823654175,2.994989595703125,17.372686823654174,4.049100595703125Q18.866486823654174,5.125830595703125,19.856886823654175,6.681100595703125C19.933586823654174,6.801480595703125,19.974286823654175,6.941240595703125,19.974286823654175,7.083960595703125C19.974286823654175,7.498170595703125,19.638486823654176,7.833960595703125,19.224286823654175,7.833960595703125C18.967986823654176,7.833960595703125,18.729386823654174,7.703040595703125,18.591686823654175,7.486820595703125Z" fill-rule="evenodd" fill="#38363C" fill-opacity="1"/></g><g><path d="M15.000010251998901,7.249996781349182L19.249970251998903,7.249996781349182L19.2500102519989,2.499990018929182L20.7500102519989,2.500003543769182L20.7499502519989,8.749996781349182L15.000010251998901,8.749996781349182L15.000010251998901,7.249996781349182Z" fill-rule="evenodd" fill="#38363C" fill-opacity="1"/></g></g></g></g></svg>