<svg xmlns="http://www.w3.org/2000/svg" xmlns:xlink="http://www.w3.org/1999/xlink" fill="none" version="1.1" width="24" height="24" viewBox="0 0 24 24"><g><g><path d="M5.0966357421875,2.9416656494140625C5.0966357421875,2.9677366494140625,5.0950057421874995,2.9937816494140623,5.0917557421875,3.0196476494140625L4.6014857421875,6.918235649414062L8.4394357421875,5.848845649414063L8.4394357421875,5.848845649414063C8.4943357421875,5.833545649414063,8.550765742187501,5.825835649414063,8.6074657421875,5.825835649414063C8.9526457421875,5.825835649414063,9.2324657421875,6.105655649414063,9.2324657421875,6.450835649414063C9.2324657421875,6.731405649414063,9.045505742187501,6.9775856494140625,8.7752257421875,7.052895649414062L4.0318937421875,8.374565649414063C3.8722157421875,8.419055649414062,3.7014037421875,8.398295649414063,3.5570337421875,8.316845649414063C3.4126637421875,8.235395649414063,3.3065626421875,8.099935649414062,3.2620706421875,7.940255649414063C3.2398064431875,7.860355649414062,3.2336702921875,7.776815649414062,3.2440198921875,7.694515649414062L3.8515107421875,2.8637576494140626C3.8908257421875,2.5511196494140624,4.1566107421875,2.3166656494140625,4.4716357421875,2.3166656494140625C4.8168157421875,2.3166656494140625,5.0966357421875,2.5964876494140627,5.0966357421875,2.9416656494140625Z" fill-rule="evenodd" fill="#38363C" fill-opacity="1"/></g><g><path d="M4.950050390625,16.813873505859377Q4.472910390625,16.116153505859376,4.1416903906249996,15.338488505859376C4.043500390625,15.107943505859375,3.817178390625,14.958343505859375,3.566650390625,14.958343505859375C3.2214723906250002,14.958343505859375,2.941650390625,15.238165505859374,2.941650390625,15.583343505859375C2.941650390625,15.667513505859375,2.958651090625,15.750814505859376,2.991632690625,15.828250505859375L2.991632690625,15.828250505859375Q3.371376390625,16.719783505859375,3.918247390625,17.519483505859377C4.0347303906250005,17.689813505859377,4.227790390625,17.791673505859375,4.434150390625,17.791673505859375C4.779330390625,17.791673505859375,5.059150390625,17.511853505859374,5.059150390625,17.166673505859375C5.059150390625,17.040773505859374,5.021120390625001,16.917803505859375,4.950050390625,16.813873505859377Z" fill-rule="evenodd" fill="#38363C" fill-opacity="1"/></g><g><path d="M8.0562532421875,19.572647993652343Q7.9097632421875,19.499403993652344,7.7691602421875,19.415921893652342C7.6725982421875,19.358588393652344,7.5623732421875,19.328330993652344,7.4500732421875,19.328330993652344C7.1048952421875,19.328330993652344,6.8250732421875,19.608152993652343,6.8250732421875,19.953330993652344C6.8250732421875,20.173896993652345,6.9413312421875,20.378130993652345,7.1309862421875,20.490740993652345Q7.3103852421875,20.597260993652345,7.4972302421875,20.690680993652343Q8.1468132421875,21.028420993652343,8.8489732421875,21.268140993652345C8.9139832421875,21.290340993652343,8.9822132421875,21.301660993652344,9.0509032421875,21.301660993652344C9.3960832421875,21.301660993652344,9.6759032421875,21.021840993652344,9.6759032421875,20.676660993652344C9.6759032421875,20.409310993652344,9.5058532421875,20.171565993652344,9.2528432421875,20.085185993652345Q8.6397832421875,19.875883993652344,8.0562532421875,19.572647993652343Z" fill-rule="evenodd" fill="#38363C" fill-opacity="1"/></g><g><path d="M15.5742139453125,20.67499542236328C15.5742139453125,20.94269242236328,15.4037239453125,21.18066542236328,15.1502539453125,21.26677542236328L15.149373945312501,21.26707542236328Q14.254153945312499,21.57111542236328,13.3174239453125,21.69920542236328L13.3174239453125,21.69920542236328C13.2891459453125,21.70307542236328,13.2608619453125,21.704995422363282,13.2325439453125,21.704995422363282C12.8873659453125,21.704995422363282,12.6075439453125,21.42517542236328,12.6075439453125,21.079995422363282C12.6075439453125,20.767533422363282,12.8383019453125,20.503080422363283,13.1478849453125,20.46075542236328Q13.9661439453125,20.34888842236328,14.7481139453125,20.083229822363283C14.8129039453125,20.061217822363282,14.8808239453125,20.04999542236328,14.9492139453125,20.04999542236328C15.2943839453125,20.04999542236328,15.5742139453125,20.32981742236328,15.5742139453125,20.67499542236328Z" fill-rule="evenodd" fill="#38363C" fill-opacity="1"/></g><g><path d="M20.1916161328125,17.171669006347656C20.1916161328125,17.297390006347655,20.1537061328125,17.420188006347658,20.0828261328125,17.524025006347657Q19.5201161328125,18.348369006347657,18.8026661328125,19.041879006347656C18.6861261328125,19.154529006347655,18.5303761328125,19.217499006347655,18.3682861328125,19.217499006347655C18.0231081328125,19.217499006347655,17.7432861328125,18.937679006347658,17.7432861328125,18.592499006347655C17.7432861328125,18.423069006347657,17.8120788328125,18.260889006347657,17.9339041328125,18.143129006347657Q18.5597101328125,17.538199006347657,19.0504161328125,16.819313006347656C19.1668561328125,16.648717006347656,19.3600661328125,16.546669006347656,19.5666161328125,16.546669006347656C19.9117961328125,16.546669006347656,20.1916161328125,16.826491006347656,20.1916161328125,17.171669006347656Z" fill-rule="evenodd" fill="#38363C" fill-opacity="1"/></g><g><path d="M20.46411640625,13.136619067382812L20.46421640625,13.135219067382813Q20.86391640625,10.163179067382814,19.31781640625,7.593519067382813Q17.771416406249998,5.0232390673828125,14.95751640625,3.9842090673828126Q12.14355640625,2.9451720673828126,9.29783640625,3.8936690673828123Q6.45211640625,4.842169067382812,4.82427640625,7.361669067382812C4.7091464062499995,7.539869067382813,4.51147340625,7.647499067382813,4.29931640625,7.647499067382813C3.9541384062500002,7.647499067382813,3.67431640625,7.367679067382812,3.67431640625,7.022499067382813C3.67431640625,6.902169067382813,3.70905300625,6.784389067382812,3.77435440625,6.683319067382812L3.77435440625,6.683319067382812Q5.64074640625,3.7949990673828125,8.90258640625,2.7078060673828124Q12.16474640625,1.6205040673828126,15.39051640625,2.8115900673828125Q18.61621640625,4.002679067382813,20.38891640625,6.949099067382813Q22.16151640625,9.895329067382812,21.70291640625,13.302919067382813L21.70291640625,13.302919067382813C21.66111640625,13.613519067382812,21.39641640625,13.845019067382813,21.08351640625,13.845019067382813C20.73831640625,13.845019067382813,20.45851640625,13.565219067382813,20.45851640625,13.220019067382813C20.45851640625,13.192119067382812,20.46031640625,13.164219067382813,20.46411640625,13.136619067382812Z" fill-rule="evenodd" fill="#38363C" fill-opacity="1"/></g></g></svg>