<svg xmlns="http://www.w3.org/2000/svg" xmlns:xlink="http://www.w3.org/1999/xlink" fill="none" version="1.1" width="24" height="24" viewBox="0 0 24 24"><defs><clipPath id="master_svg0_5126_08054"><rect x="0" y="0" width="24" height="24" rx="0"/></clipPath><clipPath id="master_svg1_5126_08069"><rect x="2" y="2" width="20" height="20" rx="0"/></clipPath></defs><g><g clip-path="url(#master_svg0_5126_08054)"></g><g clip-path="url(#master_svg1_5126_08069)"><g><g><path d="M20.144983809661866,12.30582962852478L12.645003809661866,3.13916062852478C12.301863809661866,2.75263932852478,11.698143809661865,2.75263932852478,11.355003809661866,3.13916062852478L3.8549998096618654,12.30582962852478C3.6512228096618653,12.55503962852478,3.609216309661865,12.89936962852478,3.7470959096618652,13.19026962852478C3.8850518096618654,13.48116962852478,4.178154809661866,13.66666962852478,4.499999809661865,13.66666962852478L8.666663809661866,13.66666962852478L8.666663809661866,17.33336962852478C8.666663809661866,17.79356962852478,9.039763809661865,18.16666962852478,9.500003809661866,18.16666962852478L14.499983809661865,18.16666962852478C14.960283809661865,18.16666962852478,15.333283809661864,17.79356962852478,15.333283809661864,17.33336962852478L15.333283809661864,13.66666962852478L19.499983809661863,13.66666962852478C19.821883809661866,13.66656962852478,20.114983809661865,13.48116962852478,20.252883809661864,13.19026962852478C20.390783809661865,12.89936962852478,20.348783809661864,12.55503962852478,20.144983809661866,12.30582962852478Z" fill="#38363C" fill-opacity="1"/></g><g><path d="M15.329996984558106,19.666647939071655L15.329996984558106,19.482631939071656C15.329996984558106,19.022393939071655,14.960236984558104,18.649287939071655,14.499996984558106,18.649287939071655L9.499999984558105,18.649303197871657C9.039761984558105,18.649303197871657,8.670000074558105,19.022393939071655,8.670000074558105,19.482631939071656L8.670000074558105,20.149287939071655L8.666666984558105,20.149287939071655L8.666666984558105,20.333317939071655C8.666666984558105,20.793557939071654,9.039762984558106,21.166647939071655,9.499999984558105,21.166647939071655L14.499996984558106,21.166647939071655C14.960236984558104,21.166647939071655,15.333336984558105,20.793557939071654,15.333336984558105,20.333317939071655L15.333336984558105,19.666647939071655L15.329996984558106,19.666647939071655Z" fill-rule="evenodd" fill="#38363C" fill-opacity="1"/></g></g></g></g></svg>