<svg xmlns="http://www.w3.org/2000/svg" xmlns:xlink="http://www.w3.org/1999/xlink" fill="none" version="1.1" width="24" height="24" viewBox="0 0 24 24"><defs><clipPath id="master_svg0_4030_12188"><rect x="0" y="0" width="24" height="24" rx="0"/></clipPath><clipPath id="master_svg1_4030_12198"><rect x="0" y="0" width="24" height="24" rx="0"/></clipPath></defs><g><g clip-path="url(#master_svg0_4030_12188)"></g><g clip-path="url(#master_svg1_4030_12198)"><g><g><path d="M17,17.75L17,13L7,13L7,17.75C7,18.16421,6.66421,18.5,6.25,18.5C5.835786,18.5,5.5,18.16421,5.5,17.75L5.5,12.25C5.5,11.835786,5.835786,11.5,6.25,11.5L17.75,11.5C18.1642,11.5,18.5,11.835786,18.5,12.25L18.5,17.75C18.5,18.16421,18.1642,18.5,17.75,18.5C17.3358,18.5,17,18.16421,17,17.75Z" fill-rule="evenodd" fill="#38363C" fill-opacity="1"/></g><g><path d="M21.5,19Q21.5,20.0355,20.7678,20.7678Q20.0355,21.5,19,21.5L5,21.5Q3.96446,21.5,3.232233,20.7678Q2.499999880791,20.0355,2.500000119209,19L2.5,5Q2.5,3.96447,3.232233,3.232233Q3.96447,2.499999880791,5,2.500000119209L16.375,2.5C16.573900000000002,2.5000000596046,16.764699999999998,2.5790177,16.9053,2.71967L21.2803,7.09467C21.421,7.23532,21.5,7.42609,21.5,7.625L21.5,19ZM20,19L20,7.93566L16.0643,4L5,4Q4.585789999999999,4,4.29289,4.29289Q4,4.585789999999999,4,5L4,19Q4,19.4142,4.29289,19.7071Q4.585789999999999,20,5,20L19,20Q19.4142,20,19.7071,19.7071Q20,19.4142,20,19Z" fill-rule="evenodd" fill="#38363C" fill-opacity="1"/></g><g transform="matrix(0,1,-1,0,21.5,-10.5)"><path d="M18.75,5.5L16.75,5.5C16.335786,5.5,16,5.835786,16,6.25C16,6.66421,16.335786,7,16.75,7L18.75,7C19.16421,7,19.5,6.66421,19.5,6.25C19.5,5.835786,19.16421,5.5,18.75,5.5Z" fill-rule="evenodd" fill="#38363C" fill-opacity="1"/></g></g></g></g></svg>