<svg xmlns="http://www.w3.org/2000/svg" xmlns:xlink="http://www.w3.org/1999/xlink" fill="none" version="1.1" width="24" height="24" viewBox="0 0 24 24"><defs><clipPath id="master_svg0_4300_11402"><rect x="0" y="0" width="24" height="24" rx="0"/></clipPath><clipPath id="master_svg1_4300_12923"><rect x="2" y="2" width="20" height="20" rx="0"/></clipPath></defs><g><g clip-path="url(#master_svg0_4300_11402)"></g><g clip-path="url(#master_svg1_4300_12923)"><g><g><path d="M21.374967938232423,11.583335876464844L3.041667938232422,11.583335876464844C2.696489938232422,11.583335876464844,2.416667938232422,11.863157876464843,2.416667938232422,12.208335876464844C2.416667938232422,12.553513876464844,2.696489938232422,12.833335876464844,3.041667938232422,12.833335876464844L21.374967938232423,12.833335876464844C21.72016793823242,12.833335876464844,21.999967938232423,12.553513876464844,21.999967938232423,12.208335876464844C21.999967938232423,11.863157876464843,21.72016793823242,11.583335876464844,21.374967938232423,11.583335876464844Z" fill-rule="evenodd" fill="#38363C" fill-opacity="1"/></g><g><path d="M8.041747938232422,6.166667938232422L6.166667938232422,6.166667938232422L6.166667938232422,8.041747938232422C6.166667938232422,8.386917938232422,5.886845938232422,8.666747938232422,5.541667938232422,8.666747938232422C5.196489938232422,8.666747938232422,4.916667938232422,8.386917938232422,4.916667938232422,8.041747938232422L4.916667938232422,5.541667938232422C4.916667938232422,5.196489938232422,5.196489938232422,4.916667938232422,5.541667938232422,4.916667938232422L8.041747938232422,4.916667938232422C8.386917938232422,4.916667938232422,8.666747938232422,5.196489938232422,8.666747938232422,5.541667938232422C8.666747938232422,5.886845938232422,8.386917938232422,6.166667938232422,8.041747938232422,6.166667938232422Z" fill-rule="evenodd" fill="#38363C" fill-opacity="1"/></g><g><path d="M18.24999370605469,8.041747938232422L18.24999370605469,6.166667938232422L16.374923706054688,6.166667938232422C16.029745706054687,6.166667938232422,15.749923706054688,5.886845938232422,15.749923706054688,5.541667938232422C15.749923706054688,5.196489938232422,16.029745706054687,4.916667938232422,16.374923706054688,4.916667938232422L18.87499370605469,4.916667938232422C19.220173706054688,4.916667938232422,19.49999370605469,5.196489938232422,19.49999370605469,5.541667938232422L19.49999370605469,8.041747938232422C19.49999370605469,8.386917938232422,19.220173706054688,8.666747938232422,18.87499370605469,8.666747938232422C18.52982370605469,8.666747938232422,18.24999370605469,8.386917938232422,18.24999370605469,8.041747938232422Z" fill-rule="evenodd" fill="#38363C" fill-opacity="1"/></g><g><path d="M16.374923706054688,18.24999370605469L18.24999370605469,18.24999370605469L18.24999370605469,16.374923706054688C18.24999370605469,16.029745706054687,18.52982370605469,15.749923706054688,18.87499370605469,15.749923706054688C19.220173706054688,15.749923706054688,19.49999370605469,16.029745706054687,19.49999370605469,16.374923706054688L19.49999370605469,18.87499370605469C19.49999370605469,19.220173706054688,19.220173706054688,19.49999370605469,18.87499370605469,19.49999370605469L16.374923706054688,19.49999370605469C16.029745706054687,19.49999370605469,15.749923706054688,19.220173706054688,15.749923706054688,18.87499370605469C15.749923706054688,18.52982370605469,16.029745706054687,18.24999370605469,16.374923706054688,18.24999370605469Z" fill-rule="evenodd" fill="#38363C" fill-opacity="1"/></g><g><path d="M6.166667938232422,16.374923706054688L6.166667938232422,18.24999370605469L8.041747938232422,18.24999370605469C8.386917938232422,18.24999370605469,8.666747938232422,18.52982370605469,8.666747938232422,18.87499370605469C8.666747938232422,19.220173706054688,8.386917938232422,19.49999370605469,8.041747938232422,19.49999370605469L5.541667938232422,19.49999370605469C5.196489938232422,19.49999370605469,4.916667938232422,19.220173706054688,4.916667938232422,18.87499370605469L4.916667938232422,16.374923706054688C4.916667938232422,16.029745706054687,5.196489938232422,15.749923706054688,5.541667938232422,15.749923706054688C5.886845938232422,15.749923706054688,6.166667938232422,16.029745706054687,6.166667938232422,16.374923706054688Z" fill-rule="evenodd" fill="#38363C" fill-opacity="1"/></g></g></g></g></svg>