<svg xmlns="http://www.w3.org/2000/svg" xmlns:xlink="http://www.w3.org/1999/xlink" fill="none" version="1.1" width="24" height="24" viewBox="0 0 24 24"><g><g><g><path d="M20.437534291839597,17.587493896484375C20.7688342918396,17.587493896484375,21.0375342918396,17.856122896484376,21.0375342918396,18.187493896484376L21.0375342918396,18.562493896484376Q21.0375342918396,19.598523896484373,20.318034291839602,20.318003896484374Q19.5985342918396,21.037493896484374,18.5624942918396,21.037493896484374L9.5624932918396,21.037493896484374C9.2587732918396,21.037493896484374,9.0029543918396,20.810533896484376,8.9667676118396,20.508983896484374C8.927286491839599,20.179973896484377,9.1619962918396,19.881253896484374,9.4910062918396,19.841763896484373Q10.2224642918396,19.753993896484374,10.5444842918396,19.431983896484375Q10.8374942918396,19.138963896484373,10.8374942918396,18.562493896484376L10.8374942918396,18.187493896484376C10.8374942918396,17.856122896484376,11.106124291839599,17.587493896484375,11.437494291839599,17.587493896484375L20.437534291839597,17.587493896484375ZM12.0301042918396,18.787493896484374L19.8203342918396,18.787493896484374Q19.7579342918396,19.181003896484373,19.469434291839598,19.469483896484377Q19.1014342918396,19.837493896484375,18.5624942918396,19.837493896484375L11.7319142918396,19.837493896484375Q11.9899742918396,19.385033896484376,12.0301042918396,18.787493896484374Z" fill-rule="evenodd" fill="#38363C" fill-opacity="1"/></g><g><path d="M8.287493896484374,5.812494134902954L8.287493896484374,6.187494134902954C8.287493896484374,6.5188641349029535,8.018863896484376,6.787494134902954,7.687493896484375,6.787494134902954L3.937493896484375,6.787494134902954C3.606122896484375,6.787494134902954,3.337493896484375,6.5188641349029535,3.337493896484375,6.187494134902954L3.337493896484375,5.812494134902954Q3.337493836879775,4.776464134902954,4.056979896484375,4.056980134902954Q4.776463896484375,3.337494015693954,5.812493896484375,3.337494134902954Q6.848523896484375,3.337493896483954,7.568003896484375,4.056980134902954Q8.287493896484374,4.776464134902954,8.287493896484374,5.812494134902954ZM6.719483896484375,4.905504134902954Q7.007953896484375,5.193984134902954,7.070303896484376,5.587494134902954L4.554683896484375,5.587494134902954Q4.617033896484375,5.193984134902954,4.905503896484375,4.905504134902954Q5.273523896484375,4.537494134902954,5.812493896484375,4.537494134902954Q6.3514638964843755,4.537494134902954,6.719483896484375,4.905504134902954Z" fill-rule="evenodd" fill="#38363C" fill-opacity="1"/></g><g><path d="M18.187494015693666,21.037493896484374L9.562494015693664,21.037493896484374Q8.526464015693664,21.037493896484374,7.806984015693665,20.317993896484374Q7.0874940156936646,19.598493896484374,7.0874940156936646,18.562493896484376L7.0874940156936646,5.812493896484375Q7.0874940156936646,5.273523896484375,6.719484015693665,4.905503896484375Q6.351464015693665,4.537493896484375,5.812494015693664,4.537493896484375C5.481123015693664,4.537493896484375,5.2124940156936646,4.268864896484375,5.2124940156936646,3.937493896484375C5.2124940156936646,3.778363896484375,5.275708115693664,3.625751896484375,5.388230015693664,3.513229896484375C5.5007520156936645,3.400708096484375,5.653364015693665,3.337494015693375,5.812494015693664,3.337493896484375L16.312494015693666,3.337493896484375Q17.348494015693664,3.337493896484375,18.067994015693664,4.056979896484375Q18.787494015693664,4.776463896484375,18.787494015693664,5.812493896484375L18.787494015693664,18.187493896484376C18.787494015693664,18.518893896484375,18.518894015693665,18.787493896484374,18.187494015693666,18.787493896484374C17.856094015693664,18.787493896484374,17.587494015693665,18.518893896484375,17.587494015693665,18.187493896484376L17.587494015693665,5.812493896484375Q17.587494015693665,5.273523896484375,17.219494015693662,4.905503896484375Q16.851494015693664,4.537493896484375,16.312494015693666,4.537493896484375L7.947374015693665,4.537493896484375Q8.287494015693664,5.100173896484375,8.287494015693664,5.812493896484375L8.287494015693664,18.562493896484376Q8.287494015693664,19.101493896484374,8.655504015693666,19.469493896484376Q9.023524015693665,19.837493896484375,9.562494015693664,19.837493896484375L18.187494015693666,19.837493896484375C18.518894015693665,19.837493896484375,18.787494015693664,20.106093896484374,18.787494015693664,20.437493896484376C18.787494015693664,20.768893896484375,18.518894015693665,21.037493896484374,18.187494015693666,21.037493896484374Z" fill-rule="evenodd" fill="#38363C" fill-opacity="1"/></g><g><path d="M12.037493896484374,10.687493896484375C12.037493896484374,10.846623896484376,11.974283896484375,10.999235896484375,11.861753896484375,11.111753896484375L10.786023896484375,12.187493896484375L11.861753896484375,13.263233896484374C11.974283896484375,13.375753896484376,12.037493896484374,13.528363896484375,12.037493896484374,13.687493896484375C12.037493896484374,14.018863896484374,11.768863896484374,14.287493896484374,11.437493896484375,14.287493896484374C11.278363896484375,14.287493896484374,11.125753896484374,14.224283896484376,11.013233896484374,14.111753896484375L9.513229896484376,12.611753896484375C9.278915296484374,12.377443896484376,9.278915296484374,11.997543896484375,9.513229896484376,11.763233896484374L11.013133896484375,10.263325896484375C11.125753896484374,10.150707996484375,11.278363896484375,10.087493896484375,11.437493896484375,10.087493896484375C11.768863896484374,10.087493896484375,12.037493896484374,10.356122896484376,12.037493896484374,10.687493896484375Z" fill-rule="evenodd" fill="#38363C" fill-opacity="1"/></g><g><path d="M16.361753896484373,11.763233896484374L14.861753896484375,10.263229896484376C14.749235896484375,10.150707996484375,14.596623896484376,10.087493896484375,14.437493896484375,10.087493896484375C14.106122896484376,10.087493896484375,13.837493896484375,10.356122896484376,13.837493896484375,10.687493896484375C13.837493896484375,10.846623896484376,13.900707996484375,10.999235896484375,14.013229896484376,11.111753896484375L15.088963896484374,12.187493896484375L14.013384896484375,13.263073896484375C13.900707996484375,13.375753896484376,13.837493896484375,13.528363896484375,13.837493896484375,13.687493896484375C13.837493896484375,14.018863896484374,14.106122896484376,14.287493896484374,14.437493896484375,14.287493896484374C14.596623896484376,14.287493896484374,14.749235896484375,14.224283896484376,14.861753896484375,14.111753896484375L16.361753896484373,12.611753896484375C16.596073896484373,12.377443896484376,16.596073896484373,11.997543896484375,16.361753896484373,11.763233896484374Z" fill-rule="evenodd" fill="#38363C" fill-opacity="1"/></g></g></g></svg>