<svg xmlns="http://www.w3.org/2000/svg" xmlns:xlink="http://www.w3.org/1999/xlink" fill="none" version="1.1" width="24" height="24" viewBox="0 0 24 24"><defs><clipPath id="master_svg0_5042_12542"><rect x="0" y="0" width="24" height="24" rx="0"/></clipPath><clipPath id="master_svg1_5042_12558"><rect x="3" y="3" width="18" height="18" rx="0"/></clipPath></defs><g><g clip-path="url(#master_svg0_5042_12542)"></g><g clip-path="url(#master_svg1_5042_12558)"><g><g><g><path d="M5.437499976158142,16.837499976158142C5.106128976158142,16.837499976158142,4.837499976158142,17.106128976158143,4.837499976158142,17.437499976158144L4.837499976158142,20.437499976158144C4.837499976158142,20.768869976158143,5.106128976158142,21.03749997615814,5.437499976158142,21.03749997615814L18.937499976158144,21.03749997615814C19.268899976158142,21.03749997615814,19.53749997615814,20.768869976158143,19.53749997615814,20.437499976158144L19.53749997615814,17.437499976158144C19.53749997615814,17.106128976158143,19.268899976158142,16.837499976158142,18.937499976158144,16.837499976158142C18.60609997615814,16.837499976158142,18.337499976158142,17.106128976158143,18.337499976158142,17.437499976158144L18.337499976158142,19.837499976158142L6.037499976158142,19.837499976158142L6.037499976158142,17.437499976158144C6.037499976158142,17.106128976158143,5.7688709761581425,16.837499976158142,5.437499976158142,16.837499976158142Z" fill-rule="evenodd" fill="#38363C" fill-opacity="1"/></g><g><path d="M19.600999976158143,13.526999976158143L19.600999976158143,13.526999976158143Q20.244499976158142,13.741299976158142,20.640899976158142,14.290999976158142Q21.03749997615814,14.840899976158141,21.03749997615814,15.518999976158142L21.03749997615814,17.437499976158144C21.03749997615814,17.768899976158142,20.768899976158142,18.03749997615814,20.437499976158144,18.03749997615814L3.937499976158142,18.03749997615814C3.606128976158142,18.03749997615814,3.337499976158142,17.768899976158142,3.337499976158142,17.437499976158144L3.337500095367142,15.518999976158142Q3.337500035762742,14.840999976158143,3.733939976158142,14.290799976158143Q4.130554976158142,13.740399976158143,4.773759976158142,13.526299976158143L10.087499976158142,11.755039976158143L10.087499976158142,7.3699599761581425L8.247759976158143,6.756709976158142C8.002759976158142,6.675039976158143,7.837499976158142,6.445759976158142,7.837499976158142,6.187499976158142L7.837499976158142,3.937499976158142C7.837499976158142,3.606128976158142,8.106129976158142,3.337499976158142,8.437499976158142,3.337499976158142L15.937499976158142,3.337499976158142C16.268899976158142,3.337499976158142,16.53749997615814,3.606128976158142,16.53749997615814,3.937499976158142L16.53749997615814,6.187499976158142C16.53749997615814,6.445759976158142,16.372199976158143,6.675039976158143,16.127199976158142,6.756709976158142L14.287499976158141,7.369949976158142L14.287499976158141,11.755099976158142L19.600999976158143,13.526999976158143ZM19.221699976158142,14.665399976158142L13.497699976158142,12.756689976158142C13.252719976158142,12.674999976158142,13.087499976158142,12.445729976158143,13.087499976158142,12.187499976158142L13.087499976158142,6.937499976158142C13.087499976158142,6.679239976158142,13.252759976158142,6.4499599761581425,13.497799976158142,6.368289976158142L15.337499976158142,5.755039976158142L15.337499976158142,4.537499976158142L9.037499976158141,4.537499976158142L9.037499976158141,5.755039976158142L10.877239976158142,6.368289976158142C11.122239976158141,6.4499599761581425,11.287499976158141,6.679239976158142,11.287499976158141,6.937499976158142L11.287499976158141,12.187499976158142C11.287499976158141,12.445759976158142,11.122239976158141,12.675039976158143,10.877239976158142,12.756709976158142L5.153239976158142,14.664699976158142Q4.537499976158142,14.869699976158142,4.537499976158142,15.518999976158142L4.537499976158142,16.837499976158142L19.837499976158142,16.837499976158142L19.837499976158142,15.518999976158142Q19.837499976158142,14.870499976158142,19.221699976158142,14.665399976158142L19.221699976158142,14.665399976158142Z" fill-rule="evenodd" fill="#38363C" fill-opacity="1"/></g></g></g></g></g></svg>