<svg xmlns="http://www.w3.org/2000/svg" xmlns:xlink="http://www.w3.org/1999/xlink" fill="none" version="1.1" width="24" height="24" viewBox="0 0 24 24"><defs><clipPath id="master_svg0_234_18613"><rect x="0" y="0" width="24" height="24" rx="0"/></clipPath><clipPath id="master_svg1_3105_3974"><rect x="0" y="0" width="24" height="24" rx="0"/></clipPath></defs><g clip-path="url(#master_svg0_234_18613)"><g clip-path="url(#master_svg1_3105_3974)"></g><g><g><g transform="matrix(-0.7050403356552124,-0.7091672420501709,0.7050402760505676,-0.7091672420501709,19.99305447348354,52.00148388876096)"><path d="M29.04386799621582,22.566652297973633C29.04386799621582,22.980692297973633,28.70835799621582,23.31640229797363,28.29431799621582,23.316652297973633L28.29431799621582,23.316652297973633L21.49756899621582,23.320742297973634L21.49756899621582,23.320742297973634C21.08290399621582,23.320742297973634,20.74711799621582,22.98495229797363,20.74711799621582,22.570741297973633C20.74711799621582,22.156704297973633,21.08262899621582,21.820990797973632,21.496666996215822,21.82074165797363L21.496666996215822,21.82074165797363L28.29341799621582,21.816652297973633L28.29341799621582,21.816652297973633C28.70808799621582,21.816652178764635,29.04386799621582,22.15243829797363,29.04386799621582,22.566652297973633Z" fill-rule="evenodd" fill="#38363C" fill-opacity="1"/></g><g><path d="M18.1708,13.5368Q18.75,12.07363,18.75,10.5Q18.75,8.92637,18.1708,7.46322Q17.541800000000002,5.87456,16.3336,4.666370000000001Q15.1254,3.45819,13.5368,2.829247Q12.07364,2.2499999403954,10.5,2.25Q8.92637,2.25,7.46322,2.829247Q5.87455,3.45818,4.666370000000001,4.666370000000001Q3.45818,5.87455,2.829247,7.46322Q2.2500000596046,8.926359999999999,2.25,10.5Q2.25,12.07364,2.829247,13.5368Q3.45818,15.1254,4.666370000000001,16.3336Q5.87456,17.541800000000002,7.46322,18.1708Q8.92637,18.75,10.5,18.75Q12.07363,18.75,13.5368,18.1708Q15.1254,17.541800000000002,16.3336,16.3336Q17.541800000000002,15.1254,18.1708,13.5368ZM15.273,5.72703Q17.25,7.70406,17.25,10.5Q17.25,13.2959,15.273,15.273Q13.2959,17.25,10.5,17.25Q7.70406,17.25,5.72703,15.273Q3.75,13.2959,3.75,10.5Q3.75,7.70406,5.72703,5.72703Q7.70406,3.75,10.5,3.75Q13.2959,3.75,15.273,5.72703Z" fill-rule="evenodd" fill="#38363C" fill-opacity="1"/></g></g></g></g></svg>