<svg xmlns="http://www.w3.org/2000/svg" xmlns:xlink="http://www.w3.org/1999/xlink" fill="none" version="1.1" width="24" height="24" viewBox="0 0 24 24"><defs><clipPath id="master_svg0_234_14846"><rect x="0" y="0" width="24" height="24" rx="0"/></clipPath><clipPath id="master_svg1_3105_3549"><rect x="0" y="0" width="24" height="24" rx="0"/></clipPath></defs><g clip-path="url(#master_svg0_234_14846)"><g clip-path="url(#master_svg1_3105_3549)"></g><g><g><g><path d="M14.325944665374756,14.276434502105712Q15.304494665374756,13.336164502105714,15.304494665374756,12.000004502105712Q15.304494665374756,10.663834502105713,14.325944665374756,9.723569502105713Q13.360034665374755,8.795454442501113,12.000004665374757,8.795454502105713Q10.639964665374755,8.795454502105713,9.674054665374756,9.723569502105713Q8.695504665374756,10.663834502105713,8.695504665374756,12.000004502105712Q8.695504665374756,13.336164502105714,9.674054665374756,14.276434502105712Q10.639964665374755,15.204544502105712,12.000004665374757,15.204544502105712Q13.360034665374755,15.204544502105712,14.325944665374756,14.276434502105712ZM13.286654665374755,10.805174502105713Q13.804494665374756,11.302754502105714,13.804494665374756,12.000004502105712Q13.804494665374756,12.697244502105713,13.286654665374755,13.194824502105714Q12.756174665374756,13.704544502105712,12.000004665374757,13.704544502105712Q11.243824665374756,13.704544502105712,10.713344665374755,13.194824502105714Q10.195504665374756,12.697244502105713,10.195504665374756,12.000004502105712Q10.195504665374756,11.302754502105714,10.713344665374755,10.805174502105713Q11.243824665374756,10.295454502105713,12.000004665374757,10.295454502105713Q12.756174665374756,10.295454502105713,13.286654665374755,10.805174502105713Z" fill-rule="evenodd" fill="#38363C" fill-opacity="1"/></g><g><path d="M21.726033066558838,15.2596L19.412233066558837,13.3577Q19.55323306655884,12.6928,19.561933066558836,12.00958L19.562033066558836,12L19.561933066558836,11.99043Q19.55323306655884,11.30665,19.412033066558838,10.64111L21.72523306655884,8.73096L19.80473306655884,5.53228L16.95543306655884,6.49632Q15.846033066558839,5.56925,14.455433066558838,5.118119999999999L13.894833066558839,2.25L10.104863066558838,2.25L9.544353066558838,5.12473Q8.154373066558838,5.575699999999999,7.045443066558838,6.50216L4.195973066558838,5.53112L2.274733245372838,8.73096L4.587963066558838,10.64111Q4.446803066558838,11.30665,4.438073066558838,11.99043L4.437953066558838,12L4.438073066558838,12.00957Q4.446803066558838,12.6933,4.587963066558838,13.3589L2.274733066558838,15.269L4.195103066558838,18.4674L7.044373066558838,17.5051Q8.153813066558838,18.4324,9.544633066558838,18.8835L10.105223066558839,21.75L13.895133066558838,21.75L14.455633066558837,18.8753Q15.846333066558838,18.4241,16.95563306655884,17.497L19.80493306655884,18.4593L21.726033066558838,15.2596ZM17.849433066558838,13.4289Q18.05133306655884,12.7274,18.061933066558836,11.99999Q18.05133306655884,11.27264,17.849433066558838,10.57111L17.71333306655884,10.09848L19.774733066558838,8.39631L19.140733066558838,7.34045L16.59773306655884,8.200890000000001L16.26983306655884,7.89245Q15.143133066558837,6.83248,13.618033066558837,6.43565L13.161333066558838,6.31682L12.659633066558838,3.75L11.340643066558838,3.75L10.838903066558839,6.3233L10.381983066558838,6.44219Q8.856893066558838,6.83903,7.730183066558838,7.89899L7.4015030665588375,8.2082L4.858523066558838,7.34161L4.225263066558838,8.39631L6.286623066558838,10.09848L6.150573066558838,10.57111Q5.948623066558838,11.27264,5.938083066558837,12Q5.948623066558838,12.7274,6.150573066558838,13.4289L6.286623066558838,13.9015L4.225263066558838,15.6037L4.859393066558837,16.6598L7.402523066558838,15.8009L7.730183066558838,16.1092Q8.856893066558838,17.1692,10.381983066558838,17.566000000000003L10.838613066558837,17.6848L11.340283066558838,20.25L12.659333066558839,20.25L13.161133066558838,17.6767L13.618033066558837,17.5578Q15.143133066558837,17.161,16.26983306655884,16.101L16.59753306655884,15.7928L19.140633066558838,16.651699999999998L19.773933066558836,15.5968L17.713033066558836,13.9027L17.849433066558838,13.4289Z" fill-rule="evenodd" fill="#38363C" fill-opacity="1"/></g></g></g></g></svg>