<svg xmlns="http://www.w3.org/2000/svg" xmlns:xlink="http://www.w3.org/1999/xlink" fill="none" version="1.1" width="24" height="24" viewBox="0 0 24 24"><defs><clipPath id="master_svg0_848_42179"><rect x="0" y="0" width="24" height="24" rx="0"/></clipPath><clipPath id="master_svg1_3105_3550"><rect x="0" y="0" width="24" height="24" rx="0"/></clipPath></defs><g clip-path="url(#master_svg0_848_42179)"><g clip-path="url(#master_svg1_3105_3550)"></g><g><g><path d="M19.6398,13.364L22,15.3085L19.984,18.6739L17.0623,17.6848Q15.9602,18.592,14.59,19.048L14.0158,22L9.983830000000001,22L9.409469999999999,19.0564Q8.03915,18.6005,6.93692,17.693199999999997L4.01521,18.6822L2,15.3182L4.35963,13.3652Q4.22081,12.6966,4.212070000000001,12.0102L4.21194,12L4.212070000000001,11.98978Q4.22081,11.30338,4.35963,10.63476L2,8.681840000000001L4.01624,5.3160799999999995L6.9382,6.3141Q8.03981,5.40771,9.40916,4.952030000000001L9.983419999999999,2L14.0154,2L14.5898,4.94528Q15.9599,5.4011700000000005,17.061999999999998,6.30828L19.9838,5.31745L21.9992,8.681840000000001L19.6396,10.63476Q19.7784,11.30338,19.7871,11.98978L19.7872,12L19.7871,12.0102Q19.7784,12.696,19.6398,13.364ZM14.4469,14.357Q15.4606,13.3807,15.4606,12Q15.4606,10.61929,14.4469,9.64298Q13.4331,8.66667,11.99948,8.66667Q10.56582,8.66667,9.55207,9.64298Q8.538319999999999,10.61929,8.538319999999999,12Q8.538319999999999,13.3807,9.55207,14.357Q10.56582,15.3333,11.99948,15.3333Q13.4331,15.3333,14.4469,14.357ZM13.2232,10.82149Q13.7301,11.30964,13.7301,12Q13.7301,12.6904,13.2232,13.1785Q12.7163,13.6667,11.99948,13.6667Q11.28265,13.6667,10.77577,13.1785Q10.2689,12.6904,10.2689,12Q10.2689,11.30964,10.77577,10.82149Q11.28265,10.33333,11.99948,10.33333Q12.7163,10.33333,13.2232,10.82149Z" fill-rule="evenodd" fill="#2882FF" fill-opacity="1"/></g></g></g></svg>