<svg xmlns="http://www.w3.org/2000/svg" xmlns:xlink="http://www.w3.org/1999/xlink" fill="none" version="1.1" width="24" height="24" viewBox="0 0 24 24"><defs><clipPath id="master_svg0_3105_4274"><rect x="0" y="0" width="24" height="24" rx="0"/></clipPath></defs><g><g clip-path="url(#master_svg0_3105_4274)"></g><g><path d="M12.9,18.0958L12.9,3.9C12.9,3.402944,12.49706,3,12,3C11.50294,3,11.1,3.402944,11.1,3.9L11.1,18.0958L4.49793,12.22733C4.3331800000000005,12.08089,4.12042,12,3.9,12C3.402944,12,3,12.40294,3,12.9C3,13.1571,3.109933,13.4019,3.302073,13.5727L11.40207,20.7727C11.74307,21.0758,12.25693,21.0758,12.59793,20.7727L20.6979,13.5727C20.8901,13.4019,21,13.1571,21,12.9C21,12.40294,20.5971,12,20.1,12C19.8796,12,19.6668,12.08089,19.5021,12.22733L12.9,18.0958Z" fill-rule="evenodd" fill="#38363C" fill-opacity="1"/></g><g><rect x="3" y="19.200000762939453" width="18" height="1.8000000715255737" rx="0.9000000357627869" fill="#38363C" fill-opacity="1"/></g></g></svg>