<svg xmlns="http://www.w3.org/2000/svg" xmlns:xlink="http://www.w3.org/1999/xlink" fill="none" version="1.1" width="24" height="24" viewBox="0 0 24 24"><defs><clipPath id="master_svg0_3105_4253"><rect x="0" y="0" width="24" height="24" rx="0"/></clipPath></defs><g><g clip-path="url(#master_svg0_3105_4253)"></g><g transform="matrix(-1,0,0,-1,42,42)"><path d="M30.9,36.0958L30.9,21.9C30.9,21.402944,30.497059999999998,21,30,21C29.502940000000002,21,29.1,21.402944,29.1,21.9L29.1,36.0958L22.49793,30.227330000000002C22.33318,30.08089,22.12042,30,21.9,30C21.402944,30,21,30.40294,21,30.9C21,31.1571,21.109933,31.401899999999998,21.302073,31.572699999999998L29.402070000000002,38.7727C29.74307,39.0758,30.25693,39.0758,30.597929999999998,38.7727L38.697900000000004,31.572699999999998C38.890100000000004,31.401899999999998,39,31.1571,39,30.9C39,30.40294,38.5971,30,38.1,30C37.879599999999996,30,37.666799999999995,30.08089,37.5021,30.227330000000002L30.9,36.0958Z" fill-rule="evenodd" fill="#38363C" fill-opacity="1"/></g></g></svg>