<svg xmlns="http://www.w3.org/2000/svg" xmlns:xlink="http://www.w3.org/1999/xlink" fill="none" version="1.1" width="24" height="24" viewBox="0 0 24 24"><defs><clipPath id="master_svg0_3105_4283"><rect x="0" y="0" width="24" height="24" rx="0"/></clipPath></defs><g><g clip-path="url(#master_svg0_3105_4283)"></g><g transform="matrix(-1,0,0,-1,42,42.00001525878906)"><path d="M30.9,36.09580762939453L30.9,21.90000762939453C30.9,21.402951629394533,30.497059999999998,21.00000762939453,30,21.00000762939453C29.502940000000002,21.00000762939453,29.1,21.402951629394533,29.1,21.90000762939453L29.1,36.09580762939453L22.49793,30.227337629394533C22.33318,30.08089762939453,22.12042,30.00000762939453,21.9,30.00000762939453C21.402944,30.00000762939453,21,30.402947629394532,21,30.90000762939453C21,31.15710762939453,21.109933,31.40190762939453,21.302073,31.57270762939453L29.402070000000002,38.77270762939453C29.74307,39.07580762939453,30.25693,39.07580762939453,30.597929999999998,38.77270762939453L38.697900000000004,31.57270762939453C38.890100000000004,31.40190762939453,39,31.15710762939453,39,30.90000762939453C39,30.402947629394532,38.5971,30.00000762939453,38.1,30.00000762939453C37.879599999999996,30.00000762939453,37.666799999999995,30.08089762939453,37.5021,30.227337629394533L30.9,36.09580762939453Z" fill-rule="evenodd" fill="#38363C" fill-opacity="1"/></g><g transform="matrix(-1,0,0,-1,42,9.600006103515625)"><rect x="21" y="4.8000030517578125" width="18" height="1.8000000715255737" rx="0.9000000357627869" fill="#38363C" fill-opacity="1"/></g></g></svg>