<svg xmlns="http://www.w3.org/2000/svg" xmlns:xlink="http://www.w3.org/1999/xlink" fill="none" version="1.1" width="24" height="24" viewBox="0 0 24 24"><g><g><path d="M7.693493481445312,13.7838130859375L7.693493481445312,13.157413085937499Q7.920293481445312,13.2060130859375,8.076893481445312,13.2276130859375Q8.233493481445313,13.2492130859375,8.444093481445313,13.2492130859375Q8.865293481445313,13.2492130859375,9.097493481445312,13.1061130859375Q9.329693481445313,12.9630130859375,9.329693481445313,12.6228130859375Q9.329693481445313,12.2826130859375,9.124493481445313,12.1422130859375Q8.919293481445312,12.0018130859375,8.449493481445312,12.0018130859375Q8.136293481445312,12.0018130859375,7.6826934814453125,12.0828130859375L7.941893481445312,10.0524128859375L9.842693481445313,10.0524128859375L9.842693481445313,10.6734130859375L8.525093481445312,10.6734130859375L8.400893481445312,11.4888130859375Q8.595293481445312,11.4564130859375,8.805893481445313,11.4564130859375Q9.443093481445313,11.4564130859375,9.764393481445312,11.7399130859375Q10.085693481445313,12.0234130859375,10.085693481445313,12.6066130859375Q10.085693481445313,13.2384130859375,9.672593481445313,13.5462130859375Q9.259493481445313,13.854013085937499,8.498093481445313,13.854013085937499Q8.066093481445312,13.854013085937499,7.693493481445312,13.7838130859375ZM10.652693481445313,11.9262130859375Q10.652693481445313,11.1810130859375,10.814693481445312,10.7571130859375Q10.976693481445313,10.3332130859375,11.270993481445313,10.1658130859375Q11.565293481445313,9.9984130859375,11.997293481445313,9.9984130859375Q12.434693481445311,9.9984130859375,12.726293481445312,10.1658130859375Q13.017893481445313,10.3332130859375,13.179893481445312,10.7571130859375Q13.341893481445313,11.1810130859375,13.341893481445313,11.9262130859375Q13.341893481445313,12.6714130859375,13.179893481445312,13.0953130859375Q13.017893481445313,13.5192130859375,12.726293481445312,13.6866130859375Q12.434693481445311,13.854013085937499,11.997293481445313,13.854013085937499Q11.559893481445313,13.854013085937499,11.268293481445312,13.6866130859375Q10.976693481445313,13.5192130859375,10.814693481445312,13.0953130859375Q10.652693481445313,12.6714130859375,10.652693481445313,11.9262130859375ZM11.997293481445313,13.2276130859375Q12.229493481445314,13.2276130859375,12.361793481445313,13.116913085937501Q12.494093481445312,13.0062130859375,12.556193481445312,12.7254130859375Q12.618293481445313,12.444613085937501,12.618293481445313,11.9262130859375Q12.618293481445313,11.4078130859375,12.556193481445312,11.1270130859375Q12.494093481445312,10.8462130859375,12.361793481445313,10.7355130859375Q12.229493481445314,10.6248130859375,11.997293481445313,10.6248130859375Q11.770493481445312,10.6248130859375,11.640893481445312,10.7355130859375Q11.511293481445312,10.8462130859375,11.449193481445313,11.1270130859375Q11.387093481445312,11.4078130859375,11.387093481445312,11.9262130859375Q11.387093481445312,12.4500130859375,11.446493481445312,12.7281130859375Q11.505893481445312,13.0062130859375,11.638193481445313,13.116913085937501Q11.770493481445312,13.2276130859375,11.997293481445313,13.2276130859375ZM13.822493481445314,11.9262130859375Q13.822493481445314,11.1810130859375,13.984493481445313,10.7571130859375Q14.146493481445312,10.3332130859375,14.440793481445311,10.1658130859375Q14.735093481445311,9.9984130859375,15.167093481445313,9.9984130859375Q15.604493481445314,9.9984130859375,15.896093481445313,10.1658130859375Q16.187693481445315,10.3332130859375,16.349693481445314,10.7571130859375Q16.511693481445313,11.1810130859375,16.511693481445313,11.9262130859375Q16.511693481445313,12.6714130859375,16.349693481445314,13.0953130859375Q16.187693481445315,13.5192130859375,15.896093481445313,13.6866130859375Q15.604493481445314,13.854013085937499,15.167093481445313,13.854013085937499Q14.729693481445313,13.854013085937499,14.438093481445312,13.6866130859375Q14.146493481445312,13.5192130859375,13.984493481445313,13.0953130859375Q13.822493481445314,12.6714130859375,13.822493481445314,11.9262130859375ZM15.167093481445313,13.2276130859375Q15.399293481445312,13.2276130859375,15.531593481445313,13.116913085937501Q15.663893481445314,13.0062130859375,15.725993481445313,12.7254130859375Q15.788093481445312,12.444613085937501,15.788093481445312,11.9262130859375Q15.788093481445312,11.4078130859375,15.725993481445313,11.1270130859375Q15.663893481445314,10.8462130859375,15.531593481445313,10.7355130859375Q15.399293481445312,10.6248130859375,15.167093481445313,10.6248130859375Q14.940293481445313,10.6248130859375,14.810693481445313,10.7355130859375Q14.681093481445313,10.8462130859375,14.618993481445312,11.1270130859375Q14.556893481445313,11.4078130859375,14.556893481445313,11.9262130859375Q14.556893481445313,12.4500130859375,14.616293481445313,12.7281130859375Q14.675693481445313,13.0062130859375,14.807993481445312,13.116913085937501Q14.940293481445313,13.2276130859375,15.167093481445313,13.2276130859375Z" fill="#9E9E9E" fill-opacity="1"/></g></g></svg>