<svg xmlns="http://www.w3.org/2000/svg" xmlns:xlink="http://www.w3.org/1999/xlink" fill="none" version="1.1" width="24" height="24" viewBox="0 0 24 24"><g><g><path d="M9.777914892578124,12.9792130859375L9.777914892578124,13.8000130859375L9.081314892578124,13.8000130859375L9.081314892578124,12.9792130859375L7.396514892578125,12.9792130859375L7.396514892578125,12.255613085937501L8.924714892578125,10.0524128859375L9.777914892578124,10.0524128859375L9.777914892578124,12.3582130859375L10.193714892578125,12.3582130859375L10.193714892578125,12.9792130859375L9.777914892578124,12.9792130859375ZM9.081314892578124,12.3582130859375L9.081314892578124,10.8084130859375L9.048914892578125,10.8084130859375L8.012114892578126,12.3258130859375L8.012114892578126,12.3582130859375L9.081314892578124,12.3582130859375ZM10.652714892578125,11.9262130859375Q10.652714892578125,11.1810130859375,10.814714892578126,10.7571130859375Q10.976714892578125,10.3332130859375,11.271014892578124,10.1658130859375Q11.565314892578126,9.9984130859375,11.997314892578125,9.9984130859375Q12.434714892578125,9.9984130859375,12.726314892578124,10.1658130859375Q13.017914892578126,10.3332130859375,13.179914892578125,10.7571130859375Q13.341914892578124,11.1810130859375,13.341914892578124,11.9262130859375Q13.341914892578124,12.6714130859375,13.179914892578125,13.0953130859375Q13.017914892578126,13.5192130859375,12.726314892578124,13.6866130859375Q12.434714892578125,13.854013085937499,11.997314892578125,13.854013085937499Q11.559914892578124,13.854013085937499,11.268314892578125,13.6866130859375Q10.976714892578125,13.5192130859375,10.814714892578126,13.0953130859375Q10.652714892578125,12.6714130859375,10.652714892578125,11.9262130859375ZM11.997314892578125,13.2276130859375Q12.229514892578125,13.2276130859375,12.361814892578124,13.116913085937501Q12.494114892578125,13.0062130859375,12.556214892578126,12.7254130859375Q12.618314892578125,12.444613085937501,12.618314892578125,11.9262130859375Q12.618314892578125,11.4078130859375,12.556214892578126,11.1270130859375Q12.494114892578125,10.8462130859375,12.361814892578124,10.7355130859375Q12.229514892578125,10.6248130859375,11.997314892578125,10.6248130859375Q11.770514892578124,10.6248130859375,11.640914892578124,10.7355130859375Q11.511314892578124,10.8462130859375,11.449214892578125,11.1270130859375Q11.387114892578126,11.4078130859375,11.387114892578126,11.9262130859375Q11.387114892578126,12.4500130859375,11.446514892578126,12.7281130859375Q11.505914892578126,13.0062130859375,11.638214892578125,13.116913085937501Q11.770514892578124,13.2276130859375,11.997314892578125,13.2276130859375ZM13.952114892578125,13.7838130859375L13.952114892578125,13.157413085937499Q14.394914892578125,13.2492130859375,14.767514892578125,13.2492130859375Q15.161714892578125,13.2492130859375,15.383114892578124,13.1277130859375Q15.604514892578125,13.0062130859375,15.604514892578125,12.6984130859375Q15.604514892578125,12.390613085937499,15.372314892578125,12.2691130859375Q15.140114892578126,12.1476130859375,14.659514892578125,12.1476130859375L14.373314892578126,12.1476130859375L14.373314892578126,11.5914130859375L14.654114892578125,11.5914130859375Q15.086114892578125,11.5914130859375,15.312914892578124,11.4672130859375Q15.539714892578125,11.3430130859375,15.539714892578125,11.0622130859375Q15.539714892578125,10.8084130859375,15.361514892578125,10.7004130859375Q15.183314892578124,10.5924130859375,14.837714892578125,10.5924130859375Q14.664914892578125,10.5924130859375,14.462414892578124,10.6221130859375Q14.259914892578125,10.6518130859375,14.103314892578126,10.7004130859375L14.103314892578126,10.1064130859375Q14.243714892578126,10.0632129859375,14.473214892578124,10.0308129859375Q14.702714892578125,9.9984130859375,14.924114892578125,9.9984130859375Q15.577514892578124,9.9984130859375,15.920414892578124,10.2360130859375Q16.263314892578123,10.4736130859375,16.263314892578123,11.0136130859375Q16.263314892578123,11.6346130859375,15.647714892578126,11.8344130859375L15.647714892578126,11.8668130859375Q15.998714892578125,11.937013085937501,16.179614892578122,12.166513085937499Q16.360514892578124,12.3960130859375,16.360514892578124,12.7524130859375Q16.360514892578124,13.854013085937499,14.805314892578124,13.854013085937499Q14.308514892578124,13.854013085937499,13.952114892578125,13.7838130859375Z" fill="#9E9E9E" fill-opacity="1"/></g></g></svg>