<svg xmlns="http://www.w3.org/2000/svg" xmlns:xlink="http://www.w3.org/1999/xlink" fill="none" version="1.1" width="24" height="24" viewBox="0 0 24 24"><g><g><path d="M9.777914892578124,12.9792130859375L9.777914892578124,13.8000130859375L9.081314892578124,13.8000130859375L9.081314892578124,12.9792130859375L7.396514892578125,12.9792130859375L7.396514892578125,12.255613085937501L8.924714892578125,10.0524128859375L9.777914892578124,10.0524128859375L9.777914892578124,12.3582130859375L10.193714892578125,12.3582130859375L10.193714892578125,12.9792130859375L9.777914892578124,12.9792130859375ZM9.081314892578124,12.3582130859375L9.081314892578124,10.8084130859375L9.048914892578125,10.8084130859375L8.012114892578126,12.3258130859375L8.012114892578126,12.3582130859375L9.081314892578124,12.3582130859375ZM10.652714892578125,11.9262130859375Q10.652714892578125,11.1810130859375,10.814714892578126,10.7571130859375Q10.976714892578125,10.3332130859375,11.271014892578124,10.1658130859375Q11.565314892578126,9.9984130859375,11.997314892578125,9.9984130859375Q12.434714892578125,9.9984130859375,12.726314892578124,10.1658130859375Q13.017914892578126,10.3332130859375,13.179914892578125,10.7571130859375Q13.341914892578124,11.1810130859375,13.341914892578124,11.9262130859375Q13.341914892578124,12.6714130859375,13.179914892578125,13.0953130859375Q13.017914892578126,13.5192130859375,12.726314892578124,13.6866130859375Q12.434714892578125,13.854013085937499,11.997314892578125,13.854013085937499Q11.559914892578124,13.854013085937499,11.268314892578125,13.6866130859375Q10.976714892578125,13.5192130859375,10.814714892578126,13.0953130859375Q10.652714892578125,12.6714130859375,10.652714892578125,11.9262130859375ZM11.997314892578125,13.2276130859375Q12.229514892578125,13.2276130859375,12.361814892578124,13.116913085937501Q12.494114892578125,13.0062130859375,12.556214892578126,12.7254130859375Q12.618314892578125,12.444613085937501,12.618314892578125,11.9262130859375Q12.618314892578125,11.4078130859375,12.556214892578126,11.1270130859375Q12.494114892578125,10.8462130859375,12.361814892578124,10.7355130859375Q12.229514892578125,10.6248130859375,11.997314892578125,10.6248130859375Q11.770514892578124,10.6248130859375,11.640914892578124,10.7355130859375Q11.511314892578124,10.8462130859375,11.449214892578125,11.1270130859375Q11.387114892578126,11.4078130859375,11.387114892578126,11.9262130859375Q11.387114892578126,12.4500130859375,11.446514892578126,12.7281130859375Q11.505914892578126,13.0062130859375,11.638214892578125,13.116913085937501Q11.770514892578124,13.2276130859375,11.997314892578125,13.2276130859375ZM16.117514892578125,12.9792130859375L16.117514892578125,13.8000130859375L15.420914892578125,13.8000130859375L15.420914892578125,12.9792130859375L13.736114892578126,12.9792130859375L13.736114892578126,12.255613085937501L15.264314892578124,10.0524128859375L16.117514892578125,10.0524128859375L16.117514892578125,12.3582130859375L16.533314892578126,12.3582130859375L16.533314892578126,12.9792130859375L16.117514892578125,12.9792130859375ZM15.420914892578125,12.3582130859375L15.420914892578125,10.8084130859375L15.388514892578126,10.8084130859375L14.351714892578125,12.3258130859375L14.351714892578125,12.3582130859375L15.420914892578125,12.3582130859375Z" fill="#9E9E9E" fill-opacity="1"/></g></g></svg>