<svg xmlns="http://www.w3.org/2000/svg" xmlns:xlink="http://www.w3.org/1999/xlink" fill="none" version="1.1" width="24" height="24" viewBox="0 0 24 24"><defs><clipPath id="master_svg0_3410_01155"><rect x="0" y="0" width="24" height="24" rx="0"/></clipPath><clipPath id="master_svg1_3410_01156"><rect x="0" y="0" width="24" height="24" rx="0"/></clipPath><clipPath id="master_svg2_3410_01157"><rect x="2" y="2" width="20" height="20" rx="0"/></clipPath></defs><g><g clip-path="url(#master_svg0_3410_01155)"><g clip-path="url(#master_svg1_3410_01156)"></g><g clip-path="url(#master_svg2_3410_01157)"><g><path d="M4.579934110822677,21.0832884765625L4.576654110822678,21.0832884765625Q3.1745441108226773,21.0880884765625,2.446746110822678,19.8886884765625Q1.7180921108226777,18.6879884765625,2.3720781108226774,17.4448884765625L9.797024110822678,3.4084584765625Q10.121184110822677,2.7957944765625,10.714894110822678,2.4382414765625002Q11.308594110822678,2.0806884765625,12.001654110822678,2.0806884765625Q12.694744110822677,2.0806884765625,13.288444110822677,2.4382414765625002Q13.882144110822678,2.7957954765625,14.206244110822677,3.4083884765625L21.630444110822676,17.4434884765625Q22.285944110822676,18.6892884765625,21.555344110822677,19.8907884765625Q20.824744110822678,21.0921884765625,19.418544110822676,21.0832884765625L4.579934110822677,21.0832884765625ZM11.100034110822678,9.000008476562499L11.100034110822678,14.0999884765625Q11.100034110822678,14.1886884765625,11.117324110822677,14.2755884765625Q11.134624110822678,14.3624884765625,11.168544110822678,14.4443884765625Q11.202464110822678,14.5262884765625,11.251714110822677,14.5999884765625Q11.300964110822678,14.6736884765625,11.363644110822678,14.7363884765625Q11.426314110822677,14.7990884765625,11.500024110822677,14.8482884765625Q11.573724110822678,14.8975884765625,11.655624110822677,14.9314884765625Q11.737514110822678,14.9653884765625,11.824454110822678,14.9826884765625Q11.911394110822677,14.9999884765625,12.000034110822678,14.9999884765625Q12.088644110822678,14.9999884765625,12.175644110822677,14.9826884765625Q12.262544110822677,14.9653884765625,12.344444110822678,14.9314884765625Q12.426344110822678,14.8975884765625,12.500044110822678,14.8482884765625Q12.573744110822677,14.7990884765625,12.636444110822678,14.7363884765625Q12.699144110822678,14.6736884765625,12.748344110822678,14.5999884765625Q12.797644110822677,14.5262884765625,12.831544110822678,14.4443884765625Q12.865444110822677,14.3624884765625,12.882744110822678,14.2755884765625Q12.900044110822678,14.1886884765625,12.900044110822678,14.0999884765625L12.900044110822678,9.000008476562499Q12.900044110822678,8.9113584765625,12.882744110822678,8.824428476562499Q12.865444110822677,8.7374884765625,12.831544110822678,8.6555884765625Q12.797644110822677,8.5736984765625,12.748344110822678,8.4999884765625Q12.699144110822678,8.426288476562501,12.636444110822678,8.3636084765625Q12.573744110822677,8.3009284765625,12.500044110822678,8.2516784765625Q12.426344110822678,8.202438476562499,12.344444110822678,8.1685184765625Q12.262544110822677,8.134588476562499,12.175644110822677,8.1172984765625Q12.088644110822678,8.1000084765625,12.000034110822678,8.1000084765625Q11.911394110822677,8.1000084765625,11.824454110822678,8.1172984765625Q11.737514110822678,8.134588476562499,11.655624110822677,8.1685184765625Q11.573724110822678,8.202438476562499,11.500024110822677,8.2516784765625Q11.426314110822677,8.3009284765625,11.363644110822678,8.3636084765625Q11.300964110822678,8.426288476562501,11.251714110822677,8.4999884765625Q11.202464110822678,8.5736984765625,11.168544110822678,8.6555884765625Q11.134624110822678,8.7374884765625,11.117324110822677,8.824428476562499Q11.100034110822678,8.9113584765625,11.100034110822678,9.000008476562499ZM11.100034110822678,16.7999884765625Q11.100034110822678,16.711388476562497,11.117324110822677,16.6243884765625Q11.134624110822678,16.5374884765625,11.168544110822678,16.4555884765625Q11.202464110822678,16.3736884765625,11.251714110822677,16.2999884765625Q11.300964110822678,16.2262884765625,11.363644110822678,16.163588476562502Q11.426314110822677,16.100888476562503,11.500024110822677,16.0516884765625Q11.573724110822678,16.0023884765625,11.655624110822677,15.9684884765625Q11.737514110822678,15.9345884765625,11.824454110822678,15.9172884765625Q11.911394110822677,15.8999884765625,12.000034110822678,15.8999884765625Q12.088644110822678,15.8999884765625,12.175644110822677,15.9172884765625Q12.262544110822677,15.9345884765625,12.344444110822678,15.9684884765625Q12.426344110822678,16.0023884765625,12.500044110822678,16.0516884765625Q12.573744110822677,16.100888476562503,12.636444110822678,16.163588476562502Q12.699144110822678,16.2262884765625,12.748344110822678,16.2999884765625Q12.797644110822677,16.3736884765625,12.831544110822678,16.4555884765625Q12.865444110822677,16.5374884765625,12.882744110822678,16.6243884765625Q12.900044110822678,16.711388476562497,12.900044110822678,16.7999884765625Q12.900044110822678,16.8885884765625,12.882744110822678,16.9755884765625Q12.865444110822677,17.0624884765625,12.831544110822678,17.1443884765625Q12.797644110822677,17.2262884765625,12.748344110822678,17.2999884765625Q12.699144110822678,17.3736884765625,12.636444110822678,17.4363884765625Q12.573744110822677,17.4990884765625,12.500044110822678,17.548288476562497Q12.426344110822678,17.5975884765625,12.344444110822678,17.631488476562502Q12.262544110822677,17.665388476562498,12.175644110822677,17.6826884765625Q12.088644110822678,17.699988476562503,12.000034110822678,17.699988476562503Q11.911394110822677,17.699988476562503,11.824454110822678,17.6826884765625Q11.737514110822678,17.665388476562498,11.655624110822677,17.631488476562502Q11.573724110822678,17.5975884765625,11.500024110822677,17.548288476562497Q11.426314110822677,17.4990884765625,11.363644110822678,17.4363884765625Q11.300964110822678,17.3736884765625,11.251714110822677,17.2999884765625Q11.202464110822678,17.2262884765625,11.168544110822678,17.1443884765625Q11.134624110822678,17.0624884765625,11.117324110822677,16.9755884765625Q11.100034110822678,16.8885884765625,11.100034110822678,16.7999884765625Z" fill-rule="evenodd" fill="#F97316" fill-opacity="1"/></g></g></g></g></svg>