<svg xmlns="http://www.w3.org/2000/svg" xmlns:xlink="http://www.w3.org/1999/xlink" fill="none" version="1.1" width="24" height="24" viewBox="0 0 24 24"><g><g><path d="M22.101006103515626,12.100506103515626Q22.101006103515626,12.346006103515625,22.089006103515626,12.591206103515624Q22.076906103515626,12.836406103515625,22.052806103515625,13.080706103515626Q22.028806103515624,13.325006103515625,21.992806103515626,13.567906103515625Q21.956706103515625,13.810706103515624,21.908806103515627,14.051506103515624Q21.860906103515624,14.292306103515624,21.801306103515625,14.530406103515626Q21.741606103515625,14.768606103515625,21.670406103515624,15.003506103515624Q21.599106103515624,15.238406103515626,21.516406103515624,15.469606103515625Q21.433706103515625,15.700706103515625,21.339806103515624,15.927506103515626Q21.245806103515626,16.154306103515623,21.140806103515626,16.376306103515624Q21.035906103515625,16.598206103515626,20.920206103515625,16.814706103515626Q20.804406103515625,17.031206103515625,20.678206103515624,17.241806103515625Q20.552006103515627,17.452406103515624,20.415606103515625,17.656506103515625Q20.279206103515627,17.860606103515625,20.133006103515626,18.057806103515624Q19.986706103515626,18.255006103515626,19.831006103515627,18.444706103515625Q19.675206103515624,18.634506103515626,19.510406103515624,18.816406103515625Q19.345506103515625,18.998306103515624,19.171906103515624,19.171906103515624Q18.998306103515624,19.345506103515625,18.816406103515625,19.510406103515624Q18.634506103515626,19.675206103515624,18.444706103515625,19.831006103515627Q18.255006103515626,19.986706103515626,18.057806103515624,20.133006103515626Q17.860606103515625,20.279206103515627,17.656506103515625,20.415606103515625Q17.452406103515624,20.552006103515627,17.241806103515625,20.678206103515624Q17.031206103515625,20.804406103515625,16.814706103515626,20.920206103515625Q16.598206103515626,21.035906103515625,16.376306103515624,21.140806103515626Q16.154306103515623,21.245806103515626,15.927506103515626,21.339806103515624Q15.700706103515625,21.433706103515625,15.469606103515625,21.516406103515624Q15.238406103515626,21.599106103515624,15.003506103515624,21.670406103515624Q14.768606103515625,21.741606103515625,14.530406103515626,21.801306103515625Q14.292306103515624,21.860906103515624,14.051506103515624,21.908806103515627Q13.810706103515624,21.956706103515625,13.567906103515625,21.992806103515626Q13.325006103515625,22.028806103515624,13.080706103515626,22.052806103515625Q12.836406103515625,22.076906103515626,12.591206103515624,22.089006103515626Q12.346006103515625,22.101006103515626,12.100506103515626,22.101006103515626Q11.855006103515626,22.101006103515626,11.609806103515625,22.089006103515626Q11.364606103515625,22.076906103515626,11.120286103515625,22.052806103515625Q10.875966103515625,22.028806103515624,10.633126103515625,21.992806103515626Q10.390286103515624,21.956706103515625,10.149506103515625,21.908806103515627Q9.908726103515626,21.860906103515624,9.670586103515625,21.801306103515625Q9.432446103515625,21.741606103515625,9.197516103515625,21.670406103515624Q8.962586103515626,21.599106103515624,8.731436103515625,21.516406103515624Q8.500286103515625,21.433706103515625,8.273476103515625,21.339806103515624Q8.046666103515625,21.245806103515626,7.824736103515625,21.140806103515626Q7.602816103515625,21.035906103515625,7.386306103515625,20.920206103515625Q7.169796103515625,20.804406103515625,6.959216103515625,20.678206103515624Q6.748646103515625,20.552006103515627,6.544526103515625,20.415606103515625Q6.340396103515625,20.279206103515627,6.143216103515625,20.133006103515626Q5.946026103515625,19.986706103515626,5.756256103515625,19.831006103515627Q5.566486103515625,19.675206103515624,5.384576103515625,19.510406103515624Q5.202676103515625,19.345506103515625,5.029086103515625,19.171906103515624Q4.855486103515625,18.998306103515624,4.6906261035156245,18.816406103515625Q4.525756103515625,18.634506103515626,4.370016103515625,18.444706103515625Q4.214276103515624,18.255006103515626,4.068026103515625,18.057806103515624Q3.921786103515625,17.860606103515625,3.785396103515625,17.656506103515625Q3.649006103515625,17.452406103515624,3.522786103515625,17.241806103515625Q3.396576103515625,17.031206103515625,3.280856103515625,16.814706103515626Q3.1651261035156253,16.598206103515626,3.060161103515625,16.376306103515624Q2.955197103515625,16.154306103515623,2.861249103515625,15.927506103515626Q2.767300103515625,15.700706103515625,2.684594103515625,15.469606103515625Q2.601888103515625,15.238406103515626,2.530624103515625,15.003506103515624Q2.459360103515625,14.768606103515625,2.399708103515625,14.530406103515626Q2.340057103515625,14.292306103515624,2.292163103515625,14.051506103515624Q2.244268103515625,13.810706103515624,2.208246103515625,13.567906103515625Q2.172224303515625,13.325006103515625,2.148161203515625,13.080706103515626Q2.124098203515625,12.836406103515625,2.112052103515625,12.591206103515624Q2.100006103515625,12.346006103515625,2.100006103515625,12.100506103515626Q2.100006103515625,11.855006103515626,2.112052103515625,11.609806103515625Q2.124098203515625,11.364606103515625,2.148161203515625,11.120286103515625Q2.172224303515625,10.875966103515625,2.208246103515625,10.633126103515625Q2.244268103515625,10.390286103515624,2.292163103515625,10.149506103515625Q2.340057103515625,9.908726103515626,2.399708103515625,9.670586103515625Q2.459360103515625,9.432446103515625,2.530624103515625,9.197516103515625Q2.601888103515625,8.962586103515626,2.684594103515625,8.731436103515625Q2.767300103515625,8.500286103515625,2.861249103515625,8.273476103515625Q2.955197103515625,8.046666103515625,3.060161103515625,7.824736103515625Q3.1651261035156253,7.602816103515625,3.280856103515625,7.386306103515625Q3.396576103515625,7.169796103515625,3.522786103515625,6.959216103515625Q3.649006103515625,6.748646103515625,3.785396103515625,6.544526103515625Q3.921786103515625,6.340396103515625,4.068026103515625,6.143216103515625Q4.214276103515624,5.946026103515625,4.370016103515625,5.756256103515625Q4.525756103515625,5.566486103515625,4.6906261035156245,5.384576103515625Q4.855486103515625,5.202676103515625,5.029086103515625,5.029086103515625Q5.202676103515625,4.855486103515625,5.384576103515625,4.6906261035156245Q5.566486103515625,4.525756103515625,5.756256103515625,4.370016103515625Q5.946026103515625,4.214276103515624,6.143216103515625,4.068026103515625Q6.340396103515625,3.921786103515625,6.544526103515625,3.785396103515625Q6.748646103515625,3.649006103515625,6.959216103515625,3.522786103515625Q7.169796103515625,3.396576103515625,7.386306103515625,3.280856103515625Q7.602816103515625,3.1651261035156253,7.824736103515625,3.060161103515625Q8.046666103515625,2.955197103515625,8.273476103515625,2.861249103515625Q8.500286103515625,2.767300103515625,8.731436103515625,2.684594103515625Q8.962586103515626,2.601888103515625,9.197516103515625,2.530624103515625Q9.432446103515625,2.459360103515625,9.670586103515625,2.399708103515625Q9.908726103515626,2.340057103515625,10.149506103515625,2.292163103515625Q10.390286103515624,2.244268103515625,10.633126103515625,2.208246103515625Q10.875966103515625,2.172224303515625,11.120286103515625,2.148161203515625Q11.364606103515625,2.124098203515625,11.609806103515625,2.112052103515625Q11.855006103515626,2.100006103515625,12.100506103515626,2.100006103515625Q12.346006103515625,2.100006103515625,12.591206103515624,2.112052103515625Q12.836406103515625,2.124098203515625,13.080706103515626,2.148161203515625Q13.325006103515625,2.172224303515625,13.567906103515625,2.208246103515625Q13.810706103515624,2.244268103515625,14.051506103515624,2.292163103515625Q14.292306103515624,2.340057103515625,14.530406103515626,2.399708103515625Q14.768606103515625,2.459360103515625,15.003506103515624,2.530624103515625Q15.238406103515626,2.601888103515625,15.469606103515625,2.684594103515625Q15.700706103515625,2.767300103515625,15.927506103515626,2.861249103515625Q16.154306103515623,2.955197103515625,16.376306103515624,3.060161103515625Q16.598206103515626,3.1651261035156253,16.814706103515626,3.280856103515625Q17.031206103515625,3.396576103515625,17.241806103515625,3.522786103515625Q17.452406103515624,3.649006103515625,17.656506103515625,3.785396103515625Q17.860606103515625,3.921786103515625,18.057806103515624,4.068026103515625Q18.255006103515626,4.214276103515624,18.444706103515625,4.370016103515625Q18.634506103515626,4.525756103515625,18.816406103515625,4.6906261035156245Q18.998306103515624,4.855486103515625,19.171906103515624,5.029086103515625Q19.345506103515625,5.202676103515625,19.510406103515624,5.384576103515625Q19.675206103515624,5.566486103515625,19.831006103515627,5.756256103515625Q19.986706103515626,5.946026103515625,20.133006103515626,6.143216103515625Q20.279206103515627,6.340396103515625,20.415606103515625,6.544526103515625Q20.552006103515627,6.748646103515625,20.678206103515624,6.959216103515625Q20.804406103515625,7.169796103515625,20.920206103515625,7.386306103515625Q21.035906103515625,7.602816103515625,21.140806103515626,7.824736103515625Q21.245806103515626,8.046666103515625,21.339806103515624,8.273476103515625Q21.433706103515625,8.500286103515625,21.516406103515624,8.731436103515625Q21.599106103515624,8.962586103515626,21.670406103515624,9.197516103515625Q21.741606103515625,9.432446103515625,21.801306103515625,9.670586103515625Q21.860906103515624,9.908726103515626,21.908806103515627,10.149506103515625Q21.956706103515625,10.390286103515624,21.992806103515626,10.633126103515625Q22.028806103515624,10.875966103515625,22.052806103515625,11.120286103515625Q22.076906103515626,11.364606103515625,22.089006103515626,11.609806103515625Q22.101006103515626,11.855006103515626,22.101006103515626,12.100506103515626ZM8.695946103515624,7.635206103515625Q8.643706103515626,7.582966103515625,8.582286103515624,7.541936103515625Q8.520866103515626,7.500896103515625,8.452626103515625,7.472626103515625Q8.384376103515624,7.444356103515625,8.311926103515624,7.429946103515625Q8.239476103515624,7.415536103515625,8.165606103515625,7.415536103515625Q8.091746103515625,7.415536103515625,8.019296103515625,7.429946103515625Q7.946846103515625,7.444356103515625,7.878596103515625,7.472626103515625Q7.810356103515625,7.500896103515625,7.748936103515625,7.541936103515625Q7.687516103515625,7.582966103515625,7.635276103515625,7.635206103515625Q7.529796103515625,7.740696103515625,7.472706103515625,7.878516103515625Q7.415616103515625,8.016346103515625,7.415616103515625,8.165536103515624Q7.415616103515625,8.314716103515625,7.472696103515625,8.452546103515626Q7.529796103515625,8.590376103515625,7.635276103515625,8.695866103515625L11.029396103515625,12.089976103515625L7.635276103515625,15.484106103515625Q7.583036103515625,15.536306103515624,7.542006103515625,15.597706103515625Q7.500966103515625,15.659206103515626,7.472696103515625,15.727406103515625Q7.444426103515625,15.795706103515625,7.430016103515625,15.868106103515625Q7.415606103515625,15.940606103515625,7.415606103515625,16.014406103515626Q7.415606103515625,16.088306103515627,7.430016103515625,16.160706103515626Q7.444426103515625,16.233206103515627,7.472696103515625,16.301406103515625Q7.500966103515625,16.369706103515625,7.542006103515625,16.431106103515624Q7.583046103515625,16.492506103515623,7.635276103515625,16.544806103515626Q7.687506103515625,16.597006103515625,7.748926103515625,16.638006103515625Q7.810346103515625,16.679106103515625,7.878596103515625,16.707306103515627Q7.946836103515625,16.735606103515625,8.019286103515626,16.750006103515624Q8.091736103515625,16.764406103515626,8.165606103515625,16.764406103515626Q8.239476103515624,16.764406103515626,8.311926103515624,16.750006103515624Q8.384366103515625,16.735606103515625,8.452616103515625,16.707306103515627Q8.520866103515626,16.679106103515625,8.582286103515624,16.638006103515625Q8.643696103515625,16.597006103515625,8.695936103515624,16.544806103515626L12.090056103515625,13.150606103515624L15.484206103515625,16.544706103515622Q15.536406103515626,16.597006103515625,15.597806103515625,16.638006103515625Q15.659206103515626,16.679106103515625,15.727506103515625,16.707306103515627Q15.795706103515625,16.735606103515625,15.868206103515625,16.750006103515624Q15.940606103515625,16.764406103515626,16.014506103515625,16.764406103515626Q16.088406103515624,16.764406103515626,16.160806103515625,16.750006103515624Q16.233306103515623,16.735606103515625,16.301506103515624,16.707306103515627Q16.369706103515625,16.679106103515625,16.431206103515628,16.638006103515625Q16.492606103515627,16.597006103515625,16.544806103515626,16.544706103515622Q16.597106103515625,16.492506103515623,16.638106103515625,16.431106103515624Q16.679106103515625,16.369706103515625,16.707406103515623,16.301406103515625Q16.735706103515625,16.233206103515627,16.750106103515627,16.160706103515626Q16.764506103515625,16.088306103515627,16.764506103515625,16.014406103515626Q16.764506103515625,15.940506103515625,16.750106103515627,15.868106103515625Q16.735706103515625,15.795606103515626,16.707406103515623,15.727406103515625Q16.679106103515625,15.659206103515626,16.638106103515625,15.597706103515625Q16.597106103515625,15.536306103515624,16.544806103515626,15.484106103515625L13.150706103515626,12.089976103515625L16.544806103515626,8.695876103515625Q16.597006103515625,8.643636103515625,16.638106103515625,8.582216103515625Q16.679106103515625,8.520796103515625,16.707406103515623,8.452556103515626Q16.735706103515625,8.384306103515625,16.750106103515627,8.311856103515625Q16.764506103515625,8.239406103515625,16.764506103515625,8.165546103515625Q16.764506103515625,8.091676103515624,16.750106103515627,8.019226103515624Q16.735706103515625,7.946776103515625,16.707406103515623,7.878526103515625Q16.679106103515625,7.810286103515625,16.638106103515625,7.748866103515625Q16.597006103515625,7.687446103515625,16.544806103515626,7.635216103515625Q16.492606103515627,7.582976103515625,16.431206103515628,7.541936103515625Q16.369706103515625,7.500896103515625,16.301506103515624,7.472636103515625Q16.233206103515627,7.444366103515625,16.160806103515625,7.429956103515625Q16.088406103515624,7.415546103515625,16.014506103515625,7.415546103515625Q15.940606103515625,7.415546103515625,15.868206103515625,7.429956103515625Q15.795706103515625,7.444366103515625,15.727506103515625,7.472636103515625Q15.659206103515626,7.500896103515625,15.597806103515625,7.541936103515625Q15.536406103515626,7.582976103515625,15.484206103515625,7.635216103515625L12.090056103515625,11.029316103515624L8.695946103515624,7.635206103515625Z" fill-rule="evenodd" fill="#EF4444" fill-opacity="1"/></g></g></svg>