<svg xmlns="http://www.w3.org/2000/svg" xmlns:xlink="http://www.w3.org/1999/xlink" fill="none" version="1.1" width="24" height="24" viewBox="0 0 24 24"><g><g><g><ellipse cx="12" cy="16.875" rx="12" ry="2.625" fill="#F5F5F5" fill-opacity="1"/></g><g><g><path d="M2.875,13.625L21.125,13.625L21.125,9.47099L17.2212,5.045396Q16.786,4.375,16.0901,4.375L7.90987,4.375Q7.214230000000001,4.375,6.778919999999999,5.044938L2.875,9.47139L2.875,13.625ZM20.125,12.625L3.875,12.625L3.875,9.84936L7.58231,5.645841L7.60433,5.610448Q7.75077,5.375,7.90987,5.375L16.0901,5.375Q16.249200000000002,5.375,16.3955,5.61058L16.4176,5.646127L20.125,9.84901L20.125,12.625Z" fill-rule="evenodd" fill="#D9D9D9" fill-opacity="1"/></g><g><path d="M15.6049,10.84912C15.6049,10.24725,15.9776,9.750374794,16.439999999999998,9.75L20.625,9.75L20.625,16.55137C20.625,17.3475,20.13,18,19.5187,18L4.48125,18C3.87,18,3.375,17.34712,3.375,16.55137L3.375,9.75L7.56,9.75C8.02238,9.75,8.39512,10.246125,8.39512,10.848L8.39512,10.85625C8.39512,11.45813,8.772,11.94412,9.234,11.94412L14.766,11.94412C15.228,11.94412,15.6049,11.45362,15.6049,10.85175L15.6049,10.84912Z" fill="#FAFAFA" fill-opacity="1"/><path d="M15.1049,10.84912L15.1049,10.85175Q15.1049,11.13325,14.9622,11.31908Q14.8661,11.44412,14.766,11.44412L9.234,11.44412Q9.13271,11.44412,9.03701,11.32023Q8.89512,11.13656,8.89512,10.85625L8.89512,10.848Q8.89512,10.227517,8.54947,9.7713357Q8.15446,9.25,7.56,9.25L2.875,9.25L2.875,16.55137Q2.875,17.31778,3.3011999,17.87713Q3.775801,18.5,4.48125,18.5L19.5187,18.5Q20.2242,18.5,20.6988,17.877299999999998Q21.125,17.31802,21.125,16.55137L21.125,9.25L16.4396,9.25Q15.8452,9.250482,15.4504,9.7722639Q15.1049,10.228756,15.1049,10.84912ZM15.7552,11.92821Q16.1049,11.47297,16.1049,10.85175L16.1049,10.84912Q16.1049,10.564506,16.247700000000002,10.375736Q16.3428,10.250079,16.4404,10.25L20.125,10.25L20.125,16.55137Q20.125,16.9804,19.9034,17.271169999999998Q19.729,17.5,19.5187,17.5L4.48125,17.5Q4.2710550000000005,17.5,4.096613,17.27106Q3.875,16.98021,3.875,16.55137L3.875,10.25L7.56,10.25Q7.65752,10.25,7.75243,10.375258Q7.89512,10.563581,7.89512,10.848L7.89512,10.85625Q7.89512,11.47781,8.245619999999999,11.93155Q8.64156,12.44412,9.234,12.44412L14.766,12.44412Q15.359,12.44412,15.7552,11.92821Z" fill-rule="evenodd" fill="#D9D9D9" fill-opacity="1"/></g></g></g></g></svg>