<svg xmlns="http://www.w3.org/2000/svg" xmlns:xlink="http://www.w3.org/1999/xlink" fill="none" version="1.1" width="24" height="24" viewBox="0 0 24 24"><g><g><path d="M12.100492752075196,22.10100801086426Q12.345992752075196,22.10100801086426,12.591192752075195,22.08900801086426Q12.836392752075195,22.07690801086426,13.080692752075196,22.052808010864258Q13.324992752075195,22.028808010864257,13.567892752075196,21.99280801086426Q13.810692752075195,21.956708010864258,14.051492752075195,21.90880801086426Q14.292292752075195,21.860908010864257,14.530392752075196,21.801308010864258Q14.768592752075195,21.741608010864258,15.003492752075195,21.670408010864257Q15.238392752075196,21.599108010864256,15.469592752075195,21.516408010864257Q15.700692752075195,21.433708010864258,15.927492752075196,21.339808010864257Q16.154292752075193,21.24580801086426,16.376292752075194,21.14080801086426Q16.598192752075196,21.035908010864258,16.814692752075196,20.920208010864258Q17.031192752075196,20.804408010864258,17.241792752075195,20.678208010864257Q17.452392752075195,20.55200801086426,17.656492752075195,20.415608010864258Q17.860592752075195,20.27920801086426,18.057792752075194,20.13300801086426Q18.254992752075196,19.98670801086426,18.444692752075195,19.83100801086426Q18.634492752075197,19.675208010864257,18.816392752075195,19.510408010864257Q18.998292752075194,19.345508010864258,19.171892752075195,19.171908010864257Q19.345492752075195,18.998308010864257,19.510392752075195,18.816408010864258Q19.675192752075194,18.63450801086426,19.830992752075197,18.444708010864257Q19.986692752075196,18.25500801086426,20.132992752075197,18.057808010864257Q20.279192752075197,17.860608010864258,20.415592752075195,17.656508010864258Q20.551992752075197,17.452408010864257,20.678192752075194,17.241808010864258Q20.804392752075195,17.03120801086426,20.920192752075195,16.81470801086426Q21.035892752075195,16.59820801086426,21.140792752075196,16.376308010864257Q21.245792752075197,16.154308010864256,21.339792752075194,15.927508010864258Q21.433692752075196,15.700708010864258,21.516392752075195,15.469608010864258Q21.599092752075194,15.238408010864259,21.670392752075195,15.003508010864257Q21.741592752075196,14.768608010864257,21.801292752075195,14.530408010864258Q21.860892752075195,14.292308010864257,21.908792752075197,14.051508010864257Q21.956692752075195,13.810708010864257,21.992792752075196,13.567908010864258Q22.028792752075194,13.325008010864257,22.052792752075195,13.080708010864258Q22.076892752075196,12.836408010864258,22.088992752075196,12.591208010864257Q22.100992752075197,12.346008010864258,22.100992752075197,12.100508010864258Q22.100992752075197,11.855008010864259,22.088992752075196,11.609808010864258Q22.076892752075196,11.364608010864258,22.052792752075195,11.120288010864257Q22.028792752075194,10.875968010864257,21.992792752075196,10.633128010864258Q21.956692752075195,10.390288010864257,21.908792752075197,10.149508010864258Q21.860892752075195,9.908728010864259,21.801292752075195,9.670588010864257Q21.741592752075196,9.432448010864258,21.670392752075195,9.197518010864258Q21.599092752075194,8.962588010864259,21.516392752075195,8.731438010864258Q21.433692752075196,8.500288010864258,21.339792752075194,8.273478010864258Q21.245792752075197,8.046668010864257,21.140792752075196,7.824738010864258Q21.035892752075195,7.602818010864258,20.920192752075195,7.386308010864258Q20.804392752075195,7.169798010864258,20.678192752075194,6.959218010864258Q20.551992752075197,6.748648010864258,20.415592752075195,6.544528010864258Q20.279192752075197,6.3403980108642575,20.132992752075197,6.143218010864258Q19.986692752075196,5.946028010864258,19.830992752075197,5.756258010864258Q19.675192752075194,5.566488010864258,19.510392752075195,5.384578010864258Q19.345492752075195,5.202678010864258,19.171892752075195,5.029088010864258Q18.998292752075194,4.855488010864258,18.816392752075195,4.690628010864257Q18.634492752075197,4.525758010864258,18.444692752075195,4.370018010864258Q18.254992752075196,4.214278010864257,18.057792752075194,4.068028010864258Q17.860592752075195,3.9217880108642578,17.656492752075195,3.7853980108642578Q17.452392752075195,3.6490080108642577,17.241792752075195,3.5227880108642577Q17.031192752075196,3.396578010864258,16.814692752075196,3.2808580108642578Q16.598192752075196,3.165128010864258,16.376292752075194,3.0601630108642577Q16.154292752075193,2.955199010864258,15.927492752075196,2.8612510108642577Q15.700692752075195,2.767302010864258,15.469592752075195,2.684596010864258Q15.238392752075196,2.601890010864258,15.003492752075195,2.5306260108642578Q14.768592752075195,2.459362010864258,14.530392752075196,2.3997100108642577Q14.292292752075195,2.3400590108642576,14.051492752075195,2.2921650108642577Q13.810692752075195,2.2442700108642577,13.567892752075196,2.2082480108642577Q13.324992752075195,2.172226210864258,13.080692752075196,2.1481631108642576Q12.836392752075195,2.1241001108642577,12.591192752075195,2.1120540108642576Q12.345992752075196,2.100008010864258,12.100492752075196,2.100008010864258Q11.854992752075196,2.100008010864258,11.609792752075196,2.1120540108642576Q11.364592752075195,2.1241001108642577,11.120272752075195,2.1481631108642576Q10.875952752075195,2.172226210864258,10.633112752075196,2.2082480108642577Q10.390272752075195,2.2442700108642577,10.149492752075195,2.2921650108642577Q9.908712752075196,2.3400590108642576,9.670572752075195,2.3997100108642577Q9.432432752075195,2.459362010864258,9.197502752075195,2.5306260108642578Q8.962572752075197,2.601890010864258,8.731422752075195,2.684596010864258Q8.500272752075196,2.767302010864258,8.273462752075195,2.8612510108642577Q8.046652752075195,2.955199010864258,7.824722752075195,3.0601630108642577Q7.6028027520751955,3.165128010864258,7.386292752075195,3.2808580108642578Q7.1697827520751956,3.396578010864258,6.959202752075195,3.5227880108642577Q6.748632752075196,3.6490080108642577,6.544512752075195,3.7853980108642578Q6.340382752075195,3.9217880108642578,6.1432027520751955,4.068028010864258Q5.9460127520751955,4.214278010864257,5.756242752075195,4.370018010864258Q5.566472752075195,4.525758010864258,5.384562752075196,4.690628010864257Q5.202662752075195,4.855488010864258,5.029072752075195,5.029088010864258Q4.855472752075196,5.202678010864258,4.690612752075195,5.384578010864258Q4.525742752075195,5.566488010864258,4.370002752075195,5.756258010864258Q4.214262752075195,5.946028010864258,4.068012752075195,6.143218010864258Q3.9217727520751953,6.3403980108642575,3.7853827520751953,6.544528010864258Q3.6489927520751952,6.748648010864258,3.5227727520751952,6.959218010864258Q3.3965627520751953,7.169798010864258,3.2808427520751953,7.386308010864258Q3.1651127520751956,7.602818010864258,3.060147752075195,7.824738010864258Q2.9551837520751953,8.046668010864257,2.861235752075195,8.273478010864258Q2.7672867520751954,8.500288010864258,2.6845807520751954,8.731438010864258Q2.6018747520751955,8.962588010864259,2.5306107520751953,9.197518010864258Q2.4593467520751955,9.432448010864258,2.3996947520751952,9.670588010864257Q2.340043752075195,9.908728010864259,2.2921497520751952,10.149508010864258Q2.244254752075195,10.390288010864257,2.208232752075195,10.633128010864258Q2.1722109520751953,10.875968010864257,2.148147852075195,11.120288010864257Q2.124084852075195,11.364608010864258,2.112038752075195,11.609808010864258Q2.0999927520751953,11.855008010864259,2.0999927520751953,12.100508010864258Q2.0999927520751953,12.346008010864258,2.112038752075195,12.591208010864257Q2.124084852075195,12.836408010864258,2.148147852075195,13.080708010864258Q2.1722109520751953,13.325008010864257,2.208232752075195,13.567908010864258Q2.244254752075195,13.810708010864257,2.2921497520751952,14.051508010864257Q2.340043752075195,14.292308010864257,2.3996947520751952,14.530408010864258Q2.4593467520751955,14.768608010864257,2.5306107520751953,15.003508010864257Q2.6018747520751955,15.238408010864259,2.6845807520751954,15.469608010864258Q2.7672867520751954,15.700708010864258,2.861235752075195,15.927508010864258Q2.9551837520751953,16.154308010864256,3.060147752075195,16.376308010864257Q3.1651127520751956,16.59820801086426,3.2808427520751953,16.81470801086426Q3.3965627520751953,17.03120801086426,3.5227727520751952,17.241808010864258Q3.6489927520751952,17.452408010864257,3.7853827520751953,17.656508010864258Q3.9217727520751953,17.860608010864258,4.068012752075195,18.057808010864257Q4.214262752075195,18.25500801086426,4.370002752075195,18.444708010864257Q4.525742752075195,18.63450801086426,4.690612752075195,18.816408010864258Q4.855472752075196,18.998308010864257,5.029072752075195,19.171908010864257Q5.202662752075195,19.345508010864258,5.384562752075196,19.510408010864257Q5.566472752075195,19.675208010864257,5.756242752075195,19.83100801086426Q5.9460127520751955,19.98670801086426,6.1432027520751955,20.13300801086426Q6.340382752075195,20.27920801086426,6.544512752075195,20.415608010864258Q6.748632752075196,20.55200801086426,6.959202752075195,20.678208010864257Q7.1697827520751956,20.804408010864258,7.386292752075195,20.920208010864258Q7.6028027520751955,21.035908010864258,7.824722752075195,21.14080801086426Q8.046652752075195,21.24580801086426,8.273462752075195,21.339808010864257Q8.500272752075196,21.433708010864258,8.731422752075195,21.516408010864257Q8.962572752075197,21.599108010864256,9.197502752075195,21.670408010864257Q9.432432752075195,21.741608010864258,9.670572752075195,21.801308010864258Q9.908712752075196,21.860908010864257,10.149492752075195,21.90880801086426Q10.390272752075195,21.956708010864258,10.633112752075196,21.99280801086426Q10.875952752075195,22.028808010864257,11.120272752075195,22.052808010864258Q11.364592752075195,22.07690801086426,11.609792752075196,22.08900801086426Q11.854992752075196,22.10100801086426,12.100492752075196,22.10100801086426ZM10.447472752075194,16.653608010864257L17.204892752075196,8.880148010864257C17.530992752075193,8.505018010864259,17.491192752075193,7.936558010864258,17.116092752075197,7.610468010864258C16.740992752075194,7.284368010864258,16.172492752075193,7.324118010864257,15.846392752075195,7.699248010864258L9.923932752075196,14.512208010864258C9.825112752075196,14.625908010864258,9.652852752075194,14.637908010864258,9.539182752075195,14.539108010864258L8.160112752075197,13.340308010864257C7.784982752075195,13.014208010864257,7.216512752075196,13.054008010864258,6.890422752075195,13.429108010864258C6.564342752075195,13.804208010864258,6.604102752075195,14.372708010864258,6.979222752075195,14.698808010864258L9.318842752075195,16.732608010864258C9.652302752075196,17.022408010864257,10.157602752075196,16.987108010864258,10.447472752075194,16.653608010864257Z" fill-rule="evenodd" fill="#22C55E" fill-opacity="1"/></g></g></svg>