<svg xmlns="http://www.w3.org/2000/svg" xmlns:xlink="http://www.w3.org/1999/xlink" fill="none" version="1.1" width="24" height="24" viewBox="0 0 24 24"><defs><clipPath id="master_svg0_3118_3656"><rect x="0" y="0" width="24" height="24" rx="0"/></clipPath></defs><g clip-path="url(#master_svg0_3118_3656)"><g><path d="M4.928929999999999,19.07108474121094Q2,16.142084741210937,2,11.999984741210938Q2,7.857894741210938,4.92894,4.928904741210937Q7.85791,1.9999847412109375,12,1.9999847412109375Q16.1421,1.9999847412109375,19.0711,4.928914741210937Q22,7.857894741210938,22,11.999984741210938Q22,16.142084741210937,19.0711,19.07108474121094Q16.1421,21.999984741210938,12,21.999984741210938Q7.85791,21.999984741210938,4.928929999999999,19.07108474121094ZM13.1368,7.227294741210938Q13.1368,7.283114741210937,13.1314,7.338674741210937Q13.1259,7.394234741210938,13.115,7.448984741210937Q13.1041,7.503734741210938,13.0879,7.557154741210938Q13.0717,7.610584741210937,13.0503,7.662154741210937Q13.029,7.713734741210938,13.0027,7.762964741210937Q12.9763,7.812204741210937,12.9453,7.858624741210938Q12.9143,7.905034741210938,12.8789,7.948194741210938Q12.8435,7.991344741210938,12.804,8.030824741210939Q12.7645,8.070294741210937,12.7214,8.105714741210939Q12.6782,8.141124741210938,12.6318,8.172144741210937Q12.5854,8.203154741210938,12.5361,8.229474741210938Q12.4869,8.255794741210938,12.4353,8.277154741210937Q12.3838,8.298514741210937,12.3303,8.314724741210938Q12.2769,8.330924741210938,12.2222,8.341824741210939Q12.1674,8.352714741210939,12.1119,8.358184741210938Q12.0563,8.363654741210937,12.0005,8.363654741210937Q11.94464,8.363654741210937,11.88909,8.358184741210938Q11.83353,8.352714741210939,11.77877,8.341814741210937Q11.72402,8.330924741210938,11.6706,8.314724741210938Q11.61718,8.298514741210937,11.5656,8.277154741210937Q11.51402,8.255794741210938,11.46479,8.229474741210938Q11.41556,8.203154741210938,11.36914,8.172144741210937Q11.32272,8.141124741210938,11.27957,8.105714741210939Q11.23641,8.070294741210937,11.19694,8.030824741210939Q11.15746,7.991344741210938,11.12205,7.948194741210938Q11.08663,7.905034741210938,11.05562,7.858614741210937Q11.0246,7.812204741210937,10.99829,7.762964741210937Q10.97197,7.713734741210938,10.9506,7.662154741210937Q10.92924,7.610584741210937,10.91303,7.557154741210938Q10.89683,7.503734741210938,10.88594,7.448984741210937Q10.87505,7.394234741210938,10.86958,7.338674741210937Q10.86411,7.283114741210937,10.86411,7.227294741210938Q10.86411,7.171464741210937,10.86958,7.1159047412109375Q10.87505,7.060354741210937,10.88594,7.005594741210937Q10.89683,6.950844741210937,10.91304,6.897424741210937Q10.92924,6.843994741210937,10.9506,6.7924247412109375Q10.97197,6.740844741210937,10.99829,6.6916147412109375Q11.0246,6.642374741210937,11.05562,6.5959647412109375Q11.08663,6.549544741210937,11.12205,6.506384741210938Q11.15746,6.463234741210938,11.19694,6.423764741210937Q11.23641,6.384284741210937,11.27957,6.348874741210937Q11.32272,6.313454741210937,11.36914,6.282434741210937Q11.41556,6.251424741210937,11.46479,6.225104741210938Q11.51402,6.198794741210937,11.5656,6.177424741210937Q11.61718,6.156064741210938,11.6706,6.139854741210938Q11.72402,6.123654741210937,11.77877,6.112764741210937Q11.83353,6.1018747412109375,11.88909,6.096394741210937Q11.94464,6.090924741210937,12.0005,6.090924741210937Q12.0563,6.090924741210937,12.1119,6.096394741210937Q12.1674,6.1018747412109375,12.2222,6.112764741210937Q12.2769,6.123654741210937,12.3303,6.139854741210938Q12.3838,6.156064741210938,12.4353,6.177424741210937Q12.4869,6.198794741210937,12.5361,6.225104741210938Q12.5854,6.251424741210937,12.6318,6.282434741210937Q12.6782,6.313454741210937,12.7214,6.348874741210937Q12.7645,6.384284741210937,12.804,6.423764741210937Q12.8435,6.463234741210938,12.8789,6.506384741210938Q12.9143,6.549544741210937,12.9453,6.595954741210938Q12.9763,6.642374741210937,13.0027,6.6916147412109375Q13.029,6.740844741210937,13.0503,6.7924247412109375Q13.0717,6.843994741210937,13.0879,6.897424741210937Q13.1041,6.950844741210937,13.115,7.005594741210937Q13.1259,7.060354741210937,13.1314,7.1159047412109375Q13.1368,7.171464741210937,13.1368,7.227294741210938ZM11.3184,11.093504741210937C10.81488,11.093504741210937,10.40671,10.685324741210938,10.40671,10.181814741210937C10.40671,9.678304741210937,10.81488,9.270124741210937,11.3184,9.270124741210937C11.34134,9.270124741210937,11.36428,9.270994741210938,11.38717,9.272724741210936L12.2275,9.272724741210936C12.7296,9.272724741210936,13.1366,9.679734741210938,13.1366,10.181814741210937L13.1366,15.636284741210938L13.7496,15.636284741210938C13.7725,15.634584741210938,13.7954,15.633684741210937,13.8184,15.633684741210937C14.3219,15.633684741210937,14.7301,16.041884741210936,14.7301,16.54538474121094C14.7301,17.048884741210937,14.3219,17.457084741210938,13.8184,17.457084741210938C13.7954,17.457084741210938,13.7725,17.45618474121094,13.7496,17.454484741210937L12.2979,17.454484741210937C12.2747,17.456284741210936,12.2512,17.457184741210938,12.2275,17.457184741210938C12.2038,17.457184741210938,12.1803,17.456284741210936,12.1571,17.454484741210937L10.70534,17.454484741210937C10.68246,17.45618474121094,10.65952,17.457084741210938,10.63657,17.457084741210938C10.13306,17.457084741210938,9.724879999999999,17.048884741210937,9.724879999999999,16.54538474121094C9.724879999999999,16.041884741210936,10.13306,15.633684741210937,10.63657,15.633684741210937C10.65952,15.633684741210937,10.68246,15.634584741210938,10.70534,15.636284741210938L11.3184,15.636284741210938L11.3184,11.093504741210937Z" fill-rule="evenodd" fill="#2882FF" fill-opacity="1"/></g></g></svg>