<svg xmlns="http://www.w3.org/2000/svg" xmlns:xlink="http://www.w3.org/1999/xlink" fill="none" version="1.1" width="24" height="24" viewBox="0 0 24 24"><defs><clipPath id="master_svg0_234_14830"><rect x="0" y="0" width="24" height="24" rx="0"/></clipPath><clipPath id="master_svg1_3125_4254"><rect x="0" y="0" width="24" height="24" rx="0"/></clipPath></defs><g clip-path="url(#master_svg0_234_14830)"><g clip-path="url(#master_svg1_3125_4254)"></g><g><g><g><path d="M15.53553,15.53553Q17,14.071069999999999,17,12Q17,9.92893,15.53553,8.46447Q14.071069999999999,7,12,7Q9.92893,7,8.46447,8.46447Q7,9.92893,7,12Q7,14.071069999999999,8.46447,15.53553Q9.92893,17,12,17Q14.071069999999999,17,15.53553,15.53553ZM14.65165,9.34835Q15.75,10.4467,15.75,12Q15.75,13.5533,14.65165,14.65165Q13.5533,15.75,12,15.75Q10.4467,15.75,9.34835,14.65165Q8.25,13.5533,8.25,12Q8.25,10.4467,9.34835,9.34835Q10.4467,8.25,12,8.25Q13.5533,8.25,14.65165,9.34835Z" fill-rule="evenodd" fill="#736F78" fill-opacity="1"/></g><g transform="matrix(0.7071067690849304,-0.7071067690849304,0.7071068286895752,0.7071068286895752,-2.136947976108104,12.65595366673665)"><path d="M19.834624349365235,8.907501220703125L14.833614349365234,8.907501220703125C14.488436349365234,8.907501220703125,14.208614349365234,9.187323220703124,14.208614349365234,9.532501220703125C14.208614349365234,9.877679220703126,14.488436349365234,10.157501220703125,14.833614349365234,10.157501220703125L19.834624349365235,10.157501220703125C20.179804349365234,10.157501220703125,20.459624349365235,9.877679220703126,20.459624349365235,9.532501220703125C20.459624349365235,9.187323220703124,20.179804349365234,8.907501220703125,19.834624349365235,8.907501220703125Z" fill-rule="evenodd" fill="#736F78" fill-opacity="1"/></g><g transform="matrix(0.7071067690849304,0.7071067690849304,-0.7071068286895752,0.7071068286895752,14.467512449695278,-6.510396346040579)"><path d="M20.718508779296876,14.208633422851562L15.717498779296875,14.208633422851562C15.372320779296874,14.208633422851562,15.092498779296875,14.488455422851562,15.092498779296875,14.833633422851562C15.092498779296875,15.178811422851563,15.372320779296874,15.458633422851562,15.717498779296875,15.458633422851562L20.718508779296876,15.458633422851562C21.063688779296875,15.458633422851562,21.343508779296876,15.178811422851563,21.343508779296876,14.833633422851562C21.343508779296876,14.488455422851562,21.063688779296875,14.208633422851562,20.718508779296876,14.208633422851562Z" fill-rule="evenodd" fill="#736F78" fill-opacity="1"/></g><g transform="matrix(-0.7071067690849304,0.7071067690849304,-0.7071068286895752,-0.7071068286895752,27.386949671749562,18.840952655841875)"><path d="M15.417395650634766,15.092498779296875L10.416385650634766,15.092498779296875C10.071207650634765,15.092498779296875,9.791385650634766,15.372320779296874,9.791385650634766,15.717498779296875C9.791385650634766,16.062676779296876,10.071207650634765,16.342498779296875,10.416385650634766,16.342498779296875L15.417395650634766,16.342498779296875C15.762575650634766,16.342498779296875,16.042395650634766,16.062676779296876,16.042395650634766,15.717498779296875C16.042395650634766,15.372320779296874,15.762575650634766,15.092498779296875,15.417395650634766,15.092498779296875Z" fill-rule="evenodd" fill="#736F78" fill-opacity="1"/></g><g transform="matrix(-0.7071067690849304,-0.7071067690849304,0.7071068286895752,-0.7071068286895752,8.282513460590053,23.01346315484443)"><path d="M14.533511220703126,9.791366577148438L9.532501220703125,9.791366577148438C9.187323220703124,9.791366577148438,8.907501220703125,10.071188577148437,8.907501220703125,10.416366577148438C8.907501220703125,10.761544577148438,9.187323220703124,11.041366577148438,9.532501220703125,11.041366577148438L14.533511220703126,11.041366577148438C14.878691220703125,11.041366577148438,15.158511220703126,10.761544577148438,15.158511220703126,10.416366577148438C15.158511220703126,10.071188577148437,14.878691220703125,9.791366577148438,14.533511220703126,9.791366577148438Z" fill-rule="evenodd" fill="#736F78" fill-opacity="1"/></g><g><path d="M21.2979,15.6809Q22,13.9074,22,12Q22,10.09256,21.2979,8.31905Q20.5355,6.39339,19.0711,4.928929999999999Q17.6066,3.46446,15.6809,2.702117Q13.9074,2,12,2Q10.09257,2.0000000745058,8.31905,2.702117Q6.3934,3.46447,4.928929999999999,4.928929999999999Q3.46447,6.3934,2.702117,8.31905Q2,10.09256,2,12Q2.0000000745058,13.9074,2.702117,15.6809Q3.46446,17.6066,4.928929999999999,19.0711Q6.39339,20.5355,8.31905,21.2979Q10.09256,22,12,22Q13.9074,22,15.6809,21.2979Q17.6066,20.5355,19.0711,19.0711Q20.5355,17.6066,21.2979,15.6809ZM18.1872,5.81282Q20.75,8.375630000000001,20.75,12Q20.75,15.6244,18.1872,18.1872Q15.6244,20.75,12,20.75Q8.375630000000001,20.75,5.81282,18.1872Q3.25,15.6244,3.25,12Q3.25,8.375630000000001,5.81282,5.81282Q8.375630000000001,3.25,12,3.25Q15.6244,3.25,18.1872,5.81282Z" fill-rule="evenodd" fill="#38363C" fill-opacity="1"/></g></g></g></g></svg>