<svg xmlns="http://www.w3.org/2000/svg" xmlns:xlink="http://www.w3.org/1999/xlink" fill="none" version="1.1" width="24" height="24" viewBox="0 0 24 24"><defs><clipPath id="master_svg0_3118_3644"><rect x="0" y="0" width="24" height="24" rx="0"/></clipPath></defs><g><g clip-path="url(#master_svg0_3118_3644)"></g><g><g><path d="M13.756864365844727,10.507099195556641L15.816704365844727,10.507099195556641C16.119084365844728,10.507099195556641,16.236154365844726,10.89877919555664,16.226654365844727,11.23752919555664C16.226654365844727,11.576349195556642,15.982474365844727,11.85172919555664,15.689574365844727,11.85172919555664L13.337104365844727,11.85172919555664C13.181154365844726,11.85172919555664,13.024874365844727,11.544629195556642,12.927214365844726,11.40700919555664L10.418654365844727,7.372909195556641L8.798174365844726,7.372909195556641L8.798174365844726,8.27288919555664L7.148584365844727,6.928229195556641L8.798174365844726,5.128269195556641L8.798174365844726,6.028317195556641L10.457554365844727,6.028317195556641C10.512004365844726,6.028317195556641,10.566454365844727,6.02702419555664,10.618414365844727,6.025791195556641C10.715534365844727,6.02348519555664,10.803994365844726,6.0213841955566405,10.867634365844726,6.028317195556641L13.756864365844727,10.507099195556641ZM13.756844365844726,6.02828419555664L15.406434365844726,6.02828419555664L15.406374365844727,5.1387404955566405L17.056284365844725,6.928229195556641L15.406374365844727,8.27289919555664L15.406374365844727,7.37294919555664L13.756844365844726,7.37294919555664L12.927154365844727,8.27289919555664L12.097464365844726,7.37294919555664L13.112514365844728,6.35645919555664C13.220044365844727,6.218869195556641,13.591044365844727,6.02828419555664,13.756844365844726,6.02828419555664ZM10.857854365844727,11.40701919555664C10.760254365844727,11.544639195556641,10.604014365844726,11.85173919555664,10.447894365844727,11.85173919555664L8.388194365844727,11.851699195556641C8.095426365844727,11.851699195556641,7.978269365844726,11.470489195556642,7.978269365844726,11.14230919555664C7.978269365844726,10.813929195556641,8.095426365844727,10.50703919555664,8.388194365844727,10.50703919555664L10.037944365844726,10.50703919555664L10.857854365844727,9.162229195556641L11.687504365844728,10.06220919555664L10.857854365844727,11.40701919555664Z" fill-rule="evenodd" fill="#0078D7" fill-opacity="1"/></g><g><path d="M4.522851943969727,16.859962740234376L6.035831943969726,16.859962740234376L6.035791943969727,15.885833740234375L4.522851943969727,15.885833740234375L4.522851943969727,16.859962740234376ZM6.772851943969727,16.859962740234376L8.285821943969726,16.859962740234376L8.285791943969727,15.885833740234375L6.772851943969727,15.885833740234375L6.772851943969727,16.859962740234376ZM9.022851943969727,15.885833740234375L9.022851943969727,16.859963740234374L10.535821943969726,16.859963740234374L10.535791943969727,15.885833740234375L9.022851943969727,15.885833740234375ZM11.272851943969727,15.885833740234375L11.272851943969727,16.859963740234374L12.785821943969726,16.859963740234374L12.785791943969727,15.885833740234375L11.272851943969727,15.885833740234375ZM13.522851943969727,16.859963740234374L15.035851943969726,16.859963740234374L15.035751943969727,15.885833740234375L13.522851943969727,15.885833740234375L13.522851943969727,16.859963740234374ZM15.772851943969727,15.885833740234375L15.772851943969727,16.859963740234374L17.285851943969725,16.859963740234374L17.28575194396973,15.885833740234375L15.772851943969727,15.885833740234375ZM18.022851943969727,15.885833740234375L18.022851943969727,16.859963740234374L19.535851943969725,16.859963740234374L19.53575194396973,15.885833740234375L18.022851943969727,15.885833740234375ZM11.272851943969727,17.495103740234374L11.272851943969727,18.458863740234374L12.785821943969726,18.458863740234374L12.785791943969727,17.495103740234374L11.272851943969727,17.495103740234374ZM15.772851943969727,18.458863740234374L17.285851943969725,18.458863740234374L17.28575194396973,17.495103740234374L15.772851943969727,17.495103740234374L15.772851943969727,18.458863740234374ZM18.022851943969727,18.458863740234374L19.535851943969725,18.458863740234374L19.53575194396973,17.495103740234374L18.022851943969727,17.495103740234374L18.022851943969727,18.458863740234374ZM6.772851943969727,18.458863740234374L8.285821943969726,18.458863740234374L8.285791943969727,17.495103740234374L6.772851943969727,17.495103740234374L6.772851943969727,18.458863740234374ZM4.522851943969727,18.458863740234374L6.035831943969726,18.458863740234374L6.035791943969727,17.495103740234374L4.522851943969727,17.495103740234374L4.522851943969727,18.458863740234374ZM9.022851943969727,17.495103740234374L9.022851943969727,18.458863740234374L10.535821943969726,18.458863740234374L10.535791943969727,17.495103740234374L9.022851943969727,17.495103740234374ZM13.522851943969727,17.495103740234374L13.522851943969727,18.458863740234374L15.035851943969726,18.458863740234374L15.035751943969727,17.495103740234374L13.522851943969727,17.495103740234374Z" fill="#6B7280" fill-opacity="1"/></g><g><path d="M4.124994277954102,20.625L19.8749942779541,20.625Q20.340994277954103,20.625,20.670494277954102,20.2955Q20.9999942779541,19.966,20.9999942779541,19.5L20.9999942779541,14.2168L19.229494277954103,4.302236Q19.1576942779541,3.899829,18.844294277954102,3.637414Q18.5307942779541,3.375,18.1220942779541,3.375L5.877934277954102,3.375Q5.469154277954102,3.375,5.155734277954101,3.637414Q4.842304277954101,3.899828,4.770444277954102,4.302236L2.9999942779541016,14.2168L2.9999942779541016,19.5Q2.9999942779541016,19.966,3.3294992779541017,20.2955Q3.6590022779541016,20.625,4.124994277954102,20.625ZM20.1401942779541,19.7652Q20.030294277954102,19.875,19.8749942779541,19.875L4.124994277954102,19.875Q3.9696642779541014,19.875,3.8598292779541015,19.7652Q3.7499942779541016,19.6553,3.7499942779541016,19.5L3.7499942779541016,14.6582C3.7499942779541016,14.4511,3.9178872779541014,14.2832,4.124994277954102,14.2832L19.8749942779541,14.2832C20.082094277954102,14.2832,20.2499942779541,14.4511,20.2499942779541,14.6582L20.2499942779541,19.5Q20.2499942779541,19.6553,20.1401942779541,19.7652ZM19.6621942779541,13.5L4.337754277954102,13.5C4.104264277954101,13.5,3.9275462779541015,13.28893,3.9685912779541015,13.05908L5.508764277954102,4.43408Q5.563964277954101,4.125,5.877934277954102,4.125L18.1220942779541,4.125Q18.4359942779541,4.125,18.4911942779541,4.43408L20.031394277954103,13.05908C20.0723942779541,13.28893,19.895694277954103,13.5,19.6621942779541,13.5Z" fill-rule="evenodd" fill="#6B7280" fill-opacity="1"/></g></g></g></svg>