<svg xmlns="http://www.w3.org/2000/svg" xmlns:xlink="http://www.w3.org/1999/xlink" fill="none" version="1.1" width="24" height="24" viewBox="0 0 24 24"><defs><clipPath id="master_svg0_2871_2656"><rect x="0" y="0" width="24" height="24" rx="0"/></clipPath><clipPath id="master_svg1_3118_3638"><rect x="0" y="0" width="24" height="24" rx="0"/></clipPath></defs><g clip-path="url(#master_svg0_2871_2656)"><g clip-path="url(#master_svg1_3118_3638)"></g><g><g><path d="M12.27398616607666,4.991338665863037C12.08515316607666,5.116410665863037,11.94023516607666,5.299551665863037,11.85899326607666,5.513961665863037C11.77555546607666,5.790906665863037,11.78872986607666,6.085722665863037,11.89192916607666,6.3559626658630375C11.97756216607666,6.639612665863037,12.148829166076661,6.887522665863037,12.37938116607666,7.066192665863037C12.49795116607666,7.151062665863037,12.63408616607666,7.204662665863037,12.77900416607666,7.222532665863037C12.92392616607666,7.240402665863037,13.068836166076661,7.2158326658630365,13.19838616607666,7.148832665863037C13.35208616607666,7.061722665863037,13.47504616607666,6.925492665863037,13.54750616607666,6.762452665863037C13.61777616607666,6.597172665863037,13.65729616607666,6.420732665863037,13.66168616607666,6.242062665863037C13.67705616607666,6.014252665863037,13.64851616607666,5.786439665863037,13.57824616607666,5.569796665863037C13.50139616607666,5.333053665863037,13.35208616607666,5.129811665863037,13.15008616607666,4.991338665863037C13.04688616607666,4.924336065863037,12.93270616607666,4.8796674658630375,12.81193616607666,4.861800005863037C12.69117516607666,4.843932565863037,12.568214166076661,4.857333155863037,12.45403616607666,4.902001765863037C12.39036016607666,4.928802865863037,12.32887916607666,4.962304665863037,12.27179016607666,5.002505665863037" fill="#FFFFFF" fill-opacity="1"/></g><g><path d="M18.53176522216797,14.1082C18.41986522216797,13.4761,18.244165222167968,12.8575,18.00926522216797,12.2634C17.84896522216797,11.82116,17.63156522216797,11.40128,17.36146522216797,11.01713C17.08916522216797,10.64861,16.744465222167968,10.33817,16.47876522216797,9.96518C16.33826522216797,9.77087,16.21966522216797,9.55423,16.072565222167967,9.36439C16.013265222167966,9.23932,15.95621522216797,9.11425,15.899125222167969,8.98917C15.723475222167968,8.598320000000001,15.563185222167968,8.198540000000001,15.35458522216797,7.82779C15.32165522216797,7.76972,15.286515222167969,7.71165,15.253585222167969,7.65582C15.227235222167968,7.29847,15.189905222167969,6.94112,15.17014522216797,6.58377C15.185515222167968,5.86684,15.126235222167969,5.147679999999999,14.992295222167968,4.44191C14.900075222167969,4.1046700000000005,14.759545222167969,3.7808200000000003,14.575105222167968,3.4860100000000003C14.359925222167968,3.1375900000000003,14.083255222167969,2.833845,13.75829522216797,2.590401C13.22912522216797,2.208485,12.596745222167968,2.00300957,11.949005222167969,2.000776138C11.47253522216797,1.989609,11.000455222167968,2.099047,10.57667522216797,2.32239C10.13094522216797,2.5703,9.770845222167969,2.952217,9.544685222167969,3.4145399999999997C9.33389522216797,3.88132,9.221915222167969,4.38608,9.21532522216797,4.89977C9.197755222167968,5.40452,9.243875222167969,5.9048099999999994,9.263635222167968,6.40956C9.283395222167968,6.93219,9.272415222167968,7.45704,9.31413522216797,7.97966C9.327305222167968,8.14717,9.347065222167968,8.31468,9.347065222167968,8.48442C9.347065222167968,8.569289999999999,9.34267522216797,8.654160000000001,9.340485222167969,8.736799999999999L9.33389522216797,8.754660000000001C9.10993522216797,9.14105,8.86181522216797,9.51403,8.59173522216797,9.869150000000001C8.402905222167968,10.11259,8.214075222167969,10.3538,8.02304522216797,10.59278C7.774925222167969,10.87642,7.564135222167969,11.19134,7.3972652221679684,11.53082C7.285275222167969,11.82563,7.195255222167969,12.1294,7.124995222167969,12.4376L7.118405222167969,12.4622C7.013005222167969,12.8173,6.881264222167969,13.1612,6.723172222167968,13.494C6.707801222167968,13.5253,6.6924312221679685,13.5588,6.679257222167969,13.5878C6.584841222167968,13.7866,6.486033222167968,13.9854,6.382833222167969,14.1797L6.264264222167968,14.4052C6.189609222167968,14.5415,6.123737222167969,14.6822,6.066648522167969,14.8251C6.033712522167969,14.9122,6.007363822167969,15.0016,5.991993722167969,15.0931C5.963449222167969,15.2874,5.976623580167969,15.484,6.027125422167969,15.6716C6.0381040221679685,15.7185,6.053474122167969,15.7654,6.068844222167969,15.8123C6.117150222167969,15.9508,6.1742392221679685,16.087,6.242307222167969,16.2166C6.2730472221679685,16.276899999999998,6.305983222167969,16.334899999999998,6.336723222167969,16.395200000000003L6.365268222167969,16.4377C6.396008222167969,16.493499999999997,6.428944222167969,16.549300000000002,6.461880222167968,16.602899999999998L6.466271222167968,16.6096C6.503599222167969,16.6722,6.545317222167968,16.7325,6.584841222167968,16.7928L6.591428222167969,16.8017C6.633147222167969,16.8598,6.674866222167969,16.920099999999998,6.718780222167969,16.978099999999998C6.881264222167969,17.6236,7.179885222167969,18.2244,7.590485222167969,18.7426C7.526805222167969,18.8565,7.469715222167968,18.9681,7.406045222167968,19.0798C7.182075222167969,19.4104,6.997635222167968,19.7655,6.854916222167969,20.1385C6.795631222167969,20.3305,6.780261222167969,20.5338,6.813197222167969,20.7325C6.843937222167969,20.9336,6.944940222167968,21.1145,7.098645222167969,21.2462C7.201845222167969,21.3266,7.320415222167969,21.3825,7.445565222167969,21.4093C7.570725222167969,21.4361,7.700275222167969,21.4495,7.829815222167968,21.4428C8.317275222167968,21.4048,8.80033522216797,21.3065,9.265825222167969,21.1547C9.546885222167969,21.0787,9.82793522216797,21.0117,10.113375222167969,20.9537C10.409805222167968,20.8844,10.71061522216797,20.842,11.013625222167969,20.8286C11.088285222167968,20.8308,11.162935222167969,20.8263,11.23539522216797,20.8219C11.441795222167968,20.8442,11.648195222167969,20.8531,11.856785222167968,20.8442L11.933635222167968,20.8397C11.98633522216797,20.8464,12.04123522216797,20.8487,12.09612522216797,20.8531C12.46061522216797,20.8732,12.822915222167968,20.9112,13.183005222167969,20.9671C13.49919522216797,21.0162,13.815375222167969,21.0787,14.127175222167969,21.1569C14.608035222167969,21.3043,15.102075222167969,21.4026,15.604905222167968,21.445C15.736645222167969,21.4517,15.86838522216797,21.4405,16.00016522216797,21.4137C16.12966522216797,21.3869,16.25266522216797,21.3289,16.35806522216797,21.2485C16.511765222167966,21.1189,16.61276522216797,20.938,16.64566522216797,20.737C16.67856522216797,20.5382,16.66326522216797,20.335,16.603965222167968,20.1429C16.45906522216797,19.7699,16.27236522216797,19.4148,16.04406522216797,19.0865C15.965005222167969,18.9503,15.89034522216797,18.8096,15.811295222167969,18.6733C16.15166522216797,18.2869,16.45246522216797,17.8626,16.70496522216797,17.4114C16.85866522216797,17.4204,17.01016522216797,17.4025,17.15726522216797,17.3534C17.541565222167968,17.221600000000002,17.875265222167968,16.967,18.10806522216797,16.627499999999998C18.17826522216797,16.527,18.23316522216797,16.415300000000002,18.26616522216797,16.297C18.41766522216797,16.058,18.52086522216797,15.79,18.569165222167967,15.5086C18.639365222167967,15.044,18.628465222167968,14.5683,18.536165222167966,14.1082L18.53176522216797,14.1082Z" fill="#020204" fill-opacity="1"/></g><g><path d="M10.08701701965332,7.780887253265381C10.01894701965332,7.870227253265381,9.97064701965332,7.975197253265381,9.94648701965332,8.084637253265381C9.92233701965332,8.19407725326538,9.90696701965332,8.307977253265381,9.90477701965332,8.419647253265381C9.91135701965332,8.64522725326538,9.89379701965332,8.87079725326538,9.84987701965332,9.091907253265381C9.77302701965332,9.321957253265381,9.65665701965332,9.534127253265382,9.50734701965332,9.723977253265382C9.25044701965332,10.05228725326538,9.04843701965332,10.42079725326538,8.91010701965332,10.813887253265381C8.83984701965332,11.057327253265381,8.815687019653321,11.31193725326538,8.84203701965332,11.56654725326538C8.57635701965332,11.96633725326538,8.345805019653321,12.39068725326538,8.15477601965332,12.83290725326538C7.86054801965332,13.50069725326538,7.671715019653321,14.21316725326538,7.59486491965332,14.94130725326538C7.50044851965332,15.83690725326538,7.62999661965332,16.74140725326538,7.968139019653321,17.572207253265383C8.21625701965332,18.17080725326538,8.59392701965332,18.70680725326538,9.07258701965332,19.137907253265382C9.31851701965332,19.354507253265382,9.588587019653321,19.53760725326538,9.87842701965332,19.68280725326538C10.90382701965332,20.19200725326538,12.10489701965332,20.18090725326538,13.11932701965332,19.651607253265382C13.62653701965332,19.35000725326538,14.08983701965332,18.97710725326538,14.49384701965332,18.54600725326538C14.75513701965332,18.30480725326538,14.987887019653321,18.03460725326538,15.192087019653322,17.73970725326538C15.53242701965332,17.13890725326538,15.73223701965332,16.46450725326538,15.77395701965332,15.77210725326538C15.98474701965332,14.57497725326538,15.855197019653321,13.342127253265382,15.402877019653321,12.216477253265381C15.225027019653322,11.84125725326538,14.99008701965332,11.497317253265381,14.70463701965332,11.19803725326538C14.62778701965332,10.67308725326538,14.47846701965332,10.16179725326538,14.26109701965332,9.679307253265382C14.10300701965332,9.333127253265381,13.911977019653321,9.00257725326538,13.76486701965332,8.647457253265381C13.70558701965332,8.502287253265381,13.65288701965332,8.35487725326538,13.58701701965332,8.214177253265381C13.52333701965332,8.07123725326538,13.43550701965332,7.939457253265381,13.32791701965332,7.827787253265381C13.21154701965332,7.718357253265381,13.07320701965332,7.635717253265381,12.92170701965332,7.588817253265381C12.77019701965332,7.539677253265381,12.614307019653321,7.512877253265381,12.45621701965332,7.50840725326538C12.14002701965332,7.4927772532653805,11.82164701965332,7.532977253265381,11.509847019653321,7.521807253265381C11.25734701965332,7.510647253265381,11.00922701965332,7.465977253265381,10.75671701965332,7.481607253265381C10.63155701965332,7.488307253265381,10.50640701965332,7.512877253265381,10.39002701965332,7.559777253265381C10.27145701965332,7.6066772532653815,10.168257019653321,7.682617253265381,10.08701701965332,7.783127253265381M10.18802701965332,4.989103253265381C10.06945701965332,4.998037253265381,9.95746701965332,5.0494062532653805,9.87183701965332,5.132043253265381C9.78620701965332,5.2146792532653805,9.72252701965332,5.319651253265381,9.68739701965332,5.433555253265381C9.62810701965332,5.665832253265381,9.61273701965332,5.909277253265381,9.64567701965332,6.148257253265381C9.65006701965332,6.364897253265381,9.68739701965332,6.581537253265381,9.75765701965332,6.787017253265381C9.79718701965332,6.887517253265381,9.85426701965332,6.981317253265381,9.92892701965332,7.059487253265381C10.00357701965332,7.137657253265381,10.09799701965332,7.195727253265381,10.201197019653321,7.2225272532653815C10.30000701965332,7.24709725326538,10.40320701965332,7.24263725326538,10.49761701965332,7.211367253265381C10.59203701965332,7.180097253265381,10.67986701965332,7.126497253265381,10.75012701965332,7.055027253265381C10.853327019653321,6.947817253265381,10.92798701965332,6.816047253265381,10.96530701965332,6.673107253265381C11.00263701965332,6.530167253265381,11.02020701965332,6.380527253265381,11.015817019653321,6.230887253265381C11.015817019653321,6.0455172532653805,10.98726701965332,5.860137253265381,10.93237701965332,5.681466253265381C10.87747701965332,5.502792253265381,10.78306701965332,5.339751253265381,10.65571701965332,5.203512253265381C10.59423701965332,5.138743253265381,10.52396701965332,5.082907253265381,10.44492701965332,5.042705253265381C10.36367701965332,5.004737253265381,10.27584701965332,4.984636253265381,10.18802701965332,4.989103253265381ZM12.27396701965332,4.989103253265381C12.08513701965332,5.114175253265381,11.940217019653321,5.297316253265381,11.85897701965332,5.51172525326538C11.77553701965332,5.788671253265381,11.78870701965332,6.083487253265381,11.89190701965332,6.353727253265381C11.97754701965332,6.637377253265381,12.14880701965332,6.885287253265381,12.37935701965332,7.0639572532653805C12.497927019653321,7.148827253265381,12.63406701965332,7.20242725326538,12.778987019653322,7.220297253265381C12.92390701965332,7.238167253265381,13.06881701965332,7.21359725326538,13.19836701965332,7.146597253265381C13.35206701965332,7.059487253265381,13.475027019653322,6.923257253265381,13.547487019653321,6.760207253265381C13.61775701965332,6.594937253265381,13.657277019653321,6.418497253265381,13.66166701965332,6.239827253265381C13.67703701965332,6.01201725326538,13.64849701965332,5.784204253265381,13.578227019653319,5.567561253265381C13.50137701965332,5.330818253265381,13.35206701965332,5.127576253265381,13.15006701965332,4.989103253265381C13.04686701965332,4.9221005532653805,12.93268701965332,4.877432053265381,12.81191701965332,4.859564593265381C12.691157019653321,4.841697153265381,12.56819701965332,4.855097743265381,12.454017019653321,4.899766353265381C12.39033701965332,4.926567453265381,12.32885701965332,4.960069253265381,12.271767019653321,5.000270253265381" fill="#FFFFFF" fill-opacity="1"/></g><g><path d="M12.697756747314454,5.5563960588891605C12.627492747314452,5.5608629188891605,12.561620747314453,5.58319724888916,12.502336747314454,5.62116544888916C12.443051747314453,5.6591335488891605,12.392549747314453,5.71050254888916,12.353026747314454,5.7685715488891605C12.278371947314453,5.88694354888916,12.236653037314452,6.0254155488891605,12.234457307314454,6.16835554888916C12.227870117314453,6.27332654888916,12.243240247314453,6.38053154888916,12.276176147314454,6.48103554888916C12.309112147314453,6.58153854888916,12.370592747314452,6.67087854888916,12.449638747314452,6.73787854888916C12.533076747314453,6.80711854888916,12.634079747314454,6.84731854888916,12.741670747314453,6.85401854888916C12.849261747314452,6.85848854888916,12.954656747314454,6.82944854888916,13.042485747314453,6.76691854888916C13.112749747314453,6.71554854888916,13.169838747314452,6.650778548889161,13.209361747314453,6.572608548889161C13.248889747314454,6.496669548889161,13.273039747314453,6.41179954888916,13.284019747314453,6.3269285488891605C13.305969747314453,6.17505554888916,13.279629747314454,6.01871554888916,13.213752747314453,5.88247654888916C13.145685747314452,5.74400454888916,13.029311747314454,5.63903294888916,12.888784747314453,5.58319724888916C12.827304747314454,5.55862948888916,12.763628747314453,5.54969576888916,12.697756747314454,5.55192920088916" fill="#020204" fill-opacity="1"/></g><g><path d="M10.188026678863526,4.9913363724128414C10.069456678863526,5.000270089412842,9.957474678863525,5.051638979412842,9.871841678863525,5.134276179412842C9.786207678863525,5.216912179412842,9.722531578863526,5.321884179412842,9.687399878863525,5.4357881794128415C9.628115176863526,5.668065179412842,9.612745078863526,5.911509179412842,9.645680978863526,6.150482179412842C9.650072478863525,6.367132179412842,9.687399878863525,6.583772179412842,9.757663678863526,6.789242179412842C9.797186678863525,6.8919821794128415,9.854275678863525,6.9835521794128415,9.928930678863525,7.0617221794128415C10.003584678863525,7.139892179412842,10.098001678863525,7.197962179412842,10.201200678863525,7.224762179412842C10.300008678863525,7.249332179412842,10.403207678863525,7.244862179412841,10.497624678863525,7.213602179412842C10.592040678863526,7.182332179412842,10.679870678863525,7.128732179412841,10.750130678863526,7.057262179412842C10.853330678863525,6.950052179412841,10.927990678863525,6.818282179412842,10.965310678863526,6.675342179412842C11.002640678863525,6.532402179412841,11.020210678863526,6.3827621794128415,11.015820678863525,6.233122179412842C11.015820678863525,6.047752179412842,10.987270678863526,5.862373179412842,10.932380678863526,5.683699179412842C10.877490678863525,5.505025179412842,10.783070678863526,5.341984179412842,10.655720678863526,5.205745179412842C10.594236678863526,5.140976179412842,10.523972678863526,5.085140379412842,10.444926678863526,5.044938679412842C10.363684678863525,5.0069703794128415,10.275855678863525,4.986869519412842,10.188026678863526,4.9913363724128414Z" fill="#FFFFFF" fill-opacity="1"/></g><g><path d="M9.904777102270508,5.985210770996094C9.876232602270507,6.134850770996094,9.882819802270507,6.291190770996094,9.928930102270508,6.436363770996094C9.964061802270507,6.532400770996094,10.016759702270507,6.619502770996094,10.087022702270508,6.693202770996094C10.130937702270508,6.7423427709960935,10.181438702270508,6.7847827709960935,10.240723702270508,6.813812770996094C10.300008702270508,6.845082770996093,10.365880702270507,6.854012770996094,10.431752702270508,6.838382770996094C10.491036702270508,6.8227427709960935,10.541538702270508,6.7870127709960935,10.578866702270508,6.737872770996094C10.616193702270508,6.688742770996094,10.642542702270507,6.632902770996093,10.660108702270508,6.574835770996094C10.710609702270508,6.400628770996094,10.706218702270508,6.215253770996094,10.651325702270508,6.041046770996093C10.616193702270508,5.913740770996093,10.548125702270507,5.797602770996094,10.451513702270507,5.710499070996094C10.405403702270508,5.670297370996094,10.348314702270509,5.639029370996094,10.289029702270508,5.623395370996094C10.227549702270508,5.607761370996093,10.163873702270507,5.612228230996093,10.104588702270508,5.639029370996094C10.043107702270508,5.670297370996094,9.992606702270507,5.721665770996093,9.961866102270507,5.784201770996094C9.931125902270507,5.846737770996094,9.911364302270508,5.913740770996093,9.902581402270508,5.982977770996094" fill="#020204" fill-opacity="1"/></g><g><path d="M9.625916004180908,7.863523588623047C9.630307464180909,7.8836245886230465,9.636894704180909,7.903725588623047,9.647873304180909,7.919359588623047C9.667634904180908,7.950627588623047,9.691787904180908,7.975194588623047,9.722528104180908,7.995295588623047C9.751073004180908,8.015396588623046,9.779617004180908,8.033263588623047,9.808162004180907,8.051131588623047C9.959667004180908,8.156099588623047,10.093606004180907,8.285639588623047,10.201197004180909,8.437509588623048C10.332941004180908,8.647459588623047,10.497621004180909,8.835069588623046,10.684256004180908,8.995869588623046C10.826976004180908,9.096379588623048,10.993856004180909,9.156679588623046,11.167316004180908,9.172309588623047C11.369326004180909,9.187949588623047,11.57352600418091,9.163379588623046,11.768946004180908,9.100839588623046C11.94899600418091,9.047239588623047,12.122466004180907,8.971299588623047,12.284946004180908,8.870799588623047C12.563806004180908,8.642989588623047,12.862426004180907,8.441979588623047,13.178606004180908,8.274469588623047C13.253266004180908,8.247669588623047,13.327916004180908,8.227569588623046,13.398176004180907,8.194069588623046C13.470636004180909,8.162799588623047,13.532116004180908,8.109200588623047,13.569446004180907,8.037730588623047C13.593596004180908,7.966261588623047,13.608966004180909,7.890324588623047,13.611166004180909,7.814388588623046C13.622146004180909,7.733984588623047,13.648496004180908,7.655814588623047,13.661666004180908,7.575411588623047C13.679236004180908,7.4950075886230465,13.672646004180908,7.412370588623046,13.644106004180909,7.334200588623047C13.613366004180907,7.273898588623047,13.565056004180908,7.224762988623047,13.505776004180909,7.193494988623047C13.446486004180908,7.164460488623047,13.380616004180908,7.146593018623047,13.314746004180908,7.144359588623047C13.180806004180909,7.148826448623047,13.049056004180908,7.162226988623047,12.919516004180908,7.184561288623047C12.743856004180909,7.200195288623047,12.568196004180908,7.1778609886230464,12.392536004180908,7.184561288623047C12.17515600418091,7.191261588623047,11.957786004180909,7.240396988623047,11.738206004180908,7.249330588623047C11.487896004180907,7.262731588623047,11.239776004180909,7.222529588623047,10.989466004180908,7.211362388623047C10.881876004180908,7.204662188623047,10.772086004180908,7.209128988623047,10.664496004180908,7.226996388623047C10.556906004180908,7.242630488623047,10.453706004180908,7.282832588623047,10.363681004180908,7.345368588623047C10.280244004180908,7.412370588623046,10.203393004180908,7.483840588623047,10.128738004180908,7.559777588623047C10.089215004180907,7.595512588623047,10.045300004180909,7.626780588623047,9.999190004180909,7.651347588623047C9.950884004180908,7.675915588623047,9.900382004180909,7.689316588623047,9.845489004180909,7.6870825886230465C9.819140004180909,7.6826155886230465,9.790596004180909,7.6826155886230465,9.764247004180909,7.6870825886230465C9.748877004180908,7.693782588623047,9.733507004180908,7.702716588623047,9.722528104180908,7.713883588623047L9.689592204180908,7.754085588623047C9.667634904180908,7.787586588623046,9.647873304180909,7.823321588623047,9.632503194180908,7.859056588623047" fill="#D99A03" fill-opacity="1"/></g><g><path d="M10.177061805480957,7.300701021759033C10.089231805480956,7.3543030217590335,10.003598805480957,7.412372021759033,9.917964805480956,7.472675021759033C9.871854905480957,7.501710021759033,9.834527505480956,7.539678021759033,9.805983005480957,7.586580021759033C9.790612905480957,7.622315021759033,9.784025725480957,7.660283021759033,9.786221505480958,7.698251021759033C9.788417205480958,7.736220021759033,9.788417205480958,7.774188021759033,9.786221505480958,7.812156021759034C9.784025725480957,7.836724021759033,9.775242805480957,7.863525021759033,9.775242805480957,7.890326021759034C9.775242805480957,7.903727021759034,9.775242805480957,7.9171270217590335,9.779634265480958,7.928294021759033C9.784025725480957,7.941695021759033,9.788417205480958,7.952859021759033,9.797200105480957,7.961799021759033C9.808178805480956,7.972959021759033,9.823548905480957,7.981899021759033,9.841114705480956,7.986359021759033C9.856484805480957,7.990829021759033,9.874050705480958,7.993059021759033,9.891616805480957,7.997529021759033C9.968466805480958,8.019869021759034,10.038730805480958,8.062299021759033,10.095819805480957,8.118139021759033C10.155103805480957,8.171739021759032,10.207801805480957,8.234279021759033,10.271477805480957,8.285639021759033C10.447135805480958,8.419649021759033,10.660121805480957,8.488889021759032,10.877502805480956,8.486649021759034C11.094872805480957,8.482189021759034,11.310062805480957,8.450919021759033,11.518652805480958,8.395079021759033C11.683332805480957,8.359349021759034,11.845812805480957,8.314679021759034,12.003912805480958,8.258839021759034C12.249832805480956,8.165039021759034,12.475992805480956,8.028799021759033,12.671412805480957,7.852358021759033C12.757042805480957,7.767488021759033,12.847072805480957,7.691551021759033,12.943682805480957,7.622315021759033C13.031512805480958,7.566479021759033,13.134712805480957,7.528511021759034,13.222542805480957,7.474908021759033C13.231322805480957,7.470442021759033,13.237912805480956,7.463741021759033,13.246692805480958,7.459274021759033C13.253282805480957,7.452574021759033,13.259862805480957,7.445874021759034,13.264262805480957,7.436940021759034C13.270842805480957,7.421306021759033,13.270842805480957,7.403439021759033,13.264262805480957,7.387805021759033C13.259862805480957,7.3721710217590335,13.253282805480957,7.3587700217590335,13.244492805480958,7.347603021759033C13.233522805480957,7.334202021759033,13.220342805480957,7.320802021759033,13.207172805480957,7.309635021759033C13.106162805480956,7.233698021759033,12.985402805480957,7.191263021759033,12.860242805480958,7.186796021759033C12.732892805480958,7.177862021759033,12.612122805480958,7.186796021759033,12.489162805480957,7.1622280217590335C12.374982805480958,7.137661021759033,12.263002805480957,7.104159021759033,12.153222805480958,7.063958021759033C12.036842805480957,7.025989321759033,11.918272805480957,6.996954821759033,11.795312805480958,6.976853921759033C11.509872805480956,6.9299519217590335,11.220032805480956,6.936652221759033,10.936782805480957,6.9991882217590335C10.671100805480958,7.059491021759033,10.414199805480957,7.1622280217590335,10.177061805480957,7.300701021759033Z" fill="#604405" fill-opacity="1"/></g><g><path d="M10.148504267211914,6.996959930084229C10.021152267211914,7.084063930084229,9.906974267211915,7.191267930084228,9.808166267211915,7.311873930084229C9.751077267211913,7.378876930084228,9.704966767211914,7.457046930084228,9.674226567211914,7.541916930084229C9.654464967211915,7.608916930084229,9.641290567211914,7.678156930084229,9.630311967211915,7.7473969300842285C9.623724727211915,7.771956930084229,9.619333267211914,7.798756930084228,9.619333267211914,7.8255669300842285C9.619333267211914,7.838966930084228,9.621528997211914,7.852366930084228,9.625920457211913,7.8635269300842285C9.630311967211915,7.876926930084228,9.636899067211914,7.888096930084228,9.645682067211913,7.897026930084229C9.661052167211913,7.912666930084228,9.680813667211915,7.921596930084228,9.702770967211913,7.926066930084229C9.722532267211914,7.930536930084228,9.744490267211914,7.930536930084228,9.766447267211914,7.932766930084228C9.863059267211915,7.948396930084229,9.953084267211914,7.988606930084229,10.032130267211913,8.046666930084228C10.111177267211914,8.102506930084228,10.185831267211913,8.167276930084228,10.267073267211915,8.220876930084229C10.451515267211914,8.332546930084229,10.662303267211914,8.392856930084228,10.877483267211915,8.397316930084228C11.092663267211915,8.401786930084228,11.305653267211914,8.379456930084228,11.514253267211913,8.332546930084229C11.681123267211914,8.301286930084228,11.845803267211913,8.254376930084229,12.006093267211915,8.191846930084228C12.245423267211914,8.086876930084228,12.469393267211913,7.950636930084229,12.673593267211913,7.7853569300842285C12.768013267211915,7.713886930084229,12.860233267211914,7.637956930084228,12.945863267211914,7.555316930084229C12.974413267211915,7.526286930084229,13.002953267211915,7.497246930084229,13.033693267211914,7.470446930084228C13.064433267211914,7.4436469300842285,13.099563267211915,7.423546930084228,13.136893267211914,7.410146930084228C13.196173267211915,7.394506930084228,13.257653267211914,7.392276930084229,13.319143267211913,7.407906930084229C13.363053267211914,7.419076930084229,13.409163267211914,7.423546930084228,13.455273267211915,7.423546930084228C13.479423267211914,7.423546930084228,13.501383267211914,7.419076930084229,13.523343267211914,7.412376930084228C13.545303267211914,7.403446930084229,13.565063267211915,7.390046930084228,13.578233267211914,7.372176930084229C13.597993267211914,7.347607930084228,13.606783267211913,7.318573930084229,13.606783267211913,7.287305930084228C13.606783267211913,7.256037930084228,13.597993267211914,7.227002930084229,13.582623267211915,7.200201930084228C13.549693267211914,7.148832930084229,13.499193267211915,7.108631930084228,13.444293267211915,7.086296930084228C13.367443267211915,7.055028930084228,13.288403267211914,7.030461930084228,13.207153267211915,7.014827930084229C12.959043267211914,6.9545249300842285,12.717513267211913,6.865187930084229,12.489153267211915,6.749049930084229C12.374973267211914,6.690979930084229,12.267383267211914,6.628443930084228,12.153203267211914,6.568141930084228C12.039023267211913,6.503371930084229,11.920463267211915,6.447536630084229,11.797493267211914,6.407334930084229C11.514253267211913,6.329164930084229,11.213433267211915,6.3425655300842285,10.938963267211914,6.447536630084229C10.631563267211915,6.556974930084229,10.357098267211914,6.746815930084228,10.146308267211914,6.999192930084228" fill="#F5BD0C" fill-opacity="1"/></g><g><path d="M11.577932470977784,6.641840489764404C11.593302470977783,6.693209289764404,11.672349470977784,6.684275289764404,11.718464470977784,6.706610289764404C11.764574470977783,6.728944289764405,11.790914470977784,6.771379289764404,11.834834470977784,6.775846289764404C11.880944470977783,6.780313289764404,11.944624470977782,6.760212289764405,11.951204470977784,6.717777289764404C11.959994470977783,6.659707989764405,11.876554470977783,6.623973089764404,11.823854470977784,6.603872289764404C11.753594470977783,6.570370819764404,11.674544470977784,6.568137389764404,11.604281470977783,6.599405389764405C11.588911470977783,6.606105689764404,11.573541470977784,6.626206489764404,11.577932470977784,6.641840489764404ZM10.822601470977784,6.615039389764404C10.763316970977783,6.594938489764404,10.666704770977784,6.699909289764404,10.695249290977783,6.755745289764405C10.704032170977783,6.771379289764404,10.730380970977784,6.789247289764404,10.747946770977784,6.780313289764404C10.765512670977783,6.771379289764404,10.798448470977783,6.711077289764404,10.826993470977783,6.6909762897644045C10.848950470977783,6.673108489764404,10.844558470977784,6.6217396897644045,10.822601470977784,6.615039389764404Z" fill="#CD8907" fill-opacity="1"/></g><g><path d="M20.233506965942382,19.095437341308592C20.189586965942382,19.211577341308594,20.125916965942384,19.318777341308593,20.04686696594238,19.414817341308595C19.862426965942383,19.615827341308595,19.63845696594238,19.776637341308593,19.392536965942384,19.888307341308593C18.975346965942382,20.084847341308596,18.569136965942384,20.303727341308594,18.173906965942383,20.542697341308592C17.917006965942385,20.716907341308595,17.677676965942382,20.913447341308594,17.455906965942383,21.132327341308596C17.273656965942383,21.326637341308594,17.078236965942384,21.505307341308594,16.871836965942382,21.672817341308594C16.656656965942382,21.833627341308592,16.408536965942382,21.943057341308595,16.145056965942384,21.985497341308594C15.822276965942383,22.027927341308594,15.495116965942383,21.97655734130859,15.198693965942383,21.840327341308594C14.985707965942384,21.757687341308593,14.801266965942382,21.612517341308592,14.671717965942383,21.420437341308592C14.561931965942383,21.214967341308594,14.511430135942383,20.984917341308595,14.522408795942383,20.752647341308595C14.535583165942382,20.343927341308593,14.583889265942382,19.937437341308595,14.667326965942383,19.535427341308594C14.724415965942383,19.200407341308594,14.781504965942382,18.865397341308594,14.816636965942383,18.528147341308593C14.878116965942382,17.911717341308595,14.884703965942382,17.293067341308593,14.838593965942383,16.676636341308594C14.827614965942383,16.573898341308595,14.827614965942383,16.468927341308593,14.838593965942383,16.366189341308594C14.851767965942383,16.156247341308593,15.025230965942383,15.995440671308593,15.233824965942382,15.997674100308593C15.328241965942382,15.995440671308593,15.422657965942383,16.004374381308594,15.514878965942383,16.022241841308595C15.734446965942382,16.049042941308592,15.954026965942383,16.087011241308595,16.169206965942383,16.138380341308594C16.303146965942382,16.174115341308593,16.437086965942385,16.223250341308592,16.571026965942384,16.261218341308595C16.794986965942382,16.328221341308595,17.032126965942382,16.348322341308595,17.26487696594238,16.325988341308594C17.508606965942384,16.267919341308595,17.75671696594238,16.229950341308594,18.007036965942383,16.207616341308594C18.110236965942384,16.212083341308595,18.213426965942382,16.229950341308594,18.310046965942384,16.261218341308595C18.411046965942383,16.290253341308595,18.505466965942382,16.341622341308593,18.582316965942383,16.415325341308595C18.637206965942383,16.475627341308595,18.681116965942383,16.544864341308593,18.709666965942382,16.620800341308595C18.751386965942384,16.734705341308594,18.77773696594238,16.853077341308595,18.786516965942383,16.973682341308592C18.790906965942384,17.080887341308593,18.79968696594238,17.188087341308595,18.812866965942384,17.295297341308594C18.85019696594238,17.467267341308595,18.931436965942382,17.628077341308593,19.045616965942383,17.762087341308593C19.161986965942383,17.891617341308592,19.287146965942384,18.012227341308595,19.42327696594238,18.119427341308594C19.552826965942383,18.235567341308595,19.688966965942384,18.342777341308594,19.83168696594238,18.441047341308593C19.899756965942384,18.487947341308594,19.967816965942383,18.530377341308593,20.03149696594238,18.581747341308592C20.097366965942385,18.630887341308593,20.15225696594238,18.693417341308592,20.193976965942383,18.764887341308594C20.246676965942385,18.863167341308593,20.264246965942384,18.977067341308594,20.237896965942383,19.086507341308593" fill="#F5BD0C" fill-opacity="1"/></g><g><path d="M20.2335,19.095436132507324C20.1896,19.211576132507325,20.1259,19.318776132507324,20.0469,19.414816132507326C19.8624,19.615826132507323,19.6385,19.776636132507324,19.3925,19.888306132507324C18.9753,20.084846132507323,18.5691,20.303726132507325,18.1739,20.542696132507324C17.917,20.716906132507326,17.6777,20.913446132507325,17.4559,21.132326132507323C17.273699999999998,21.326636132507325,17.078200000000002,21.505306132507325,16.8718,21.672816132507325C16.6567,21.833616132507323,16.4085,21.943056132507323,16.145,21.985496132507325C15.8223,22.027926132507325,15.4951,21.976556132507326,15.1987,21.840326132507325C14.9857,21.757686132507324,14.8013,21.612516132507324,14.6717,21.420436132507323C14.5619,21.214966132507325,14.5114,20.984916132507323,14.5224,20.752646132507323C14.5356,20.343926132507324,14.5839,19.937436132507322,14.6673,19.535426132507325C14.7244,19.200406132507325,14.7815,18.865396132507325,14.8166,18.528146132507324C14.8781,17.911716132507323,14.8847,17.293056132507324,14.8386,16.676636132507323C14.8276,16.573897132507323,14.8276,16.468926132507324,14.8386,16.366188132507325C14.8518,16.156246132507324,15.0252,15.995439132507324,15.2338,15.997672132507324C15.3282,15.995439132507324,15.4227,16.004373132507325,15.5149,16.022240132507324C15.7344,16.049041132507323,15.954,16.087009132507323,16.1692,16.138378132507324C16.3031,16.174113132507323,16.4371,16.223249132507323,16.570999999999998,16.261217132507323C16.795,16.328220132507326,17.0321,16.348321132507323,17.2649,16.325986132507325C17.5086,16.267917132507325,17.756700000000002,16.229949132507326,18.006999999999998,16.207615132507325C18.1102,16.212081132507326,18.2134,16.229949132507326,18.310000000000002,16.261217132507323C18.411,16.290251132507326,18.505499999999998,16.341620132507323,18.5823,16.415323132507325C18.6372,16.475626132507323,18.6811,16.544862132507323,18.709699999999998,16.620799132507326C18.7514,16.734706132507323,18.7777,16.853076132507326,18.7865,16.973676132507325C18.7909,17.080886132507324,18.7997,17.188086132507323,18.8129,17.295296132507325C18.8502,17.467266132507323,18.9314,17.628076132507324,19.0456,17.762086132507324C19.162,17.891616132507323,19.287100000000002,18.012226132507323,19.423299999999998,18.119426132507325C19.552799999999998,18.235566132507323,19.689,18.342776132507325,19.8317,18.441046132507324C19.8997,18.487946132507325,19.9678,18.530376132507325,20.0315,18.581746132507323C20.0974,18.630886132507325,20.1523,18.693416132507323,20.194,18.764886132507325C20.2467,18.863166132507324,20.2642,18.977066132507325,20.2379,19.086506132507324M6.4377200000000006,15.667125032507323C6.545310000000001,15.624689886107324,6.66169,15.613522732507324,6.775869999999999,15.635857032507325C6.89004,15.658191332507323,6.9976400000000005,15.705093332507325,7.09205,15.772096132507324C7.2743,15.912802132507323,7.43239,16.087009132507323,7.55755,16.281318132507323C7.86714,16.714606132507324,8.16357,17.156826132507323,8.43364,17.616906132507324C8.653220000000001,17.989886132507323,8.85303,18.374036132507324,9.105540000000001,18.724686132507323C9.27022,18.952496132507324,9.45685,19.164676132507324,9.62373,19.392486132507322C9.79719,19.615826132507323,9.92894,19.870436132507322,10.01018,20.140686132507323C10.10679,20.500266132507324,10.06727,20.882176132507325,9.90259,21.214966132507325C9.78402,21.447236132507324,9.60616,21.641546132507322,9.38879,21.775556132507326C9.16921,21.909556132507326,8.916699999999999,21.976556132507326,8.6598,21.969856132507324C8.255790000000001,21.914026132507324,7.86495,21.788956132507323,7.504849999999999,21.599106132507323C6.73854,21.288666132507323,5.906359999999999,21.190396132507324,5.11589,20.949186132507325C4.87217,20.875476132507323,4.635029,20.786146132507323,4.389107,20.719136132507323C4.279321,20.692336132507325,4.17173,20.658836132507325,4.066335,20.614166132507325C3.963136,20.569496132507325,3.873111,20.493566132507326,3.8138261,20.397526132507323C3.7699115,20.319356132507323,3.74795415,20.230016132507323,3.750149884,20.140686132507323C3.75234561,20.051346132507323,3.7699115,19.964246132507323,3.8006517,19.883836132507323C3.859936,19.716326132507323,3.956549,19.566696132507325,4.020225,19.401416132507325C4.116837,19.128936132507324,4.154164,18.836356132507323,4.130011,18.548246132507323C4.116837,18.260136132507323,4.066335,17.972026132507324,4.050965,17.683906132507325C4.037791,17.554376132507326,4.042182,17.424836132507323,4.064139,17.297526132507326C4.097075,17.042916132507322,4.292495,16.839676132507325,4.5450040000000005,16.801706132507324C4.661378,16.781606132507324,4.77775,16.772676132507325,4.8941300000000005,16.779376132507323C5.0105,16.786076132507326,5.1290700000000005,16.786076132507326,5.24544,16.779376132507323C5.36182,16.772676132507325,5.47819,16.739166132507325,5.58139,16.683336132507325C5.67581,16.625266132507324,5.75924,16.544862132507323,5.82292,16.451058132507324C5.8866,16.357254132507325,5.9436800000000005,16.261217132507323,5.99638,16.160713132507325C6.04908,16.060208132507324,6.108359999999999,15.966404132507325,6.17863,15.877067132507324C6.2445,15.785497132507324,6.3345199999999995,15.716260432507324,6.4377200000000006,15.667125032507323Z" fill="#F5BD0C" fill-opacity="1"/></g><g><path d="M6.4377200000000006,15.669355676733398C6.545310000000001,15.626920530333399,6.66169,15.615753376733398,6.775869999999999,15.638087676733399C6.89004,15.660421976733398,6.9976400000000005,15.707323976733399,7.09205,15.774326776733398C7.2743,15.915032776733398,7.43239,16.089239776733397,7.55755,16.283548776733397C7.86714,16.7168367767334,8.16357,17.159056776733397,8.43364,17.6191367767334C8.653220000000001,17.992116776733397,8.85303,18.3762667767334,9.105540000000001,18.726916776733397C9.27022,18.9547267767334,9.45685,19.1669067767334,9.62373,19.394716776733397C9.79719,19.618056776733397,9.928930000000001,19.872666776733396,10.01018,20.142916776733397C10.10679,20.5024967767334,10.06727,20.8844067767334,9.90259,21.2171967767334C9.78402,21.4494667767334,9.60616,21.643776776733397,9.38879,21.7777867767334C9.16921,21.9117867767334,8.916699999999999,21.9787867767334,8.6598,21.9720867767334C8.255790000000001,21.9162567767334,7.86495,21.791186776733397,7.504849999999999,21.6013467767334C6.73854,21.290896776733398,5.906359999999999,21.1926267767334,5.11589,20.9514167767334C4.87217,20.877706776733397,4.635029,20.788376776733397,4.389107,20.721366776733397C4.279321,20.6945667767334,4.17173,20.6610667767334,4.066335,20.6163967767334C3.963136,20.5717267767334,3.873111,20.4957967767334,3.8138261,20.399756776733398C3.7699115,20.321586776733398,3.74795415,20.232246776733398,3.750149884,20.142916776733397C3.75234561,20.053576776733397,3.7699115,19.966476776733398,3.8006517,19.886066776733397C3.859936,19.718566776733397,3.956549,19.5689267767334,4.020225,19.4036467767334C4.116837,19.131166776733398,4.154164,18.838586776733397,4.130011,18.550476776733397C4.116837,18.262366776733398,4.066335,17.9764867767334,4.050965,17.6861467767334C4.037791,17.5566067767334,4.042182,17.427066776733398,4.064139,17.2997567767334C4.097075,17.045146776733397,4.292495,16.8419067767334,4.5450040000000005,16.803936776733398C4.661378,16.7838367767334,4.77775,16.7749067767334,4.8941300000000005,16.781606776733398C5.0105,16.7883067767334,5.1290700000000005,16.7883067767334,5.24544,16.781606776733398C5.36182,16.7749067767334,5.47819,16.7413967767334,5.58139,16.6855667767334C5.67581,16.6274967767334,5.75924,16.547092776733397,5.82292,16.453288776733398C5.8866,16.3594847767334,5.9436800000000005,16.263447776733397,5.99638,16.1629437767334C6.04908,16.062438776733398,6.108359999999999,15.9686347767334,6.17863,15.879297776733399C6.2445,15.787727776733398,6.3345199999999995,15.716257676733399,6.4377200000000006,15.669355676733398Z" fill="#F5BD0C" fill-opacity="1"/></g><g><path d="M6.6068057839441305,15.856964741638183C6.70341578394413,15.818996471638183,6.81100578394413,15.812296141638184,6.91200578394413,15.836863941638184C7.01301578394413,15.861431641638184,7.10742578394413,15.908333641638183,7.1886657839441295,15.975336741638184C7.34456578394413,16.113808741638184,7.47630578394413,16.279082741638184,7.575115783944129,16.464457741638185C7.83860578394413,16.897746741638183,8.09550578394413,17.335496741638185,8.33483578394413,17.78217674163818C8.508305783944131,18.123896741638184,8.70372578394413,18.454446741638183,8.91890578394413,18.769356741638184C9.06821578394413,18.974826741638182,9.23948578394413,19.162436741638185,9.39318578394413,19.363446741638185C9.55347578394413,19.562226741638185,9.67423578394413,19.787796741638182,9.74889578394413,20.031246741638185C9.836715783944129,20.350626741638184,9.79939578394413,20.692336741638183,9.65008578394413,20.989386741638185C9.54029578394413,21.199326741638185,9.37561578394413,21.375766741638184,9.17360578394413,21.494136741638183C8.971605783944131,21.614746741638186,8.73885578394413,21.672816741638183,8.506105783944129,21.661646741638183C8.13942578394413,21.603576741638182,7.78371578394413,21.491906741638182,7.44776578394413,21.328866741638183C6.78026578394413,21.080956741638182,6.05347578394413,21.049686741638183,5.36840578394413,20.85537674163818C5.12248578394413,20.78837674163818,4.88315278394413,20.696806741638184,4.63503578394413,20.634266741638186C4.52524878394413,20.60969674163818,4.41546278394413,20.578436741638185,4.31006778394413,20.538226741638184C4.20467178394413,20.498026741638185,4.11245178394413,20.422096741638185,4.05097118394413,20.326056741638183C4.01144798394413,20.250116741638184,3.99168643394413,20.165246741638185,3.99607789394413,20.080376741638183C4.00046935394413,19.995506741638184,4.0180351839441295,19.910636741638186,4.04877538394413,19.830236741638185C4.10805978394413,19.671656741638184,4.20247678394413,19.526486741638184,4.26176078394413,19.367916741638183C4.34519878394413,19.122236741638183,4.37374378394413,18.863156741638186,4.34739478394413,18.604076741638185C4.32982878394413,18.347236741638184,4.2837187839441295,18.092626741638185,4.27054378394413,17.833546741638184C4.26176078394413,17.719646741638183,4.26615278394413,17.603506741638185,4.28591478394413,17.489596741638184C4.30567578394413,17.375696741638183,4.35837378394413,17.270726741638185,4.43741978394413,17.185856741638183C4.52964078394413,17.100986741638184,4.64381878394413,17.045146741638185,4.76677878394413,17.029516741638183C4.88973978394413,17.013876741638185,5.01270578394413,17.013876741638185,5.13346578394413,17.029516741638183C5.25642578394413,17.045146741638185,5.37938578394413,17.049616741638182,5.50234578394413,17.047386741638185C5.74387578394413,17.047386741638185,5.96345578394413,16.904446741638182,6.06665578394413,16.681099741638185C6.1171557839441295,16.580595741638184,6.16106578394413,16.475624741638185,6.19619578394413,16.370653741638183C6.233525783944129,16.263448741638182,6.28402578394413,16.162944741638185,6.34331578394413,16.066906741638185C6.40479578394413,15.970869741638184,6.4926257839441295,15.894933041638184,6.5958257839441305,15.850264441638183" fill="#F5BD0C" fill-opacity="1"/></g></g></g></svg>