<svg xmlns="http://www.w3.org/2000/svg" xmlns:xlink="http://www.w3.org/1999/xlink" fill="none" version="1.1" width="24" height="24" viewBox="0 0 24 24"><defs><clipPath id="master_svg0_2943_8184"><rect x="0" y="0" width="24" height="24" rx="0"/></clipPath><clipPath id="master_svg1_3118_3647"><rect x="0" y="0" width="24" height="24" rx="0"/></clipPath></defs><g clip-path="url(#master_svg0_2943_8184)"><g clip-path="url(#master_svg1_3118_3647)"></g><g><path d="M4,3L13.25,3C13.8023,3,14.25,3.447715,14.25,4L14.25,7.25C14.25,7.80228,13.8023,8.25,13.25,8.25L4,8.25C3.447715,8.25,3,7.80228,3,7.25L3,4C3,3.447715,3.447715,3,4,3M10.75,9.75L20,9.75C20.5523,9.75,21,10.19772,21,10.75L21,14C21,14.5523,20.5523,15,20,15L10.75,15C10.19772,15,9.75,14.5523,9.75,14L9.75,10.75C9.75,10.19772,10.19772,9.75,10.75,9.75M4,9.75L7.25,9.75C7.80228,9.75,8.25,10.19772,8.25,10.75L8.25,14C8.25,14.5523,7.80228,15,7.25,15L4,15C3.447715,15,3,14.5523,3,14L3,10.75C3,10.19772,3.447715,9.75,4,9.75M16.75,16.5L20,16.5C20.5523,16.5,21,16.947699999999998,21,17.5L21,20C21,20.5523,20.5523,21,20,21L16.75,21C16.197699999999998,21,15.75,20.5523,15.75,20L15.75,17.5C15.75,16.947699999999998,16.197699999999998,16.5,16.75,16.5M16.75,3L20,3C20.5523,3,21,3.447715,21,4L21,7.25C21,7.80228,20.5523,8.25,20,8.25L16.75,8.25C16.197699999999998,8.25,15.75,7.80228,15.75,7.25L15.75,4C15.75,3.447715,16.197699999999998,3,16.75,3M4,16.5L13.25,16.5C13.8023,16.5,14.25,16.947699999999998,14.25,17.5L14.25,20C14.25,20.5523,13.8023,21,13.25,21L4,21C3.447715,21,3,20.5523,3,20L3,17.5C3,16.947699999999998,3.447715,16.5,4,16.5" fill="#C7591E" fill-opacity="1"/></g></g></svg>