<svg xmlns="http://www.w3.org/2000/svg" xmlns:xlink="http://www.w3.org/1999/xlink" fill="none" version="1.1" width="24" height="24" viewBox="0 0 24 24"><defs><clipPath id="master_svg0_2943_7986"><rect x="0" y="0" width="24" height="24" rx="0"/></clipPath><clipPath id="master_svg1_3118_3646"><rect x="0" y="0" width="24" height="24" rx="0"/></clipPath></defs><g clip-path="url(#master_svg0_2943_7986)"><g clip-path="url(#master_svg1_3118_3646)"></g><g><g><path d="M5.29688,16.06849706542969C6.27188,16.06849706542969,7.125,16.931507065429688,7.125,17.917807065429688C7.125,18.904107065429688,6.27188,19.767127065429687,5.29688,19.767127065429687C4.32188,19.767127065429687,3.46875,19.02739706542969,3.46875,17.917807065429688C3.46875,16.808217065429687,4.32188,16.06849706542969,5.29688,16.06849706542969ZM5.29688,14.835617065429688C3.59063,14.835617065429688,2.25,16.191777065429687,2.25,17.917807065429688C2.25,19.643837065429686,3.59063,20.99999706542969,5.29688,20.99999706542969C7.00313,20.99999706542969,8.34375,19.643837065429686,8.34375,17.917807065429688C8.34375,16.191777065429687,7.00313,14.835617065429688,5.29688,14.835617065429688Z" fill="#5AD694" fill-opacity="1"/></g><g><path d="M12.000005,4.23288C12.975005,4.23288,13.828125,5.09589,13.828125,6.082190000000001C13.828125,7.06849,12.975005,7.93151,12.000005,7.93151C11.025005,7.93151,10.171875,7.06849,10.171875,6.082190000000001C10.171875,5.09589,11.025005,4.23288,12.000005,4.23288ZM12.000005,3C10.293755,3,8.953125,4.35616,8.953125,6.082190000000001C8.953125,7.80822,10.293755,9.164380000000001,12.000005,9.164380000000001C13.706254999999999,9.164380000000001,15.046875,7.80822,15.046875,6.082190000000001C15.046875,4.35616,13.706254999999999,3,12.000005,3Z" fill="#5AD694" fill-opacity="1"/></g><g><path d="M18.70313,16.06849706542969C19.67813,16.06849706542969,20.53125,16.931507065429688,20.53125,17.917807065429688C20.53125,18.904107065429688,19.67813,19.767127065429687,18.70313,19.767127065429687C17.72813,19.767127065429687,16.875,19.02739706542969,16.875,17.917807065429688C16.875,16.808217065429687,17.72813,16.06849706542969,18.70313,16.06849706542969ZM18.70313,14.835617065429688C16.99688,14.835617065429688,15.65625,16.191777065429687,15.65625,17.917807065429688C15.65625,19.643837065429686,16.99688,20.99999706542969,18.70313,20.99999706542969C20.40938,20.99999706542969,21.75,19.643837065429686,21.75,17.917807065429688C21.75,16.191777065429687,20.40938,14.835617065429688,18.70313,14.835617065429688Z" fill="#5AD694" fill-opacity="1"/></g><g><path d="M12.9749755859375,8.917806713378907C13.3406005859375,8.794519713378905,13.7062255859375,8.547943713378906,13.9499755859375,8.301368713378906L17.7281055859375,15.082188713378907C17.3624755859375,15.205478713378906,16.9968555859375,15.452048713378908,16.6312255859375,15.698628713378906L12.9749755859375,8.917806713378907Z" fill="#5AD694" fill-opacity="1"/></g><g><path d="M6.2718505859375,15.082188713378907L10.0499805859375,8.301368713378906C10.4156005859375,8.547943713378906,10.6593505859375,8.794519713378905,11.1468505859375,8.917806713378907L7.2468505859375,15.698628713378906C7.0031005859375,15.452048713378908,6.6374755859375,15.205478713378906,6.2718505859375,15.082188713378907Z" fill="#5AD694" fill-opacity="1"/></g><g><path d="M7.47186279296875,18.657528713378905C7.59373779296875,18.410958713378907,7.59373779296875,18.164382713378906,7.59373779296875,17.917807713378906C7.59373779296875,17.671232713378906,7.59373779296875,17.547943713378906,7.47186279296875,17.301368713378906L16.40624279296875,17.301368713378906C16.40624279296875,17.547943713378906,16.28436279296875,17.671232713378906,16.28436279296875,17.917807713378906C16.28436279296875,18.164382713378906,16.28436279296875,18.287670713378905,16.40624279296875,18.534248713378908L7.47186279296875,18.534248713378908L7.47186279296875,18.657528713378905Z" fill="#5AD694" fill-opacity="1"/></g></g></g></svg>