<svg xmlns="http://www.w3.org/2000/svg" xmlns:xlink="http://www.w3.org/1999/xlink" fill="none" version="1.1" width="24" height="24" viewBox="0 0 24 24"><defs><clipPath id="master_svg0_3118_3641"><rect x="0" y="0" width="24" height="24" rx="0"/></clipPath></defs><g><g clip-path="url(#master_svg0_3118_3641)"></g><g><path d="M22,12C22,17.5228,17.5228,22,12,22C6.47715,22,2,17.5228,2,12C2,6.47715,6.47715,2,12,2C17.5228,2,22,6.47715,22,12ZM21.5,12Q21.5,10.18793,20.833,8.5031Q20.1088,6.67373,18.7175,5.28249Q17.3263,3.89124,15.4969,3.1670100000000003Q13.8121,2.5,12,2.5Q10.18794,2.5,8.5031,3.1670100000000003Q6.67373,3.89124,5.28249,5.28249Q3.89124,6.67373,3.1670100000000003,8.5031Q2.5,10.18793,2.5,12Q2.5,13.8121,3.1670100000000003,15.4969Q3.89124,17.3263,5.28249,18.7175Q6.67373,20.1088,8.5031,20.833Q10.18793,21.5,12,21.5Q13.8121,21.5,15.4969,20.833Q17.3263,20.1088,18.7175,18.7175Q20.1088,17.3263,20.833,15.4969Q21.5,13.8121,21.5,12Z" fill-rule="evenodd" fill="#3769BD" fill-opacity="1"/></g><g><ellipse cx="12" cy="12" rx="8" ry="8" fill="#7DBC09" fill-opacity="1"/></g><g><path d="M9.819249919891357,12.80400032043457L7.934249919891357,12.80400032043457L7.505249919891357,14.00000032043457L6.627749919891357,14.00000032043457L8.317749919891357,9.48900032043457L9.461749919891357,9.48900032043457L11.138749919891357,14.00000032043457L10.235249919891357,14.00000032043457L9.819249919891357,12.80400032043457ZM9.565749919891358,12.08900032043457L8.922249919891357,10.24950032043457L8.844249919891357,10.24950032043457L8.187749919891358,12.08900032043457L9.565749919891358,12.08900032043457ZM11.704249919891357,9.48900032043457L12.555749919891358,9.48900032043457L12.555749919891358,14.00000032043457L11.704249919891357,14.00000032043457L11.704249919891357,9.48900032043457ZM14.642249919891357,11.70550032043457L13.309749919891358,9.48900032043457L14.304249919891358,9.48900032043457L15.246749919891357,11.18550032043457L15.285749919891357,11.18550032043457L16.273749919891358,9.48900032043457L17.242249919891357,9.48900032043457L15.877249919891357,11.66650032043457L17.287749919891358,14.00000032043457L16.280249919891357,14.00000032043457L15.279249919891358,12.22550032043457L15.240249919891358,12.22550032043457L14.180749919891358,14.00000032043457L13.205749919891357,14.00000032043457L14.642249919891357,11.70550032043457Z" fill="#FFFFFF" fill-opacity="1"/></g></g></svg>