<svg xmlns="http://www.w3.org/2000/svg" xmlns:xlink="http://www.w3.org/1999/xlink" fill="none" version="1.1" width="24" height="24" viewBox="0 0 24 24"><defs><clipPath id="master_svg0_2943_8157"><rect x="0" y="0" width="24" height="24" rx="0"/></clipPath><clipPath id="master_svg1_3118_3645"><rect x="0" y="0" width="24" height="24" rx="0"/></clipPath></defs><g clip-path="url(#master_svg0_2943_8157)"><g clip-path="url(#master_svg1_3118_3645)"></g><g><path d="M3,18.5L3.5,18.5L3.5,19C3.5,19.55,3.95,20,4.5,20L6.5,20C7.05,20,7.5,19.55,7.5,19L7.5,18.5L16.5,18.5L16.5,19C16.5,19.55,16.95,20,17.5,20L19.5,20C20.05,20,20.5,19.55,20.5,19L20.5,18.5L21,18.5C22.1,18.5,23,17.6,23,16.5L1,16.5C1,17.6,1.9,18.5,3,18.5ZM21,12L19,12L19,4.75C19,4.35,18.65,4,18.25,4C17.85,4,17.5,4.35,17.5,4.75L17.5,12L6.5,12L6.5,4.75C6.5,4.35,6.15,4,5.75,4C5.35,4,5,4.35,5,4.75L5,12L3,12C1.9,12,1.000000114441,12.9,1.000000114441,14L1.000000114441,15.5L23,15.5L23,14C23,12.9,22.1,12,21,12ZM13.25,14.5C12.85,14.5,12.5,14.15,12.5,13.75C12.5,13.35,12.85,13,13.25,13C13.65,13,14,13.35,14,13.75C14,14.15,13.65,14.5,13.25,14.5ZM15.75,14.5C15.35,14.5,15,14.15,15,13.75C15,13.35,15.35,13,15.75,13C16.15,13,16.5,13.35,16.5,13.75C16.5,14.15,16.15,14.5,15.75,14.5ZM18.25,14.5C17.85,14.5,17.5,14.15,17.5,13.75C17.5,13.35,17.85,13,18.25,13C18.65,13,19,13.35,19,13.75C19,14.15,18.65,14.5,18.25,14.5Z" fill="#8F8FF1" fill-opacity="1"/></g></g></svg>