<svg xmlns="http://www.w3.org/2000/svg" xmlns:xlink="http://www.w3.org/1999/xlink" fill="none" version="1.1" width="24" height="24" viewBox="0 0 24 24"><defs><clipPath id="master_svg0_2943_7967"><rect x="0" y="0" width="24" height="24" rx="0"/></clipPath><clipPath id="master_svg1_3118_3642"><rect x="0" y="0" width="24" height="24" rx="0"/></clipPath></defs><g clip-path="url(#master_svg0_2943_7967)"><g clip-path="url(#master_svg1_3118_3642)"></g><g><path d="M2.15625,6.5625L21.8438,6.5625C22.6204,6.5625,23.25,7.192102,23.25,7.96875L23.25,16.05469C23.25,16.8313,22.6204,17.460900000000002,21.8438,17.460900000000002L2.15625,17.460900000000002C1.379602,17.460900000000002,0.75,16.8313,0.75,16.05469L0.75,7.96875C0.75,7.192102,1.379602,6.5625,2.15625,6.5625ZM2.2777700000000003,8.90977L2.3148,8.90977L2.3148,12.17812C2.3148,12.855540000000001,2.35181,13.37848,2.43818,13.72312C2.49987,13.96083,2.61091,14.18665,2.79598,14.400590000000001C2.98104,14.6145,3.22779,14.79279,3.53623,14.92352C3.85702,15.05426,4.31353,15.12556,4.91808,15.12556C5.42393,15.12556,5.83109,15.05426,6.13952,14.93541C6.44796,14.80467,6.69474,14.63829,6.8798,14.43623C7.06486,14.234200000000001,7.18823,13.97273,7.26227,13.67559C7.32396,13.36659,7.36097,12.855540000000001,7.36097,12.11869L7.36097,8.90977L6.07784,8.90977L6.07784,12.296949999999999C6.07784,12.772359999999999,6.05316,13.11703,6.01615,13.33095C5.97912,13.53298,5.86809,13.711269999999999,5.68303,13.85388C5.49795,13.996500000000001,5.21419,14.0678,4.85639,14.0678C4.49859,14.0678,4.21481,13.996500000000001,4.00507,13.841999999999999C3.79533,13.68748,3.6596,13.48544,3.61027,13.235859999999999C3.57323,13.08136,3.56091,12.73669,3.56091,12.213750000000001L3.56091,8.90977L2.2777700000000003,8.90977ZM8.33566,8.90977L8.33566,15.0067L9.53243,15.0067L9.53243,11.02528L12.074,15.01859L13.3572,15.01859L13.3572,8.90977L12.1727,8.90977L12.1727,12.98625L9.58179,8.90977L8.33566,8.90977ZM14.3318,15.0067L14.3318,15.01859L15.615,15.01859L15.615,8.90977L14.3318,8.90977L14.3318,15.0067ZM15.8247,15.0067L17.367,15.0067L18.7735,12.891210000000001L20.18,15.0067L21.7222,15.0067L19.5507,11.8691L21.5248,8.89788L20.0443,8.89788L18.7982,10.8589L17.5274,8.89788L16.0345,8.89788L17.9962,11.821570000000001L15.8247,15.0067Z" fill="#333333" fill-opacity="1"/></g></g></svg>