<svg xmlns="http://www.w3.org/2000/svg" xmlns:xlink="http://www.w3.org/1999/xlink" fill="none" version="1.1" width="24" height="24" viewBox="0 0 24 24"><defs><clipPath id="master_svg0_2943_8071"><rect x="0" y="0" width="24" height="24" rx="0"/></clipPath><clipPath id="master_svg1_3118_3643"><rect x="0" y="0" width="24" height="24" rx="0"/></clipPath></defs><g clip-path="url(#master_svg0_2943_8071)"><g clip-path="url(#master_svg1_3118_3643)"></g><g><path d="M5,20L3,20C1.9,20,1,19.1,1,18L1,10C1,8.9,1.9,8,3,8L5,8L5,20ZM19,20L21,20C22.1,20,23,19.1,23,18L23,10.5C23,9.4,22.1,8.5,21,8.5L19,8.5L19,20ZM11.66,12.75C11.66,13.35,11.81,13.65,12.06,13.65C12.36,13.65,12.51,13.35,12.51,12.75C12.51,12.1,12.36,11.8,12.06,11.8C11.76,11.85,11.66,12.15,11.66,12.75ZM15.5,4L8.5,4C7.4,4,6.5,4.9,6.5,6L6.5,20L17.5,20L17.5,6C17.5,4.9,16.6,4.000000457764,15.5,4ZM13.16,8.15C12.71,8.1,12.41,7.85,12.31,7.4C12.36,6.85,12.66,6.55,13.31,6.5C13.81,6.55,14.06,6.65,14.11,6.9C14.11,7.1,14.01,7.2,13.86,7.2C13.81,7.2,13.76,7.2,13.66,7.15C13.51,7.1,13.41,7.1,13.36,7.1C13.16,7.1,13.06,7.2,13.01,7.35C13.01,7.45,13.16,7.55,13.46,7.65C13.96,7.7,14.26,8,14.36,8.55C14.31,9.1,13.96,9.4,13.31,9.45C12.66,9.45,12.36,9.3,12.36,9.05C12.36,8.85,12.46,8.8,12.61,8.75C12.66,8.75,12.76,8.75,12.91,8.8C13.06,8.85,13.21,8.9,13.31,8.9C13.56,8.9,13.71,8.75,13.71,8.55C13.66,8.4,13.51,8.3,13.16,8.15ZM13.16,12.75C13.11,13.7,12.76,14.2,12.11,14.2C11.46,14.2,11.11,13.7,11.06,12.75C11.11,11.8,11.46,11.3,12.11,11.3C12.76,11.3,13.11,11.8,13.16,12.75ZM9.76,9.05L10.56,6.85C10.66,6.65,10.76,6.55,10.96,6.5C11.16,6.5,11.31,6.6,11.41,6.85L12.21,9C12.21,9.05,12.26,9.1,12.26,9.15C12.26,9.3,12.16,9.4,11.96,9.4C11.81,9.4,11.71,9.35,11.66,9.2L11.56,8.8L10.46,8.8L10.31,9.2C10.26,9.35,10.16,9.4,10.01,9.4C9.81,9.4,9.76,9.3,9.71,9.15Q9.76,9.1,9.76,9.05ZM10.56,13.55L10.56,13.9C10.56,14.1,10.46,14.2,10.26,14.2C10.06,14.2,9.96,14.1,9.96,13.9L9.96,13.55L9.01,13.55C8.86,13.55,8.76,13.45,8.71,13.3C8.71,13.25,8.71,13.15,8.76,13.1L9.66,11.5C9.76,11.35,9.86,11.25,10.06,11.25C10.36,11.25,10.51,11.45,10.51,11.75L10.51,13L10.56,13C10.76,13,10.81,13.1,10.86,13.25C10.86,13.4,10.76,13.5,10.56,13.5L10.56,13.55ZM12.25,18.5C11.55,18.5,11,17.95,11,17.25C11,16.55,11.55,16,12.25,16C12.95,16,13.5,16.55,13.5,17.25C13.5,17.95,12.95,18.5,12.25,18.5ZM14.36,14.2C13.71,14.2,13.36,13.7,13.31,12.75C13.36,11.8,13.71,11.3,14.36,11.3C15.06,11.3,15.41,11.8,15.41,12.75C15.41,13.7,15.01,14.2,14.36,14.2ZM14.36,11.85C14.06,11.85,13.91,12.15,13.96,12.8C13.96,13.4,14.11,13.7,14.36,13.7C14.66,13.7,14.81,13.4,14.81,12.8C14.81,12.15,14.66,11.85,14.36,11.85ZM9.41,13.05L9.96,13.05L9.96,11.95L9.41,13.05ZM11.01,7.1L10.61,8.25L11.36,8.25L11.01,7.1Z" fill="#69B4FF" fill-opacity="1"/></g></g></svg>