<svg xmlns="http://www.w3.org/2000/svg" xmlns:xlink="http://www.w3.org/1999/xlink" fill="none" version="1.1" width="24" height="24" viewBox="0 0 24 24"><defs><clipPath id="master_svg0_3253_35886"><rect x="0" y="0" width="24" height="24" rx="0"/></clipPath><clipPath id="master_svg1_3253_35887"><rect x="0" y="0" width="24" height="24" rx="2"/></clipPath><clipPath id="master_svg2_3253_35890"><rect x="2" y="2" width="20" height="20" rx="0"/></clipPath></defs><g><g clip-path="url(#master_svg0_3253_35886)"></g><g clip-path="url(#master_svg1_3253_35887)"><g clip-path="url(#master_svg2_3253_35890)"><g><path d="M12,4.5C12,4.5,17.625,10.75,17.625,10.75C17.625,10.75,6.375,10.75,6.375,10.75C6.375,10.75,12,4.5,12,4.5C12,4.5,12,4.5,12,4.5ZM6.375,13.25C6.375,13.25,17.625,13.25,17.625,13.25C17.625,13.25,12,19.5,12,19.5C12,19.5,6.375,13.25,6.375,13.25C6.375,13.25,6.375,13.25,6.375,13.25Z" fill="#CDCACF" fill-opacity="1"/></g></g></g></g></svg>