<svg xmlns="http://www.w3.org/2000/svg" xmlns:xlink="http://www.w3.org/1999/xlink" fill="none" version="1.1" width="24" height="24" viewBox="0 0 24 24"><defs><clipPath id="master_svg0_973_41180"><rect x="0" y="0" width="24" height="24" rx="0"/></clipPath><clipPath id="master_svg1_3118_3534"><rect x="0" y="0" width="24" height="24" rx="0"/></clipPath></defs><g clip-path="url(#master_svg0_973_41180)"><g clip-path="url(#master_svg1_3118_3534)"></g><g><path d="M11,6.272727966308594Q11,6.174236566308593,11.019214999999999,6.077637966308593Q11.03843,5.981038966308594,11.076121,5.890044966308594Q11.113812,5.799049966308594,11.16853,5.717157966308593Q11.223249,5.635264966308593,11.292893,5.565620966308594Q11.362537,5.495976966308594,11.44443,5.441257966308593Q11.526322,5.386539966308594,11.617317,5.348848966308593Q11.708311,5.311157966308594,11.80491,5.291942966308594Q11.9015086,5.272727966308594,12,5.272727966308594Q12.0984914,5.272727966308594,12.19509,5.291942966308594Q12.291689,5.311157966308594,12.382683,5.348848966308593Q12.473678,5.386539966308594,12.55557,5.441257966308593Q12.637463,5.495976966308594,12.707107,5.565620966308594Q12.776751,5.635264966308593,12.83147,5.717157966308593Q12.886188,5.799049966308594,12.923879,5.890044966308594Q12.96157,5.981038966308594,12.980785000000001,6.077637966308593Q13,6.174236566308593,13,6.272727966308594L13,10.999997966308594L17.72727,10.999997966308594Q17.82576,10.999997966308594,17.92236,11.019217966308593Q18.01896,11.038427966308593,18.10995,11.076117966308594Q18.20095,11.113807966308594,18.28284,11.168527966308595Q18.36473,11.223247966308595,18.43438,11.292897966308594Q18.50402,11.362537966308594,18.55874,11.444427966308595Q18.61346,11.526327966308592,18.65115,11.617317966308594Q18.68884,11.708307966308594,18.70806,11.804907966308594Q18.72727,11.901507966308593,18.72727,11.999997966308594Q18.72727,12.098487966308593,18.70806,12.195087966308595Q18.68884,12.291687966308594,18.65115,12.382687966308595Q18.61346,12.473677966308593,18.55874,12.555567966308594Q18.50402,12.637457966308594,18.43438,12.707107966308595Q18.36473,12.776747966308594,18.28284,12.831467966308594Q18.20095,12.886187966308594,18.10995,12.923877966308595Q18.01896,12.961567966308593,17.92236,12.980787966308593Q17.82576,12.999997966308594,17.72727,12.999997966308594L12,12.999997966308594Q11.9015086,12.999997966308594,11.80491,12.980787966308593Q11.708311,12.961567966308593,11.617317,12.923877966308595Q11.526322,12.886187966308594,11.44443,12.831467966308594Q11.362537,12.776747966308594,11.292893,12.707107966308595Q11.223249,12.637457966308594,11.16853,12.555567966308594Q11.113812,12.473677966308593,11.076121,12.382687966308595Q11.03843,12.291687966308594,11.019214999999999,12.195087966308595Q11,12.098487966308593,11,11.999997966308594L11,6.272727966308594Z" fill-rule="evenodd" fill="#38363C" fill-opacity="1"/></g><g><path d="M15.8928,2.78626Q14.0338,2,12,2Q9.96617,2,8.107240000000001,2.78626Q6.31249,3.545378,4.92893,4.92893Q3.545378,6.31249,2.78626,8.107240000000001Q2,9.96617,2,12Q2,14.0338,2.78626,15.8928Q3.545379,17.6875,4.92893,19.0711Q6.31249,20.4546,8.107240000000001,21.2137Q9.96616,22,12,22Q14.0338,22,15.8928,21.2137Q17.6875,20.4546,19.0711,19.0711Q20.4546,17.6875,21.2137,15.8928Q22,14.0338,22,12Q22,9.96617,21.2137,8.107240000000001Q20.4546,6.31249,19.0711,4.92893Q17.6875,3.5453770000000002,15.8928,2.78626ZM6.34315,6.34315Q8.68629,4,12,4Q15.3137,4,17.6569,6.34315Q20,8.68629,20,12Q20,15.3137,17.6569,17.6569Q15.3137,20,12,20Q8.68629,20,6.34315,17.6569Q4,15.3137,4,12Q4,8.68629,6.34315,6.34315Z" fill-rule="evenodd" fill="#38363C" fill-opacity="1"/></g></g></svg>