<svg xmlns="http://www.w3.org/2000/svg" xmlns:xlink="http://www.w3.org/1999/xlink" fill="none" version="1.1" width="24" height="24" viewBox="0 0 24 24"><defs><clipPath id="master_svg0_3105_3551"><rect x="0" y="0" width="24" height="24" rx="0"/></clipPath></defs><g><g clip-path="url(#master_svg0_3105_3551)"></g><g><g><path d="M21.999990463256836,12C21.999990463256836,17.5228,17.522790463256836,22,11.999990463256836,22C6.477140463256836,22,1.999990463256836,17.5228,1.999990463256836,12C1.999990463256836,6.47715,6.477140463256836,2,11.999990463256836,2C17.522790463256836,2,21.999990463256836,6.47715,21.999990463256836,12ZM20.499990463256836,12Q20.499990463256836,10.37868,19.903190463256834,8.8712Q19.255190463256834,7.23439,18.010390463256837,5.98959Q16.765590463256835,4.7448,15.128790463256836,4.0968Q13.621290463256836,3.5,11.999990463256836,3.5Q10.378670463256835,3.5,8.871190463256836,4.0968Q7.234380463256836,4.7448,5.989580463256836,5.98959Q4.744790463256836,7.23439,4.096790463256836,8.8712Q3.499990463256836,10.37868,3.499990463256836,12Q3.499990463256836,13.6213,4.096790463256836,15.1288Q4.744790463256836,16.7656,5.989580463256836,18.0104Q7.234380463256836,19.2552,8.871190463256836,19.9032Q10.378670463256835,20.5,11.999990463256836,20.5Q13.621290463256836,20.5,15.128790463256836,19.9032Q16.765590463256835,19.2552,18.010390463256837,18.0104Q19.255190463256834,16.7656,19.903190463256834,15.1288Q20.499990463256836,13.6213,20.499990463256836,12Z" fill-rule="evenodd" fill="#6B7280" fill-opacity="1"/></g><g><path d="M12.010508529663086,8.361497680664062Q11.401508529663086,8.361497680664062,11.160008529663086,8.172497680664062Q10.918508529663086,7.983497680664063,10.918508529663086,7.290497680664062Q10.918508529663086,6.576497680664063,11.160008529663086,6.397997680664062Q11.401508529663086,6.2194976806640625,12.010508529663086,6.2194976806640625Q12.577508529663087,6.2194976806640625,12.829508529663086,6.397997680664062Q13.081508529663086,6.576497680664063,13.081508529663086,7.290497680664062Q13.081508529663086,7.983497680664063,12.829508529663086,8.172497680664062Q12.577508529663087,8.361497680664062,12.010508529663086,8.361497680664062ZM11.086508529663085,10.440497680664063L12.892508529663086,10.440497680664063L12.892508529663086,17.780497680664062L11.086507529663086,17.780497680664062L11.086508529663085,10.440497680664063Z" fill="#6B7280" fill-opacity="1"/></g></g></g></svg>