<svg xmlns="http://www.w3.org/2000/svg" xmlns:xlink="http://www.w3.org/1999/xlink" fill="none" version="1.1" width="24" height="24" viewBox="0 0 24 24"><defs><clipPath id="master_svg0_5042_13668"><rect x="0" y="0" width="24" height="24" rx="0"/></clipPath><clipPath id="master_svg1_5042_13683"><rect x="2" y="2" width="20" height="20" rx="0"/></clipPath></defs><g><g clip-path="url(#master_svg0_5042_13668)"></g><g clip-path="url(#master_svg1_5042_13683)"><g><g><g><path d="M8.500081046875,2.68780517578125L15.500078046875,2.68780517578125C15.822248046875,2.68780517578125,16.083418046875,2.94897217578125,16.083418046875,3.27113817578125L16.083438046875,9.77130517578125L7.916748046875,9.77130517578125L7.916748046875,3.27113817578125C7.916748046875,2.94897217578125,8.177915046875,2.68780517578125,8.500081046875,2.68780517578125Z" fill="#FFFFFF" fill-opacity="1"/></g><g><path d="M8.500081046875,2.68780517578125L10.541748046875,2.68780517578125L10.541748046875,9.77130517578125L7.916748046875,9.77130517578125L7.916748046875,3.27113817578125C7.916747779846,2.94897217578125,8.177915046875,2.68780517578125,8.500081046875,2.68780517578125ZM13.458418046875,2.68780517578125L15.500078046875,2.68780517578125C15.822248046875,2.68780517578125,16.083418046875,2.94897217578125,16.083418046875,3.27113817578125L16.083438046875,9.77130517578125L13.458438046875,9.77130517578125L13.458418046875,2.68780517578125Z" fill="#D20326" fill-opacity="1"/></g></g><g><g><path d="M20.16661298828125,13.14549080078125Q20.16661298828125,13.34597080078125,20.15681298828125,13.54620080078125Q20.14701298828125,13.74644080078125,20.12731298828125,13.94596080078125Q20.10771298828125,14.14547080078125,20.07821298828125,14.34378080078125Q20.04881298828125,14.54210080078125,20.00971298828125,14.73872080078125Q19.97061298828125,14.93535080078125,19.92191298828125,15.12982080078125Q19.87321298828125,15.32432080078125,19.81501298828125,15.51612080078125Q19.75681298828125,15.70802080078125,19.68921298828125,15.89672080078125Q19.62171298828125,16.08552080078125,19.54501298828125,16.27072080078125Q19.468312988281248,16.45592080078125,19.38251298828125,16.63722080078125Q19.29681298828125,16.81842080078125,19.20231298828125,16.99522080078125Q19.10781298828125,17.172020800781247,19.00471298828125,17.34402080078125Q18.90171298828125,17.515920800781252,18.79031298828125,17.68262080078125Q18.678912988281247,17.84932080078125,18.55951298828125,18.01032080078125Q18.44011298828125,18.17142080078125,18.312912988281248,18.32632080078125Q18.18571298828125,18.481320800781248,18.05111298828125,18.62992080078125Q17.91641298828125,18.778420800781248,17.77471298828125,18.92022080078125Q17.632912988281248,19.06192080078125,17.48441298828125,19.19662080078125Q17.335812988281248,19.33122080078125,17.18081298828125,19.458420800781248Q17.02591298828125,19.58562080078125,16.86481298828125,19.70502080078125Q16.70381298828125,19.824420800781247,16.53711298828125,19.93582080078125Q16.370412988281252,20.04722080078125,16.19851298828125,20.15022080078125Q16.026512988281247,20.25332080078125,15.84971298828125,20.34782080078125Q15.67291298828125,20.44232080078125,15.49171298828125,20.52802080078125Q15.31041298828125,20.613820800781248,15.12521298828125,20.69052080078125Q14.94001298828125,20.76722080078125,14.75121298828125,20.83472080078125Q14.56251298828125,20.90232080078125,14.37061298828125,20.96052080078125Q14.17881298828125,21.01872080078125,13.98431298828125,21.06742080078125Q13.78984298828125,21.11612080078125,13.59321298828125,21.15522080078125Q13.39659298828125,21.19432080078125,13.19827298828125,21.22372080078125Q12.99996298828125,21.25322080078125,12.80045298828125,21.27282080078125Q12.60093298828125,21.29252080078125,12.40069298828125,21.30232080078125Q12.20046298828125,21.31212080078125,11.99998298828125,21.31212080078125Q11.799502988281251,21.31212080078125,11.59926298828125,21.30232080078125Q11.39902298828125,21.29252080078125,11.19950298828125,21.27282080078125Q10.99999298828125,21.25322080078125,10.80168298828125,21.22372080078125Q10.60337298828125,21.19432080078125,10.40674298828125,21.15522080078125Q10.21011298828125,21.11612080078125,10.01564298828125,21.06742080078125Q9.821172988281251,21.01872080078125,9.629322988281249,20.96052080078125Q9.43747298828125,20.90232080078125,9.24871298828125,20.83472080078125Q9.05995298828125,20.76722080078125,8.874732988281249,20.69052080078125Q8.689512988281251,20.613820800781248,8.508272988281249,20.52802080078125Q8.32704298828125,20.44232080078125,8.15024298828125,20.34782080078125Q7.97343298828125,20.25332080078125,7.80147298828125,20.15022080078125Q7.62951298828125,20.04722080078125,7.46282298828125,19.93582080078125Q7.29613298828125,19.824420800781247,7.1351029882812504,19.70502080078125Q6.97407298828125,19.58562080078125,6.81910298828125,19.458420800781248Q6.66412298828125,19.33122080078125,6.51558298828125,19.19662080078125Q6.367032988281251,19.06192080078125,6.22527298828125,18.92022080078125Q6.0835129882812495,18.778420800781248,5.94888298828125,18.62992080078125Q5.81424298828125,18.481320800781248,5.68706298828125,18.32632080078125Q5.55987298828125,18.17142080078125,5.44045298828125,18.01032080078125Q5.32102298828125,17.84932080078125,5.20964298828125,17.68262080078125Q5.09826298828125,17.515920800781252,4.99519298828125,17.34402080078125Q4.89213298828125,17.172020800781247,4.79762298828125,16.99522080078125Q4.70311698828125,16.81842080078125,4.6173999882812495,16.63722080078125Q4.53168398828125,16.45592080078125,4.45496298828125,16.27072080078125Q4.37824298828125,16.08552080078125,4.31070298828125,15.89672080078125Q4.24316298828125,15.70802080078125,4.18496698828125,15.51612080078125Q4.12676998828125,15.32432080078125,4.07805798828125,15.12982080078125Q4.02934498828125,14.93535080078125,3.99023298828125,14.73872080078125Q3.95112098828125,14.54210080078125,3.92170478828125,14.34378080078125Q3.89228818828125,14.14547080078125,3.87263768828125,13.94596080078125Q3.85298718828125,13.74644080078125,3.84315008828125,13.54620080078125Q3.83331298828125,13.34597080078125,3.83331298828125,13.14549080078125Q3.83331298828125,12.945010800781251,3.84315008828125,12.74477080078125Q3.85298718828125,12.54453080078125,3.87263768828125,12.34501080078125Q3.89228818828125,12.14550080078125,3.92170478828125,11.94719080078125Q3.95112098828125,11.74888080078125,3.99023298828125,11.55225080078125Q4.02934498828125,11.35562080078125,4.07805798828125,11.16115080078125Q4.12676998828125,10.966680800781251,4.18496698828125,10.774830800781249Q4.24316298828125,10.58298080078125,4.31070298828125,10.39422080078125Q4.37824298828125,10.20546080078125,4.45496298828125,10.020240800781249Q4.53168398828125,9.835020800781251,4.6173999882812495,9.653780800781249Q4.70311698828125,9.47255080078125,4.79762298828125,9.29575080078125Q4.89213298828125,9.11894080078125,4.99519298828125,8.946980800781251Q5.09826298828125,8.775020800781249,5.20964298828125,8.60833080078125Q5.32102298828125,8.44164080078125,5.44045298828125,8.28061080078125Q5.55987298828125,8.11958080078125,5.68706298828125,7.96461080078125Q5.81424298828125,7.80963080078125,5.94888298828125,7.66109080078125Q6.0835129882812495,7.512540800781251,6.22527298828125,7.37078080078125Q6.367032988281251,7.2290208007812495,6.51558298828125,7.09439080078125Q6.66412298828125,6.95975080078125,6.81910298828125,6.83257080078125Q6.97407298828125,6.70538080078125,7.1351029882812504,6.58596080078125Q7.29613298828125,6.46653080078125,7.46282298828125,6.35515080078125Q7.62951298828125,6.24377080078125,7.80147298828125,6.14070080078125Q7.97343298828125,6.03764080078125,8.15024298828125,5.94313080078125Q8.32704298828125,5.84862480078125,8.50828298828125,5.7629078007812495Q8.689512988281251,5.67719180078125,8.874732988281249,5.60047080078125Q9.05995298828125,5.52375080078125,9.24871298828125,5.45621080078125Q9.43747298828125,5.38867080078125,9.629322988281249,5.33047480078125Q9.821172988281251,5.27227780078125,10.01564298828125,5.22356580078125Q10.21011298828125,5.17485280078125,10.40674298828125,5.13574080078125Q10.60337298828125,5.09662880078125,10.80168298828125,5.06721260078125Q10.99999298828125,5.03779600078125,11.19950298828125,5.01814550078125Q11.39902298828125,4.99849500078125,11.59926298828125,4.98865790078125Q11.799502988281251,4.97882080078125,11.99998298828125,4.97882080078125Q12.20046298828125,4.97882080078125,12.40069298828125,4.98865790078125Q12.60093298828125,4.99849500078125,12.80045298828125,5.01814550078125Q12.99996298828125,5.03779600078125,13.19827298828125,5.06721260078125Q13.39659298828125,5.09662880078125,13.59321298828125,5.13574080078125Q13.78984298828125,5.17485280078125,13.98431298828125,5.22356580078125Q14.17881298828125,5.27227780078125,14.37061298828125,5.33047480078125Q14.56251298828125,5.38867080078125,14.75121298828125,5.45621080078125Q14.94001298828125,5.52375080078125,15.12521298828125,5.60047080078125Q15.31041298828125,5.67719180078125,15.49171298828125,5.7629078007812495Q15.67291298828125,5.84862480078125,15.84971298828125,5.94313080078125Q16.026512988281247,6.03764080078125,16.19851298828125,6.14070080078125Q16.370412988281252,6.24377080078125,16.53711298828125,6.35515080078125Q16.70381298828125,6.46653080078125,16.86481298828125,6.58596080078125Q17.02591298828125,6.70538080078125,17.18081298828125,6.83257080078125Q17.335812988281248,6.95975080078125,17.48441298828125,7.09439080078125Q17.632912988281248,7.2290208007812495,17.77471298828125,7.37078080078125Q17.91641298828125,7.512540800781251,18.05111298828125,7.66109080078125Q18.18571298828125,7.80963080078125,18.312912988281248,7.96461080078125Q18.44011298828125,8.11958080078125,18.55951298828125,8.28061080078125Q18.678912988281247,8.44164080078125,18.79031298828125,8.60833080078125Q18.90171298828125,8.775020800781249,19.00471298828125,8.946980800781251Q19.10781298828125,9.11894080078125,19.20231298828125,9.29575080078125Q19.29681298828125,9.47255080078125,19.38251298828125,9.65379080078125Q19.468312988281248,9.835020800781251,19.54501298828125,10.020240800781249Q19.62171298828125,10.20546080078125,19.68921298828125,10.39422080078125Q19.75681298828125,10.58298080078125,19.81501298828125,10.774830800781249Q19.87321298828125,10.966680800781251,19.92191298828125,11.16115080078125Q19.97061298828125,11.35562080078125,20.00971298828125,11.55225080078125Q20.04881298828125,11.74888080078125,20.07821298828125,11.94719080078125Q20.10771298828125,12.14550080078125,20.12731298828125,12.34501080078125Q20.14701298828125,12.54453080078125,20.15681298828125,12.74477080078125Q20.16661298828125,12.945010800781251,20.16661298828125,13.14549080078125Z" fill="#FFDD00" fill-opacity="1"/></g><g><path d="M19,13.14532470703125Q19,13.31716470703125,18.9916,13.48879470703125Q18.9831,13.66043470703125,18.9663,13.831444707031249Q18.9494,14.00245470703125,18.9242,14.17243470703125Q18.899,14.34241470703125,18.8655,14.51095470703125Q18.832,14.67949470703125,18.7902,14.84618470703125Q18.7485,15.01287470703125,18.6986,15.17731470703125Q18.648699999999998,15.34175470703125,18.5908,15.50355470703125Q18.532899999999998,15.66534470703125,18.4672,15.82410470703125Q18.401400000000002,15.98286470703125,18.3279,16.13820470703125Q18.2545,16.29352470703125,18.1734,16.445124707031248Q18.092399999999998,16.59662470703125,18.0041,16.74402470703125Q17.9158,16.89142470703125,17.8203,17.03432470703125Q17.724800000000002,17.17722470703125,17.622500000000002,17.31522470703125Q17.5201,17.45322470703125,17.411099999999998,17.58612470703125Q17.3021,17.71892470703125,17.186700000000002,17.84622470703125Q17.0713,17.973524707031252,16.9497,18.09502470703125Q16.828200000000002,18.21662470703125,16.7009,18.332024707031252Q16.5736,18.44742470703125,16.4408,18.556424707031248Q16.3079,18.66542470703125,16.1699,18.767824707031252Q16.0319,18.870124707031252,15.889,18.96562470703125Q15.7461,19.06112470703125,15.5987,19.14942470703125Q15.4513,19.237724707031248,15.2998,19.31872470703125Q15.1482,19.39982470703125,14.99288,19.47322470703125Q14.83754,19.546724707031252,14.67878,19.61252470703125Q14.52002,19.678224707031248,14.35823,19.73612470703125Q14.19643,19.794024707031248,14.03199,19.84392470703125Q13.86755,19.89382470703125,13.70086,19.93552470703125Q13.53417,19.97732470703125,13.36563,20.01082470703125Q13.19709,20.04432470703125,13.02711,20.06952470703125Q12.85713,20.09472470703125,12.686119999999999,20.11162470703125Q12.51511,20.12842470703125,12.34347,20.13692470703125Q12.17184,20.14532470703125,12,20.14532470703125Q11.82816,20.14532470703125,11.65653,20.13692470703125Q11.48489,20.12842470703125,11.313880000000001,20.11162470703125Q11.14287,20.09472470703125,10.97289,20.06952470703125Q10.80291,20.04432470703125,10.63437,20.01082470703125Q10.46583,19.97732470703125,10.299140000000001,19.93552470703125Q10.13245,19.89382470703125,9.96801,19.84392470703125Q9.80357,19.794024707031248,9.641770000000001,19.73612470703125Q9.479980000000001,19.678224707031248,9.32122,19.61252470703125Q9.16246,19.546724707031252,9.00711,19.47322470703125Q8.85177,19.39982470703125,8.70022,19.31872470703125Q8.54867,19.237724707031248,8.40128,19.14942470703125Q8.25389,19.06112470703125,8.11101,18.96562470703125Q7.96813,18.870124707031252,7.8301,18.767824707031252Q7.69208,18.66542470703125,7.5592500000000005,18.556424707031248Q7.426410000000001,18.44742470703125,7.29909,18.332024707031252Q7.17176,18.21662470703125,7.05025,18.09502470703125Q6.9287399999999995,17.973524707031252,6.81334,17.84622470703125Q6.69794,17.71892470703125,6.5889299999999995,17.58612470703125Q6.47991,17.45322470703125,6.37755,17.31522470703125Q6.27518,17.17722470703125,6.17971,17.03432470703125Q6.08424,16.89142470703125,5.9959,16.74402470703125Q5.907556,16.59662470703125,5.826551,16.445124707031248Q5.745546,16.29352470703125,5.6720749999999995,16.13820470703125Q5.598604,15.98286470703125,5.532843,15.82410470703125Q5.467083,15.66534470703125,5.409191,15.50355470703125Q5.3513,15.34175470703125,5.301418,15.17731470703125Q5.251535,15.01287470703125,5.2097809999999996,14.84618470703125Q5.168027,14.67949470703125,5.134503,14.51095470703125Q5.100979,14.34241470703125,5.0757644,14.17243470703125Q5.0505502,14.00245470703125,5.0337069,13.831444707031249Q5.0168636,13.66043470703125,5.0084318,13.48879470703125Q5,13.31716470703125,5,13.14532470703125Q5,12.97348470703125,5.0084318,12.80185470703125Q5.0168636,12.63021470703125,5.0337069,12.459204707031251Q5.0505502,12.28819470703125,5.0757644,12.11821470703125Q5.100979,11.94823470703125,5.134503,11.77969470703125Q5.168027,11.61115470703125,5.2097809999999996,11.444464707031251Q5.251535,11.27777470703125,5.301418,11.11333470703125Q5.3513,10.94889470703125,5.409191,10.787094707031251Q5.467083,10.625304707031251,5.532843,10.46654470703125Q5.598604,10.30778470703125,5.6720749999999995,10.15243470703125Q5.745546,9.99709470703125,5.826551,9.84554470703125Q5.907556,9.69399470703125,5.995899,9.54660470703125Q6.08424,9.39921470703125,6.17971,9.25633470703125Q6.27518,9.11345470703125,6.37755,8.97542470703125Q6.47991,8.83740470703125,6.5889299999999995,8.70457470703125Q6.69794,8.57173470703125,6.81334,8.44441470703125Q6.9287399999999995,8.317084707031249,7.05025,8.19557470703125Q7.17176,8.07406470703125,7.29909,7.95866470703125Q7.426410000000001,7.84326470703125,7.5592500000000005,7.7342547070312495Q7.69208,7.62523470703125,7.8301,7.52287470703125Q7.96813,7.42050470703125,8.11101,7.32503470703125Q8.25389,7.22956470703125,8.40128,7.14122470703125Q8.54867,7.05288070703125,8.70022,6.97187570703125Q8.85177,6.89087070703125,9.00711,6.8173997070312495Q9.16246,6.74392870703125,9.32122,6.67816770703125Q9.479980000000001,6.61240770703125,9.641770000000001,6.55451570703125Q9.80357,6.49662470703125,9.96801,6.44674270703125Q10.13245,6.39685970703125,10.299140000000001,6.3551057070312496Q10.46583,6.31335170703125,10.63437,6.27982770703125Q10.80291,6.24630370703125,10.97289,6.22108910703125Q11.14287,6.19587490703125,11.313880000000001,6.17903160703125Q11.48489,6.16218830703125,11.65653,6.15375650703125Q11.82816,6.14532470703125,12,6.14532470703125Q12.17184,6.14532470703125,12.34347,6.15375650703125Q12.51511,6.16218830703125,12.686119999999999,6.17903160703125Q12.85713,6.19587490703125,13.02711,6.22108910703125Q13.19709,6.24630370703125,13.36563,6.27982770703125Q13.53417,6.31335170703125,13.70086,6.3551057070312496Q13.86755,6.39685970703125,14.03199,6.44674270703125Q14.19643,6.49662470703125,14.35823,6.55451570703125Q14.52002,6.61240770703125,14.67878,6.67816770703125Q14.83754,6.74392870703125,14.99288,6.8173997070312495Q15.1482,6.89087070703125,15.2998,6.97187570703125Q15.4513,7.05288070703125,15.5987,7.14122370703125Q15.7461,7.22956470703125,15.889,7.32503470703125Q16.0319,7.42050470703125,16.1699,7.52287470703125Q16.3079,7.62523470703125,16.4408,7.7342547070312495Q16.5736,7.84326470703125,16.7009,7.95866470703125Q16.828200000000002,8.07406470703125,16.9497,8.19557470703125Q17.0713,8.317084707031249,17.186700000000002,8.44441470703125Q17.3021,8.57173470703125,17.411099999999998,8.70457470703125Q17.5201,8.83740470703125,17.622500000000002,8.97542470703125Q17.724800000000002,9.11345470703125,17.8203,9.25633470703125Q17.9158,9.39921470703125,18.0041,9.54660470703125Q18.092399999999998,9.69399470703125,18.1734,9.84554470703125Q18.2545,9.99709470703125,18.3279,10.15243470703125Q18.401400000000002,10.30778470703125,18.4672,10.46654470703125Q18.532899999999998,10.625304707031251,18.5908,10.787094707031251Q18.648699999999998,10.94889470703125,18.6986,11.11333470703125Q18.7485,11.27777470703125,18.7902,11.444464707031251Q18.832,11.61115470703125,18.8655,11.77969470703125Q18.899,11.94823470703125,18.9242,12.11821470703125Q18.9494,12.28819470703125,18.9663,12.459204707031251Q18.9831,12.63021470703125,18.9916,12.80185470703125Q19,12.97348470703125,19,13.14532470703125Z" fill="#E3A815" fill-opacity="1"/></g><g><path d="M12.000021953125,19.36774501953125C8.536601953125,19.406445019531247,5.708251953125,16.609505019531248,5.708251953125,13.14587501953125C5.708253021245,9.68224501953125,8.536601953125,6.88532851953125,12.000021953125,6.92404129053125C15.409111953125,6.96214521953125,18.152651953125,9.73656501953125,18.152651953125,13.14587501953125C18.152651953125,16.55518501953125,15.409111953125,19.32964501953125,12.000021953125,19.36774501953125Z" fill="#FFDD00" fill-opacity="1"/></g><g><path d="M13.09046701171875,17.08392111328125L13.09046701171875,9.25714111328125L11.87868701171875,9.25714111328125C11.70835701171875,9.73158511328125,11.39490701171875,10.14769711328125,10.93757701171875,10.50392111328125C10.48024301171875,10.86014111328125,10.05635501171875,11.10281111328125,9.66668701171875,11.22958111328125L9.66668701171875,12.58525111328125C10.40713101171875,12.34103111328125,11.05112701171875,11.96303111328125,11.59635701171875,11.45281111328125L11.59635701171875,17.08392111328125L13.09046701171875,17.08392111328125Z" fill="#FEFFE7" fill-opacity="1"/></g></g></g></g></g></svg>