<svg xmlns="http://www.w3.org/2000/svg" xmlns:xlink="http://www.w3.org/1999/xlink" fill="none" version="1.1" width="24" height="24" viewBox="0 0 24 24"><defs><clipPath id="master_svg0_5042_13706"><rect x="0" y="0" width="24" height="24" rx="0"/></clipPath><clipPath id="master_svg1_5042_13707"><rect x="2" y="2" width="20" height="20" rx="0"/></clipPath></defs><g><g clip-path="url(#master_svg0_5042_13706)"></g><g clip-path="url(#master_svg1_5042_13707)"><g><g><g><path d="M8.500111564453125,2.68780517578125L15.500108564453125,2.68780517578125C15.822278564453125,2.68780517578125,16.083448564453125,2.94897217578125,16.083448564453125,3.27113817578125L16.083468564453124,9.77130517578125L7.916778564453125,9.77130517578125L7.916778564453125,3.27113817578125C7.916778564453125,2.94897217578125,8.177945564453125,2.68780517578125,8.500111564453125,2.68780517578125Z" fill="#FFFFFF" fill-opacity="1"/></g><g><path d="M8.500111564453125,2.68780517578125L10.541778564453125,2.68780517578125L10.541778564453125,9.77130517578125L7.916778564453125,9.77130517578125L7.916778564453125,3.27113817578125C7.916778297424125,2.94897217578125,8.177945564453125,2.68780517578125,8.500111564453125,2.68780517578125ZM13.458448564453125,2.68780517578125L15.500108564453125,2.68780517578125C15.822278564453125,2.68780517578125,16.083448564453125,2.94897217578125,16.083448564453125,3.27113817578125L16.083468564453124,9.77130517578125L13.458468564453124,9.77130517578125L13.458448564453125,2.68780517578125Z" fill="#0F3CBE" fill-opacity="1"/></g></g><g><g><path d="M20.166643505859376,13.14549080078125Q20.166643505859376,13.34597080078125,20.156843505859374,13.54620080078125Q20.147043505859376,13.74644080078125,20.127343505859375,13.94596080078125Q20.107743505859375,14.14547080078125,20.078243505859376,14.34378080078125Q20.048843505859374,14.54210080078125,20.009743505859376,14.73872080078125Q19.970643505859375,14.93535080078125,19.921943505859375,15.12982080078125Q19.873243505859374,15.32432080078125,19.815043505859375,15.51612080078125Q19.756843505859376,15.70802080078125,19.689243505859373,15.89672080078125Q19.621743505859374,16.08552080078125,19.545043505859375,16.27072080078125Q19.468343505859373,16.45592080078125,19.382543505859374,16.63722080078125Q19.296843505859375,16.81842080078125,19.202343505859375,16.99522080078125Q19.107843505859375,17.172020800781247,19.004743505859373,17.34402080078125Q18.901743505859375,17.515920800781252,18.790343505859376,17.68262080078125Q18.678943505859372,17.84932080078125,18.559543505859374,18.01032080078125Q18.440143505859375,18.17142080078125,18.312943505859373,18.32632080078125Q18.185743505859374,18.481320800781248,18.051143505859375,18.62992080078125Q17.916443505859377,18.778420800781248,17.774743505859377,18.92022080078125Q17.632943505859373,19.06192080078125,17.484443505859375,19.19662080078125Q17.335843505859373,19.33122080078125,17.180843505859375,19.458420800781248Q17.025943505859374,19.58562080078125,16.864843505859376,19.70502080078125Q16.703843505859375,19.824420800781247,16.537143505859376,19.93582080078125Q16.370443505859377,20.04722080078125,16.198543505859377,20.15022080078125Q16.026543505859372,20.25332080078125,15.849743505859376,20.34782080078125Q15.672943505859376,20.44232080078125,15.491743505859375,20.52802080078125Q15.310443505859375,20.613820800781248,15.125243505859375,20.69052080078125Q14.940043505859375,20.76722080078125,14.751243505859374,20.83472080078125Q14.562543505859376,20.90232080078125,14.370643505859375,20.96052080078125Q14.178843505859374,21.01872080078125,13.984343505859375,21.06742080078125Q13.789873505859376,21.11612080078125,13.593243505859375,21.15522080078125Q13.396623505859376,21.19432080078125,13.198303505859375,21.22372080078125Q12.999993505859376,21.25322080078125,12.800483505859376,21.27282080078125Q12.600963505859376,21.29252080078125,12.400723505859375,21.30232080078125Q12.200493505859376,21.31212080078125,12.000013505859375,21.31212080078125Q11.799533505859376,21.31212080078125,11.599293505859375,21.30232080078125Q11.399053505859374,21.29252080078125,11.199533505859375,21.27282080078125Q11.000023505859374,21.25322080078125,10.801713505859375,21.22372080078125Q10.603403505859376,21.19432080078125,10.406773505859375,21.15522080078125Q10.210143505859374,21.11612080078125,10.015673505859375,21.06742080078125Q9.821203505859376,21.01872080078125,9.629353505859374,20.96052080078125Q9.437503505859375,20.90232080078125,9.248743505859375,20.83472080078125Q9.059983505859375,20.76722080078125,8.874763505859374,20.69052080078125Q8.689543505859376,20.613820800781248,8.508303505859374,20.52802080078125Q8.327073505859374,20.44232080078125,8.150273505859374,20.34782080078125Q7.973463505859375,20.25332080078125,7.801503505859375,20.15022080078125Q7.629543505859375,20.04722080078125,7.462853505859375,19.93582080078125Q7.296163505859375,19.824420800781247,7.1351335058593754,19.70502080078125Q6.974103505859375,19.58562080078125,6.819133505859375,19.458420800781248Q6.664153505859375,19.33122080078125,6.515613505859375,19.19662080078125Q6.367063505859376,19.06192080078125,6.225303505859375,18.92022080078125Q6.0835435058593745,18.778420800781248,5.948913505859375,18.62992080078125Q5.814273505859375,18.481320800781248,5.687093505859375,18.32632080078125Q5.559903505859375,18.17142080078125,5.440483505859375,18.01032080078125Q5.321053505859375,17.84932080078125,5.209673505859375,17.68262080078125Q5.098293505859375,17.515920800781252,4.995223505859375,17.34402080078125Q4.892163505859375,17.172020800781247,4.797653505859375,16.99522080078125Q4.703147505859375,16.81842080078125,4.6174305058593745,16.63722080078125Q4.531714505859375,16.45592080078125,4.454993505859375,16.27072080078125Q4.378273505859375,16.08552080078125,4.310733505859375,15.89672080078125Q4.243193505859375,15.70802080078125,4.184997505859375,15.51612080078125Q4.126800505859375,15.32432080078125,4.078088505859375,15.12982080078125Q4.029375505859375,14.93535080078125,3.990263505859375,14.73872080078125Q3.951151505859375,14.54210080078125,3.921735305859375,14.34378080078125Q3.892318705859375,14.14547080078125,3.872668205859375,13.94596080078125Q3.853017705859375,13.74644080078125,3.843180605859375,13.54620080078125Q3.833343505859375,13.34597080078125,3.833343505859375,13.14549080078125Q3.833343505859375,12.945010800781251,3.843180605859375,12.74477080078125Q3.853017705859375,12.54453080078125,3.872668205859375,12.34501080078125Q3.892318705859375,12.14550080078125,3.921735305859375,11.94719080078125Q3.951151505859375,11.74888080078125,3.990263505859375,11.55225080078125Q4.029375505859375,11.35562080078125,4.078088505859375,11.16115080078125Q4.126800505859375,10.966680800781251,4.184997505859375,10.774830800781249Q4.243193505859375,10.58298080078125,4.310733505859375,10.39422080078125Q4.378273505859375,10.20546080078125,4.454993505859375,10.020240800781249Q4.531714505859375,9.835020800781251,4.6174305058593745,9.653780800781249Q4.703147505859375,9.47255080078125,4.797653505859375,9.29575080078125Q4.892163505859375,9.11894080078125,4.995223505859375,8.946980800781251Q5.098293505859375,8.775020800781249,5.209673505859375,8.60833080078125Q5.321053505859375,8.44164080078125,5.440483505859375,8.28061080078125Q5.559903505859375,8.11958080078125,5.687093505859375,7.96461080078125Q5.814273505859375,7.80963080078125,5.948913505859375,7.66109080078125Q6.0835435058593745,7.512540800781251,6.225303505859375,7.37078080078125Q6.367063505859376,7.2290208007812495,6.515613505859375,7.09439080078125Q6.664153505859375,6.95975080078125,6.819133505859375,6.83257080078125Q6.974103505859375,6.70538080078125,7.1351335058593754,6.58596080078125Q7.296163505859375,6.46653080078125,7.462853505859375,6.35515080078125Q7.629543505859375,6.24377080078125,7.801503505859375,6.14070080078125Q7.973463505859375,6.03764080078125,8.150273505859374,5.94313080078125Q8.327073505859374,5.84862480078125,8.508313505859375,5.7629078007812495Q8.689543505859376,5.67719180078125,8.874763505859374,5.60047080078125Q9.059983505859375,5.52375080078125,9.248743505859375,5.45621080078125Q9.437503505859375,5.38867080078125,9.629353505859374,5.33047480078125Q9.821203505859376,5.27227780078125,10.015673505859375,5.22356580078125Q10.210143505859374,5.17485280078125,10.406773505859375,5.13574080078125Q10.603403505859376,5.09662880078125,10.801713505859375,5.06721260078125Q11.000023505859374,5.03779600078125,11.199533505859375,5.01814550078125Q11.399053505859374,4.99849500078125,11.599293505859375,4.98865790078125Q11.799533505859376,4.97882080078125,12.000013505859375,4.97882080078125Q12.200493505859376,4.97882080078125,12.400723505859375,4.98865790078125Q12.600963505859376,4.99849500078125,12.800483505859376,5.01814550078125Q12.999993505859376,5.03779600078125,13.198303505859375,5.06721260078125Q13.396623505859376,5.09662880078125,13.593243505859375,5.13574080078125Q13.789873505859376,5.17485280078125,13.984343505859375,5.22356580078125Q14.178843505859374,5.27227780078125,14.370643505859375,5.33047480078125Q14.562543505859376,5.38867080078125,14.751243505859374,5.45621080078125Q14.940043505859375,5.52375080078125,15.125243505859375,5.60047080078125Q15.310443505859375,5.67719180078125,15.491743505859375,5.7629078007812495Q15.672943505859376,5.84862480078125,15.849743505859376,5.94313080078125Q16.026543505859372,6.03764080078125,16.198543505859377,6.14070080078125Q16.370443505859377,6.24377080078125,16.537143505859376,6.35515080078125Q16.703843505859375,6.46653080078125,16.864843505859376,6.58596080078125Q17.025943505859374,6.70538080078125,17.180843505859375,6.83257080078125Q17.335843505859373,6.95975080078125,17.484443505859375,7.09439080078125Q17.632943505859373,7.2290208007812495,17.774743505859377,7.37078080078125Q17.916443505859377,7.512540800781251,18.051143505859375,7.66109080078125Q18.185743505859374,7.80963080078125,18.312943505859373,7.96461080078125Q18.440143505859375,8.11958080078125,18.559543505859374,8.28061080078125Q18.678943505859372,8.44164080078125,18.790343505859376,8.60833080078125Q18.901743505859375,8.775020800781249,19.004743505859373,8.946980800781251Q19.107843505859375,9.11894080078125,19.202343505859375,9.29575080078125Q19.296843505859375,9.47255080078125,19.382543505859374,9.65379080078125Q19.468343505859373,9.835020800781251,19.545043505859375,10.020240800781249Q19.621743505859374,10.20546080078125,19.689243505859373,10.39422080078125Q19.756843505859376,10.58298080078125,19.815043505859375,10.774830800781249Q19.873243505859374,10.966680800781251,19.921943505859375,11.16115080078125Q19.970643505859375,11.35562080078125,20.009743505859376,11.55225080078125Q20.048843505859374,11.74888080078125,20.078243505859376,11.94719080078125Q20.107743505859375,12.14550080078125,20.127343505859375,12.34501080078125Q20.147043505859376,12.54453080078125,20.156843505859374,12.74477080078125Q20.166643505859376,12.945010800781251,20.166643505859376,13.14549080078125Z" fill="#C0C6CC" fill-opacity="1"/></g><g><path d="M19.000030517578125,13.14532470703125Q19.000030517578125,13.31716470703125,18.991630517578123,13.48879470703125Q18.983130517578125,13.66043470703125,18.966330517578125,13.831444707031249Q18.949430517578126,14.00245470703125,18.924230517578124,14.17243470703125Q18.899030517578126,14.34241470703125,18.865530517578126,14.51095470703125Q18.832030517578126,14.67949470703125,18.790230517578124,14.84618470703125Q18.748530517578125,15.01287470703125,18.698630517578124,15.17731470703125Q18.648730517578123,15.34175470703125,18.590830517578127,15.50355470703125Q18.532930517578123,15.66534470703125,18.467230517578123,15.82410470703125Q18.401430517578127,15.98286470703125,18.327930517578125,16.13820470703125Q18.254530517578125,16.29352470703125,18.173430517578126,16.445124707031248Q18.092430517578123,16.59662470703125,18.004130517578126,16.74402470703125Q17.915830517578126,16.89142470703125,17.820330517578125,17.03432470703125Q17.724830517578127,17.17722470703125,17.622530517578127,17.31522470703125Q17.520130517578124,17.45322470703125,17.411130517578123,17.58612470703125Q17.302130517578124,17.71892470703125,17.186730517578127,17.84622470703125Q17.071330517578126,17.973524707031252,16.949730517578125,18.09502470703125Q16.828230517578127,18.21662470703125,16.700930517578126,18.332024707031252Q16.573630517578124,18.44742470703125,16.440830517578124,18.556424707031248Q16.307930517578125,18.66542470703125,16.169930517578123,18.767824707031252Q16.031930517578125,18.870124707031252,15.889030517578124,18.96562470703125Q15.746130517578125,19.06112470703125,15.598730517578124,19.14942470703125Q15.451330517578125,19.237724707031248,15.299830517578124,19.31872470703125Q15.148230517578124,19.39982470703125,14.992910517578125,19.47322470703125Q14.837570517578126,19.546724707031252,14.678810517578125,19.61252470703125Q14.520050517578126,19.678224707031248,14.358260517578126,19.73612470703125Q14.196460517578124,19.794024707031248,14.032020517578125,19.84392470703125Q13.867580517578125,19.89382470703125,13.700890517578125,19.93552470703125Q13.534200517578125,19.97732470703125,13.365660517578124,20.01082470703125Q13.197120517578124,20.04432470703125,13.027140517578125,20.06952470703125Q12.857160517578125,20.09472470703125,12.686150517578124,20.11162470703125Q12.515140517578125,20.12842470703125,12.343500517578125,20.13692470703125Q12.171870517578125,20.14532470703125,12.000030517578125,20.14532470703125Q11.828190517578125,20.14532470703125,11.656560517578125,20.13692470703125Q11.484920517578125,20.12842470703125,11.313910517578126,20.11162470703125Q11.142900517578125,20.09472470703125,10.972920517578125,20.06952470703125Q10.802940517578126,20.04432470703125,10.634400517578126,20.01082470703125Q10.465860517578125,19.97732470703125,10.299170517578126,19.93552470703125Q10.132480517578125,19.89382470703125,9.968040517578125,19.84392470703125Q9.803600517578126,19.794024707031248,9.641800517578126,19.73612470703125Q9.480010517578126,19.678224707031248,9.321250517578125,19.61252470703125Q9.162490517578124,19.546724707031252,9.007140517578126,19.47322470703125Q8.851800517578125,19.39982470703125,8.700250517578125,19.31872470703125Q8.548700517578125,19.237724707031248,8.401310517578125,19.14942470703125Q8.253920517578125,19.06112470703125,8.111040517578125,18.96562470703125Q7.968160517578125,18.870124707031252,7.830130517578125,18.767824707031252Q7.692110517578125,18.66542470703125,7.5592805175781255,18.556424707031248Q7.426440517578126,18.44742470703125,7.299120517578125,18.332024707031252Q7.171790517578125,18.21662470703125,7.050280517578125,18.09502470703125Q6.9287705175781245,17.973524707031252,6.813370517578125,17.84622470703125Q6.697970517578125,17.71892470703125,6.5889605175781245,17.58612470703125Q6.479940517578125,17.45322470703125,6.377580517578125,17.31522470703125Q6.275210517578125,17.17722470703125,6.179740517578125,17.03432470703125Q6.084270517578125,16.89142470703125,5.995930517578125,16.74402470703125Q5.907586517578125,16.59662470703125,5.826581517578125,16.445124707031248Q5.745576517578125,16.29352470703125,5.6721055175781245,16.13820470703125Q5.598634517578125,15.98286470703125,5.532873517578125,15.82410470703125Q5.467113517578125,15.66534470703125,5.409221517578125,15.50355470703125Q5.351330517578125,15.34175470703125,5.301448517578125,15.17731470703125Q5.251565517578125,15.01287470703125,5.2098115175781246,14.84618470703125Q5.168057517578125,14.67949470703125,5.134533517578125,14.51095470703125Q5.101009517578125,14.34241470703125,5.075794917578125,14.17243470703125Q5.050580717578125,14.00245470703125,5.033737417578125,13.831444707031249Q5.016894117578125,13.66043470703125,5.008462317578125,13.48879470703125Q5.000030517578125,13.31716470703125,5.000030517578125,13.14532470703125Q5.000030517578125,12.97348470703125,5.008462317578125,12.80185470703125Q5.016894117578125,12.63021470703125,5.033737417578125,12.459204707031251Q5.050580717578125,12.28819470703125,5.075794917578125,12.11821470703125Q5.101009517578125,11.94823470703125,5.134533517578125,11.77969470703125Q5.168057517578125,11.61115470703125,5.2098115175781246,11.444464707031251Q5.251565517578125,11.27777470703125,5.301448517578125,11.11333470703125Q5.351330517578125,10.94889470703125,5.409221517578125,10.787094707031251Q5.467113517578125,10.625304707031251,5.532873517578125,10.46654470703125Q5.598634517578125,10.30778470703125,5.6721055175781245,10.15243470703125Q5.745576517578125,9.99709470703125,5.826581517578125,9.84554470703125Q5.907586517578125,9.69399470703125,5.995929517578125,9.54660470703125Q6.084270517578125,9.39921470703125,6.179740517578125,9.25633470703125Q6.275210517578125,9.11345470703125,6.377580517578125,8.97542470703125Q6.479940517578125,8.83740470703125,6.5889605175781245,8.70457470703125Q6.697970517578125,8.57173470703125,6.813370517578125,8.44441470703125Q6.9287705175781245,8.317084707031249,7.050280517578125,8.19557470703125Q7.171790517578125,8.07406470703125,7.299120517578125,7.95866470703125Q7.426440517578126,7.84326470703125,7.5592805175781255,7.7342547070312495Q7.692110517578125,7.62523470703125,7.830130517578125,7.52287470703125Q7.968160517578125,7.42050470703125,8.111040517578125,7.32503470703125Q8.253920517578125,7.22956470703125,8.401310517578125,7.14122470703125Q8.548700517578125,7.05288070703125,8.700250517578125,6.97187570703125Q8.851800517578125,6.89087070703125,9.007140517578126,6.8173997070312495Q9.162490517578124,6.74392870703125,9.321250517578125,6.67816770703125Q9.480010517578126,6.61240770703125,9.641800517578126,6.55451570703125Q9.803600517578126,6.49662470703125,9.968040517578125,6.44674270703125Q10.132480517578125,6.39685970703125,10.299170517578126,6.3551057070312496Q10.465860517578125,6.31335170703125,10.634400517578126,6.27982770703125Q10.802940517578126,6.24630370703125,10.972920517578125,6.22108910703125Q11.142900517578125,6.19587490703125,11.313910517578126,6.17903160703125Q11.484920517578125,6.16218830703125,11.656560517578125,6.15375650703125Q11.828190517578125,6.14532470703125,12.000030517578125,6.14532470703125Q12.171870517578125,6.14532470703125,12.343500517578125,6.15375650703125Q12.515140517578125,6.16218830703125,12.686150517578124,6.17903160703125Q12.857160517578125,6.19587490703125,13.027140517578125,6.22108910703125Q13.197120517578124,6.24630370703125,13.365660517578124,6.27982770703125Q13.534200517578125,6.31335170703125,13.700890517578125,6.3551057070312496Q13.867580517578125,6.39685970703125,14.032020517578125,6.44674270703125Q14.196460517578124,6.49662470703125,14.358260517578126,6.55451570703125Q14.520050517578126,6.61240770703125,14.678810517578125,6.67816770703125Q14.837570517578126,6.74392870703125,14.992910517578125,6.8173997070312495Q15.148230517578124,6.89087070703125,15.299830517578124,6.97187570703125Q15.451330517578125,7.05288070703125,15.598730517578124,7.14122370703125Q15.746130517578125,7.22956470703125,15.889030517578124,7.32503470703125Q16.031930517578125,7.42050470703125,16.169930517578123,7.52287470703125Q16.307930517578125,7.62523470703125,16.440830517578124,7.7342547070312495Q16.573630517578124,7.84326470703125,16.700930517578126,7.95866470703125Q16.828230517578127,8.07406470703125,16.949730517578125,8.19557470703125Q17.071330517578126,8.317084707031249,17.186730517578127,8.44441470703125Q17.302130517578124,8.57173470703125,17.411130517578123,8.70457470703125Q17.520130517578124,8.83740470703125,17.622530517578127,8.97542470703125Q17.724830517578127,9.11345470703125,17.820330517578125,9.25633470703125Q17.915830517578126,9.39921470703125,18.004130517578126,9.54660470703125Q18.092430517578123,9.69399470703125,18.173430517578126,9.84554470703125Q18.254530517578125,9.99709470703125,18.327930517578125,10.15243470703125Q18.401430517578127,10.30778470703125,18.467230517578123,10.46654470703125Q18.532930517578123,10.625304707031251,18.590830517578127,10.787094707031251Q18.648730517578123,10.94889470703125,18.698630517578124,11.11333470703125Q18.748530517578125,11.27777470703125,18.790230517578124,11.444464707031251Q18.832030517578126,11.61115470703125,18.865530517578126,11.77969470703125Q18.899030517578126,11.94823470703125,18.924230517578124,12.11821470703125Q18.949430517578126,12.28819470703125,18.966330517578125,12.459204707031251Q18.983130517578125,12.63021470703125,18.991630517578123,12.80185470703125Q19.000030517578125,12.97348470703125,19.000030517578125,13.14532470703125Z" fill="#B2B2B2" fill-opacity="1"/></g><g><path d="M12.000052470703125,19.36774501953125C8.536632470703125,19.406445019531247,5.708282470703125,16.609505019531248,5.708282470703125,13.14587501953125C5.708283538823125,9.68224501953125,8.536632470703125,6.88532851953125,12.000052470703125,6.92404129053125C15.409142470703125,6.96214521953125,18.152682470703127,9.73656501953125,18.152682470703127,13.14587501953125C18.152682470703127,16.55518501953125,15.409142470703125,19.32964501953125,12.000052470703125,19.36774501953125Z" fill="#C0C6CC" fill-opacity="1"/></g></g><g><path d="M14.783359462890626,17.14532470703125L9.374132462890625,17.14532470703125L9.374132462890625,16.07216470703125L11.926979462890625,13.351284707031251C12.277469462890625,12.96827470703125,12.535829462890625,12.634034707031251,12.702049462890624,12.34857470703125C12.871879462890625,12.06312470703125,12.956789462890626,11.79211470703125,12.956789462890626,11.53556470703125C12.956789462890626,11.18507470703125,12.868259462890625,10.91045470703125,12.691199462890625,10.71171470703125C12.514149462890625,10.50937470703125,12.261209462890625,10.40819470703125,11.932399462890626,10.40819470703125C11.578289462890625,10.40819470703125,11.298249462890626,10.53105470703125,11.092289462890625,10.77676470703125C10.889939462890625,11.01885470703125,10.788769462890626,11.33863470703125,10.788769462890626,11.73611470703125L9.216949462890625,11.73611470703125C9.216949462890625,11.25553470703125,9.330772462890625,10.81651470703125,9.558411462890625,10.41903470703125C9.789667462890625,10.02156870703125,10.114872462890625,9.71081670703125,10.534019462890624,9.48678970703125C10.953169462890624,9.25914570703125,11.428329462890625,9.14532470703125,11.959499462890625,9.14532470703125C12.772499462890625,9.14532470703125,13.403039462890625,9.34044670703125,13.851079462890624,9.73069070703125C14.302769462890625,10.12093470703125,14.528609462890625,10.67197470703125,14.528609462890625,11.38380470703125C14.528609462890625,11.774054707031251,14.427409462890626,12.17152470703125,14.225059462890625,12.57621470703125C14.022709462890624,12.98091470703125,13.675829462890626,13.45245470703125,13.184429462890625,13.99085470703125L11.390389462890624,15.882434707031251L14.783359462890626,15.882434707031251L14.783359462890626,17.14532470703125Z" fill="#F7F9FA" fill-opacity="1"/></g></g></g></g></svg>