<svg xmlns="http://www.w3.org/2000/svg" xmlns:xlink="http://www.w3.org/1999/xlink" fill="none" version="1.1" width="24" height="24" viewBox="0 0 24 24"><defs><clipPath id="master_svg0_5042_13730"><rect x="0" y="0" width="24" height="24" rx="0"/></clipPath><clipPath id="master_svg1_5042_13731"><rect x="2" y="2" width="20" height="20" rx="0"/></clipPath></defs><g><g clip-path="url(#master_svg0_5042_13730)"></g><g clip-path="url(#master_svg1_5042_13731)"><g><g><g><path d="M8.500081046875,2.6878662109375L15.500078046875,2.6878662109375C15.822248046875,2.6878662109375,16.083418046875,2.9490332109375,16.083418046875,3.2711992109375L16.083438046875,9.7713662109375L7.916748046875,9.7713662109375L7.916748046875,3.2711992109375C7.916748046875,2.9490332109375,8.177915046875,2.6878662109375,8.500081046875,2.6878662109375Z" fill="#FFFFFF" fill-opacity="1"/></g><g><path d="M8.500081046875,2.6878662109375L10.541748046875,2.6878662109375L10.541748046875,9.7713662109375L7.916748046875,9.7713662109375L7.916748046875,3.2711992109375C7.916747779846,2.9490332109375,8.177915046875,2.6878662109375,8.500081046875,2.6878662109375ZM13.458418046875,2.6878662109375L15.500078046875,2.6878662109375C15.822248046875,2.6878662109375,16.083418046875,2.9490332109375,16.083418046875,3.2711992109375L16.083438046875,9.7713662109375L13.458438046875,9.7713662109375L13.458418046875,2.6878662109375Z" fill="#2EA121" fill-opacity="1"/></g></g><g><g><path d="M20.16661298828125,13.1455518359375Q20.16661298828125,13.3460318359375,20.15681298828125,13.5462618359375Q20.14701298828125,13.7465018359375,20.12731298828125,13.9460218359375Q20.10771298828125,14.1455318359375,20.07821298828125,14.3438418359375Q20.04881298828125,14.5421618359375,20.00971298828125,14.7387818359375Q19.97061298828125,14.9354118359375,19.92191298828125,15.1298818359375Q19.87321298828125,15.3243818359375,19.81501298828125,15.5161818359375Q19.75681298828125,15.7080818359375,19.68921298828125,15.8967818359375Q19.62171298828125,16.0855818359375,19.54501298828125,16.2707818359375Q19.468312988281248,16.4559818359375,19.38251298828125,16.6372818359375Q19.29681298828125,16.8184818359375,19.20231298828125,16.9952818359375Q19.10781298828125,17.172081835937497,19.00471298828125,17.3440818359375Q18.90171298828125,17.515981835937502,18.79031298828125,17.6826818359375Q18.678912988281247,17.8493818359375,18.55951298828125,18.0103818359375Q18.44011298828125,18.1714818359375,18.312912988281248,18.3263818359375Q18.18571298828125,18.481381835937498,18.05111298828125,18.6299818359375Q17.91641298828125,18.778481835937498,17.77471298828125,18.9202818359375Q17.632912988281248,19.0619818359375,17.48441298828125,19.1966818359375Q17.335812988281248,19.3312818359375,17.18081298828125,19.458481835937498Q17.02591298828125,19.5856818359375,16.86481298828125,19.7050818359375Q16.70381298828125,19.824481835937497,16.53711298828125,19.9358818359375Q16.370412988281252,20.0472818359375,16.19851298828125,20.1502818359375Q16.026512988281247,20.2533818359375,15.84971298828125,20.3478818359375Q15.67291298828125,20.4423818359375,15.49171298828125,20.5280818359375Q15.31041298828125,20.613881835937498,15.12521298828125,20.6905818359375Q14.94001298828125,20.7672818359375,14.75121298828125,20.8347818359375Q14.56251298828125,20.9023818359375,14.37061298828125,20.9605818359375Q14.17881298828125,21.0187818359375,13.98431298828125,21.0674818359375Q13.78984298828125,21.1161818359375,13.59321298828125,21.1552818359375Q13.39659298828125,21.1943818359375,13.19827298828125,21.2237818359375Q12.99996298828125,21.2532818359375,12.80045298828125,21.2728818359375Q12.60093298828125,21.2925818359375,12.40069298828125,21.3023818359375Q12.20046298828125,21.3121818359375,11.99998298828125,21.3121818359375Q11.799502988281251,21.3121818359375,11.59926298828125,21.3023818359375Q11.39902298828125,21.2925818359375,11.19950298828125,21.2728818359375Q10.99999298828125,21.2532818359375,10.80168298828125,21.2237818359375Q10.60337298828125,21.1943818359375,10.40674298828125,21.1552818359375Q10.21011298828125,21.1161818359375,10.01564298828125,21.0674818359375Q9.821172988281251,21.0187818359375,9.629322988281249,20.9605818359375Q9.43747298828125,20.9023818359375,9.24871298828125,20.8347818359375Q9.05995298828125,20.7672818359375,8.874732988281249,20.6905818359375Q8.689512988281251,20.613881835937498,8.508272988281249,20.5280818359375Q8.32704298828125,20.4423818359375,8.15024298828125,20.3478818359375Q7.97343298828125,20.2533818359375,7.80147298828125,20.1502818359375Q7.62951298828125,20.0472818359375,7.46282298828125,19.9358818359375Q7.29613298828125,19.824481835937497,7.1351029882812504,19.7050818359375Q6.97407298828125,19.5856818359375,6.81910298828125,19.458481835937498Q6.66412298828125,19.3312818359375,6.51558298828125,19.1966818359375Q6.367032988281251,19.0619818359375,6.22527298828125,18.9202818359375Q6.0835129882812495,18.778481835937498,5.94888298828125,18.6299818359375Q5.81424298828125,18.481381835937498,5.68706298828125,18.3263818359375Q5.55987298828125,18.1714818359375,5.44045298828125,18.0103818359375Q5.32102298828125,17.8493818359375,5.20964298828125,17.6826818359375Q5.09826298828125,17.515981835937502,4.99519298828125,17.3440818359375Q4.89213298828125,17.172081835937497,4.79762298828125,16.9952818359375Q4.70311698828125,16.8184818359375,4.6173999882812495,16.6372818359375Q4.53168398828125,16.4559818359375,4.45496298828125,16.2707818359375Q4.37824298828125,16.0855818359375,4.31070298828125,15.8967818359375Q4.24316298828125,15.7080818359375,4.18496698828125,15.5161818359375Q4.12676998828125,15.3243818359375,4.07805798828125,15.1298818359375Q4.02934498828125,14.9354118359375,3.99023298828125,14.7387818359375Q3.95112098828125,14.5421618359375,3.92170478828125,14.3438418359375Q3.89228818828125,14.1455318359375,3.87263768828125,13.9460218359375Q3.85298718828125,13.7465018359375,3.84315008828125,13.5462618359375Q3.83331298828125,13.3460318359375,3.83331298828125,13.1455518359375Q3.83331298828125,12.945071835937501,3.84315008828125,12.7448318359375Q3.85298718828125,12.5445918359375,3.87263768828125,12.3450718359375Q3.89228818828125,12.1455618359375,3.92170478828125,11.9472518359375Q3.95112098828125,11.7489418359375,3.99023298828125,11.5523118359375Q4.02934498828125,11.3556818359375,4.07805798828125,11.1612118359375Q4.12676998828125,10.966741835937501,4.18496698828125,10.774891835937499Q4.24316298828125,10.5830418359375,4.31070298828125,10.3942818359375Q4.37824298828125,10.2055218359375,4.45496298828125,10.020301835937499Q4.53168398828125,9.835081835937501,4.6173999882812495,9.653841835937499Q4.70311698828125,9.4726118359375,4.79762298828125,9.2958118359375Q4.89213298828125,9.1190018359375,4.99519298828125,8.947041835937501Q5.09826298828125,8.775081835937499,5.20964298828125,8.6083918359375Q5.32102298828125,8.4417018359375,5.44045298828125,8.2806718359375Q5.55987298828125,8.1196418359375,5.68706298828125,7.9646718359375Q5.81424298828125,7.8096918359375,5.94888298828125,7.6611518359375Q6.0835129882812495,7.512601835937501,6.22527298828125,7.3708418359375Q6.367032988281251,7.2290818359374995,6.51558298828125,7.0944518359375Q6.66412298828125,6.9598118359375,6.81910298828125,6.8326318359375Q6.97407298828125,6.7054418359375,7.1351029882812504,6.5860218359375Q7.29613298828125,6.4665918359375,7.46282298828125,6.3552118359375Q7.62951298828125,6.2438318359375,7.80147298828125,6.1407618359375Q7.97343298828125,6.0377018359375,8.15024298828125,5.9431918359375Q8.32704298828125,5.8486858359375,8.50828298828125,5.7629688359374995Q8.689512988281251,5.6772528359375,8.874732988281249,5.6005318359375Q9.05995298828125,5.5238118359375,9.24871298828125,5.4562718359375Q9.43747298828125,5.3887318359375,9.629322988281249,5.3305358359375Q9.821172988281251,5.2723388359375,10.01564298828125,5.2236268359375Q10.21011298828125,5.1749138359375,10.40674298828125,5.1358018359375Q10.60337298828125,5.0966898359375,10.80168298828125,5.0672736359375Q10.99999298828125,5.0378570359375,11.19950298828125,5.0182065359375Q11.39902298828125,4.9985560359375,11.59926298828125,4.9887189359375Q11.799502988281251,4.9788818359375,11.99998298828125,4.9788818359375Q12.20046298828125,4.9788818359375,12.40069298828125,4.9887189359375Q12.60093298828125,4.9985560359375,12.80045298828125,5.0182065359375Q12.99996298828125,5.0378570359375,13.19827298828125,5.0672736359375Q13.39659298828125,5.0966898359375,13.59321298828125,5.1358018359375Q13.78984298828125,5.1749138359375,13.98431298828125,5.2236268359375Q14.17881298828125,5.2723388359375,14.37061298828125,5.3305358359375Q14.56251298828125,5.3887318359375,14.75121298828125,5.4562718359375Q14.94001298828125,5.5238118359375,15.12521298828125,5.6005318359375Q15.31041298828125,5.6772528359375,15.49171298828125,5.7629688359374995Q15.67291298828125,5.8486858359375,15.84971298828125,5.9431918359375Q16.026512988281247,6.0377018359375,16.19851298828125,6.1407618359375Q16.370412988281252,6.2438318359375,16.53711298828125,6.3552118359375Q16.70381298828125,6.4665918359375,16.86481298828125,6.5860218359375Q17.02591298828125,6.7054418359375,17.18081298828125,6.8326318359375Q17.335812988281248,6.9598118359375,17.48441298828125,7.0944518359375Q17.632912988281248,7.2290818359374995,17.77471298828125,7.3708418359375Q17.91641298828125,7.512601835937501,18.05111298828125,7.6611518359375Q18.18571298828125,7.8096918359375,18.312912988281248,7.9646718359375Q18.44011298828125,8.1196418359375,18.55951298828125,8.2806718359375Q18.678912988281247,8.4417018359375,18.79031298828125,8.6083918359375Q18.90171298828125,8.775081835937499,19.00471298828125,8.947041835937501Q19.10781298828125,9.1190018359375,19.20231298828125,9.2958118359375Q19.29681298828125,9.4726118359375,19.38251298828125,9.6538518359375Q19.468312988281248,9.835081835937501,19.54501298828125,10.020301835937499Q19.62171298828125,10.2055218359375,19.68921298828125,10.3942818359375Q19.75681298828125,10.5830418359375,19.81501298828125,10.774891835937499Q19.87321298828125,10.966741835937501,19.92191298828125,11.1612118359375Q19.97061298828125,11.3556818359375,20.00971298828125,11.5523118359375Q20.04881298828125,11.7489418359375,20.07821298828125,11.9472518359375Q20.10771298828125,12.1455618359375,20.12731298828125,12.3450718359375Q20.14701298828125,12.5445918359375,20.15681298828125,12.7448318359375Q20.16661298828125,12.945071835937501,20.16661298828125,13.1455518359375Z" fill="#E19449" fill-opacity="1"/></g><g><path d="M19,13.1453857421875Q19,13.3172257421875,18.9916,13.4888557421875Q18.9831,13.6604957421875,18.9663,13.831505742187499Q18.9494,14.0025157421875,18.9242,14.1724957421875Q18.899,14.3424757421875,18.8655,14.5110157421875Q18.832,14.6795557421875,18.7902,14.8462457421875Q18.7485,15.0129357421875,18.6986,15.1773757421875Q18.648699999999998,15.3418157421875,18.5908,15.5036157421875Q18.532899999999998,15.6654057421875,18.4672,15.8241657421875Q18.401400000000002,15.9829257421875,18.3279,16.1382657421875Q18.2545,16.2935857421875,18.1734,16.445185742187498Q18.092399999999998,16.5966857421875,18.0041,16.7440857421875Q17.9158,16.8914857421875,17.8203,17.0343857421875Q17.724800000000002,17.1772857421875,17.622500000000002,17.3152857421875Q17.5201,17.4532857421875,17.411099999999998,17.5861857421875Q17.3021,17.7189857421875,17.186700000000002,17.8462857421875Q17.0713,17.973585742187502,16.9497,18.0950857421875Q16.828200000000002,18.2166857421875,16.7009,18.332085742187502Q16.5736,18.4474857421875,16.4408,18.556485742187498Q16.3079,18.6654857421875,16.1699,18.767885742187502Q16.0319,18.870185742187502,15.889,18.9656857421875Q15.7461,19.0611857421875,15.5987,19.1494857421875Q15.4513,19.237785742187498,15.2998,19.3187857421875Q15.1482,19.3998857421875,14.99288,19.4732857421875Q14.83754,19.546785742187502,14.67878,19.6125857421875Q14.52002,19.678285742187498,14.35823,19.7361857421875Q14.19643,19.794085742187498,14.03199,19.8439857421875Q13.86755,19.8938857421875,13.70086,19.9355857421875Q13.53417,19.9773857421875,13.36563,20.0108857421875Q13.19709,20.0443857421875,13.02711,20.0695857421875Q12.85713,20.0947857421875,12.686119999999999,20.1116857421875Q12.51511,20.1284857421875,12.34347,20.1369857421875Q12.17184,20.1453857421875,12,20.1453857421875Q11.82816,20.1453857421875,11.65653,20.1369857421875Q11.48489,20.1284857421875,11.313880000000001,20.1116857421875Q11.14287,20.0947857421875,10.97289,20.0695857421875Q10.80291,20.0443857421875,10.63437,20.0108857421875Q10.46583,19.9773857421875,10.299140000000001,19.9355857421875Q10.13245,19.8938857421875,9.96801,19.8439857421875Q9.80357,19.794085742187498,9.641770000000001,19.7361857421875Q9.479980000000001,19.678285742187498,9.32122,19.6125857421875Q9.16246,19.546785742187502,9.00711,19.4732857421875Q8.85177,19.3998857421875,8.70022,19.3187857421875Q8.54867,19.237785742187498,8.40128,19.1494857421875Q8.25389,19.0611857421875,8.11101,18.9656857421875Q7.96813,18.870185742187502,7.8301,18.767885742187502Q7.69208,18.6654857421875,7.5592500000000005,18.556485742187498Q7.426410000000001,18.4474857421875,7.29909,18.332085742187502Q7.17176,18.2166857421875,7.05025,18.0950857421875Q6.9287399999999995,17.973585742187502,6.81334,17.8462857421875Q6.69794,17.7189857421875,6.5889299999999995,17.5861857421875Q6.47991,17.4532857421875,6.37755,17.3152857421875Q6.27518,17.1772857421875,6.17971,17.0343857421875Q6.08424,16.8914857421875,5.9959,16.7440857421875Q5.907556,16.5966857421875,5.826551,16.445185742187498Q5.745546,16.2935857421875,5.6720749999999995,16.1382657421875Q5.598604,15.9829257421875,5.532843,15.8241657421875Q5.467083,15.6654057421875,5.409191,15.5036157421875Q5.3513,15.3418157421875,5.301418,15.1773757421875Q5.251535,15.0129357421875,5.2097809999999996,14.8462457421875Q5.168027,14.6795557421875,5.134503,14.5110157421875Q5.100979,14.3424757421875,5.0757644,14.1724957421875Q5.0505502,14.0025157421875,5.0337069,13.831505742187499Q5.0168636,13.6604957421875,5.0084318,13.4888557421875Q5,13.3172257421875,5,13.1453857421875Q5,12.9735457421875,5.0084318,12.8019157421875Q5.0168636,12.6302757421875,5.0337069,12.459265742187501Q5.0505502,12.2882557421875,5.0757644,12.1182757421875Q5.100979,11.9482957421875,5.134503,11.7797557421875Q5.168027,11.6112157421875,5.2097809999999996,11.444525742187501Q5.251535,11.2778357421875,5.301418,11.1133957421875Q5.3513,10.9489557421875,5.409191,10.787155742187501Q5.467083,10.625365742187501,5.532843,10.4666057421875Q5.598604,10.3078457421875,5.6720749999999995,10.1524957421875Q5.745546,9.9971557421875,5.826551,9.8456057421875Q5.907556,9.6940557421875,5.995899,9.5466657421875Q6.08424,9.3992757421875,6.17971,9.2563957421875Q6.27518,9.1135157421875,6.37755,8.9754857421875Q6.47991,8.8374657421875,6.5889299999999995,8.7046357421875Q6.69794,8.5717957421875,6.81334,8.4444757421875Q6.9287399999999995,8.317145742187499,7.05025,8.1956357421875Q7.17176,8.0741257421875,7.29909,7.9587257421875Q7.426410000000001,7.8433257421875,7.5592500000000005,7.7343157421874995Q7.69208,7.6252957421875,7.8301,7.5229357421875Q7.96813,7.4205657421875,8.11101,7.3250957421875Q8.25389,7.2296257421875,8.40128,7.1412857421875Q8.54867,7.0529417421875,8.70022,6.9719367421875Q8.85177,6.8909317421875,9.00711,6.8174607421874995Q9.16246,6.7439897421875,9.32122,6.6782287421875Q9.479980000000001,6.6124687421875,9.641770000000001,6.5545767421875Q9.80357,6.4966857421875,9.96801,6.4468037421875Q10.13245,6.3969207421875,10.299140000000001,6.3551667421874996Q10.46583,6.3134127421875,10.63437,6.2798887421875Q10.80291,6.2463647421875,10.97289,6.2211501421875Q11.14287,6.1959359421875,11.313880000000001,6.1790926421875Q11.48489,6.1622493421875,11.65653,6.1538175421875Q11.82816,6.1453857421875,12,6.1453857421875Q12.17184,6.1453857421875,12.34347,6.1538175421875Q12.51511,6.1622493421875,12.686119999999999,6.1790926421875Q12.85713,6.1959359421875,13.02711,6.2211501421875Q13.19709,6.2463647421875,13.36563,6.2798887421875Q13.53417,6.3134127421875,13.70086,6.3551667421874996Q13.86755,6.3969207421875,14.03199,6.4468037421875Q14.19643,6.4966857421875,14.35823,6.5545767421875Q14.52002,6.6124687421875,14.67878,6.6782287421875Q14.83754,6.7439897421875,14.99288,6.8174607421874995Q15.1482,6.8909317421875,15.2998,6.9719367421875Q15.4513,7.0529417421875,15.5987,7.1412847421875Q15.7461,7.2296257421875,15.889,7.3250957421875Q16.0319,7.4205657421875,16.1699,7.5229357421875Q16.3079,7.6252957421875,16.4408,7.7343157421874995Q16.5736,7.8433257421875,16.7009,7.9587257421875Q16.828200000000002,8.0741257421875,16.9497,8.1956357421875Q17.0713,8.317145742187499,17.186700000000002,8.4444757421875Q17.3021,8.5717957421875,17.411099999999998,8.7046357421875Q17.5201,8.8374657421875,17.622500000000002,8.9754857421875Q17.724800000000002,9.1135157421875,17.8203,9.2563957421875Q17.9158,9.3992757421875,18.0041,9.5466657421875Q18.092399999999998,9.6940557421875,18.1734,9.8456057421875Q18.2545,9.9971557421875,18.3279,10.1524957421875Q18.401400000000002,10.3078457421875,18.4672,10.4666057421875Q18.532899999999998,10.625365742187501,18.5908,10.787155742187501Q18.648699999999998,10.9489557421875,18.6986,11.1133957421875Q18.7485,11.2778357421875,18.7902,11.444525742187501Q18.832,11.6112157421875,18.8655,11.7797557421875Q18.899,11.9482957421875,18.9242,12.1182757421875Q18.9494,12.2882557421875,18.9663,12.459265742187501Q18.9831,12.6302757421875,18.9916,12.8019157421875Q19,12.9735457421875,19,13.1453857421875Z" fill="#C2681B" fill-opacity="1"/></g><g><path d="M12.000021953125,19.3678060546875C8.536601953125,19.406506054687497,5.708251953125,16.609566054687498,5.708251953125,13.1459360546875C5.708253021245,9.6823060546875,8.536601953125,6.8853895546875,12.000021953125,6.9241023256875C15.409111953125,6.9622062546875,18.152651953125,9.7366260546875,18.152651953125,13.1459360546875C18.152651953125,16.5552460546875,15.409111953125,19.3297060546875,12.000021953125,19.3678060546875Z" fill="#E19449" fill-opacity="1"/></g></g><g><path d="M10.986654921875001,12.4608857421875L11.810184921874999,12.4608857421875C12.202334921875,12.4608857421875,12.492884921875,12.3628557421875,12.681834921875,12.1667757421875C12.870784921875,11.9706957421875,12.965254921875001,11.710445742187499,12.965254921875001,11.386025742187499C12.965254921875001,11.0722957421875,12.870784921875,10.8280857421875,12.681834921875,10.6534057421875C12.496454921875,10.4787157421875,12.239764921875,10.391375742187499,11.911784921875,10.391375742187499C11.615884921875,10.391375742187499,11.368114921875,10.4733657421875,11.168474921875,10.6373657421875C10.968824921875001,10.7977857421875,10.869004921875,11.0081257421875,10.869004921875,11.2683757421875L9.323551721875,11.2683757421875C9.323551721875,10.8619557421875,9.432285921875,10.4983257421875,9.649753921875,10.1774657421875C9.870789921875,9.8530517421875,10.177381921875,9.5999307421875,10.569544921875,9.4181117421875C10.965254921875,9.2362948421875,11.400194921875,9.1453857421875,11.874344921875,9.1453857421875C12.697874921875,9.1453857421875,13.343154921875,9.3432467421875,13.810194921875,9.7389697421875C14.277194921875001,10.1311237421875,14.510694921875,10.6730157421875,14.510694921875,11.3646357421875C14.510694921875,11.721145742187499,14.401954921875,12.049125742187499,14.184514921875,12.3485957421875C13.967034921875001,12.6480557421875,13.681824921875,12.877995742187501,13.328894921875001,13.0384257421875C13.767384921875,13.195285742187501,14.093614921875,13.430605742187499,14.307494921875,13.7442857421875C14.524984921875,14.0580557421875,14.633724921875,14.4287757421875,14.633724921875,14.8566257421875C14.633724921875,15.5482357421875,14.380604921875001,16.1025857421875,13.874354921875,16.5197157421875C13.371674921875,16.9367957421875,12.705004921875,17.1453857421875,11.874344921875,17.1453857421875C11.097164921875,17.1453857421875,10.460804921875,16.9404057421875,9.965262921875,16.5303957421875C9.473282921875,16.1204257421875,9.227294921875,15.578535742187501,9.227294921875,14.9047257421875L10.772744921875,14.9047257421875C10.772744921875,15.1970457421875,10.881484921875,15.4359357421875,11.098944921875,15.621295742187499C11.319984921875001,15.8067057421875,11.590924921875,15.8993857421875,11.911784921875,15.8993857421875C12.278984921875,15.8993857421875,12.565974921875,15.8031457421875,12.772744921875,15.6106157421875C12.983084921875001,15.4145357421875,13.088254921875,15.1560757421875,13.088254921875,14.8352257421875C13.088254921875,14.0580557421875,12.660444921875,13.6694457421875,11.804834921874999,13.6694457421875L10.986654921875001,13.6694457421875L10.986654921875001,12.4608857421875Z" fill="#FFE6BF" fill-opacity="1"/></g></g></g></g></svg>