<svg xmlns="http://www.w3.org/2000/svg" xmlns:xlink="http://www.w3.org/1999/xlink" fill="none" version="1.1" width="24" height="24" viewBox="0 0 24 24"><defs><clipPath id="master_svg0_4030_13693"><rect x="0" y="0" width="24" height="24" rx="0"/></clipPath></defs><g><g clip-path="url(#master_svg0_4030_13693)"></g><g><g transform="matrix(0,1,-1,0,19,-3)"><g transform="matrix(0,1,-1,0,24,-8)"><path d="M24.35714,8L16.642857,8C16.287817,8,16,8.279822,16,8.625C16,8.970178,16.287817,9.25,16.642857,9.25L24.35714,9.25C24.71218,9.25,25,8.970178,25,8.625C25,8.279822,24.71218,8,24.35714,8Z" fill-rule="evenodd" fill="#38363C" fill-opacity="1"/></g><g transform="matrix(-1,1.2246468525851679e-16,-1.2246468525851679e-16,-1,39.5,34)"><path d="M27.43306,21.95457L24.125,18.55199L20.81718,21.95433C20.699732,22.07513,20.54076,22.14286,20.375,22.14286C20.20924,22.14286,20.050268,22.07513,19.933058,21.95457C19.8231901,21.84156,19.75818528,21.69051,19.750721551,21.53088C19.750721551,21.53088,19.75,21.5,19.75,21.5C19.75,21.3295,19.815848,21.16599,19.933058,21.04543L23.68306,17.188288C23.80027,17.0677293,23.95924,16.9999999616827,24.125,17C24.29076,17,24.44973,17.0677294,24.56694,17.188288L28.316940000000002,21.04543C28.434150000000002,21.16599,28.5,21.3295,28.5,21.5C28.5,21.6705,28.434150000000002,21.83401,28.316940000000002,21.95457C28.199730000000002,22.07513,28.04076,22.14286,27.875,22.14286C27.70924,22.14286,27.55027,22.07513,27.43306,21.95457Z" fill-rule="evenodd" fill="#38363C" fill-opacity="1"/></g></g><g transform="matrix(0,-1,1,0,-3.8000030517578125,29.800003051757812)"><g transform="matrix(0,1,-1,0,34.80000305175781,-1.1999969482421875)"><path d="M26.35714,16.800003051757812L18.642857,16.800003051757812C18.287817,16.800003051757812,18,17.079825051757812,18,17.425003051757812C18,17.770181051757813,18.287817,18.050003051757812,18.642857,18.050003051757812L26.35714,18.050003051757812C26.71218,18.050003051757812,27,17.770181051757813,27,17.425003051757812C27,17.079825051757812,26.71218,16.800003051757812,26.35714,16.800003051757812Z" fill-rule="evenodd" fill="#38363C" fill-opacity="1"/></g><g transform="matrix(-1,1.2246468525851679e-16,-1.2246468525851679e-16,-1,43.5,51.600006103515625)"><path d="M29.43306,30.754573051757813L26.125,27.351993051757812L22.81718,30.75433305175781C22.699732,30.875133051757814,22.54076,30.94286305175781,22.375,30.94286305175781C22.20924,30.94286305175781,22.050268,30.875133051757814,21.933058,30.754573051757813C21.8231901,30.641563051757814,21.75818528,30.490513051757812,21.750721551,30.330883051757812C21.750721551,30.330883051757812,21.75,30.300003051757812,21.75,30.300003051757812C21.75,30.129503051757812,21.815848,29.965993051757813,21.933058,29.845433051757812L25.68306,25.988291051757813C25.80027,25.867732351757812,25.95924,25.800003013440513,26.125,25.800003051757812C26.29076,25.800003051757812,26.44973,25.867732451757814,26.56694,25.988291051757813L30.316940000000002,29.845433051757812C30.434150000000002,29.965993051757813,30.5,30.129503051757812,30.5,30.300003051757812C30.5,30.470503051757813,30.434150000000002,30.63401305175781,30.316940000000002,30.754573051757813C30.199730000000002,30.875133051757814,30.04076,30.94286305175781,29.875,30.94286305175781C29.70924,30.94286305175781,29.55027,30.875133051757814,29.43306,30.754573051757813Z" fill-rule="evenodd" fill="#38363C" fill-opacity="1"/></g></g></g></g></svg>