<svg xmlns="http://www.w3.org/2000/svg" xmlns:xlink="http://www.w3.org/1999/xlink" fill="none" version="1.1" width="24" height="24" viewBox="0 0 24 24"><defs><clipPath id="master_svg0_3105_4079"><rect x="0" y="0" width="24" height="24" rx="0"/></clipPath></defs><g><g clip-path="url(#master_svg0_3105_4079)"></g><g><path d="M22,12Q22,12.2455,21.988,12.4907Q21.9759,12.7359,21.9518,12.9802Q21.9278,13.2245,21.8918,13.4673Q21.8557,13.7101,21.8078,13.9509Q21.76,14.1917,21.7003,14.4298Q21.6407,14.6679,21.5694,14.9028Q21.4981,15.1378,21.4154,15.3689Q21.3327,15.6,21.2388,15.8268Q21.1448,16.0536,21.0399,16.2755Q20.9349,16.497500000000002,20.8192,16.714Q20.7035,16.930500000000002,20.5773,17.141Q20.4511,17.351599999999998,20.3147,17.5557Q20.1783,17.7598,20.0321,17.957Q19.8858,18.1542,19.7301,18.3439Q19.5744,18.5337,19.4095,18.7156Q19.2446,18.8975,19.0711,19.0711Q18.8975,19.2446,18.7156,19.4095Q18.5337,19.5744,18.3439,19.7301Q18.1542,19.8858,17.957,20.0321Q17.7598,20.1783,17.5557,20.3147Q17.351599999999998,20.4511,17.141,20.5773Q16.930500000000002,20.7035,16.714,20.8192Q16.497500000000002,20.9349,16.2755,21.0399Q16.0536,21.1448,15.8268,21.2388Q15.6,21.3327,15.3689,21.4154Q15.1378,21.4981,14.9028,21.5694Q14.6679,21.6407,14.4298,21.7003Q14.1917,21.76,13.9509,21.8078Q13.7101,21.8557,13.4673,21.8918Q13.2245,21.9278,12.9802,21.9518Q12.7359,21.9759,12.4907,21.988Q12.2455,22,12,22Q11.75451,22,11.50932,21.988Q11.26413,21.9759,11.01983,21.9518Q10.77552,21.9278,10.53269,21.8918Q10.28987,21.8557,10.0491,21.8078Q9.80833,21.76,9.5702,21.7003Q9.33207,21.6407,9.09715,21.5694Q8.86224,21.4981,8.6311,21.4154Q8.39996,21.3327,8.17316,21.2388Q7.94636,21.1448,7.72445,21.0399Q7.50253,20.9349,7.28603,20.8192Q7.06953,20.7035,6.85897,20.5773Q6.64841,20.4511,6.4443,20.3147Q6.24018,20.1783,6.04301,20.0321Q5.845829999999999,19.8858,5.65607,19.7301Q5.4663,19.5744,5.284409999999999,19.4095Q5.10252,19.2446,4.928929999999999,19.0711Q4.75535,18.8975,4.59049,18.7156Q4.42563,18.5337,4.2699,18.3439Q4.11416,18.1542,3.96792,17.957Q3.8216900000000003,17.7598,3.6853,17.5557Q3.54892,17.351599999999998,3.42271,17.141Q3.29651,16.930500000000002,3.18079,16.714Q3.06507,16.497500000000002,2.960107,16.2755Q2.855148,16.0536,2.761205,15.8268Q2.667261,15.6,2.584559,15.3689Q2.501857,15.1378,2.430597,14.9028Q2.359336,14.6679,2.299687,14.4298Q2.240039,14.1917,2.192147,13.9509Q2.144255,13.7101,2.108235,13.4673Q2.0722146,13.2245,2.0481527,12.9802Q2.0240909,12.7359,2.0120454,12.4907Q2,12.2455,2,12Q2,11.75451,2.0120454,11.50932Q2.0240909,11.26413,2.0481527,11.01983Q2.0722146,10.77552,2.108235,10.53269Q2.144255,10.28987,2.192147,10.0491Q2.240039,9.80833,2.299687,9.5702Q2.359336,9.33207,2.430597,9.09715Q2.501857,8.86224,2.584559,8.6311Q2.667261,8.39996,2.761205,8.17316Q2.855148,7.94636,2.960107,7.72445Q3.06507,7.50253,3.18079,7.28603Q3.29651,7.06953,3.42271,6.85897Q3.54892,6.64841,3.6853,6.4443Q3.8216900000000003,6.24018,3.96792,6.04301Q4.11416,5.845829999999999,4.2699,5.65607Q4.42563,5.4663,4.59049,5.284409999999999Q4.75535,5.10252,4.928929999999999,4.928929999999999Q5.10252,4.75535,5.284409999999999,4.59049Q5.4663,4.42563,5.65607,4.2699Q5.845829999999999,4.11416,6.04301,3.96792Q6.24018,3.8216900000000003,6.4443,3.6853Q6.64841,3.54892,6.85897,3.42271Q7.06953,3.29651,7.28603,3.18079Q7.50253,3.06507,7.72445,2.960107Q7.94636,2.855148,8.17316,2.761205Q8.39996,2.667261,8.6311,2.584559Q8.86224,2.501857,9.09715,2.430597Q9.33207,2.359336,9.5702,2.299687Q9.80833,2.240039,10.0491,2.192147Q10.28987,2.144255,10.53269,2.108235Q10.77552,2.0722146,11.01983,2.0481527Q11.26413,2.0240909,11.50932,2.0120454Q11.75451,2,12,2Q12.2455,2,12.4907,2.0120454Q12.7359,2.0240909,12.9802,2.0481527Q13.2245,2.0722146,13.4673,2.108235Q13.7101,2.144255,13.9509,2.192147Q14.1917,2.240039,14.4298,2.299687Q14.6679,2.359336,14.9028,2.430597Q15.1378,2.501857,15.3689,2.584559Q15.6,2.667261,15.8268,2.761205Q16.0536,2.855148,16.2755,2.960107Q16.497500000000002,3.06507,16.714,3.18079Q16.930500000000002,3.29651,17.141,3.42271Q17.351599999999998,3.54892,17.5557,3.6853Q17.7598,3.8216900000000003,17.957,3.96792Q18.1542,4.11416,18.3439,4.2699Q18.5337,4.42563,18.7156,4.59049Q18.8975,4.75535,19.0711,4.928929999999999Q19.2446,5.10252,19.4095,5.284409999999999Q19.5744,5.4663,19.7301,5.65607Q19.8858,5.845829999999999,20.0321,6.04301Q20.1783,6.24018,20.3147,6.4443Q20.4511,6.64841,20.5773,6.85897Q20.7035,7.06953,20.8192,7.28603Q20.9349,7.50253,21.0399,7.72445Q21.1448,7.94636,21.2388,8.17316Q21.3327,8.39996,21.4154,8.6311Q21.4981,8.86224,21.5694,9.09715Q21.6407,9.33207,21.7003,9.5702Q21.76,9.80833,21.8078,10.0491Q21.8557,10.28987,21.8918,10.53269Q21.9278,10.77552,21.9518,11.01983Q21.9759,11.26413,21.988,11.50932Q22,11.75451,22,12Z" fill="#FFFFFF" fill-opacity="1"/></g><g><path d="M22,12C22,17.5228,17.5228,22,12,22C6.47715,22,2,17.5228,2,12C2,6.47715,6.47715,2,12,2C17.5228,2,22,6.47715,22,12ZM20.5,12Q20.5,10.37868,19.9032,8.8712Q19.2552,7.23439,18.0104,5.98959Q16.7656,4.7448,15.1288,4.0968Q13.6213,3.5,12,3.5Q10.37868,3.5,8.8712,4.0968Q7.23439,4.7448,5.98959,5.98959Q4.7448,7.23439,4.0968,8.8712Q3.5,10.37868,3.5,12Q3.5,13.6213,4.0968,15.1288Q4.7448,16.7656,5.98959,18.0104Q7.23439,19.2552,8.8712,19.9032Q10.37868,20.5,12,20.5Q13.6213,20.5,15.1288,19.9032Q16.7656,19.2552,18.0104,18.0104Q19.2552,16.7656,19.9032,15.1288Q20.5,13.6213,20.5,12Z" fill-rule="evenodd" fill="#CDCACF" fill-opacity="1"/></g><g transform="matrix(-1,0,0,-1,38,38)"><g transform="matrix(-1,0,0,1,57.1337890625,0)"><path d="M28.73774953125,22.685528739746093C28.50994303125,22.913334739746094,28.50994313125,23.282675739746093,28.73774953125,23.510495739746094C28.73774953125,23.510495739746094,31.28116453125,26.053905739746092,31.28116453125,26.053905739746092C31.28116453125,26.053905739746092,28.81064753125,28.524415739746093,28.81064753125,28.524415739746093C28.58284173125,28.75221573974609,28.58284153125,29.121575739746092,28.81064753125,29.349375739746094C28.81064753125,29.349375739746094,29.22312553125,29.761855739746093,29.22312553125,29.761855739746093C29.45093253125,29.989655739746095,29.82027453125,29.989655739746095,30.04808453125,29.761855739746093C30.04808453125,29.761855739746093,33.34791453125,26.462015739746093,33.34791453125,26.462015739746093C33.57572453125,26.234215739746094,33.57572453125,25.864875739746093,33.34791453125,25.637065739746095C33.34791453125,25.637065739746095,32.93544453125,25.224585739746093,32.93544453125,25.224585739746093C32.91499453125,25.204135739746093,32.89341453125,25.185535739746093,32.87090453125,25.168765739746092C32.87090453125,25.168765739746092,29.97519453125,22.273050739746093,29.97519453125,22.273050739746093C29.74737453125,22.045244339746095,29.37803353125,22.045244339746095,29.15022753125,22.273050739746093C29.15022753125,22.273050739746093,28.73774953125,22.685528739746093,28.73774953125,22.685528739746093C28.73774953125,22.685528739746093,28.73774953125,22.685528739746093,28.73774953125,22.685528739746093Z" fill="#6B7280" fill-opacity="1"/></g></g></g></svg>