<svg xmlns="http://www.w3.org/2000/svg" xmlns:xlink="http://www.w3.org/1999/xlink" fill="none" version="1.1" width="24" height="24" viewBox="0 0 24 24"><defs><clipPath id="master_svg0_450_29667"><rect x="0" y="0" width="24" height="24" rx="0"/></clipPath><clipPath id="master_svg1_3105_3985"><rect x="0" y="0" width="24" height="24" rx="0"/></clipPath></defs><g clip-path="url(#master_svg0_450_29667)"><g clip-path="url(#master_svg1_3105_3985)"></g><g><g><g><path d="M3,8L21,8C21.5523,8,22,8.335786,22,8.75C22,9.16421,21.5523,9.5,21,9.5L3,9.5C2.447715,9.5,2,9.16421,2,8.75C2,8.335786,2.447715,8,3,8Z" fill-rule="evenodd" fill="#38363C" fill-opacity="1"/></g><g transform="matrix(0,1,-1,0,12,-8)"><path d="M11,2L29,2C29.5523,2,30,2.335786,30,2.75C30,3.1642099999999997,29.5523,3.5,29,3.5L11,3.5C10.447715,3.5,10,3.1642099999999997,10,2.75C10,2.335786,10.447715,2,11,2Z" fill-rule="evenodd" fill="#38363C" fill-opacity="1"/></g><g><path d="M2,4.5L2,19.5Q2,20.5355,2.732233,21.2678Q3.46447,22,4.5,22L19.5,22Q20.5355,22,21.2678,21.2678Q22,20.5355,22,19.5L22,4.5Q22,3.46447,21.2678,2.732233Q20.5355,2,19.5,2L4.5,2Q3.46447,2,2.732233,2.732233Q2,3.46447,2,4.5ZM3.64642,20.3536Q3.49998,20.2071,3.5,20L3.5,4Q3.5,3.79289,3.64642,3.6464499999999997Q3.7928699999999997,3.5,4,3.5L20,3.5Q20.2071,3.5,20.3536,3.6464499999999997Q20.5,3.79289,20.5,4L20.5,20Q20.5,20.2071,20.3536,20.3536Q20.2071,20.5,20,20.5L4,20.5Q3.79289,20.5,3.64642,20.3536Z" fill-rule="evenodd" fill="#38363C" fill-opacity="1"/></g></g></g></g></svg>