<svg xmlns="http://www.w3.org/2000/svg" xmlns:xlink="http://www.w3.org/1999/xlink" fill="none" version="1.1" width="24" height="24" viewBox="0 0 24 24"><defs><clipPath id="master_svg0_5042_13921"><rect x="0" y="0" width="24" height="24" rx="0"/></clipPath></defs><g><g clip-path="url(#master_svg0_5042_13921)"></g><g><path d="M3,9L3,6C3,4.89543,3.89543,4,5,4L19,4C20.1046,4,21,4.89543,21,6L21,9C21,10.104569999999999,20.1046,11,19,11L5,11C3.89543,11,3,10.104569999999999,3,9ZM4.2,9Q4.2,9.33137,4.43431,9.56569Q4.66863,9.8,5,9.8L19,9.8Q19.3314,9.8,19.5657,9.56569Q19.8,9.33137,19.8,9L19.8,6Q19.8,5.66863,19.5657,5.43431Q19.3314,5.2,19,5.2L5,5.2Q4.66863,5.2,4.43431,5.43431Q4.2,5.66863,4.2,6L4.2,9Z" fill-rule="evenodd" fill="#000000" fill-opacity="1"/></g><g><path d="M3,18L3,15C3,13.89543,3.89543,13,5,13L9,13C10.104569999999999,13,11,13.89543,11,15L11,18C11,19.10457,10.104569999999999,20,9,20L5,20C3.89543,20,3,19.10457,3,18ZM4.2,18Q4.2,18.33137,4.43431,18.56569Q4.66863,18.8,5,18.8L9,18.8Q9.33137,18.8,9.56569,18.56569Q9.8,18.33137,9.8,18L9.8,15Q9.8,14.66863,9.56569,14.43431Q9.33137,14.2,9,14.2L5,14.2Q4.66863,14.2,4.43431,14.43431Q4.2,14.66863,4.2,15L4.2,18Z" fill-rule="evenodd" fill="#000000" fill-opacity="1"/></g><g><path d="M13,18L13,15C13,13.89543,13.89543,13,15,13L19,13C20.10457,13,21,13.89543,21,15L21,18C21,19.10457,20.10457,20,19,20L15,20C13.89543,20,13,19.10457,13,18ZM14.2,18Q14.2,18.33137,14.43431,18.56569Q14.66863,18.8,15,18.8L19,18.8Q19.33137,18.8,19.56569,18.56569Q19.8,18.33137,19.8,18L19.8,15Q19.8,14.66863,19.56569,14.43431Q19.33137,14.2,19,14.2L15,14.2Q14.66863,14.2,14.43431,14.43431Q14.2,14.66863,14.2,15L14.2,18Z" fill-rule="evenodd" fill="#000000" fill-opacity="1"/></g></g></svg>