<svg xmlns="http://www.w3.org/2000/svg" xmlns:xlink="http://www.w3.org/1999/xlink" fill="none" version="1.1" width="24" height="24" viewBox="0 0 24 24"><defs><clipPath id="master_svg0_450_056109"><rect x="0" y="0" width="24" height="24" rx="0"/></clipPath><clipPath id="master_svg1_3105_3986"><rect x="0" y="0" width="24" height="24" rx="0"/></clipPath></defs><g clip-path="url(#master_svg0_450_056109)"><g clip-path="url(#master_svg1_3105_3986)"></g><g><g><path d="M2,6.5L2,5.5C2,5.223858,2.447715,5,3,5L7,5C7.55229,5,8,5.223858,8,5.5L8,6.5C8,6.77614,7.55229,7,7,7L3,7C2.447715,7,2,6.77614,2,6.5Z" fill="#38363C" fill-opacity="1"/></g><g><path d="M2,12.5L2,11.5C2,11.223858,2.447715,11,3,11L7,11C7.55229,11,8,11.223858,8,11.5L8,12.5C8,12.77614,7.55229,13,7,13L3,13C2.447715,13,2,12.77614,2,12.5Z" fill="#38363C" fill-opacity="1"/></g><g><path d="M2,18.5L2,17.5C2,17.223858,2.447715,17,3,17L7,17C7.55229,17,8,17.223858,8,17.5L8,18.5C8,18.77614,7.55229,19,7,19L3,19C2.447715,19,2,18.77614,2,18.5Z" fill="#38363C" fill-opacity="1"/></g><g><path d="M9.66668701171875,5.7L9.66668701171875,18.3Q9.66668701171875,19.4184,10.34400301171875,20.2092Q11.02131701171875,21,11.97918701171875,21L19.68748701171875,21Q20.64538701171875,21,21.32268701171875,20.2092Q21.99998701171875,19.4184,21.99998701171875,18.3L21.99998701171875,5.7Q21.99998701171875,4.58162,21.32268701171875,3.790812Q20.64538701171875,3,19.68748701171875,3L11.97918701171875,3Q11.02131701171875,3,10.34400301171875,3.790812Q9.66668701171875,4.58162,9.66668701171875,5.7ZM11.48325701171875,19.2334Q11.16668701171875,18.863799999999998,11.16668701171875,18.3L11.16668701171875,5.7Q11.16668701171875,5.1361799999999995,11.48325701171875,4.76656Q11.71156701171875,4.5,11.97918701171875,4.5L19.68748701171875,4.5Q19.95518701171875,4.5,20.18348701171875,4.76656Q20.49998701171875,5.1361799999999995,20.49998701171875,5.7L20.49998701171875,18.3Q20.49998701171875,18.863799999999998,20.18348701171875,19.2334Q19.95518701171875,19.5,19.68748701171875,19.5L11.97918701171875,19.5Q11.71156701171875,19.5,11.48325701171875,19.2334Z" fill-rule="evenodd" fill="#38363C" fill-opacity="1"/></g></g></g></svg>