<svg xmlns="http://www.w3.org/2000/svg" xmlns:xlink="http://www.w3.org/1999/xlink" fill="none" version="1.1" width="24" height="24" viewBox="0 0 24 24"><defs><clipPath id="master_svg0_3253_04053"><rect x="0" y="0" width="24" height="24" rx="0"/></clipPath><clipPath id="master_svg1_3253_04054"><rect x="0" y="0" width="24" height="24" rx="0"/></clipPath></defs><g clip-path="url(#master_svg0_3253_04053)"><g clip-path="url(#master_svg1_3253_04054)"></g><g><path d="M4.579934140624999,21.083303735351564L4.576654140625,21.083303735351564Q3.1745441406249997,21.088103735351563,2.446746140625,19.888703735351562Q1.718092140625,18.68800373535156,2.3720781406249998,17.444903735351563L9.797024140625,3.4084737353515626Q10.121184140625,2.7958097353515625,10.714894140625,2.4382567353515627Q11.308594140625,2.0807036757469626,12.001654140625,2.0807037353515625Q12.694744140625,2.0807035565375624,13.288444140625,2.4382567353515627Q13.882144140625,2.7958107353515627,14.206244140625,3.4084037353515626L21.630444140625,17.443503735351563Q22.285944140625,18.68930373535156,21.555344140625,19.89080373535156Q20.824744140625,21.092203735351564,19.418544140625,21.083303735351564L4.579934140624999,21.083303735351564ZM4.576654140625,19.583303735351564L19.428044140625,19.583303735351564Q19.984544140625,19.586903735351562,20.273744140625,19.111403735351562Q20.562844140625,18.63590373535156,20.304544140625,18.144803735351562L12.880344140625,4.109923735351563Q12.600344140625,3.5807037353515625,12.001654140625,3.5807037353515625Q11.402924140625,3.5807037353515625,11.122944140625,4.109853735351562L3.699554140625,18.143403735351562Q3.440724140625,18.635303735351563,3.729104140625,19.110503735351564Q4.017484140625,19.58580373535156,4.573364140624999,19.583303735351564L4.576654140625,19.583303735351564Z" fill-rule="evenodd" fill="#38363C" fill-opacity="1"/></g><g transform="matrix(0,1,-1,0,20.833290100097656,-5.499961853027344)"><path d="M14.1666259765625,7.666664123535156L19.1666259765625,7.666664123535156C19.7189059765625,7.666664123535156,20.1666259765625,8.114379123535157,20.1666259765625,8.666664123535156C20.1666259765625,9.218944123535156,19.7189059765625,9.666664123535156,19.1666259765625,9.666664123535156L14.1666259765625,9.666664123535156C13.6143409765625,9.666664123535156,13.1666259765625,9.218944123535156,13.1666259765625,8.666664123535156C13.1666259765625,8.114379123535157,13.6143409765625,7.666664123535156,14.1666259765625,7.666664123535156Z" fill-rule="evenodd" fill="#38363C" fill-opacity="1"/></g><g><ellipse cx="12" cy="16.583335876464844" rx="1.25" ry="1.25" fill="#38363C" fill-opacity="1"/></g></g></svg>